<svg xmlns="http://www.w3.org/2000/svg" xmlns:xlink="http://www.w3.org/1999/xlink" width="97.533" height="97.533" viewBox="0 0 97.533 97.533">
  <defs>
    <filter id="Path_982547" x="0" y="0" width="97.533" height="97.533" filterUnits="userSpaceOnUse">
      <feOffset dy="3" input="SourceAlpha"/>
      <feGaussianBlur stdDeviation="3" result="blur"/>
      <feFlood flood-opacity="0.161"/>
      <feComposite operator="in" in2="blur"/>
      <feComposite in="SourceGraphic"/>
    </filter>
  </defs>
  <g id="Group_1206391" data-name="Group 1206391" transform="translate(-189.967 -10607.641)">
    <g id="Group_1206297" data-name="Group 1206297" transform="translate(0 87)">
      <g id="Group_1204177" data-name="Group 1204177" transform="translate(198.967 10526.641)">
        <g id="Group_1203356" data-name="Group 1203356" transform="translate(0)">
          <g id="Group_1202156" data-name="Group 1202156">
            <g id="Group_1177900" data-name="Group 1177900">
              <g id="Group_1172010" data-name="Group 1172010">
                <g id="Group_1171046" data-name="Group 1171046">
                  <g id="Group_1148525" data-name="Group 1148525">
                    <g transform="matrix(1, 0, 0, 1, -9, -6)" filter="url(#Path_982547)">
                      <g id="Path_982547-2" data-name="Path 982547" transform="translate(9 6)" fill="#fdfbec">
                        <path d="M 39.7666015625 78.033203125 C 34.59997940063477 78.033203125 29.58870124816895 77.02164459228516 24.87196731567383 75.02663421630859 C 20.31538963317871 73.099365234375 16.22284507751465 70.34000396728516 12.70802402496338 66.82518005371094 C 9.193202018737793 63.31035614013672 6.433835029602051 59.21781158447266 4.506568431854248 54.66123580932617 C 2.511557102203369 49.94449996948242 1.500001549720764 44.93322372436523 1.500001549720764 39.7666015625 C 1.500001549720764 34.59997940063477 2.511557102203369 29.58870124816895 4.506568431854248 24.87196731567383 C 6.433835029602051 20.31538963317871 9.193202018737793 16.22284507751465 12.70802402496338 12.70802402496338 C 16.22284507751465 9.193202018737793 20.31538963317871 6.433835029602051 24.87196731567383 4.506568431854248 C 29.58870124816895 2.511557102203369 34.59997940063477 1.500001549720764 39.7666015625 1.500001549720764 C 44.93322372436523 1.500001549720764 49.94449996948242 2.511557102203369 54.66123580932617 4.506568431854248 C 59.21781158447266 6.433835029602051 63.31035614013672 9.193202018737793 66.82518005371094 12.70802402496338 C 70.34000396728516 16.22284507751465 73.099365234375 20.31538963317871 75.02663421630859 24.87196731567383 C 77.02164459228516 29.58870124816895 78.033203125 34.59997940063477 78.033203125 39.7666015625 C 78.033203125 44.93322372436523 77.02164459228516 49.94449996948242 75.02663421630859 54.66123580932617 C 73.099365234375 59.21781158447266 70.34000396728516 63.31035614013672 66.82518005371094 66.82518005371094 C 63.31035614013672 70.34000396728516 59.21781158447266 73.099365234375 54.66123580932617 75.02663421630859 C 49.94449996948242 77.02164459228516 44.93322372436523 78.033203125 39.7666015625 78.033203125 Z" stroke="none"/>
                        <path d="M 39.7666015625 3 C 34.80181503295898 3 29.98714065551758 3.971687316894531 25.45630264282227 5.888076782226562 C 21.07851409912109 7.739715576171875 17.146240234375 10.39113616943359 13.76869201660156 13.76869201660156 C 10.39113616943359 17.146240234375 7.739715576171875 21.07851409912109 5.888076782226562 25.45630264282227 C 3.971687316894531 29.98714065551758 3 34.80181503295898 3 39.7666015625 C 3 44.73138809204102 3.971687316894531 49.54606628417969 5.888076782226562 54.076904296875 C 7.739715576171875 58.45468902587891 10.39113616943359 62.386962890625 13.76869201660156 65.76451110839844 C 17.146240234375 69.14206695556641 21.07851409912109 71.79348754882812 25.45630264282227 73.64512634277344 C 29.98714065551758 75.56151580810547 34.80181503295898 76.533203125 39.7666015625 76.533203125 C 44.73138809204102 76.533203125 49.54606628417969 75.56151580810547 54.076904296875 73.64512634277344 C 58.45468902587891 71.79348754882812 62.386962890625 69.14206695556641 65.76451110839844 65.76451110839844 C 69.14206695556641 62.386962890625 71.79348754882812 58.45468902587891 73.64512634277344 54.076904296875 C 75.56151580810547 49.54606628417969 76.533203125 44.73138809204102 76.533203125 39.7666015625 C 76.533203125 34.80181503295898 75.56151580810547 29.98714065551758 73.64512634277344 25.45630264282227 C 71.79348754882812 21.07851409912109 69.14206695556641 17.146240234375 65.76451110839844 13.76869201660156 C 62.386962890625 10.39113616943359 58.45468902587891 7.739715576171875 54.076904296875 5.888076782226562 C 49.54606628417969 3.971687316894531 44.73138809204102 3 39.7666015625 3 M 39.7666015625 0 C 61.72908782958984 0 79.533203125 17.80411529541016 79.533203125 39.7666015625 C 79.533203125 61.72908782958984 61.72908782958984 79.533203125 39.7666015625 79.533203125 C 17.80411529541016 79.533203125 0 61.72908782958984 0 39.7666015625 C 0 17.80411529541016 17.80411529541016 0 39.7666015625 0 Z" stroke="none" fill="#83793c"/>
                      </g>
                    </g>
                  </g>
                </g>
              </g>
            </g>
          </g>
        </g>
      </g>
      <g id="gestion-de-proyectos" transform="translate(207.601 10540.16)">
        <path id="Path_1045204" data-name="Path 1045204" d="M88.839,81.586a11.664,11.664,0,0,1-4.11,8.745A6.539,6.539,0,0,0,83.665,91.9a7.157,7.157,0,0,0-.654,3.389H72.2a6.991,6.991,0,0,0-.67-3.389,6.424,6.424,0,0,0-1.049-1.569,11.632,11.632,0,0,1-4.108-8.91,11.234,11.234,0,0,1,22.466.164Zm0,0" transform="translate(-59.466 -62.584)" fill="#fed22b"/>
        <path id="Path_1045205" data-name="Path 1045205" d="M75.192,91.9a6.991,6.991,0,0,1,.67,3.389H72.2A7,7,0,0,0,71.53,91.9a6.429,6.429,0,0,0-1.049-1.569,11.63,11.63,0,0,1-4.108-8.91A11.237,11.237,0,0,1,79.438,70.5a11.273,11.273,0,0,0-9.4,10.919,11.631,11.631,0,0,0,4.108,8.91A6.443,6.443,0,0,1,75.192,91.9Zm0,0" transform="translate(-59.466 -62.585)" fill="#fdc202"/>
        <path id="Path_1045206" data-name="Path 1045206" d="M133.2,309.113v3.318a5.405,5.405,0,0,1-10.811,0v-3.318Zm0,0" transform="translate(-109.656 -276.502)" fill="#63a6fd"/>
        <path id="Path_1045207" data-name="Path 1045207" d="M129.631,317.516a5.409,5.409,0,0,1-7.236-5.087V309.11h3.661v3.318A5.406,5.406,0,0,0,129.631,317.516Zm0,0" transform="translate(-109.66 -276.499)" fill="#4395fb"/>
        <path id="Path_1045208" data-name="Path 1045208" d="M279.652,270.146l-3.6.635a8.854,8.854,0,0,1-.33,1.882l3.167,1.827a.643.643,0,0,1,.235.879l-1.486,2.574a.643.643,0,0,1-.879.235l-3.169-1.829a8.892,8.892,0,0,1-1.462,1.228l1.251,3.437a.644.644,0,0,1-.385.825l-.287.1-2.506.911a.643.643,0,0,1-.824-.384l-.931-2.56-.229-.629-.091-.249c-.055.005-.109.011-.163.015a8.809,8.809,0,0,1-1.747-.015l-1.251,3.437a.644.644,0,0,1-.825.384l-2.792-1.016a.644.644,0,0,1-.385-.825l1.251-3.437a8.875,8.875,0,0,1-1.462-1.228l-3.169,1.829a.643.643,0,0,1-.879-.235l-1.486-2.574a.643.643,0,0,1,.235-.879l3.167-1.827a8.93,8.93,0,0,1-.33-1.882l-3.6-.635a.644.644,0,0,1-.522-.746l.516-2.926a.644.644,0,0,1,.746-.522l3.6.635a8.9,8.9,0,0,1,.957-1.654l-2.352-2.8a.644.644,0,0,1,.08-.907l2.276-1.91a.643.643,0,0,1,.906.079l2.351,2.8a8.824,8.824,0,0,1,1.8-.654v-3.656a.643.643,0,0,1,.643-.643h2.971a.643.643,0,0,1,.643.643v3.656a8.824,8.824,0,0,1,1.8.654l2.35-2.8a.643.643,0,0,1,.906-.079l2.276,1.91a.644.644,0,0,1,.08.907l-2.352,2.8a8.9,8.9,0,0,1,.957,1.654l3.6-.635a.643.643,0,0,1,.745.522l.516,2.926A.643.643,0,0,1,279.652,270.146Zm0,0" transform="translate(-227.711 -230.029)" fill="#1980f9"/>
        <path id="Path_1045209" data-name="Path 1045209" d="M265.653,276.126a13.2,13.2,0,0,1,3.649-17.348v-.9a.643.643,0,0,0-.643-.643h-2.971a.643.643,0,0,0-.643.643v3.656a8.8,8.8,0,0,0-1.8.654l-2.35-2.8a.643.643,0,0,0-.906-.08l-2.276,1.91a.644.644,0,0,0-.079.907l2.352,2.8a8.871,8.871,0,0,0-.957,1.654l-3.6-.635a.644.644,0,0,0-.746.522l-.516,2.926a.643.643,0,0,0,.522.746l3.6.635a8.955,8.955,0,0,0,.33,1.882l-3.167,1.828a.644.644,0,0,0-.235.879l1.486,2.573a.643.643,0,0,0,.879.235l3.169-1.829a8.873,8.873,0,0,0,1.463,1.228l-1.251,3.438a.644.644,0,0,0,.385.824l2.792,1.016a.643.643,0,0,0,.824-.384l1.251-3.438a8.812,8.812,0,0,0,1.747.015,13.226,13.226,0,0,1-2.312-2.919Zm0,0" transform="translate(-227.714 -230.025)" fill="#285fb3"/>
        <path id="Path_1045210" data-name="Path 1045210" d="M389.289,469.066l.229.629.931,2.56a.643.643,0,0,0,.824.384l2.505-.911a13.167,13.167,0,0,1-4.49-2.661Zm0,0" transform="translate(-348.784 -419.812)" fill="#285fb3"/>
        <path id="Path_1045211" data-name="Path 1045211" d="M331.676,326.594a6.255,6.255,0,0,1-7.768,6.061h0c-.056-.014-.113-.029-.169-.045a6.253,6.253,0,0,1-.548-11.857,6.062,6.062,0,0,1,3.816-.207A6.251,6.251,0,0,1,331.676,326.594Zm0,0" transform="translate(-285.969 -286.554)" fill="#63a6fd"/>
        <path id="Path_1045212" data-name="Path 1045212" d="M355.2,353.318a3.137,3.137,0,0,1-.925,2.233,3.189,3.189,0,0,1-.794.578,2.671,2.671,0,0,1-.306.137,3.157,3.157,0,1,1,.2-5.811,3.2,3.2,0,0,1,.9.63A3.137,3.137,0,0,1,355.2,353.318Zm0,0" transform="translate(-312.582 -313.279)" fill="#1980f9"/>
        <path id="Path_1045213" data-name="Path 1045213" d="M353.174,356.266a3.157,3.157,0,1,1,.2-5.811,3.52,3.52,0,0,0-.2,5.811Zm0,0" transform="translate(-312.582 -313.279)" fill="#285fb3"/>
        <path id="Path_1045214" data-name="Path 1045214" d="M313.159,19.377l-3.052.538a7.512,7.512,0,0,1-.28,1.595l2.684,1.549a.545.545,0,0,1,.2.745l-1.259,2.181a.546.546,0,0,1-.745.2l-2.685-1.55a7.52,7.52,0,0,1-1.239,1.041l1.06,2.913a.546.546,0,0,1-.326.7l-.243.089-2.123.772a.545.545,0,0,1-.7-.326l-.789-2.169-.194-.533-.077-.211c-.046,0-.092.01-.138.012a7.427,7.427,0,0,1-1.481-.012l-1.06,2.913a.545.545,0,0,1-.7.326l-2.366-.861a.546.546,0,0,1-.326-.7l1.06-2.913a7.523,7.523,0,0,1-1.239-1.04l-2.685,1.549a.545.545,0,0,1-.745-.2L292.452,23.8a.545.545,0,0,1,.2-.745l2.683-1.549a7.6,7.6,0,0,1-.28-1.595L292,19.377a.545.545,0,0,1-.442-.632l.437-2.48a.546.546,0,0,1,.632-.442l3.051.538a7.537,7.537,0,0,1,.811-1.4L294.5,12.585a.546.546,0,0,1,.068-.769l1.929-1.619a.545.545,0,0,1,.768.067l1.992,2.374a7.451,7.451,0,0,1,1.522-.554v-3.1a.545.545,0,0,1,.545-.545h2.518a.545.545,0,0,1,.545.545v3.1a7.46,7.46,0,0,1,1.522.554l1.992-2.374a.545.545,0,0,1,.768-.067l1.929,1.619a.546.546,0,0,1,.067.769l-1.993,2.374a7.535,7.535,0,0,1,.811,1.4l3.052-.538a.545.545,0,0,1,.631.442l.437,2.48a.545.545,0,0,1-.442.632Zm0,0" transform="translate(-261.216 -7.115)" fill="#1980f9"/>
        <path id="Path_1045215" data-name="Path 1045215" d="M301.294,24.444a11.188,11.188,0,0,1,3.092-14.7v-.76a.545.545,0,0,0-.545-.545h-2.517a.545.545,0,0,0-.546.545v3.1a7.452,7.452,0,0,0-1.522.554l-1.992-2.374a.545.545,0,0,0-.768-.067l-1.929,1.619a.546.546,0,0,0-.067.769l1.993,2.374a7.533,7.533,0,0,0-.811,1.4l-3.051-.538a.546.546,0,0,0-.632.442l-.437,2.48a.545.545,0,0,0,.443.632l3.052.538a7.59,7.59,0,0,0,.28,1.595l-2.683,1.549a.545.545,0,0,0-.2.745l1.259,2.181a.546.546,0,0,0,.745.2l2.685-1.55a7.564,7.564,0,0,0,1.24,1.041l-1.06,2.913a.546.546,0,0,0,.326.7l2.366.861a.545.545,0,0,0,.7-.326l1.06-2.913a7.453,7.453,0,0,0,1.48.013A11.211,11.211,0,0,1,301.294,24.444Zm0,0" transform="translate(-261.217 -7.111)" fill="#285fb3"/>
        <path id="Path_1045216" data-name="Path 1045216" d="M406.07,187.953l.194.533.789,2.169a.545.545,0,0,0,.7.325l2.123-.772a11.166,11.166,0,0,1-3.805-2.255Zm0,0" transform="translate(-363.819 -167.949)" fill="#285fb3"/>
        <path id="Path_1045217" data-name="Path 1045217" d="M357.247,67.213a5.3,5.3,0,0,1-6.583,5.136h0c-.048-.011-.1-.025-.143-.038a5.3,5.3,0,0,1-.464-10.048,5.134,5.134,0,0,1,3.234-.176A5.3,5.3,0,0,1,357.247,67.213Zm0,0" transform="translate(-310.587 -55.017)" fill="#63a6fd"/>
        <path id="Path_1045218" data-name="Path 1045218" d="M377.18,89.86a2.66,2.66,0,0,1-.784,1.892,2.7,2.7,0,0,1-.673.49,2.326,2.326,0,0,1-.26.116,2.677,2.677,0,1,1,1.716-2.5Zm0,0" transform="translate(-333.139 -77.664)" fill="#1980f9"/>
        <path id="Path_1045219" data-name="Path 1045219" d="M375.464,92.358a2.676,2.676,0,1,1,.172-4.924,2.983,2.983,0,0,0-.172,4.924Zm0,0" transform="translate(-333.139 -77.664)" fill="#285fb3"/>
        <g id="Group_1206296" data-name="Group 1206296" transform="translate(33.211 7.247)">
          <path id="Path_1045220" data-name="Path 1045220" d="M323.912,336.285h0c-.056-.013-.113-.029-.169-.045a6.254,6.254,0,0,1-.547-11.857,13.222,13.222,0,0,0,.718,11.9Zm0,0" transform="translate(-319.184 -297.43)" fill="#4395fb"/>
          <path id="Path_1045221" data-name="Path 1045221" d="M323.912,336.285h0c-.056-.013-.113-.029-.169-.045a6.254,6.254,0,0,1-.547-11.857,13.222,13.222,0,0,0,.718,11.9Zm0,0" transform="translate(-319.184 -297.43)" fill="#4395fb"/>
          <path id="Path_1045222" data-name="Path 1045222" d="M350.667,75.426h0c-.048-.012-.1-.025-.143-.039a5.3,5.3,0,0,1-.463-10.048,11.205,11.205,0,0,0,.608,10.085Zm0,0" transform="translate(-343.801 -65.34)" fill="#4395fb"/>
          <path id="Path_1045223" data-name="Path 1045223" d="M350.667,75.426h0c-.048-.012-.1-.025-.143-.039a5.3,5.3,0,0,1-.463-10.048,11.205,11.205,0,0,0,.608,10.085Zm0,0" transform="translate(-343.801 -65.34)" fill="#4395fb"/>
        </g>
        <path id="Path_1045224" data-name="Path 1045224" d="M285.06,13.013l2.476.437c.026.182.057.364.1.543l-2.177,1.257a1.332,1.332,0,0,0-.487,1.818l1.262,2.185a1.33,1.33,0,0,0,1.818.487l2.178-1.258q.205.184.422.355l-.86,2.363a1.33,1.33,0,0,0,.8,1.706l2.371.863a1.33,1.33,0,0,0,1.705-.8l.86-2.363c.185.007.367.007.552,0l.86,2.363a1.33,1.33,0,0,0,1.705.8l2.371-.863a1.33,1.33,0,0,0,.8-1.705l-.86-2.363q.216-.17.422-.354l2.178,1.257a1.33,1.33,0,0,0,1.818-.487l1.262-2.185a1.332,1.332,0,0,0-.487-1.818l-2.177-1.257c.038-.18.07-.361.1-.543l2.476-.437a1.332,1.332,0,0,0,1.079-1.541l-.438-2.485a1.33,1.33,0,0,0-1.542-1.08l-2.476.437q-.13-.243-.276-.478l1.616-1.926a1.33,1.33,0,0,0-.164-1.875L302.4,2.444a1.332,1.332,0,0,0-1.875.164l-1.615,1.925q-.257-.1-.519-.189V1.831A1.332,1.332,0,0,0,297.056.5h-2.523A1.332,1.332,0,0,0,293.2,1.831V4.344q-.263.086-.519.189l-1.616-1.925a1.333,1.333,0,0,0-1.875-.164l-1.932,1.622A1.329,1.329,0,0,0,287.1,5.94l1.616,1.926q-.146.234-.276.478l-2.475-.437a1.33,1.33,0,0,0-1.542,1.08l-.438,2.485a1.332,1.332,0,0,0,1.079,1.541Zm.863-3.519,2.822.5a.786.786,0,0,0,.854-.455,6.767,6.767,0,0,1,.728-1.258.785.785,0,0,0-.032-.968l-1.843-2.2L290.019,3.8l1.842,2.2a.784.784,0,0,0,.947.2,6.723,6.723,0,0,1,1.366-.5.785.785,0,0,0,.6-.762V2.07h2.046V4.935a.785.785,0,0,0,.6.762,6.718,6.718,0,0,1,1.365.5.785.785,0,0,0,.948-.2l1.842-2.2,1.567,1.315-1.843,2.2a.784.784,0,0,0-.032.968,6.813,6.813,0,0,1,.728,1.258.785.785,0,0,0,.854.455l2.822-.5.355,2.015-2.824.5a.784.784,0,0,0-.647.721,6.766,6.766,0,0,1-.251,1.431.785.785,0,0,0,.361.9l2.482,1.433-1.023,1.772-2.483-1.434a.785.785,0,0,0-.958.136,6.818,6.818,0,0,1-1.114.935.785.785,0,0,0-.3.92l.981,2.693-1.923.7-.98-2.694a.784.784,0,0,0-.821-.512,6.86,6.86,0,0,1-1.455,0,.784.784,0,0,0-.821.512l-.98,2.694-1.922-.7.98-2.693a.785.785,0,0,0-.3-.92,6.821,6.821,0,0,1-1.114-.935.784.784,0,0,0-.958-.136l-2.483,1.434-1.023-1.772,2.482-1.433a.785.785,0,0,0,.361-.9,6.766,6.766,0,0,1-.25-1.431.785.785,0,0,0-.647-.721l-2.824-.5Zm0,0" transform="translate(-254.415 0)"/>
        <path id="Path_1045225" data-name="Path 1045225" d="M345.225,66.372a6.089,6.089,0,1,0-4.306-10.394A6.1,6.1,0,0,0,345.225,66.372Zm0-10.606a4.52,4.52,0,1,1-3.2,7.715,4.525,4.525,0,0,1,3.2-7.715Zm0,0" transform="translate(-303.845 -48.11)"/>
        <path id="Path_1045226" data-name="Path 1045226" d="M370.926,85.925a3.387,3.387,0,1,0-5.782-2.395,3.384,3.384,0,0,0,5.782,2.395Zm-2.395-4.212a1.818,1.818,0,1,1-1.818,1.818,1.819,1.819,0,0,1,1.818-1.818Zm0,0" transform="translate(-327.152 -71.356)"/>
        <path id="Path_1045227" data-name="Path 1045227" d="M77.187,88.08A5.814,5.814,0,0,1,79.1,83.685a12.024,12.024,0,0,0-1.4-18.848.785.785,0,0,0-.877,1.3,10.455,10.455,0,0,1,1.215,16.388,7.718,7.718,0,0,0-.943,1.03H64.891a7.291,7.291,0,0,0-.928-1.021A10.453,10.453,0,0,1,74.216,64.866a.785.785,0,1,0,.482-1.493A12.024,12.024,0,0,0,62.906,83.695c2.261,2.061,1.9,4.4,1.9,8.044a6.2,6.2,0,0,0,9.033,5.5.784.784,0,0,0-.721-1.393,4.627,4.627,0,0,1-6.742-4.106V89.3h9.241v2.439a4.624,4.624,0,0,1-.594,2.269.785.785,0,1,0,1.366.772,6.191,6.191,0,0,0,.8-3.041c0-3.787,0-3.659,0-3.659Zm-1.562-.349H66.381a8.052,8.052,0,0,0-.6-2.605H76.2a7.587,7.587,0,0,0-.571,2.605Zm0,0" transform="translate(-52.845 -55.811)"/>
        <path id="Path_1045228" data-name="Path 1045228" d="M167.73,5.328a.784.784,0,0,0,.784-.784V1.284a.785.785,0,0,0-1.569,0V4.544A.784.784,0,0,0,167.73,5.328Zm0,0" transform="translate(-149.575)"/>
        <path id="Path_1045229" data-name="Path 1045229" d="M48.06,54.218a.785.785,0,0,0,.555-1.339l-2.3-2.3a.785.785,0,0,0-1.11,1.11c2.439,2.439,2.42,2.535,2.859,2.535Zm0,0" transform="translate(-40.292 -44.658)"/>
        <path id="Path_1045230" data-name="Path 1045230" d="M4.828,172.624a.784.784,0,0,0-.784-.784H.784a.784.784,0,1,0,0,1.569H4.044A.784.784,0,0,0,4.828,172.624Zm0,0" transform="translate(0 -153.512)"/>
        <path id="Path_1045231" data-name="Path 1045231" d="M46.345,271.9l-2.3,2.3a.785.785,0,0,0,1.11,1.11l2.3-2.3a.784.784,0,1,0-1.11-1.109Zm0,0" transform="translate(-39.252 -242.951)"/>
        <path id="Path_1045232" data-name="Path 1045232" d="M273.181,264.149a1.43,1.43,0,0,0,1.158-1.654l-.516-2.926a1.43,1.43,0,0,0-1.654-1.158l-3.016.532q-.2-.374-.422-.73l1.969-2.346a1.427,1.427,0,0,0-.176-2.012l-2.276-1.91a1.429,1.429,0,0,0-2.011.176l-1.968,2.345q-.39-.161-.793-.288v-3.062a1.429,1.429,0,0,0-1.428-1.428h-2.971a1.43,1.43,0,0,0-1.428,1.428v3.062q-.4.127-.793.288l-1.968-2.345a1.427,1.427,0,0,0-2.011-.176l-2.277,1.91a1.427,1.427,0,0,0-.176,2.012l1.969,2.346q-.227.355-.422.73l-3.016-.532a1.429,1.429,0,0,0-1.654,1.158l-.516,2.926a1.43,1.43,0,0,0,1.158,1.654l3.017.532q.054.419.145.83l-2.652,1.531a1.429,1.429,0,0,0-.522,1.951l1.486,2.574a1.43,1.43,0,0,0,1.951.523l2.653-1.532q.311.284.645.541l-1.048,2.879a1.429,1.429,0,0,0,.854,1.83l2.792,1.017a1.43,1.43,0,0,0,1.83-.854l1.047-2.879c.282.013.56.013.842,0l1.048,2.879a1.427,1.427,0,0,0,1.83.854l2.792-1.017a1.429,1.429,0,0,0,.854-1.83l-1.048-2.879q.333-.257.645-.541l2.654,1.532a1.426,1.426,0,0,0,1.95-.523l1.486-2.574a1.429,1.429,0,0,0-.523-1.951l-2.652-1.531c.061-.274.109-.551.146-.83Zm-4.461,2.424,3.044,1.757-1.345,2.329-3.046-1.759a.785.785,0,0,0-.958.136,8.179,8.179,0,0,1-1.334,1.121.784.784,0,0,0-.3.919l1.2,3.3-2.526.919c-1.841-5.057-.88-3.508-3.767-3.816a.784.784,0,0,0-.821.512l-1.2,3.3-2.527-.919,1.2-3.3a.784.784,0,0,0-.3-.919,8.177,8.177,0,0,1-1.334-1.121.785.785,0,0,0-.958-.136l-3.045,1.759-1.345-2.329,3.044-1.757a.784.784,0,0,0,.361-.9c-.813-2.809.895-2.112-4.41-3.048l.467-2.648,3.461.61a.786.786,0,0,0,.854-.455,8.14,8.14,0,0,1,.872-1.508.784.784,0,0,0-.032-.968l-2.26-2.694,2.06-1.728,2.259,2.693a.784.784,0,0,0,.947.2,8.083,8.083,0,0,1,1.637-.6.785.785,0,0,0,.6-.762v-3.515h2.689v3.515a.785.785,0,0,0,.6.762,8.082,8.082,0,0,1,1.637.6.784.784,0,0,0,.947-.2l2.259-2.693,2.06,1.729-2.26,2.694a.784.784,0,0,0-.033.968,8.123,8.123,0,0,1,.873,1.508.785.785,0,0,0,.854.455l3.462-.61.467,2.648-3.463.611a.784.784,0,0,0-.647.721,8.11,8.11,0,0,1-.3,1.716.784.784,0,0,0,.361.9Zm0,0" transform="translate(-221.088 -223.26)"/>
        <path id="Path_1045233" data-name="Path 1045233" d="M316.288,313.3a.785.785,0,1,0,.555,1.468,5.465,5.465,0,1,1-2.221,1.562.785.785,0,1,0-1.192-1.02,7.032,7.032,0,1,0,2.858-2.01Zm0,0" transform="translate(-279.302 -279.839)"/>
        <path id="Path_1045234" data-name="Path 1045234" d="M340.927,346.487a4.465,4.465,0,1,0-4.466-4.464A4.469,4.469,0,0,0,340.927,346.487Zm0-7.359a2.9,2.9,0,1,1-2.048,4.943A2.9,2.9,0,0,1,340.927,339.128Zm0,0" transform="translate(-301.453 -301.984)"/>
      </g>
    </g>
  </g>
</svg>
