<svg xmlns="http://www.w3.org/2000/svg" xmlns:xlink="http://www.w3.org/1999/xlink" width="108" height="108" viewBox="0 0 108 108">
  <defs>
    <filter id="Path_904820" x="0" y="0" width="108" height="108" filterUnits="userSpaceOnUse">
      <feOffset dy="3" input="SourceAlpha"/>
      <feGaussianBlur stdDeviation="3" result="blur"/>
      <feFlood flood-opacity="0.161"/>
      <feComposite operator="in" in2="blur"/>
      <feComposite in="SourceGraphic"/>
    </filter>
  </defs>
  <g id="Group_1206319" data-name="Group 1206319" transform="translate(-620 -900.686)">
    <g id="Group_1206122" data-name="Group 1206122" transform="translate(0 19.686)">
      <g id="Group_1203639" data-name="Group 1203639" transform="translate(0 81)">
        <g id="Group_1202437" data-name="Group 1202437" transform="translate(0.523 386.813)">
          <g id="Group_1177315" data-name="Group 1177315" transform="translate(-0.523 -112.813)">
            <g id="Group_1173585" data-name="Group 1173585" transform="translate(629 532)">
              <g id="Group_1173428" data-name="Group 1173428" transform="translate(0 0)">
                <g id="Group_1171958" data-name="Group 1171958">
                  <g id="Group_1167341" data-name="Group 1167341">
                    <g id="Group_1166792" data-name="Group 1166792">
                      <g transform="matrix(1, 0, 0, 1, -9, -6)" filter="url(#Path_904820)">
                        <g id="Path_904820-2" data-name="Path 904820" transform="translate(9 6)" fill="#fdfbec">
                          <path d="M 44.99999618530273 88.49999237060547 C 39.12687301635742 88.49999237060547 33.43022155761719 87.35006713867188 28.06829643249512 85.08216857910156 C 22.88852119445801 82.89130401611328 18.23629570007324 79.75457763671875 14.24084663391113 75.75914001464844 C 10.24540901184082 71.76369476318359 7.108683586120605 67.11146545410156 4.917821407318115 61.93169403076172 C 2.649921178817749 56.56976699829102 1.499996185302734 50.87311553955078 1.499996185302734 44.99999237060547 C 1.499996185302734 39.12686920166016 2.649921178817749 33.43021774291992 4.917821407318115 28.06829261779785 C 7.108683586120605 22.88851737976074 10.24540901184082 18.23630523681641 14.24084663391113 14.24085521697998 C 18.23629570007324 10.24540519714355 22.88852119445801 7.108692169189453 28.06829643249512 4.917829990386963 C 33.43022155761719 2.649929761886597 39.12687301635742 1.500004887580872 44.99999618530273 1.500004887580872 C 50.87311935424805 1.500004887580872 56.56977081298828 2.649929761886597 61.93169784545898 4.917829990386963 C 67.11147308349609 7.108692169189453 71.76369476318359 10.24540519714355 75.75914764404297 14.24085521697998 C 79.75458526611328 18.23630523681641 82.89131164550781 22.88851737976074 85.08216857910156 28.06829261779785 C 87.35007476806641 33.43021774291992 88.5 39.12686920166016 88.5 44.99999237060547 C 88.5 50.87311553955078 87.35007476806641 56.56976699829102 85.08216857910156 61.93169403076172 C 82.89131164550781 67.11146545410156 79.75458526611328 71.76369476318359 75.75914764404297 75.75914001464844 C 71.76369476318359 79.75457763671875 67.11147308349609 82.89130401611328 61.93169784545898 85.08216857910156 C 56.56977081298828 87.35006713867188 50.87311935424805 88.49999237060547 44.99999618530273 88.49999237060547 Z" stroke="none"/>
                          <path d="M 44.99999618530273 2.999992370605469 C 39.32870864868164 2.999992370605469 33.82865142822266 4.11004638671875 28.65262603759766 6.299331665039062 C 23.65165710449219 8.414566040039062 19.15968322753906 11.44333648681641 15.301513671875 15.30150604248047 C 11.44333648681641 19.15967559814453 8.414566040039062 23.65164947509766 6.299339294433594 28.65262222290039 C 4.110054016113281 33.82864761352539 2.999992370605469 39.32870483398438 2.999992370605469 44.99999237060547 C 2.999992370605469 50.67127990722656 4.110054016113281 56.17132186889648 6.299339294433594 61.34736633300781 C 8.414566040039062 66.34833526611328 11.44333648681641 70.84029388427734 15.301513671875 74.69846343994141 C 19.15968322753906 78.55663299560547 23.65165710449219 81.58540344238281 28.65262603759766 83.70063781738281 C 33.82865142822266 85.88992309570312 39.32870864868164 86.99997711181641 44.99999618530273 86.99997711181641 C 50.67128372192383 86.99997711181641 56.17134094238281 85.88992309570312 61.34736633300781 83.70063781738281 C 66.34834289550781 81.58540344238281 70.84030914306641 78.55663299560547 74.69847869873047 74.69846343994141 C 78.55665588378906 70.84029388427734 81.58542633056641 66.34833526611328 83.70065307617188 61.34736633300781 C 85.88993835449219 56.17132186889648 87 50.67127990722656 87 44.99999237060547 C 87 39.32870483398438 85.88993835449219 33.82864761352539 83.70065307617188 28.65262222290039 C 81.58542633056641 23.65164947509766 78.55665588378906 19.15967559814453 74.69847869873047 15.30150604248047 C 70.84030914306641 11.44333648681641 66.34834289550781 8.414566040039062 61.34736633300781 6.299331665039062 C 56.17134094238281 4.11004638671875 50.67128372192383 2.999992370605469 44.99999618530273 2.999992370605469 M 44.99999618530273 -7.62939453125e-06 C 69.85281372070312 -7.62939453125e-06 90 20.14717864990234 90 44.99999237060547 C 90 69.85279083251953 69.85281372070312 89.99997711181641 44.99999618530273 89.99997711181641 C 20.14717864990234 89.99997711181641 -7.62939453125e-06 69.85279083251953 -7.62939453125e-06 44.99999237060547 C -7.62939453125e-06 20.14717864990234 20.14717864990234 -7.62939453125e-06 44.99999618530273 -7.62939453125e-06 Z" stroke="none" fill="#83793c"/>
                        </g>
                      </g>
                    </g>
                  </g>
                </g>
              </g>
            </g>
          </g>
        </g>
      </g>
      <g id="inteligencia" transform="translate(639.896 897.793)">
        <g id="Group_1206120" data-name="Group 1206120" transform="translate(0.999 0.999)">
          <path id="Path_1044456" data-name="Path 1044456" d="M73.709,37.59v6.029a3.325,3.325,0,0,1-3.325,3.325h-.017a30.24,30.24,0,0,1-4.236,10.222l.013.013a3.326,3.326,0,0,1,0,4.7l-4.262,4.262a3.326,3.326,0,0,1-4.7,0l-.013-.013a30.241,30.241,0,0,1-10.222,4.236v.017a3.325,3.325,0,0,1-3.325,3.325H37.59a3.325,3.325,0,0,1-3.325-3.325v-.017a30.24,30.24,0,0,1-10.222-4.236l-.013.013a3.326,3.326,0,0,1-4.7,0l-4.262-4.262a3.326,3.326,0,0,1,0-4.7l.013-.013a30.241,30.241,0,0,1-4.236-10.222h-.017A3.325,3.325,0,0,1,7.5,43.619V37.59a3.325,3.325,0,0,1,3.325-3.325h.017a30.24,30.24,0,0,1,4.236-10.222l-.013-.013a3.326,3.326,0,0,1,0-4.7l4.262-4.262a3.326,3.326,0,0,1,4.7,0l.013.013a30.241,30.241,0,0,1,10.222-4.236v-.017A3.325,3.325,0,0,1,37.59,7.5h6.029a3.325,3.325,0,0,1,3.325,3.325v.017a30.24,30.24,0,0,1,10.222,4.236l.013-.013a3.326,3.326,0,0,1,4.7,0l4.262,4.262a3.326,3.326,0,0,1,0,4.7l-.013.013a30.241,30.241,0,0,1,4.236,10.222h.017A3.325,3.325,0,0,1,73.709,37.59Z" transform="translate(-7.5 -7.5)" fill="#93ecdd"/>
          <path id="Path_1044457" data-name="Path 1044457" d="M277.232,37.59v6.029a3.325,3.325,0,0,1-3.325,3.325h-.017a30.239,30.239,0,0,1-4.236,10.222l.013.013a3.326,3.326,0,0,1,0,4.7L265.4,66.144a3.326,3.326,0,0,1-4.7,0l-.013-.013a30.241,30.241,0,0,1-10.222,4.236v.017a3.325,3.325,0,0,1-3.325,3.325H242.3a3.357,3.357,0,0,0,3.151-3.351V68.636a28.221,28.221,0,0,0,0-56.063V10.851A3.357,3.357,0,0,0,242.3,7.5h4.839a3.325,3.325,0,0,1,3.325,3.325v.017a30.24,30.24,0,0,1,10.222,4.236l.013-.013a3.326,3.326,0,0,1,4.7,0l4.262,4.262a3.326,3.326,0,0,1,0,4.7l-.013.013a30.24,30.24,0,0,1,4.236,10.222h.017a3.325,3.325,0,0,1,3.325,3.325Z" transform="translate(-211.023 -7.5)" fill="#00ddc4"/>
          <circle id="Ellipse_12659" data-name="Ellipse 12659" cx="25" cy="25" r="25" transform="translate(7.999 7.998)" fill="#fff"/>
          <g id="Group_1206118" data-name="Group 1206118" transform="translate(14.791 16.2)">
            <g id="Group_1206117" data-name="Group 1206117">
              <path id="Path_1044458" data-name="Path 1044458" d="M136.845,156.975c0,3.28-2.34,5.939-5.227,5.939a5.255,5.255,0,0,1-4.793-3.569,4.64,4.64,0,0,1-1.138.143c-2.887,0-5.227-2.659-5.227-5.939a6.572,6.572,0,0,1,.572-2.7,6.145,6.145,0,0,1-2.5-5.067,6.278,6.278,0,0,1,1.862-4.544,6.551,6.551,0,0,1-.656-2.881c0-3.28,2.34-5.939,5.227-5.939a4.662,4.662,0,0,1,1.817.369,5.274,5.274,0,0,1,4.835-3.682c2.887,0,5.227,2.659,5.227,5.939,0-3.28,2.34-5.939,5.227-5.939a5.274,5.274,0,0,1,4.835,3.682,4.662,4.662,0,0,1,1.817-.369c2.887,0,5.227,2.659,5.227,5.939a6.551,6.551,0,0,1-.656,2.881,6.277,6.277,0,0,1,1.862,4.544,6.145,6.145,0,0,1-2.5,5.067,6.572,6.572,0,0,1,.572,2.7c0,3.28-2.34,5.939-5.227,5.939a4.64,4.64,0,0,1-1.138-.143,5.255,5.255,0,0,1-4.793,3.569C139.185,162.915,136.845,160.256,136.845,156.975Z" transform="translate(-118.532 -129.106)" fill="#ffa1ac"/>
            </g>
          </g>
          <g id="Group_1206119" data-name="Group 1206119" transform="translate(18.595 29.952)">
            <ellipse id="Ellipse_12660" data-name="Ellipse 12660" cx="3.911" cy="3.114" rx="3.911" ry="3.114" fill="#fff"/>
            <ellipse id="Ellipse_12661" data-name="Ellipse 12661" cx="3.911" cy="3.114" rx="3.911" ry="3.114" transform="translate(21.197)" fill="#fff"/>
          </g>
        </g>
        <g id="Group_1206121" data-name="Group 1206121" transform="translate(0 0)">
          <path id="Path_1044459" data-name="Path 1044459" d="M64.683,26.84a31.126,31.126,0,0,0-3.822-9.22,4.332,4.332,0,0,0-.512-5.5L56.087,7.858a4.331,4.331,0,0,0-5.5-.512,31.12,31.12,0,0,0-9.22-3.822A4.332,4.332,0,0,0,37.117,0H31.09a4.332,4.332,0,0,0-4.25,3.524,31.12,31.12,0,0,0-9.22,3.822,4.332,4.332,0,0,0-5.5.512L7.858,12.12a4.328,4.328,0,0,0-.513,5.5A31.123,31.123,0,0,0,3.524,26.84,4.332,4.332,0,0,0,0,31.09v6.028a4.332,4.332,0,0,0,3.524,4.25,31.124,31.124,0,0,0,3.821,9.22,4.327,4.327,0,0,0,.512,5.5l4.262,4.262a4.331,4.331,0,0,0,5.5.512,31.12,31.12,0,0,0,9.22,3.822,4.332,4.332,0,0,0,4.25,3.524h6.028a4.331,4.331,0,0,0,4.25-3.524c.707-.167,1.41-.36,2.1-.575a1,1,0,1,0-.595-1.908c-.863.269-1.75.5-2.637.689a1,1,0,0,0-.792.977v.016a2.329,2.329,0,0,1-2.326,2.326H31.09a2.329,2.329,0,0,1-2.326-2.326v-.016a1,1,0,0,0-.792-.977,29.159,29.159,0,0,1-9.885-4.1,1,1,0,0,0-1.251.131l-.013.013a2.329,2.329,0,0,1-3.29,0L9.271,54.674a2.326,2.326,0,0,1,0-3.293l.013-.013a1,1,0,0,0,.128-1.248,29.162,29.162,0,0,1-4.1-9.885,1,1,0,0,0-.977-.792H4.325A2.329,2.329,0,0,1,2,37.117V31.089a2.329,2.329,0,0,1,2.326-2.326h.016a1,1,0,0,0,.977-.792,29.162,29.162,0,0,1,4.1-9.885,1,1,0,0,0-.128-1.248l-.017-.017a2.326,2.326,0,0,1,0-3.29L13.533,9.27a2.329,2.329,0,0,1,3.29,0l.013.013a1,1,0,0,0,1.251.131,29.162,29.162,0,0,1,9.885-4.1,1,1,0,0,0,.792-.977V4.324A2.329,2.329,0,0,1,31.09,2h6.028a2.329,2.329,0,0,1,2.326,2.326V4.34a1,1,0,0,0,.792.977,29.159,29.159,0,0,1,9.885,4.1,1,1,0,0,0,1.251-.131l.013-.013a2.329,2.329,0,0,1,3.29,0l4.262,4.262a2.329,2.329,0,0,1,0,3.29l-.013.013a1,1,0,0,0-.131,1.251,29.159,29.159,0,0,1,4.1,9.885,1,1,0,0,0,.977.792h.016a2.329,2.329,0,0,1,2.326,2.326v6.028a2.329,2.329,0,0,1-2.326,2.326h-.016a1,1,0,0,0-.977.792,29.161,29.161,0,0,1-4.1,9.885,1,1,0,0,0,.131,1.251l.013.013a2.329,2.329,0,0,1,0,3.29l-4.262,4.262a2.329,2.329,0,0,1-3.29,0l-.013-.013a1,1,0,0,0-1.251-.131,29.483,29.483,0,0,1-2.838,1.628,1,1,0,1,0,.9,1.786c.819-.411,1.626-.862,2.409-1.345a4.331,4.331,0,0,0,5.5-.512l4.262-4.262a4.332,4.332,0,0,0,.512-5.5,31.119,31.119,0,0,0,3.822-9.22,4.331,4.331,0,0,0,3.524-4.25V31.09a4.332,4.332,0,0,0-3.524-4.25Z" transform="translate(0 0)"/>
          <path id="Path_1044460" data-name="Path 1044460" d="M106.133,71.13a1,1,0,0,0,.246-1.391,26.2,26.2,0,1,0,2.606,4.671,1,1,0,1,0-1.835.791,24.345,24.345,0,1,1-2.408-4.315A1,1,0,0,0,106.133,71.13Z" transform="translate(-50.707 -50.707)"/>
          <path id="Path_1044461" data-name="Path 1044461" d="M149.657,139.282a7.381,7.381,0,0,0-1.687-4.75,7.663,7.663,0,0,0,.48-2.675c0-3.826-2.793-6.938-6.226-6.938a5.626,5.626,0,0,0-1.264.143,5.911,5.911,0,0,0-10.615-.283,5.911,5.911,0,0,0-10.615.283,5.666,5.666,0,0,0-3.837.474,1,1,0,1,0,.9,1.784,3.665,3.665,0,0,1,3.1-.112,1,1,0,0,0,1.327-.581,4.269,4.269,0,0,1,3.9-3.023c2.331,0,4.228,2.216,4.228,4.94a1,1,0,1,0,2,0c0-2.724,1.9-4.94,4.228-4.94a4.269,4.269,0,0,1,3.9,3.023,1,1,0,0,0,1.327.581,3.661,3.661,0,0,1,1.429-.291c2.331,0,4.228,2.216,4.228,4.94a5.582,5.582,0,0,1-.554,2.441,1,1,0,0,0,.207,1.161,5.283,5.283,0,0,1,1.554,3.822,5.188,5.188,0,0,1-2.071,4.247,1,1,0,0,0-.34,1.23,5.539,5.539,0,0,1,.484,2.29c0,2.724-1.9,4.94-4.228,4.94a3.659,3.659,0,0,1-.893-.112,1,1,0,0,0-1.177.611,4.264,4.264,0,0,1-3.86,2.928c-2.331,0-4.228-2.216-4.228-4.94a1,1,0,0,0-2,0c0,2.724-1.9,4.94-4.228,4.94a4.264,4.264,0,0,1-3.86-2.928,1,1,0,0,0-1.177-.611,3.653,3.653,0,0,1-.893.112c-2.331,0-4.228-2.216-4.228-4.94a5.538,5.538,0,0,1,.484-2.29,1,1,0,0,0-.34-1.23,5.188,5.188,0,0,1-2.071-4.247,5.283,5.283,0,0,1,1.554-3.822,1,1,0,0,0,.207-1.161,5.582,5.582,0,0,1-.554-2.441,5.691,5.691,0,0,1,.193-1.478,1,1,0,0,0-1.93-.519,7.717,7.717,0,0,0,.219,4.672,7.381,7.381,0,0,0-1.687,4.75,7.224,7.224,0,0,0,2.3,5.391,7.586,7.586,0,0,0-.375,2.376c0,3.826,2.793,6.938,6.226,6.938.181,0,.364-.009.545-.027a5.91,5.91,0,0,0,10.613.281,5.91,5.91,0,0,0,10.613-.281q.273.027.545.027c3.433,0,6.226-3.113,6.226-6.938a7.585,7.585,0,0,0-.375-2.376A7.223,7.223,0,0,0,149.657,139.282Z" transform="translate(-96.242 -105.407)"/>
          <path id="Path_1044462" data-name="Path 1044462" d="M187.051,217.217a1,1,0,0,0,1-1v-1.6a1,1,0,1,0-2,0v1.6A1,1,0,0,0,187.051,217.217Z" transform="translate(-161.267 -185.162)"/>
          <path id="Path_1044463" data-name="Path 1044463" d="M312.946,216.218v-1.6a1,1,0,1,0-2,0v1.6a1,1,0,1,0,2,0Z" transform="translate(-269.525 -185.162)"/>
          <path id="Path_1044464" data-name="Path 1044464" d="M235.227,228.259a3.907,3.907,0,0,0,2.946-1.342,1,1,0,0,0-1.507-1.313,1.908,1.908,0,0,1-2.88,0,1,1,0,0,0-1.507,1.313,3.908,3.908,0,0,0,2.947,1.342Z" transform="translate(-201.124 -195.253)"/>
        </g>
      </g>
    </g>
  </g>
</svg>
