<svg xmlns="http://www.w3.org/2000/svg" xmlns:xlink="http://www.w3.org/1999/xlink" width="108" height="108" viewBox="0 0 108 108">
  <defs>
    <filter id="Path_904820" x="0" y="0" width="108" height="108" filterUnits="userSpaceOnUse">
      <feOffset dy="3" input="SourceAlpha"/>
      <feGaussianBlur stdDeviation="3" result="blur"/>
      <feFlood flood-opacity="0.161"/>
      <feComposite operator="in" in2="blur"/>
      <feComposite in="SourceGraphic"/>
    </filter>
  </defs>
  <g id="Group_1206345" data-name="Group 1206345" transform="translate(-161 -5953.465)">
    <g id="Group_1206151" data-name="Group 1206151" transform="translate(0 61.465)">
      <g id="Group_1203801" data-name="Group 1203801" transform="translate(170 5898)">
        <g id="Group_1203172" data-name="Group 1203172">
          <g id="Group_1202793" data-name="Group 1202793">
            <g id="Group_1178315" data-name="Group 1178315" transform="translate(0 0)">
              <g id="Group_1173585" data-name="Group 1173585">
                <g id="Group_1173428" data-name="Group 1173428">
                  <g id="Group_1171958" data-name="Group 1171958">
                    <g id="Group_1167341" data-name="Group 1167341">
                      <g id="Group_1166792" data-name="Group 1166792">
                        <g transform="matrix(1, 0, 0, 1, -9, -6)" filter="url(#Path_904820)">
                          <g id="Path_904820-2" data-name="Path 904820" transform="translate(9 6)" fill="#effbfe">
                            <path d="M 44.99999618530273 88.49999237060547 C 39.12687301635742 88.49999237060547 33.43022155761719 87.35006713867188 28.06829643249512 85.08216857910156 C 22.88852119445801 82.89130401611328 18.23629570007324 79.75457763671875 14.24084663391113 75.75914001464844 C 10.24540901184082 71.76369476318359 7.108683586120605 67.11146545410156 4.917821407318115 61.93169403076172 C 2.649921178817749 56.56976699829102 1.499996185302734 50.87311553955078 1.499996185302734 44.99999237060547 C 1.499996185302734 39.12686920166016 2.649921178817749 33.43021774291992 4.917821407318115 28.06829261779785 C 7.108683586120605 22.88851737976074 10.24540901184082 18.23630523681641 14.24084663391113 14.24085521697998 C 18.23629570007324 10.24540519714355 22.88852119445801 7.108692169189453 28.06829643249512 4.917829990386963 C 33.43022155761719 2.649929761886597 39.12687301635742 1.500004887580872 44.99999618530273 1.500004887580872 C 50.87311935424805 1.500004887580872 56.56977081298828 2.649929761886597 61.93169784545898 4.917829990386963 C 67.11147308349609 7.108692169189453 71.76369476318359 10.24540519714355 75.75914764404297 14.24085521697998 C 79.75458526611328 18.23630523681641 82.89131164550781 22.88851737976074 85.08216857910156 28.06829261779785 C 87.35007476806641 33.43021774291992 88.5 39.12686920166016 88.5 44.99999237060547 C 88.5 50.87311553955078 87.35007476806641 56.56976699829102 85.08216857910156 61.93169403076172 C 82.89131164550781 67.11146545410156 79.75458526611328 71.76369476318359 75.75914764404297 75.75914001464844 C 71.76369476318359 79.75457763671875 67.11147308349609 82.89130401611328 61.93169784545898 85.08216857910156 C 56.56977081298828 87.35006713867188 50.87311935424805 88.49999237060547 44.99999618530273 88.49999237060547 Z" stroke="none"/>
                            <path d="M 44.99999618530273 2.999992370605469 C 39.32870864868164 2.999992370605469 33.82865142822266 4.11004638671875 28.65262603759766 6.299331665039062 C 23.65165710449219 8.414566040039062 19.15968322753906 11.44333648681641 15.301513671875 15.30150604248047 C 11.44333648681641 19.15967559814453 8.414566040039062 23.65164947509766 6.299339294433594 28.65262222290039 C 4.110054016113281 33.82864761352539 2.999992370605469 39.32870483398438 2.999992370605469 44.99999237060547 C 2.999992370605469 50.67127990722656 4.110054016113281 56.17132186889648 6.299339294433594 61.34736633300781 C 8.414566040039062 66.34833526611328 11.44333648681641 70.84029388427734 15.301513671875 74.69846343994141 C 19.15968322753906 78.55663299560547 23.65165710449219 81.58540344238281 28.65262603759766 83.70063781738281 C 33.82865142822266 85.88992309570312 39.32870864868164 86.99997711181641 44.99999618530273 86.99997711181641 C 50.67128372192383 86.99997711181641 56.17134094238281 85.88992309570312 61.34736633300781 83.70063781738281 C 66.34834289550781 81.58540344238281 70.84030914306641 78.55663299560547 74.69847869873047 74.69846343994141 C 78.55665588378906 70.84029388427734 81.58542633056641 66.34833526611328 83.70065307617188 61.34736633300781 C 85.88993835449219 56.17132186889648 87 50.67127990722656 87 44.99999237060547 C 87 39.32870483398438 85.88993835449219 33.82864761352539 83.70065307617188 28.65262222290039 C 81.58542633056641 23.65164947509766 78.55665588378906 19.15967559814453 74.69847869873047 15.30150604248047 C 70.84030914306641 11.44333648681641 66.34834289550781 8.414566040039062 61.34736633300781 6.299331665039062 C 56.17134094238281 4.11004638671875 50.67128372192383 2.999992370605469 44.99999618530273 2.999992370605469 M 44.99999618530273 -7.62939453125e-06 C 69.85281372070312 -7.62939453125e-06 90 20.14717864990234 90 44.99999237060547 C 90 69.85279083251953 69.85281372070312 89.99997711181641 44.99999618530273 89.99997711181641 C 20.14717864990234 89.99997711181641 -7.62939453125e-06 69.85279083251953 -7.62939453125e-06 44.99999237060547 C -7.62939453125e-06 20.14717864990234 20.14717864990234 -7.62939453125e-06 44.99999618530273 -7.62939453125e-06 Z" stroke="none" fill="#6ae2f6"/>
                          </g>
                        </g>
                      </g>
                    </g>
                  </g>
                </g>
              </g>
            </g>
          </g>
        </g>
      </g>
      <g id="profesor" transform="translate(160.511 5889.064)">
        <g id="Art" transform="translate(27.127 27.611)">
          <g id="Teacher_II" data-name="Teacher II" transform="translate(0 0)">
            <path id="Path_1044527" data-name="Path 1044527" d="M32,32H86.734V75.983H32Z" transform="translate(-31.942 -32)" fill="#57b070"/>
            <path id="Path_1044528" data-name="Path 1044528" d="M385.085,173.9v.429a3.845,3.845,0,1,0,0,5.615v.238a.611.611,0,0,0,1.222,0V173.9A.611.611,0,0,0,385.085,173.9Zm-2.624,5.86a2.624,2.624,0,1,1,2.624-2.624A2.624,2.624,0,0,1,382.461,179.755Z" transform="translate(-336.206 -156.025)" fill="#f2f2ff"/>
            <path id="Path_1044529" data-name="Path 1044529" d="M287.773,135.658c-.019-.171-1.372-13.01-5.48-13.01s-5.46,12.839-5.48,13.01a.611.611,0,0,0,1.214.137c0-.027.281-2.458.878-5.128h6.775c.6,2.67.875,5.1.878,5.128A.611.611,0,0,0,287.773,135.658Zm-5.48-11.789c.5,0,1.8.551,3.094,5.576H279.2c1.295-5.025,2.592-5.576,3.093-5.576Z" transform="translate(-246.841 -111.573)" fill="#f2f2ff"/>
            <path id="Path_1044530" data-name="Path 1044530" d="M157.116,147.518a1.62,1.62,0,0,0-.893.263c-.519.341-3.233,2.357-4.6,3.54a9.5,9.5,0,0,0-2.323,4.289,2.44,2.44,0,0,0-2.009.55l-2.259,1.932c-2.819-5.113-5.087-6.514-8.949-7.006a3.117,3.117,0,0,0-.274-.351,8.968,8.968,0,0,0,3.559-5.745,3.542,3.542,0,0,0,1.282-5.839c2.75-9.572-7.942-14.25-14.6-9.9l6.63,30.667h23.676c1.745-1.193,2.7-2.228,2.745-3.768a5.42,5.42,0,0,0-1.577-3.612c2.652-3.006,1.1-5.016-.407-5.016Z" transform="translate(-114.501 -115.931)" fill="#4d9c63"/>
            <path id="Path_1044531" data-name="Path 1044531" d="M298.045,299.231s.7-3.795,2.314-5.19c1.31-1.135,3.991-3.128,4.469-3.442.529-.347,2.094.746-1.068,3.725,1.295,1.231,3.269,3.569,1.056,5.435s-2.221,1.293-2.982,1.785a11.517,11.517,0,0,0-1.631,1.4l-2.848-3.25Z" transform="translate(-264.878 -258.951)" fill="#ffb8a6"/>
            <path id="Path_1044532" data-name="Path 1044532" d="M67.909,326.267,64.36,322.4a1.222,1.222,0,0,0-1.694-.1l-3.432,2.935s-2.3-4.915-4.856-6.5c-2.88-1.791-13.479-2.288-18.636.094-5.036,2.327-4.16,18.273-4.16,18.273H55.039v-7.227s1.5,1.228,3.36,2.738a2.793,2.793,0,0,0,3.478.036l5.883-4.588a1.222,1.222,0,0,0,.149-1.789Z" transform="translate(-31.523 -282.364)" fill="#b56959"/>
            <path id="Path_1044533" data-name="Path 1044533" d="M123.779,330.364a3.521,3.521,0,0,0,5.191,0v-4.67h-5.191Z" transform="translate(-112.508 -289.812)" fill="#e6e6ff"/>
            <path id="Path_1044534" data-name="Path 1044534" d="M116.72,310.18a8.227,8.227,0,0,1-1.979,4.939l-2.6-2.6-2.6,2.6a8.227,8.227,0,0,1-1.979-4.939,1.907,1.907,0,0,1,1.916-1.853H114.8A1.907,1.907,0,0,1,116.72,310.18Z" transform="translate(-98.278 -274.567)" fill="#f2f2ff"/>
            <path id="Path_1044535" data-name="Path 1044535" d="M118.7,292.139V295.1a3.216,3.216,0,1,0,6.432,0v-2.94Z" transform="translate(-108.051 -260.357)" fill="#ffb8a6"/>
            <path id="Path_1044536" data-name="Path 1044536" d="M118.7,299.962a8.183,8.183,0,0,0,6.432,0v-1.487H118.7Z" transform="translate(-108.051 -265.918)" fill="#ffa68f"/>
            <path id="Path_1044537" data-name="Path 1044537" d="M69.033,131.5c5.206-7.744,19.614-3.137,14.523,7.928l-15.379.177C65.106,137.354,64.9,131.324,69.033,131.5Z" transform="translate(-61.699 -115.962)" fill="#3d3c3b"/>
            <path id="Path_1044538" data-name="Path 1044538" d="M83.195,187.071a4.321,4.321,0,0,0-4.261-3.786H72.5a4.3,4.3,0,0,0-4.261,3.786c-2.9,0-2.943,4.416-.011,4.515h.013c.272,2.224,1.573,6.951,7.475,6.951s7.2-4.727,7.475-6.951h.013C86.178,191.486,85.945,187.071,83.195,187.071Z" transform="translate(-61.832 -164.803)" fill="#ffb8a6"/>
          </g>
        </g>
        <g id="Outline" transform="translate(26.515 27)">
          <g id="Teacher_II-2" data-name="Teacher II" transform="translate(0 0)">
            <path id="Path_1044539" data-name="Path 1044539" d="M110.337,217.365a1.023,1.023,0,1,0,1.023,1.023,1.023,1.023,0,0,0-1.023-1.023Z" transform="translate(-99.199 -194.107)"/>
            <path id="Path_1044540" data-name="Path 1044540" d="M165.022,219.409A1.023,1.023,0,1,0,164,218.387a1.023,1.023,0,0,0,1.023,1.023Z" transform="translate(-147.203 -194.107)"/>
            <path id="Path_1044541" data-name="Path 1044541" d="M81.919,27H27.185a.611.611,0,0,0-.611.611V71.593a.609.609,0,0,0,.413.575,59.884,59.884,0,0,0-.412,10.21.611.611,0,0,0,.61.577H50.643a.611.611,0,0,0,.611-.611V76.4c.607.495,1.442,1.175,2.364,1.925a3.387,3.387,0,0,0,4.239.044l5.883-4.588a1.827,1.827,0,0,0,.7-1.581h6.69a.611.611,0,0,0,0-1.222H64.046a1.879,1.879,0,0,1,.8-.453c.618-.18,3.755-1.7,3.822-3.945a5.26,5.26,0,0,0-1.8-3.6c3.26-3.363.9-4.918-.136-4.238-.5.325-3.213,2.347-4.534,3.491-1.243,1.076-1.972,3.328-2.3,4.607a1.824,1.824,0,0,0-2.034.234l-2.838,2.427c-.76-1.461-2.634-4.745-4.731-6.049a12.626,12.626,0,0,0-4.378-1.28,2.544,2.544,0,0,0-1-1.069,8.032,8.032,0,0,0,4.1-6.157c2.57-.47,2.879-3.818,1.114-5.155,1.662-5.13-.831-8.549-3.791-10.058a9.732,9.732,0,0,0-12.2,2.793c-3.614.121-4.239,4.432-2.485,7.422a2.927,2.927,0,0,0,1.343,5A8.047,8.047,0,0,0,37.076,61.1a2.544,2.544,0,0,0-1.015,1.08,18.141,18.141,0,0,0-4.973,1.339c-1.427.659-2.527,2.27-3.293,4.808v-40.1H81.308V70.983H77.19a.611.611,0,0,0,0,1.222h4.729a.611.611,0,0,0,.611-.611V27.611A.611.611,0,0,0,81.919,27ZM63.008,63.163c1.207-1.046,3.6-2.837,4.291-3.316.225.55-.779,1.817-1.708,2.692a.611.611,0,0,0,0,.887c1.244,1.183,1.889,2.263,1.863,3.122-.041,1.378-2.467,2.67-2.942,2.808a3.37,3.37,0,0,0-1.4.812L60.935,67.8c.237-1.132.959-3.673,2.073-4.638ZM38.389,61.611a10.126,10.126,0,0,0,5.21.011v.727a2.605,2.605,0,0,1-5.21,0ZM40.1,67.322a1.111,1.111,0,0,0,.282.271V68.63a2.854,2.854,0,0,1-1.1-.491Zm1.5.271a1.111,1.111,0,0,0,.282-.271l.817.818a2.854,2.854,0,0,1-1.1.491Zm.651-1.631a3.835,3.835,0,0,0,2.551-3.295c.4.739.038,2.719-1.275,4.574Zm-7.82-22.208a.608.608,0,0,0,.532-.27,8.532,8.532,0,0,1,10.825-2.657c3.188,1.625,4.367,4.763,3.223,8.464a4.876,4.876,0,0,0-4.787-3.809H37.8a4.879,4.879,0,0,0-4.792,3.829c-.093.016-.183.035-.271.059-1.36-2.279-1.121-5.731,1.7-5.617Zm-.291,10.567a.611.611,0,0,0-.606-.537h0a1.648,1.648,0,0,1,0-3.293.611.611,0,0,0,.611-.611A3.685,3.685,0,0,1,37.8,46.7h6.432a3.746,3.746,0,0,1,3.65,3.175.611.611,0,0,0,.611.611,1.65,1.65,0,0,1,0,3.293h0a.611.611,0,0,0-.606.537c-.293,2.4-1.575,6.415-6.869,6.415s-6.576-4.019-6.869-6.415Zm3.037,8.346a3.835,3.835,0,0,0,2.551,3.3L38.456,67.24c-1.313-1.855-1.676-3.834-1.275-4.574Zm-5.58,1.96a16.532,16.532,0,0,1,4.208-1.174c0,.158.76,6.463,5.185,6.463s5.182-6.325,5.185-6.462A10.331,10.331,0,0,1,49.658,64.5c2.368,1.473,4.6,6.2,4.626,6.243a.611.611,0,0,0,.95.2l3.432-2.936a.609.609,0,0,1,.847.051l3.549,3.867a.612.612,0,0,1-.074.895L57.105,77.41a2.171,2.171,0,0,1-2.717-.028c-1.856-1.509-3.359-2.736-3.359-2.737a.611.611,0,0,0-1,.473v6.616h-15.9V75.888a.611.611,0,0,0-1.222,0v5.845H27.768c-.185-4.693.172-15.416,3.833-17.107Z" transform="translate(-26.515 -27)"/>
            <circle id="Ellipse_12669" data-name="Ellipse 12669" cx="0.611" cy="0.611" r="0.611" transform="translate(47.033 43.983)"/>
          </g>
        </g>
      </g>
    </g>
  </g>
</svg>
