<svg xmlns="http://www.w3.org/2000/svg" xmlns:xlink="http://www.w3.org/1999/xlink" width="103" height="103" viewBox="0 0 103 103">
  <defs>
    <filter id="Path_904820" x="0" y="0" width="103" height="103" filterUnits="userSpaceOnUse">
      <feOffset dy="3" input="SourceAlpha"/>
      <feGaussianBlur stdDeviation="3" result="blur"/>
      <feFlood flood-opacity="0.161"/>
      <feComposite operator="in" in2="blur"/>
      <feComposite in="SourceGraphic"/>
    </filter>
  </defs>
  <g id="Group_1226389" data-name="Group 1226389" transform="translate(-171 -5593.849)">
    <g id="Group_1225606" data-name="Group 1225606" transform="translate(0 19)">
      <g id="Group_1224777" data-name="Group 1224777" transform="translate(0 1288.848)">
        <g id="Group_1224256" data-name="Group 1224256" transform="translate(10 -1606)">
          <g id="Group_1203801" data-name="Group 1203801" transform="translate(170 5898)">
            <g id="Group_1203172" data-name="Group 1203172" transform="translate(0 0)">
              <g id="Group_1202793" data-name="Group 1202793">
                <g id="Group_1178315" data-name="Group 1178315">
                  <g id="Group_1173585" data-name="Group 1173585">
                    <g id="Group_1173428" data-name="Group 1173428">
                      <g id="Group_1171958" data-name="Group 1171958">
                        <g id="Group_1167341" data-name="Group 1167341">
                          <g id="Group_1166792" data-name="Group 1166792">
                            <g transform="matrix(1, 0, 0, 1, -9, -6)" filter="url(#Path_904820)">
                              <g id="Path_904820-2" data-name="Path 904820" transform="translate(9 6)" fill="#effbfe">
                                <path d="M 42.49999618530273 83.49997711181641 C 36.96437454223633 83.49997711181641 31.59512519836426 82.41616058349609 26.54140853881836 80.27861785888672 C 21.65933799743652 78.21367645263672 17.27447891235352 75.25721740722656 13.50861930847168 71.49135589599609 C 9.742773056030273 67.72550964355469 6.786302089691162 63.34065246582031 4.721360683441162 58.45858001708984 C 2.583819627761841 53.40486145019531 1.499996185302734 48.03561401367188 1.499996185302734 42.49999237060547 C 1.499996185302734 36.96437072753906 2.583819627761841 31.59512138366699 4.721360683441162 26.54140472412109 C 6.786302089691162 21.65933418273926 9.742773056030273 17.27447509765625 13.50861930847168 13.50861549377441 C 17.27447891235352 9.742769241333008 21.65933799743652 6.786310195922852 26.54140853881836 4.721368789672852 C 31.59512519836426 2.58382773399353 36.96437454223633 1.500004172325134 42.49999618530273 1.500004172325134 C 48.03561782836914 1.500004172325134 53.40486526489258 2.58382773399353 58.45858383178711 4.721368789672852 C 63.34065628051758 6.786310195922852 67.72551727294922 9.742769241333008 71.49137115478516 13.50861549377441 C 75.25721740722656 17.27447509765625 78.21369171142578 21.65933418273926 80.27863311767578 26.54140472412109 C 82.41617584228516 31.59512138366699 83.5 36.96437072753906 83.5 42.49999237060547 C 83.5 48.03561401367188 82.41617584228516 53.40486145019531 80.27863311767578 58.45858001708984 C 78.21369171142578 63.34065246582031 75.25721740722656 67.72550964355469 71.49137115478516 71.49135589599609 C 67.72551727294922 75.25721740722656 63.34065628051758 78.21367645263672 58.45858383178711 80.27861785888672 C 53.40486526489258 82.41616058349609 48.03561782836914 83.49997711181641 42.49999618530273 83.49997711181641 Z" stroke="none"/>
                                <path d="M 42.49999618530273 2.999992370605469 C 37.16621017456055 2.999992370605469 31.99355697631836 4.043952941894531 27.1257438659668 6.102874755859375 C 22.42246246337891 8.092178344726562 18.19786071777344 10.94069671630859 14.56927490234375 14.56927490234375 C 10.94070434570312 18.19786071777344 8.092185974121094 22.42245864868164 6.102874755859375 27.12572479248047 C 4.043952941894531 31.99355316162109 2.999992370605469 37.16620635986328 2.999992370605469 42.49999237060547 C 2.999992370605469 47.83377838134766 4.043952941894531 53.00641632080078 6.102874755859375 57.87424468994141 C 8.092185974121094 62.5775260925293 10.94070434570312 66.8021240234375 14.56927490234375 70.43070220947266 C 18.19786071777344 74.05927276611328 22.42246246337891 76.90779113769531 27.1257438659668 78.89710998535156 C 31.99355697631836 80.95601654052734 37.16621017456055 81.99997711181641 42.49999618530273 81.99997711181641 C 47.83378219604492 81.99997711181641 53.00643539428711 80.95601654052734 57.87425231933594 78.89710998535156 C 62.57752990722656 76.90779113769531 66.80213165283203 74.05927276611328 70.43071746826172 70.43070220947266 C 74.05928802490234 66.8021240234375 76.90780639648438 62.5775260925293 78.89711761474609 57.87424468994141 C 80.95603942871094 53.00641632080078 82 47.83377838134766 82 42.49999237060547 C 82 37.16620635986328 80.95603942871094 31.99355316162109 78.89711761474609 27.12572479248047 C 76.90780639648438 22.42245864868164 74.05928802490234 18.19786071777344 70.43071746826172 14.56927490234375 C 66.80213165283203 10.94069671630859 62.57752990722656 8.092178344726562 57.87425231933594 6.102874755859375 C 53.00643539428711 4.043952941894531 47.83378219604492 2.999992370605469 42.49999618530273 2.999992370605469 M 42.49999618530273 -7.62939453125e-06 C 65.97209167480469 -7.62939453125e-06 85 19.02788543701172 85 42.49999237060547 C 85 65.97208404541016 65.97209167480469 84.99997711181641 42.49999618530273 84.99997711181641 C 19.02790069580078 84.99997711181641 -7.62939453125e-06 65.97208404541016 -7.62939453125e-06 42.49999237060547 C -7.62939453125e-06 19.02788543701172 19.02790069580078 -7.62939453125e-06 42.49999618530273 -7.62939453125e-06 Z" stroke="none" fill="#6ae2f6"/>
                              </g>
                            </g>
                          </g>
                        </g>
                      </g>
                    </g>
                  </g>
                </g>
              </g>
            </g>
          </g>
        </g>
      </g>
      <g id="colombia_2_" data-name="colombia (2)" transform="translate(128.486 5590.928)">
        <path id="Path_1212959" data-name="Path 1212959" d="M121.45,43.295l.263-.526a2.031,2.031,0,0,0,.11-1.55l-1.509-4.526a3.048,3.048,0,0,1-.1-1.561l.614-3.068a1.015,1.015,0,0,0-1-1.214H113.5a1.016,1.016,0,0,1-.845-.452l-1.428-2.141a1.015,1.015,0,0,0-.845-.452H103.7a1.015,1.015,0,0,1-1.007-.889l-.793-6.343a1.015,1.015,0,0,0-1.007-.889h-.252a1.015,1.015,0,0,1-.845-1.578l4.46-6.69a6.094,6.094,0,0,1,1.413-1.494l.789-.592a1.015,1.015,0,0,0-.609-1.827h-1.784a3.046,3.046,0,0,0-2.154.892l-3.292,3.292a3.045,3.045,0,0,1-2.153.892H93.909a3.046,3.046,0,0,0-2.154.892L90.2,15.027a2.03,2.03,0,0,0-.595,1.436V17.6a3.046,3.046,0,0,1-.667,1.9l-2.881,3.6a1.015,1.015,0,0,1-1.247.274l-.309-.155a1.015,1.015,0,0,0-1.4.531l-1.282,3.2a2.031,2.031,0,0,0,.069,1.662l.98,1.959a6.09,6.09,0,0,1,.643,2.724V39.6a5.077,5.077,0,0,1-.723,2.612l-1.551,2.584a12.178,12.178,0,0,1-1.832,2.347L78.323,48.22A1.015,1.015,0,0,0,78.5,49.8l6.228,3.893a2.03,2.03,0,0,0,1.718.2l1.169-.39a4.85,4.85,0,0,1,2.857.155l7.643,6.193a2.03,2.03,0,0,1,.805,1.171l.639,2.556a1.015,1.015,0,0,0,.985.769h8.464a.553.553,0,0,1,.495.8L108.33,67.5a1.015,1.015,0,0,0,.454,1.362l2.258,1.129a.739.739,0,0,0,1.059-.539l1.8-10.8a1.015,1.015,0,0,0-.157-.73L112.263,55.7a1.015,1.015,0,0,1-.063-1.017l1.54-3.08a1.015,1.015,0,0,0,0-.908l-.137-.274a1.015,1.015,0,0,1,.8-1.463l8.016-.891-1.076-3.227a2.03,2.03,0,0,1,.11-1.55Z" transform="translate(-6.551 -6.55)" fill="#ffe07d"/>
        <path id="Path_1212960" data-name="Path 1212960" d="M111.962,67.05l.268-.536a3.6,3.6,0,0,0-3.219-5.208h-6.879l-.254-1.018a5.078,5.078,0,0,0-2.014-2.927l-8.693-6.085a5.076,5.076,0,0,0-4.516-.657l-.715.238-3.688-2.305a15.233,15.233,0,0,0,1.6-2.193L85.4,43.774A8.124,8.124,0,0,0,86.557,39.6V33.3a9.183,9.183,0,0,0-.965-4.086l-.776-1.551.455-1.136A4.041,4.041,0,0,0,88.432,25l2.881-3.6A6.114,6.114,0,0,0,92.648,17.6v-.716l1.261-1.262h2.553a6.051,6.051,0,0,0,4.307-1.784l3.292-3.292h.9a6.081,6.081,0,0,1,.7-.626l.79-.592a1.015,1.015,0,0,0-.609-1.827h-1.784a3.046,3.046,0,0,0-2.154.892l-3.292,3.292a3.045,3.045,0,0,1-2.153.892H93.91a3.046,3.046,0,0,0-2.154.892L90.2,15.027a2.03,2.03,0,0,0-.595,1.436V17.6a3.046,3.046,0,0,1-.667,1.9l-2.881,3.6a1.015,1.015,0,0,1-1.247.274l-.309-.155a1.015,1.015,0,0,0-1.4.531l-1.282,3.2a2.031,2.031,0,0,0,.069,1.662l.98,1.959a6.09,6.09,0,0,1,.643,2.724V39.6a5.077,5.077,0,0,1-.723,2.612l-1.551,2.584a12.178,12.178,0,0,1-1.832,2.347L78.323,48.22A1.015,1.015,0,0,0,78.5,49.8l6.228,3.893a2.03,2.03,0,0,0,1.718.2l1.169-.39a2.03,2.03,0,0,1,1.806.263l8.694,6.085a2.03,2.03,0,0,1,.805,1.171l.639,2.556a1.015,1.015,0,0,0,.985.769h8.464a.553.553,0,0,1,.495.8L108.33,67.5a1.015,1.015,0,0,0,.454,1.362l2.258,1.129a.739.739,0,0,0,1.059-.539l.359-2.156Z" transform="translate(-6.551 -6.55)" fill="#ffd064"/>
        <path id="Path_1212961" data-name="Path 1212961" d="M153.587,368.226H124.552l.813.508a2.031,2.031,0,0,0,1.718.2l1.169-.39a8.255,8.255,0,0,1,3.744.263l6.756,6.085a2.03,2.03,0,0,1,.805,1.171l.639,2.556a1.015,1.015,0,0,0,.985.769h8.464a.553.553,0,0,1,.495.8l-1.176,2.352a1.015,1.015,0,0,0,.454,1.362l2.258,1.129a.739.739,0,0,0,1.059-.539l1.8-10.8a1.016,1.016,0,0,0-.157-.73l-1.481-2.221a1.015,1.015,0,0,1-.063-1.017Z" transform="translate(-47.185 -321.592)" fill="#e5646e"/>
        <path id="Path_1212962" data-name="Path 1212962" d="M152.6,382.092l.268-.536a3.6,3.6,0,0,0-3.219-5.208h-6.879l-.254-1.018A5.078,5.078,0,0,0,140.5,372.4l-5.966-4.176h-9.981l.813.508a2.03,2.03,0,0,0,1.718.2l1.169-.39a2.031,2.031,0,0,1,1.806.263l8.694,6.085a2.03,2.03,0,0,1,.805,1.171l.639,2.556a1.015,1.015,0,0,0,.985.769h8.464a.553.553,0,0,1,.495.8l-1.176,2.352a1.015,1.015,0,0,0,.454,1.362l2.258,1.129a.739.739,0,0,0,1.059-.539l.359-2.156Z" transform="translate(-47.185 -321.592)" fill="#db4655"/>
        <path id="Path_1212963" data-name="Path 1212963" d="M121.451,267.325l.263-.526a2.031,2.031,0,0,0,.11-1.55l-.411-1.233H83.486a5.068,5.068,0,0,1-.7,2.221l-1.551,2.584a12.181,12.181,0,0,1-1.832,2.346l-1.083,1.083a1.015,1.015,0,0,0,.18,1.579l6.228,3.893a2.031,2.031,0,0,0,1.718.2l1.169-.39a6.227,6.227,0,0,1,1.985-.323h23.349l.788-1.576a1.015,1.015,0,0,0,0-.908l-.137-.274a1.015,1.015,0,0,1,.8-1.463l8.016-.891-1.076-3.227A2.03,2.03,0,0,1,121.451,267.325Z" transform="translate(-6.552 -230.58)" fill="#6987eb"/>
        <path id="Path_1212964" data-name="Path 1212964" d="M85.4,267.8a8.147,8.147,0,0,0,1.129-3.732l0-.056H83.485a5.068,5.068,0,0,1-.7,2.221l-1.551,2.584a12.177,12.177,0,0,1-1.832,2.347l-1.083,1.083a1.015,1.015,0,0,0,.18,1.579l6.228,3.893a2.03,2.03,0,0,0,1.718.2l1.169-.39a6.228,6.228,0,0,1,1.985-.323h4.3l-1.188-.832L91.171,275.3a5.076,5.076,0,0,0-4.516-.657l-.715.238-3.688-2.305a15.234,15.234,0,0,0,1.6-2.193Z" transform="translate(-6.551 -230.579)" fill="#5069d2"/>
        <path id="Path_1212965" data-name="Path 1212965" d="M117.454,43.288l-1.765-5.293a1.074,1.074,0,0,1,.059-.825l.263-.526a2.96,2.96,0,0,0,.162-2.275l-1.509-4.526a2.1,2.1,0,0,1-.067-1.074l.614-3.069a1.965,1.965,0,0,0-1.927-2.35h-6.34a.066.066,0,0,1-.054-.029l-1.428-2.142a1.961,1.961,0,0,0-1.635-.875H97.146a.066.066,0,0,1-.065-.057L96.288,13.9a1.968,1.968,0,0,0-1.95-1.721h-.253a.065.065,0,0,1-.054-.1l4.46-6.69a5.127,5.127,0,0,1,1.193-1.261l.79-.592a1.938,1.938,0,0,0,.685-2.193A1.939,1.939,0,0,0,99.295,0H97.511a3.969,3.969,0,0,0-2.825,1.17L91.394,4.462a2.082,2.082,0,0,1-1.482.614H87.359a3.969,3.969,0,0,0-2.825,1.17L82.975,7.805A2.96,2.96,0,0,0,82.1,9.912v1.136a2.1,2.1,0,0,1-.459,1.309l-2.881,3.6a.066.066,0,0,1-.08.018l-.31-.155a1.965,1.965,0,0,0-2.7,1.028l-1.282,3.2a2.983,2.983,0,0,0,.1,2.44l.98,1.959a5.167,5.167,0,0,1,.543,2.3v6.293a4.127,4.127,0,0,1-.588,2.123l-1.55,2.584a11.243,11.243,0,0,1-1.689,2.163L71.1,41a1.965,1.965,0,0,0,.348,3.056l6.228,3.893a2.971,2.971,0,0,0,2.522.3l1.2-.4a5.13,5.13,0,0,1,1.626-.264h21.839l-.064.129a1.969,1.969,0,0,0,.123,1.969L106.4,51.9a.065.065,0,0,1,.01.047L104.66,62.467l-2-1a.066.066,0,0,1-.029-.088l1.576-3.153a.95.95,0,0,0-.85-1.375H94a.065.065,0,0,1-.063-.05l-.639-2.556a2.98,2.98,0,0,0-1.182-1.719L87.659,49.41a.95.95,0,1,0-1.089,1.556l4.452,3.117a1.081,1.081,0,0,1,.429.623l.639,2.556A1.962,1.962,0,0,0,94,58.751h7.822l-.889,1.778a1.967,1.967,0,0,0,.879,2.636l3.153,1.576a.95.95,0,0,0,1.362-.693l1.964-11.786a1.958,1.958,0,0,0-.3-1.413L106.5,48.627a.065.065,0,0,1,0-.066l1.54-3.08a1.974,1.974,0,0,0,0-1.757l-.137-.274a.065.065,0,0,1,.051-.094l7.253-.806.446,1.338a.95.95,0,0,0,1.8-.6Zm-9.711-1.82A1.965,1.965,0,0,0,106.2,44.3l.137.274a.066.066,0,0,1,0,.059l-.526,1.051H83.025a7.026,7.026,0,0,0-2.227.361l-1.2.4a1.077,1.077,0,0,1-.914-.109l-6.228-3.893a.066.066,0,0,1-.012-.1l1.083-1.083A13.141,13.141,0,0,0,75.5,38.73l1.551-2.584a6.026,6.026,0,0,0,.7-1.76H106.4a.95.95,0,0,0,0-1.9H77.911V26.753a7.076,7.076,0,0,0-.743-3.149l-.979-1.959a1.082,1.082,0,0,1-.037-.885l1.282-3.2a.065.065,0,0,1,.09-.034l.31.155a1.975,1.975,0,0,0,2.413-.53l2.881-3.6a4.01,4.01,0,0,0,.876-2.5V9.912a1.073,1.073,0,0,1,.316-.764L85.877,7.59a2.082,2.082,0,0,1,1.482-.614h2.553a3.969,3.969,0,0,0,2.825-1.17l3.292-3.292A2.082,2.082,0,0,1,97.511,1.9h1.784c.028,0,.047,0,.062.045s0,.056-.023.073l-.79.592a7.021,7.021,0,0,0-1.634,1.727l-4.46,6.69a1.965,1.965,0,0,0,1.635,3.055h.253a.066.066,0,0,1,.065.057l.793,6.343a1.968,1.968,0,0,0,1.95,1.721h6.682a.066.066,0,0,1,.054.029l1.428,2.141a1.961,1.961,0,0,0,1.635.875h6.34a.065.065,0,0,1,.064.078l-.614,3.069a4,4,0,0,0,.127,2.047l.681,2.043h-3.082a.95.95,0,0,0,0,1.9h3.715l.194.583a1.073,1.073,0,0,1-.059.825l-.263.526a2.961,2.961,0,0,0-.162,2.275l.7,2.112Z"/>
      </g>
    </g>
  </g>
</svg>
