<svg xmlns="http://www.w3.org/2000/svg" width="37.981" height="44.19" viewBox="0 0 37.981 44.19">
  <g id="Group_1206353" data-name="Group 1206353" transform="translate(-213.951 -2102.616)">
    <path id="aprendizaje-automatico" d="M76.477,28.984a12.926,12.926,0,0,0-25.853,0c-.121,5.257,2.3,8.084,4.44,10.579,1.483,1.73,2.764,3.224,3.055,5.281a.539.539,0,0,0,.534.463h9.8a.539.539,0,0,0,.534-.463c.291-2.058,1.572-3.551,3.055-5.281C74.175,37.069,76.6,34.241,76.477,28.984ZM61.631,32.677a.54.54,0,0,0-.687-.331,2.742,2.742,0,0,0-1.784,2.077,1.627,1.627,0,0,1-.239.018,1.665,1.665,0,0,1-1.663-1.663,1.645,1.645,0,0,1,.375-1.051,2.835,2.835,0,0,0,1.872-.742.539.539,0,1,0-.727-.8,1.766,1.766,0,1,1,.138-2.468.539.539,0,1,0,.811-.71,2.846,2.846,0,0,0-2.139-.97l-.1,0a1.662,1.662,0,0,1,1.433-2.506,1.76,1.76,0,0,1,.239.018,2.742,2.742,0,0,0,1.784,2.077.539.539,0,0,0,.357-1.018,1.664,1.664,0,1,1,1.694-2.778v14.21c0,.031,0,.061,0,.092l0,0a1.664,1.664,0,1,1-1.7-2.777A.539.539,0,0,0,61.631,32.677Zm4.245-8.883a5.535,5.535,0,0,1,.759.314,1.093,1.093,0,0,0,1.269-.2l.956-.956a.019.019,0,0,1,.025,0l1.324,1.324a.02.02,0,0,1,0,.024l-.956.956a1.092,1.092,0,0,0-.2,1.269,5.476,5.476,0,0,1,.315.759,1.094,1.094,0,0,0,1.041.754h1.351a.019.019,0,0,1,.018.018v1.873a.019.019,0,0,1-.018.017H70.406a1.094,1.094,0,0,0-1.041.754,5.476,5.476,0,0,1-.315.759,1.092,1.092,0,0,0,.2,1.269l.956.956a.022.022,0,0,1,0,.025L68.885,35.03a.022.022,0,0,1-.025,0l-.956-.956a1.092,1.092,0,0,0-1.269-.2,5.43,5.43,0,0,1-.759.315,1.094,1.094,0,0,0-.754,1.041v1.188a.018.018,0,0,1-.017.017h-.644a.389.389,0,0,1-.388-.388V32.624h.1a3.636,3.636,0,0,0,0-7.271h-.1V21.383h1.033a.018.018,0,0,1,.017.017v1.351A1.092,1.092,0,0,0,65.876,23.794Zm-1.707,2.639a2.558,2.558,0,0,1,0,5.116l-.1,0V26.434Zm-.686,10.7a1.456,1.456,0,0,0,.952.375l-.5,3.435h-.771l-.494-3.4a2.679,2.679,0,0,0,.812-.413Zm2.209,4.89v2.206H61.41V42.025Zm5.527-3.162C69.794,40.525,68.442,42.1,68,44.231H66.769V41.486a.539.539,0,0,0-.539-.539H65.025l.512-3.523a1.1,1.1,0,0,0,.664-1.006V35.229c0-.012,0-.013.012-.017a6.583,6.583,0,0,0,.91-.377c.011-.005.012-.005.021,0l.956.956a1.1,1.1,0,0,0,1.548,0L70.97,34.47a1.1,1.1,0,0,0,0-1.548l-.956-.956c-.008-.008-.009-.01,0-.021a6.581,6.581,0,0,0,.377-.91c0-.011,0-.012.017-.012h1.351a1.1,1.1,0,0,0,1.1-1.095V28.057a1.1,1.1,0,0,0-1.1-1.1H70.405c-.012,0-.013,0-.017-.012a6.628,6.628,0,0,0-.377-.91c-.005-.011-.005-.012,0-.021l.956-.956a1.1,1.1,0,0,0,0-1.548l-1.324-1.324a1.1,1.1,0,0,0-1.549,0l-.956.956c-.008.008-.01.009-.021,0a6.537,6.537,0,0,0-.91-.377c-.011,0-.013,0-.013-.017V21.4A1.1,1.1,0,0,0,65.1,20.31H63.532a.539.539,0,0,0-.473.281,2.74,2.74,0,0,0-3.888,1.885c-.083-.007-.166-.012-.25-.012A2.74,2.74,0,0,0,56.409,26.3a2.843,2.843,0,0,0,.081,5.209,2.742,2.742,0,0,0,2.43,4.012c.084,0,.167,0,.25-.012A2.746,2.746,0,0,0,61.6,37.667l.478,3.285h-1.2a.539.539,0,0,0-.539.539v2.745H59.1c-.446-2.13-1.8-3.706-3.222-5.368-2.112-2.464-4.294-5.01-4.181-9.859V29a11.848,11.848,0,1,1,23.7,0v.013c.114,4.844-2.069,7.391-4.181,9.855ZM63.012,13.849v-3.31a.539.539,0,0,1,1.078,0v3.31a.539.539,0,0,1-1.078,0Zm7.643,1.759,1.654-2.866a.539.539,0,0,1,.934.539l-1.654,2.866a.539.539,0,0,1-.934-.539ZM76.2,21.69a.539.539,0,0,1,.2-.736L79.261,19.3a.539.539,0,1,1,.539.934l-2.866,1.654a.531.531,0,0,1-.269.072A.54.54,0,0,1,76.2,21.69Zm6.344,7.3A.539.539,0,0,1,82,29.53h-3.31a.539.539,0,1,1,0-1.078H82A.539.539,0,0,1,82.541,28.991ZM80,38.486a.539.539,0,0,1-.736.2L76.4,37.029a.539.539,0,0,1,.539-.934L79.8,37.749A.539.539,0,0,1,80,38.486ZM50.9,36.293a.539.539,0,0,1-.2.736L47.84,38.684a.531.531,0,0,1-.269.072.539.539,0,0,1-.269-1.006L50.168,36.1A.539.539,0,0,1,50.9,36.293Zm-2.5-6.763H45.1a.539.539,0,1,1,0-1.078h3.31a.539.539,0,1,1,0,1.078ZM47.1,19.5a.54.54,0,0,1,.736-.2l2.866,1.654a.539.539,0,0,1-.538.934L47.3,20.232A.538.538,0,0,1,47.1,19.5Zm6.753-6.215a.539.539,0,1,1,.934-.539l1.654,2.866a.539.539,0,0,1-.2.736.531.531,0,0,1-.269.072.54.54,0,0,1-.467-.269ZM68.9,50.819s0,0,0,0a.538.538,0,0,0-.013-.066s0-.009,0-.014a.529.529,0,0,0-.057-.133l-.008-.013a.646.646,0,0,0-.04-.057l-.005-.006a.5.5,0,0,0-.043-.044l-.013-.012a.621.621,0,0,0-.054-.042l-.005,0a.49.49,0,0,0-.056-.031l-.013-.006a.422.422,0,0,0-.066-.025h0c-.022-.006-.044-.011-.066-.015l-.017,0a.629.629,0,0,0-.072-.005H58.74a.474.474,0,0,0-.072.005l-.017,0a.42.42,0,0,0-.066.015h0c-.022.007-.045.016-.066.025l-.013.006a.557.557,0,0,0-.056.031l-.005,0a.484.484,0,0,0-.054.042l-.013.012c-.015.014-.03.029-.043.044l-.005.006a.5.5,0,0,0-.04.057l-.008.013a.544.544,0,0,0-.057.133s0,.009,0,.014a.543.543,0,0,0-.013.066s0,0,0,0c0,.019,0,.038,0,.057,0,0,0,.008,0,.013s0,.013,0,.018,0,.039.006.057c0,0,0,.008,0,.012a.586.586,0,0,0,.018.068s0,.006,0,.01c.007.02.015.039.024.057l.005.012a.591.591,0,0,0,.036.06l.008.011c.013.017.026.033.04.049l.005.007L60.3,53.284a2.886,2.886,0,0,0,2.127.906h2.238a2.886,2.886,0,0,0,2.127-.906l1.953-2.033.005-.007a.405.405,0,0,0,.04-.049l.008-.011a.506.506,0,0,0,.036-.06l.005-.012c.009-.019.017-.038.024-.057,0,0,0-.006,0-.01a.588.588,0,0,0,.018-.068s0-.008,0-.012a.414.414,0,0,0,.006-.057c0-.006,0-.013,0-.018s0-.008,0-.013a.307.307,0,0,0,0-.057ZM66.02,52.537a1.784,1.784,0,0,1-1.35.575H62.432a1.785,1.785,0,0,1-1.35-.575L60,51.416H67.1ZM68.361,46.2H58.74a.539.539,0,0,0-.539.539v2.165a.539.539,0,0,0,.539.539h9.621a.539.539,0,0,0,.539-.539V46.74a.539.539,0,0,0-.539-.539Zm-.539,2.165H59.279V47.279h8.543Z" transform="translate(169.391 2092.616)"/>
  </g>
</svg>
