<svg xmlns="http://www.w3.org/2000/svg" xmlns:xlink="http://www.w3.org/1999/xlink" width="108" height="108" viewBox="0 0 108 108">
  <defs>
    <filter id="Path_904820" x="0" y="0" width="108" height="108" filterUnits="userSpaceOnUse">
      <feOffset dy="3" input="SourceAlpha"/>
      <feGaussianBlur stdDeviation="3" result="blur"/>
      <feFlood flood-opacity="0.161"/>
      <feComposite operator="in" in2="blur"/>
      <feComposite in="SourceGraphic"/>
    </filter>
  </defs>
  <g id="Group_1226399" data-name="Group 1226399" transform="translate(-616.97 -487.011)">
    <g id="Group_1226070" data-name="Group 1226070">
      <g id="Group_1224952" data-name="Group 1224952" transform="translate(-3.03 -393.989)">
        <g id="Group_1203639" data-name="Group 1203639" transform="translate(0 81)">
          <g id="Group_1202437" data-name="Group 1202437" transform="translate(0.523 386.813)">
            <g id="Group_1177315" data-name="Group 1177315" transform="translate(-0.523 -112.813)">
              <g id="Group_1173585" data-name="Group 1173585" transform="translate(629 532)">
                <g id="Group_1173428" data-name="Group 1173428" transform="translate(0 0)">
                  <g id="Group_1171958" data-name="Group 1171958">
                    <g id="Group_1167341" data-name="Group 1167341">
                      <g id="Group_1166792" data-name="Group 1166792">
                        <g transform="matrix(1, 0, 0, 1, -9, -6)" filter="url(#Path_904820)">
                          <g id="Path_904820-2" data-name="Path 904820" transform="translate(9 6)" fill="#fdfbec">
                            <path d="M 44.99999618530273 88.49999237060547 C 39.12687301635742 88.49999237060547 33.43022155761719 87.35006713867188 28.06829643249512 85.08216857910156 C 22.88852119445801 82.89130401611328 18.23629570007324 79.75457763671875 14.24084663391113 75.75914001464844 C 10.24540901184082 71.76369476318359 7.108683586120605 67.11146545410156 4.917821407318115 61.93169403076172 C 2.649921178817749 56.56976699829102 1.499996185302734 50.87311553955078 1.499996185302734 44.99999237060547 C 1.499996185302734 39.12686920166016 2.649921178817749 33.43021774291992 4.917821407318115 28.06829261779785 C 7.108683586120605 22.88851737976074 10.24540901184082 18.23630523681641 14.24084663391113 14.24085521697998 C 18.23629570007324 10.24540519714355 22.88852119445801 7.108692169189453 28.06829643249512 4.917829990386963 C 33.43022155761719 2.649929761886597 39.12687301635742 1.500004887580872 44.99999618530273 1.500004887580872 C 50.87311935424805 1.500004887580872 56.56977081298828 2.649929761886597 61.93169784545898 4.917829990386963 C 67.11147308349609 7.108692169189453 71.76369476318359 10.24540519714355 75.75914764404297 14.24085521697998 C 79.75458526611328 18.23630523681641 82.89131164550781 22.88851737976074 85.08216857910156 28.06829261779785 C 87.35007476806641 33.43021774291992 88.5 39.12686920166016 88.5 44.99999237060547 C 88.5 50.87311553955078 87.35007476806641 56.56976699829102 85.08216857910156 61.93169403076172 C 82.89131164550781 67.11146545410156 79.75458526611328 71.76369476318359 75.75914764404297 75.75914001464844 C 71.76369476318359 79.75457763671875 67.11147308349609 82.89130401611328 61.93169784545898 85.08216857910156 C 56.56977081298828 87.35006713867188 50.87311935424805 88.49999237060547 44.99999618530273 88.49999237060547 Z" stroke="none"/>
                            <path d="M 44.99999618530273 2.999992370605469 C 39.32870864868164 2.999992370605469 33.82865142822266 4.11004638671875 28.65262603759766 6.299331665039062 C 23.65165710449219 8.414566040039062 19.15968322753906 11.44333648681641 15.301513671875 15.30150604248047 C 11.44333648681641 19.15967559814453 8.414566040039062 23.65164947509766 6.299339294433594 28.65262222290039 C 4.110054016113281 33.82864761352539 2.999992370605469 39.32870483398438 2.999992370605469 44.99999237060547 C 2.999992370605469 50.67127990722656 4.110054016113281 56.17132186889648 6.299339294433594 61.34736633300781 C 8.414566040039062 66.34833526611328 11.44333648681641 70.84029388427734 15.301513671875 74.69846343994141 C 19.15968322753906 78.55663299560547 23.65165710449219 81.58540344238281 28.65262603759766 83.70063781738281 C 33.82865142822266 85.88992309570312 39.32870864868164 86.99997711181641 44.99999618530273 86.99997711181641 C 50.67128372192383 86.99997711181641 56.17134094238281 85.88992309570312 61.34736633300781 83.70063781738281 C 66.34834289550781 81.58540344238281 70.84030914306641 78.55663299560547 74.69847869873047 74.69846343994141 C 78.55665588378906 70.84029388427734 81.58542633056641 66.34833526611328 83.70065307617188 61.34736633300781 C 85.88993835449219 56.17132186889648 87 50.67127990722656 87 44.99999237060547 C 87 39.32870483398438 85.88993835449219 33.82864761352539 83.70065307617188 28.65262222290039 C 81.58542633056641 23.65164947509766 78.55665588378906 19.15967559814453 74.69847869873047 15.30150604248047 C 70.84030914306641 11.44333648681641 66.34834289550781 8.414566040039062 61.34736633300781 6.299331665039062 C 56.17134094238281 4.11004638671875 50.67128372192383 2.999992370605469 44.99999618530273 2.999992370605469 M 44.99999618530273 -7.62939453125e-06 C 69.85281372070312 -7.62939453125e-06 90 20.14717864990234 90 44.99999237060547 C 90 69.85279083251953 69.85281372070312 89.99997711181641 44.99999618530273 89.99997711181641 C 20.14717864990234 89.99997711181641 -7.62939453125e-06 69.85279083251953 -7.62939453125e-06 44.99999237060547 C -7.62939453125e-06 20.14717864990234 20.14717864990234 -7.62939453125e-06 44.99999618530273 -7.62939453125e-06 Z" stroke="none" fill="#83793c"/>
                          </g>
                        </g>
                      </g>
                    </g>
                  </g>
                </g>
              </g>
            </g>
          </g>
        </g>
      </g>
      <g id="nino" transform="translate(613.731 508.685)">
        <g id="Group_1226068" data-name="Group 1226068" transform="translate(32.384 0.859)">
          <path id="Path_1213643" data-name="Path 1213643" d="M95.462,366.593S88.3,368.3,88.3,378.66h9.426V372.1Z" transform="translate(-82.654 -325.457)" fill="#475066"/>
          <path id="Path_1213644" data-name="Path 1213644" d="M343.42,365.348s7.425,1.852,7.425,12.21h-9.426V365.491Z" transform="translate(-306.778 -324.355)" fill="#475066"/>
          <path id="Path_1213645" data-name="Path 1213645" d="M47.582,31.375a23.875,23.875,0,0,1,47.75,0Z" transform="translate(-46.602 -7.5)" fill="#d3918a"/>
          <path id="Path_1213646" data-name="Path 1213646" d="M58.4,31.081c0-8.366,3.977-17.182,10.326-22.211A23.909,23.909,0,0,0,47.582,32.588h10.87C58.42,32.09,58.4,31.588,58.4,31.081Z" transform="translate(-46.602 -8.713)" fill="#cb827c"/>
          <circle id="Ellipse_12715" data-name="Ellipse 12715" cx="5.645" cy="5.645" r="5.645" transform="translate(38.422 18.357)" fill="#ffbe9c"/>
          <path id="Path_1213647" data-name="Path 1213647" d="M124.792,96.912a1.782,1.782,0,0,0-2.093-.473,6.071,6.071,0,0,1-2.526.539,5.82,5.82,0,0,1-3.721-1.285,1.8,1.8,0,0,0-2.3,0,6.031,6.031,0,0,1-7.441,0,1.8,1.8,0,0,0-2.3,0,5.819,5.819,0,0,1-3.721,1.285,6.071,6.071,0,0,1-2.526-.539,1.785,1.785,0,0,0-2.1.476,18.833,18.833,0,1,0,28.722,0Z" transform="translate(-85.577 -85.222)" fill="#ffd3bc"/>
          <path id="Path_1213648" data-name="Path 1213648" d="M63.1,135.669a22.948,22.948,0,0,1-12.278-20.323,29.6,29.6,0,0,1,2.091-10.734,5.9,5.9,0,0,1-1.3-.417,1.785,1.785,0,0,0-2.1.476,18.8,18.8,0,0,0-3.685,6.784,5.645,5.645,0,1,0,.066,11.033A18.774,18.774,0,0,0,63.1,135.669Z" transform="translate(-39.025 -92.978)" fill="#ffbe9c"/>
          <ellipse id="Ellipse_12716" data-name="Ellipse 12716" cx="3.9" cy="3.106" rx="3.9" ry="3.106" transform="translate(10.385 25.921)" fill="#fd8b9b"/>
          <ellipse id="Ellipse_12717" data-name="Ellipse 12717" cx="3.9" cy="3.106" rx="3.9" ry="3.106" transform="translate(31.525 25.921)" fill="#fd8b9b"/>
          <ellipse id="Ellipse_12718" data-name="Ellipse 12718" cx="2.07" cy="2.317" rx="2.07" ry="2.317" transform="translate(22.785 24.323)" fill="#303646"/>
          <path id="Path_1213649" data-name="Path 1213649" d="M190.149,296.346v-1.232a2.342,2.342,0,0,0-3.143-2.2c-.908.33-2.1.763-3.674,1.331a9.049,9.049,0,0,1-6.159,0l-3.454-1.253a2.342,2.342,0,0,0-3.14,2.2v7.465h19.57v-6.312Z" transform="translate(-155.509 -260.092)" fill="#ecebfd"/>
          <path id="Path_1213650" data-name="Path 1213650" d="M162.876,326.8a9.034,9.034,0,0,1-3.191-.54l-6.475-2.349a1.777,1.777,0,0,0-2.383,1.67v10.839a3.77,3.77,0,0,0,2.484,3.544l6.373,2.312a9.033,9.033,0,0,0,3.191.54l5.914-9.884Z" transform="translate(-138.02 -287.571)" fill="#7ce0fd"/>
          <path id="Path_1213651" data-name="Path 1213651" d="M265.445,323.912l-6.476,2.349a9,9,0,0,1-2.969.54v16.016a9,9,0,0,0,2.969-.54l6.374-2.312a3.77,3.77,0,0,0,2.485-3.544V325.582A1.777,1.777,0,0,0,265.445,323.912Z" transform="translate(-231.145 -287.57)" fill="#2ecdf9"/>
          <path id="Path_1213652" data-name="Path 1213652" d="M328.96,439.367h5.08a3.731,3.731,0,1,1,0,7.461h-5.08a3.731,3.731,0,1,1,0-7.461Z" transform="translate(-292.443 -389.895)" fill="#ffd3bc"/>
          <path id="Path_1213653" data-name="Path 1213653" d="M176.183,294.491l-2.462-.893a2.342,2.342,0,0,0-3.14,2.2v7.465h3.167C173.94,299.388,174.685,296.529,176.183,294.491Z" transform="translate(-155.51 -260.698)" fill="#d1d1fd"/>
          <path id="Path_1213654" data-name="Path 1213654" d="M156.206,332.328a28.523,28.523,0,0,1,.727-7.065l-3.723-1.35a1.777,1.777,0,0,0-2.383,1.67v10.839a3.77,3.77,0,0,0,2.484,3.544l6.373,2.312c.1.035.195.067.292.1a15.213,15.213,0,0,1-3.772-10.048Z" transform="translate(-138.02 -287.571)" fill="#2ecdf9"/>
          <path id="Path_1213655" data-name="Path 1213655" d="M86.1,439.367h-5.08a3.731,3.731,0,0,0,0,7.461H86.1a3.731,3.731,0,0,0,0-7.461Z" transform="translate(-72.91 -389.895)" fill="#ffd3bc"/>
          <g id="Group_1226067" data-name="Group 1226067" transform="translate(4.384 49.577)">
            <path id="Path_1213656" data-name="Path 1213656" d="M87.137,445.154a7.45,7.45,0,0,1-6.99-4.872,3.731,3.731,0,0,0,.878,7.356H86.1a3.732,3.732,0,0,0,3.65-2.958,7.426,7.426,0,0,1-2.618.475Z" transform="translate(-77.294 -440.282)" fill="#ffbe9c"/>
            <path id="Path_1213657" data-name="Path 1213657" d="M335.071,445.154a7.45,7.45,0,0,1-6.99-4.872,3.731,3.731,0,0,0,.878,7.356h5.08a3.732,3.732,0,0,0,3.65-2.958,7.426,7.426,0,0,1-2.618.475Z" transform="translate(-296.826 -440.282)" fill="#ffbe9c"/>
          </g>
        </g>
        <g id="Group_1226069" data-name="Group 1226069" transform="translate(31.525 0)">
          <path id="Path_1213658" data-name="Path 1213658" d="M162.78,210.692a.859.859,0,0,0,.859-.859V208.32a.859.859,0,0,0-1.718,0v1.513A.859.859,0,0,0,162.78,210.692Z" transform="translate(-146.984 -183.695)"/>
          <path id="Path_1213659" data-name="Path 1213659" d="M233.357,218.681a3.186,3.186,0,1,0-2.929-3.176A3.064,3.064,0,0,0,233.357,218.681Zm0-4.633a1.483,1.483,0,1,1-1.211,1.457A1.353,1.353,0,0,1,233.357,214.047Z" transform="translate(-207.643 -188.006)"/>
          <path id="Path_1213660" data-name="Path 1213660" d="M335.938,210.692a.859.859,0,0,0,.859-.859V208.32a.859.859,0,1,0-1.718,0v1.513A.859.859,0,0,0,335.938,210.692Z" transform="translate(-300.306 -183.695)"/>
          <path id="Path_1213661" data-name="Path 1213661" d="M38.029,31.364a6.442,6.442,0,0,0,.645-.034,19.588,19.588,0,0,0,5.659,8.3v1.744a9.945,9.945,0,0,0-2.709,1.607,12.349,12.349,0,0,0-4.17,7.649,4.587,4.587,0,0,0,3.045,8.02h5.08a4.6,4.6,0,0,0,4.485-3.617l3.693,1.34a9.906,9.906,0,0,0,6.745,0l3.9-1.414a4.6,4.6,0,0,0,4.5,3.692h5.08a4.587,4.587,0,0,0,3.042-8.023,14.135,14.135,0,0,0-1.532-4.46.859.859,0,1,0-1.5.838,11.662,11.662,0,0,1,1.045,2.587,4.929,4.929,0,0,0-1.054-.121H69.926V43.194a7.956,7.956,0,0,1,2.12,1.359.859.859,0,1,0,1.148-1.279,9.711,9.711,0,0,0-3.268-1.922V39.792A19.641,19.641,0,0,0,75.8,31.33a6.5,6.5,0,0,0,5.891-10.315A24.719,24.719,0,0,0,43.215,4.372a.859.859,0,1,0,.977,1.414A23.025,23.025,0,0,1,79.568,19.15a6.505,6.505,0,0,0-3.684-.768,19.553,19.553,0,0,0-3.63-6.389,2.65,2.65,0,0,0-3.105-.7,5.208,5.208,0,0,1-5.339-.625,2.656,2.656,0,0,0-3.4,0,5.17,5.17,0,0,1-6.342,0,2.657,2.657,0,0,0-3.4,0,5.208,5.208,0,0,1-5.339.625,2.649,2.649,0,0,0-3.109.7A19.551,19.551,0,0,0,38.6,18.381a6.569,6.569,0,0,0-3.683.768,23.127,23.127,0,0,1,6.68-11.276.859.859,0,1,0-1.169-1.259,24.8,24.8,0,0,0-7.635,14.4,6.5,6.5,0,0,0,5.241,10.349ZM76.377,20.077a4.785,4.785,0,1,1-.062,9.567,19.846,19.846,0,0,0,.062-9.567ZM44.333,43.245v6.228H40.5a4.974,4.974,0,0,0-1.055.121,9.571,9.571,0,0,1,4.889-6.349Zm1.246,13.689H40.5a2.871,2.871,0,1,1,0-5.743h5.08a2.874,2.874,0,0,1,2.866,2.7v0A2.874,2.874,0,0,1,45.579,56.933Zm10.8-1.72a8.163,8.163,0,0,1-2.038-.455L50.09,53.216a4.6,4.6,0,0,0-4.039-3.72V38.871a.919.919,0,0,1,1.23-.863h0l6.475,2.349a10.031,10.031,0,0,0,2.624.564ZM54.341,38.742l-6.028-2.187v-.594A1.481,1.481,0,0,1,50.3,34.567l3.455,1.253a9.9,9.9,0,0,0,6.743,0c1.574-.568,2.767-1,3.676-1.331a1.482,1.482,0,0,1,1.99,1.394v.593l-6.25,2.267A8.183,8.183,0,0,1,54.341,38.742ZM64.406,53.13l-4.491,1.629a8.139,8.139,0,0,1-1.817.432V40.9a10.026,10.026,0,0,0,2.4-.545l6.476-2.349h0a.918.918,0,0,1,1.226.864V49.525a4.6,4.6,0,0,0-3.8,3.605ZM73.98,51.19a2.871,2.871,0,0,1,0,5.743H68.9a2.871,2.871,0,1,1,0-5.743ZM43.532,13.108a.926.926,0,0,1,1.084-.251,6.924,6.924,0,0,0,7.154-.867.938.938,0,0,1,1.2,0,6.886,6.886,0,0,0,8.541,0,.938.938,0,0,1,1.2,0,6.921,6.921,0,0,0,7.154.866.922.922,0,0,1,1.08.248,17.973,17.973,0,0,1-1.281,24.618,2.657,2.657,0,0,0-1.779-1.42v-.42a3.2,3.2,0,0,0-4.3-3.009c-.908.33-2.1.763-3.673,1.33a8.18,8.18,0,0,1-5.574,0l-3.454-1.253a3.2,3.2,0,0,0-4.293,3.01v.3a2.672,2.672,0,0,0-1.938,1.34,18.012,18.012,0,0,1-1.125-24.49ZM38.1,20.077a19.918,19.918,0,0,0,.057,9.567,4.785,4.785,0,1,1-.057-9.567Z" transform="translate(-31.525 0)"/>
        </g>
      </g>
    </g>
  </g>
</svg>
