<svg xmlns="http://www.w3.org/2000/svg" xmlns:xlink="http://www.w3.org/1999/xlink" width="113" height="113" viewBox="0 0 113 113">
  <defs>
    <filter id="Path_982547" x="0" y="0" width="113" height="113" filterUnits="userSpaceOnUse">
      <feOffset dy="3" input="SourceAlpha"/>
      <feGaussianBlur stdDeviation="3" result="blur"/>
      <feFlood flood-opacity="0.161"/>
      <feComposite operator="in" in2="blur"/>
      <feComposite in="SourceGraphic"/>
    </filter>
  </defs>
  <g id="Group_1206373" data-name="Group 1206373" transform="translate(-901 -6388.052)">
    <g id="Group_1206219" data-name="Group 1206219" transform="translate(0 30.5)">
      <g id="Group_1203999" data-name="Group 1203999" transform="translate(0 456.265)">
        <g id="Group_1202434" data-name="Group 1202434" transform="translate(-0.56 1255.773)">
          <g id="Group_1202053" data-name="Group 1202053" transform="translate(0 3240.511)">
            <g id="Group_1177898" data-name="Group 1177898" transform="translate(910.561 1411.003)">
              <g id="Group_1172010" data-name="Group 1172010" transform="translate(0)">
                <g id="Group_1171046" data-name="Group 1171046">
                  <g id="Group_1148525" data-name="Group 1148525">
                    <g transform="matrix(1, 0, 0, 1, -9, -6)" filter="url(#Path_982547)">
                      <g id="Path_982547-2" data-name="Path 982547" transform="translate(9 6)" fill="#edf3fc">
                        <path d="M 47.5 93.5 C 41.28937149047852 93.5 35.26533508300781 92.28397369384766 29.59518623352051 89.88570404052734 C 24.11771965026855 87.56893157958984 19.19813346862793 84.25196075439453 14.97309303283691 80.02691650390625 C 10.74804019927979 75.80186462402344 7.431066513061523 70.88229370117188 5.114293098449707 65.40481567382812 C 2.716026782989502 59.73468017578125 1.5 53.71062850952148 1.5 47.5 C 1.5 41.28937149047852 2.716026782989502 35.26533508300781 5.114293098449707 29.59518623352051 C 7.431066513061523 24.11771965026855 10.74804019927979 19.19813346862793 14.97309303283691 14.97309303283691 C 19.19813346862793 10.74804019927979 24.11771965026855 7.431066513061523 29.59518623352051 5.114293098449707 C 35.26533508300781 2.716026782989502 41.28937149047852 1.5 47.5 1.5 C 53.71062850952148 1.5 59.73468017578125 2.716026782989502 65.40481567382812 5.114293098449707 C 70.88229370117188 7.431066513061523 75.80186462402344 10.74804019927979 80.02691650390625 14.97309303283691 C 84.25196075439453 19.19813346862793 87.56893157958984 24.11771965026855 89.88570404052734 29.59518623352051 C 92.28397369384766 35.26533508300781 93.5 41.28937149047852 93.5 47.5 C 93.5 53.71062850952148 92.28397369384766 59.73468017578125 89.88570404052734 65.40481567382812 C 87.56893157958984 70.88229370117188 84.25196075439453 75.80186462402344 80.02691650390625 80.02691650390625 C 75.80186462402344 84.25196075439453 70.88229370117188 87.56893157958984 65.40481567382812 89.88570404052734 C 59.73468017578125 92.28397369384766 53.71062850952148 93.5 47.5 93.5 Z" stroke="none"/>
                        <path d="M 47.5 3 C 41.49121475219727 3 35.66376876831055 4.176155090332031 30.17950439453125 6.495796203613281 C 24.88084411621094 8.736953735351562 20.12152099609375 11.94598388671875 16.03375244140625 16.03375244140625 C 11.94598388671875 20.12152099609375 8.736953735351562 24.88084411621094 6.495796203613281 30.17950439453125 C 4.176155090332031 35.66376876831055 3 41.49121475219727 3 47.5 C 3 53.50878524780273 4.176155090332031 59.33623123168945 6.495796203613281 64.82049560546875 C 8.736953735351562 70.11915588378906 11.94598388671875 74.87847900390625 16.03375244140625 78.96624755859375 C 20.12152099609375 83.05401611328125 24.88084411621094 86.26304626464844 30.17950439453125 88.50419616699219 C 35.66376876831055 90.82384490966797 41.49121475219727 92 47.5 92 C 53.50878524780273 92 59.33623123168945 90.82384490966797 64.82049560546875 88.50419616699219 C 70.11915588378906 86.26304626464844 74.87847900390625 83.05401611328125 78.96624755859375 78.96624755859375 C 83.05401611328125 74.87847900390625 86.26304626464844 70.11915588378906 88.50419616699219 64.82049560546875 C 90.82384490966797 59.33623123168945 92 53.50878524780273 92 47.5 C 92 41.49121475219727 90.82384490966797 35.66376876831055 88.50419616699219 30.17950439453125 C 86.26304626464844 24.88084411621094 83.05401611328125 20.12152099609375 78.96624755859375 16.03375244140625 C 74.87847900390625 11.94598388671875 70.11915588378906 8.736953735351562 64.82049560546875 6.495796203613281 C 59.33623123168945 4.176155090332031 53.50878524780273 3 47.5 3 M 47.5 0 C 73.7335205078125 0 95 21.2664794921875 95 47.5 C 95 73.7335205078125 73.7335205078125 95 47.5 95 C 21.2664794921875 95 0 73.7335205078125 0 47.5 C 0 21.2664794921875 21.2664794921875 0 47.5 0 Z" stroke="none" fill="#5692e8"/>
                      </g>
                    </g>
                  </g>
                </g>
              </g>
            </g>
          </g>
        </g>
      </g>
      <g id="principios-morales" transform="translate(927.682 6381.233)">
        <path id="Path_1044908" data-name="Path 1044908" d="M65.387,95.2A15.378,15.378,0,0,0,37.034,86.68a.7.7,0,0,1-1.178,0,15.378,15.378,0,1,0-22.916,19.985l22.751,19.284a1.165,1.165,0,0,0,1.506,0L59.95,106.664A15.344,15.344,0,0,0,65.387,95.2Z" transform="translate(-6.627 -70.287)" fill="#e53950"/>
        <path id="Path_1044909" data-name="Path 1044909" d="M234.778,85.03a15.314,15.314,0,0,1,.943,24.144l-19.3,16.356a6.5,6.5,0,0,1-4.707,1.524l4.4,3.734a1.165,1.165,0,0,0,1.506,0L240.379,111.5a15.343,15.343,0,0,0,5.438-11.467A15.557,15.557,0,0,0,234.778,85.03Z" transform="translate(-187.057 -75.126)" fill="#ca2e43"/>
        <path id="Path_1044910" data-name="Path 1044910" d="M282.311,271.989a1.809,1.809,0,0,0-.063,2.619l-2.486-2.486a1.843,1.843,0,0,0-2.531-.1,1.809,1.809,0,0,0-.063,2.619l-1.238-1.238a1.843,1.843,0,0,0-2.531-.1,1.809,1.809,0,0,0-.063,2.619l1.274,1.274a1.809,1.809,0,0,0-2.619.063,1.843,1.843,0,0,0,.1,2.531l7.419,7.419h-1.288a2.329,2.329,0,0,0-2.329,2.329v.706a.582.582,0,0,0,.582.582h9.582a7.262,7.262,0,0,0,.94-.052.575.575,0,0,1,.474.167l1.392,1.392,4.5-.618,1.9-5.778-1.733-1.733a.579.579,0,0,1-.166-.426,7.216,7.216,0,0,0-2.117-5.3l-6.4-6.4A1.843,1.843,0,0,0,282.311,271.989Z" transform="translate(-239.905 -239.905)" fill="#ffcebf"/>
        <path id="Path_1044911" data-name="Path 1044911" d="M49.751,271.989a1.809,1.809,0,0,1,.063,2.619l2.486-2.486a1.842,1.842,0,0,1,2.531-.1,1.809,1.809,0,0,1,.063,2.619l1.238-1.238a1.843,1.843,0,0,1,2.531-.1,1.809,1.809,0,0,1,.063,2.619L57.453,277.2a1.809,1.809,0,0,1,2.619.063,1.843,1.843,0,0,1-.1,2.531l-7.419,7.419h1.288a2.329,2.329,0,0,1,2.33,2.33v.706a.582.582,0,0,1-.582.582H46.01a7.268,7.268,0,0,1-.94-.052.575.575,0,0,0-.474.167L43.2,292.34l-4.5-.618-1.9-5.778,1.733-1.733a.579.579,0,0,0,.166-.426,7.216,7.216,0,0,1,2.117-5.3l6.4-6.4A1.843,1.843,0,0,1,49.751,271.989Z" transform="translate(-32.521 -239.905)" fill="#fff3de"/>
        <path id="Path_1044912" data-name="Path 1044912" d="M282.311,82.164a1.809,1.809,0,0,1-.063-2.619l-2.486,2.486a1.842,1.842,0,0,1-2.531.1,1.809,1.809,0,0,1-.063-2.619l-1.238,1.238a1.842,1.842,0,0,1-2.531.1,1.809,1.809,0,0,1-.063-2.619l1.274-1.274a1.809,1.809,0,0,1-2.619-.063,1.843,1.843,0,0,1,.1-2.531l7.419-7.419h-1.288a2.329,2.329,0,0,1-2.329-2.33V63.9a.582.582,0,0,1,.582-.582h9.582a7.267,7.267,0,0,1,.94.052.575.575,0,0,0,.474-.167l1.392-1.392,4.5.618,1.9,5.778-1.733,1.733a.579.579,0,0,0-.166.426,7.216,7.216,0,0,1-2.117,5.3l-6.4,6.4A1.843,1.843,0,0,1,282.311,82.164Z" transform="translate(-239.905 -54.613)" fill="#f1b0a2"/>
        <path id="Path_1044913" data-name="Path 1044913" d="M49.751,82.165a1.809,1.809,0,0,0,.063-2.619L52.3,82.033a1.843,1.843,0,0,0,2.531.1,1.809,1.809,0,0,0,.063-2.619l1.238,1.238a1.843,1.843,0,0,0,2.531.1,1.809,1.809,0,0,0,.063-2.619l-1.274-1.274a1.809,1.809,0,0,0,2.619-.063,1.843,1.843,0,0,0-.1-2.531l-7.419-7.419h1.288a2.329,2.329,0,0,0,2.33-2.33V63.9a.582.582,0,0,0-.582-.582H46.01a7.268,7.268,0,0,0-.94.052.575.575,0,0,1-.474-.167L43.2,61.814l-4.5.618-1.9,5.778,1.733,1.733a.578.578,0,0,1,.166.426,7.216,7.216,0,0,0,2.117,5.3l6.4,6.4A1.843,1.843,0,0,0,49.751,82.165Z" transform="translate(-32.521 -54.614)" fill="#ffeee6"/>
        <path id="Path_1044914" data-name="Path 1044914" d="M7.671,16.979l3.243,3.243,7.263-7.263a.582.582,0,0,0,0-.824L13.712,7.671A.583.583,0,0,0,13.3,7.5H8.082a.582.582,0,0,0-.582.582v8.485A.582.582,0,0,0,7.671,16.979Z" transform="translate(-6.626 -6.626)" fill="#0055a3"/>
        <path id="Path_1044915" data-name="Path 1044915" d="M421.634,7.5h-5.218a.583.583,0,0,0-.412.171l-4.465,4.465a.582.582,0,0,0,0,.824l7.263,7.263,3.243-3.243a.582.582,0,0,0,.171-.412V8.082a.582.582,0,0,0-.582-.582Z" transform="translate(-363.454 -6.626)" fill="#c8effe"/>
        <path id="Path_1044916" data-name="Path 1044916" d="M7.5,398.931v8.485a.582.582,0,0,0,.582.582H13.3a.583.583,0,0,0,.412-.171l4.465-4.465a.582.582,0,0,0,0-.824l-7.263-7.263-3.243,3.243A.582.582,0,0,0,7.5,398.931Z" transform="translate(-6.626 -349.236)" fill="#ffc344"/>
        <path id="Path_1044917" data-name="Path 1044917" d="M418.8,395.275l-7.263,7.263a.582.582,0,0,0,0,.824L416,407.826a.582.582,0,0,0,.412.171h5.218a.582.582,0,0,0,.582-.582V398.93a.583.583,0,0,0-.171-.412Z" transform="translate(-363.454 -349.235)" fill="#d5efc8"/>
        <path id="Path_1044918" data-name="Path 1044918" d="M59.209,10.97a1.446,1.446,0,0,0,.426-1.03V1.456A1.458,1.458,0,0,0,58.18,0H52.962a1.446,1.446,0,0,0-1.03.426L47.468,4.891a1.458,1.458,0,0,0,0,2.059l.25.25-.675.675a8.185,8.185,0,0,0-.9-.042H36.565a1.458,1.458,0,0,0-1.456,1.456v.706a3.208,3.208,0,0,0,.061.624A16.338,16.338,0,0,0,29.818,15.7a16.338,16.338,0,0,0-5.352-5.076,3.208,3.208,0,0,0,.061-.624V9.289a1.458,1.458,0,0,0-1.456-1.456H13.5a8.062,8.062,0,0,0-.9.042L11.919,7.2l.25-.25a1.458,1.458,0,0,0,0-2.059l-.935-.935A.874.874,0,0,0,10,5.192l.729.729-6.44,6.44L1.747,9.82V1.747H6.554l.547.547A.874.874,0,0,0,8.335,1.058L7.7.427A1.446,1.446,0,0,0,6.674,0H1.456A1.458,1.458,0,0,0,0,1.456V9.941a1.446,1.446,0,0,0,.426,1.03l3.348,3.348A16.145,16.145,0,0,0,5.748,37.044l1.558,1.32a8.024,8.024,0,0,0-2,5.417L.426,48.666A1.446,1.446,0,0,0,0,49.7V58.18a1.458,1.458,0,0,0,1.456,1.456H6.674a1.446,1.446,0,0,0,1.03-.426l4.465-4.465a1.458,1.458,0,0,0,0-2.059l-.25-.25.675-.675a8.147,8.147,0,0,0,.9.042h9.582l.087,0L28.5,56.328a2.032,2.032,0,0,0,2.636,0l1.056-.9a.874.874,0,0,0-1.13-1.333L30.006,55a.29.29,0,0,1-.376,0L24.5,50.645a1.458,1.458,0,0,0,.031-.3v-.706a3.209,3.209,0,0,0-2.468-3.118l6.013-6.013a2.687,2.687,0,0,0-.83-4.412,2.693,2.693,0,0,0,.367-1.417,2.675,2.675,0,0,0-4.033-2.244,2.678,2.678,0,0,0-.678-.962,2.705,2.705,0,0,0-3.737.125l-.707.707a2.687,2.687,0,0,0-4.374-.743l-5.55,5.55-1.654-1.4A14.507,14.507,0,0,1,1.749,24.9a14.358,14.358,0,0,1,3.266-9.336l.295.295a8.034,8.034,0,0,0,2.375,5.822l6.4,6.4a2.754,2.754,0,0,0,1.949.814,2.644,2.644,0,0,0,1.787-.689,2.684,2.684,0,0,0,.637-.868l.707.707a2.705,2.705,0,0,0,3.737.125,2.676,2.676,0,0,0,.678-.962,2.677,2.677,0,0,0,3.666-3.662,2.678,2.678,0,0,0,.955-.675,2.705,2.705,0,0,0-.125-3.737l-6.013-6.013a3.2,3.2,0,0,0,1.607-.936,14.589,14.589,0,0,1,4.825,4.686,1.571,1.571,0,0,0,2.651,0,14.587,14.587,0,0,1,4.825-4.686,3.2,3.2,0,0,0,1.607.936l-6.013,6.013a2.687,2.687,0,0,0,.83,4.412A2.676,2.676,0,0,0,36.059,27.2a2.687,2.687,0,0,0,4.415.837l.707-.707a2.686,2.686,0,0,0,.637.868,2.643,2.643,0,0,0,1.787.689,2.754,2.754,0,0,0,1.949-.814l1.381-1.381A.874.874,0,0,0,45.7,25.457l-1.381,1.381a.973.973,0,0,1-1.325.068.935.935,0,0,1-.034-1.355l2.594-2.595a.874.874,0,1,0-1.235-1.235L39.239,26.8a.973.973,0,0,1-1.326.068.935.935,0,0,1-.034-1.355L43,20.4a.874.874,0,0,0-1.235-1.235l-5.114,5.114,0,0-1.238,1.238a.973.973,0,0,1-1.326.068.935.935,0,0,1-.034-1.355l6.391-6.391A.874.874,0,1,0,39.2,16.6L34.086,21.72a.936.936,0,0,1-1.355-.034.973.973,0,0,1,.068-1.325l7.419-7.419a.874.874,0,0,0-.618-1.491H38.312A1.458,1.458,0,0,1,36.857,10V9.58h9.3a6.528,6.528,0,0,1,.827.046,1.439,1.439,0,0,0,1.2-.416l.774-.774,5.16,5.16L53,14.711a1.459,1.459,0,0,0-.421,1.066,6.306,6.306,0,0,1-1.861,4.664l-2.1,2.1a.874.874,0,0,0,1.235,1.235l2.1-2.1a8.034,8.034,0,0,0,2.375-5.822l.295-.295A14.359,14.359,0,0,1,57.887,24.9a14.507,14.507,0,0,1-5.129,10.816l0,0-1.651,1.4-5.55-5.55a2.687,2.687,0,0,0-4.374.743l-.707-.707a2.705,2.705,0,0,0-3.737-.125,2.677,2.677,0,0,0-.678.962A2.676,2.676,0,0,0,32.394,36.1a2.678,2.678,0,0,0-.955.675,2.705,2.705,0,0,0,.125,3.737l6.013,6.013a3.209,3.209,0,0,0-2.467,3.118v.706a1.459,1.459,0,0,0,.031.3l-.944.8a.874.874,0,0,0,1.13,1.333l1.153-.977.087,0h9.574a8.057,8.057,0,0,0,.9-.042l.675.675-.25.25a1.458,1.458,0,0,0,0,2.059l4.465,4.465a1.446,1.446,0,0,0,1.03.426H58.18a1.458,1.458,0,0,0,1.456-1.456V49.7a1.446,1.446,0,0,0-.426-1.03l-4.884-4.884a8.024,8.024,0,0,0-2-5.417l1.558-1.32,0,0a16.145,16.145,0,0,0,1.971-22.723l3.348-3.349ZM6.554,57.889H1.747V49.816l2.54-2.54,6.44,6.44ZM15.317,32.8a.973.973,0,0,1,1.325-.068.935.935,0,0,1,.034,1.355L14.081,36.68a.874.874,0,0,0,1.235,1.235L20.4,32.835a.973.973,0,0,1,1.326-.068.935.935,0,0,1,.034,1.355L16.64,39.238a.874.874,0,1,0,1.235,1.235l6.355-6.355a.973.973,0,0,1,1.325-.068.935.935,0,0,1,.034,1.355L19.2,41.8a.874.874,0,0,0,1.235,1.235l5.117-5.117a.935.935,0,0,1,1.355.034.973.973,0,0,1-.068,1.326l-7.419,7.419a.874.874,0,0,0,.618,1.491h1.288a1.458,1.458,0,0,1,1.456,1.456v.415h-9.3a6.485,6.485,0,0,1-.827-.046,1.437,1.437,0,0,0-1.2.416l-.774.774-5.16-5.16,1.115-1.115a1.459,1.459,0,0,0,.421-1.066,6.306,6.306,0,0,1,1.861-4.664Zm6.007-21.348H20.036a.874.874,0,0,0-.618,1.491l7.419,7.419a.973.973,0,0,1,.068,1.325.935.935,0,0,1-1.355.034L20.433,16.6A.874.874,0,0,0,19.2,17.839l6.391,6.391a.935.935,0,0,1-.034,1.355.973.973,0,0,1-1.325-.068l-6.355-6.355A.874.874,0,0,0,16.64,20.4l5.117,5.117a.935.935,0,0,1-.034,1.355A.973.973,0,0,1,20.4,26.8L15.317,21.72a.874.874,0,0,0-1.235,1.235l2.594,2.595a.935.935,0,0,1-.034,1.355.973.973,0,0,1-1.325-.068l-6.4-6.4a6.306,6.306,0,0,1-1.861-4.664,1.459,1.459,0,0,0-.421-1.066L5.523,13.6l5.16-5.16.774.774a1.439,1.439,0,0,0,1.2.416,6.6,6.6,0,0,1,.835-.046H22.78v.415a1.458,1.458,0,0,1-1.456,1.456ZM57.889,57.889H53.082l-4.174-4.174,6.44-6.44,2.54,2.54ZM53,44.925l1.115,1.115-5.16,5.16-.774-.774a1.439,1.439,0,0,0-1.2-.416,6.486,6.486,0,0,1-.835.046H36.856v-.415a1.458,1.458,0,0,1,1.456-1.456H39.6a.874.874,0,0,0,.618-1.491L32.8,39.275a.973.973,0,0,1-.068-1.326.935.935,0,0,1,1.355-.034L39.2,43.032A.874.874,0,0,0,40.437,41.8l-6.391-6.391a.935.935,0,0,1,.034-1.355.973.973,0,0,1,1.326.068l1.238,1.238,0,0,5.114,5.114A.874.874,0,0,0,43,39.239l-5.117-5.117a.935.935,0,0,1,.034-1.355.973.973,0,0,1,1.326.068l5.081,5.081a.874.874,0,0,0,1.235-1.235L42.96,34.086a.935.935,0,0,1,.034-1.355.973.973,0,0,1,1.325.068l6.4,6.4a6.306,6.306,0,0,1,1.861,4.664A1.459,1.459,0,0,0,53,44.925Zm.085-43.178h4.806V9.82l-2.54,2.54-6.44-6.44Z" transform="translate(0 0)"/>
        <path id="Path_1044919" data-name="Path 1044919" d="M33.672,43.588l-2.354,2.354a.874.874,0,0,0,1.235,1.235l2.354-2.354a.874.874,0,0,0-1.235-1.235Z" transform="translate(-27.444 -38.285)"/>
        <path id="Path_1044920" data-name="Path 1044920" d="M448.337,47.177a.874.874,0,0,0,1.235-1.235l-2.354-2.354a.874.874,0,0,0-1.235,1.235Z" transform="translate(-393.811 -38.284)"/>
        <path id="Path_1044921" data-name="Path 1044921" d="M32.554,433.713a.874.874,0,1,0-1.235,1.235l2.354,2.354a.874.874,0,0,0,1.235-1.235Z" transform="translate(-27.445 -382.97)"/>
        <path id="Path_1044922" data-name="Path 1044922" d="M448.336,433.714l-2.354,2.354a.874.874,0,0,0,1.235,1.235l2.354-2.354a.874.874,0,0,0-1.235-1.235Z" transform="translate(-393.81 -382.97)"/>
      </g>
    </g>
  </g>
</svg>
