<svg xmlns="http://www.w3.org/2000/svg" xmlns:xlink="http://www.w3.org/1999/xlink" width="108" height="108" viewBox="0 0 108 108">
  <defs>
    <filter id="Path_904820" x="0" y="0" width="108" height="108" filterUnits="userSpaceOnUse">
      <feOffset dy="3" input="SourceAlpha"/>
      <feGaussianBlur stdDeviation="3" result="blur"/>
      <feFlood flood-opacity="0.161"/>
      <feComposite operator="in" in2="blur"/>
      <feComposite in="SourceGraphic"/>
    </filter>
  </defs>
  <g id="Group_1226404" data-name="Group 1226404" transform="translate(-200.088 -2027.294)">
    <g id="Group_1226345" data-name="Group 1226345">
      <g id="Group_1225128" data-name="Group 1225128" transform="translate(0 1173.294)">
        <g id="Group_1206312" data-name="Group 1206312" transform="translate(209.088 860)">
          <g id="Group_1203639" data-name="Group 1203639" transform="translate(0 0)">
            <g id="Group_1202437" data-name="Group 1202437" transform="translate(0 0)">
              <g id="Group_1177315" data-name="Group 1177315">
                <g id="Group_1173585" data-name="Group 1173585" transform="translate(0)">
                  <g id="Group_1173428" data-name="Group 1173428">
                    <g id="Group_1171958" data-name="Group 1171958">
                      <g id="Group_1167341" data-name="Group 1167341">
                        <g id="Group_1166792" data-name="Group 1166792">
                          <g transform="matrix(1, 0, 0, 1, -9, -6)" filter="url(#Path_904820)">
                            <g id="Path_904820-2" data-name="Path 904820" transform="translate(9 6)" fill="#ebe9f0">
                              <path d="M 44.99999618530273 88.49997711181641 C 39.12687301635742 88.49997711181641 33.43022155761719 87.35005187988281 28.06829643249512 85.0821533203125 C 22.88852119445801 82.89128875732422 18.23629570007324 79.75457763671875 14.24084663391113 75.75912475585938 C 10.24540901184082 71.76367950439453 7.108683586120605 67.1114501953125 4.917821407318115 61.93169021606445 C 2.649921178817749 56.56975173950195 1.499996185302734 50.87311172485352 1.499996185302734 44.9999885559082 C 1.499996185302734 39.12686538696289 2.649921178817749 33.43021392822266 4.917821407318115 28.06828880310059 C 7.108683586120605 22.88851356506348 10.24540901184082 18.23630142211914 14.24084663391113 14.24085140228271 C 18.23629570007324 10.24540138244629 22.88852119445801 7.108688354492188 28.06829643249512 4.917826175689697 C 33.43022155761719 2.649925947189331 39.12687301635742 1.500001072883606 44.99999618530273 1.500001072883606 C 50.87311935424805 1.500001072883606 56.56977081298828 2.649925947189331 61.93169784545898 4.917826175689697 C 67.11147308349609 7.108688354492188 71.76369476318359 10.24540138244629 75.75914764404297 14.24085140228271 C 79.75458526611328 18.23630142211914 82.89131164550781 22.88851356506348 85.08216857910156 28.06828880310059 C 87.35007476806641 33.43021392822266 88.5 39.12686538696289 88.5 44.9999885559082 C 88.5 50.87311172485352 87.35007476806641 56.56975173950195 85.08216857910156 61.93169021606445 C 82.89131164550781 67.1114501953125 79.75458526611328 71.76367950439453 75.75914764404297 75.75912475585938 C 71.76369476318359 79.75457763671875 67.11147308349609 82.89128875732422 61.93169784545898 85.0821533203125 C 56.56977081298828 87.35005187988281 50.87311935424805 88.49997711181641 44.99999618530273 88.49997711181641 Z" stroke="none"/>
                              <path d="M 44.99999618530273 3 C 39.32870864868164 3 33.82865142822266 4.110061645507812 28.65262603759766 6.299331665039062 C 23.65165710449219 8.414573669433594 19.15968322753906 11.44332885742188 15.301513671875 15.301513671875 C 11.44333648681641 19.15969085693359 8.414566040039062 23.65164947509766 6.299339294433594 28.65261840820312 C 4.110054016113281 33.82864379882812 2.999992370605469 39.32870101928711 2.999992370605469 44.9999885559082 C 2.999992370605469 50.6712760925293 4.110054016113281 56.17131805419922 6.299339294433594 61.34735870361328 C 8.414566040039062 66.34832763671875 11.44333648681641 70.84028625488281 15.301513671875 74.69845581054688 C 19.15968322753906 78.55663299560547 23.65165710449219 81.58540344238281 28.65262603759766 83.70063018798828 C 33.82865142822266 85.88991546630859 39.32870864868164 86.99997711181641 44.99999618530273 86.99997711181641 C 50.67128372192383 86.99997711181641 56.17134094238281 85.88991546630859 61.34736633300781 83.70063018798828 C 66.34834289550781 81.58540344238281 70.84030914306641 78.55663299560547 74.69847869873047 74.69845581054688 C 78.55665588378906 70.84028625488281 81.58542633056641 66.34832763671875 83.70065307617188 61.34735870361328 C 85.88993835449219 56.17131805419922 87 50.6712760925293 87 44.9999885559082 C 87 39.32870101928711 85.88993835449219 33.82864379882812 83.70065307617188 28.65261840820312 C 81.58542633056641 23.65164947509766 78.55665588378906 19.15969085693359 74.69847869873047 15.301513671875 C 70.84030914306641 11.44332885742188 66.34834289550781 8.414573669433594 61.34736633300781 6.299331665039062 C 56.17134094238281 4.110061645507812 50.67128372192383 3 44.99999618530273 3 M 44.99999618530273 0 C 69.85281372070312 0 90 20.14717102050781 90 44.9999885559082 C 90 69.85279083251953 69.85281372070312 89.99997711181641 44.99999618530273 89.99997711181641 C 20.14717864990234 89.99997711181641 -7.62939453125e-06 69.85279083251953 -7.62939453125e-06 44.9999885559082 C -7.62939453125e-06 20.14717102050781 20.14717864990234 0 44.99999618530273 0 Z" stroke="none" fill="#453179"/>
                            </g>
                          </g>
                        </g>
                      </g>
                    </g>
                  </g>
                </g>
              </g>
            </g>
          </g>
        </g>
      </g>
      <g id="aprendizaje-electronico_1_" data-name="aprendizaje-electronico (1)" transform="translate(215.702 2039.909)">
        <g id="Group_1226343" data-name="Group 1226343" transform="translate(8.98 8.98)">
          <g id="Group_1226342" data-name="Group 1226342" transform="translate(0 0)">
            <path id="Path_1213816" data-name="Path 1213816" d="M74.811,106.941v30.385H16V106.941A2.941,2.941,0,0,1,18.941,104H71.87a2.941,2.941,0,0,1,2.941,2.941Z" transform="translate(-16 -93.218)" fill="#83d8f4"/>
            <path id="Path_1213817" data-name="Path 1213817" d="M74.811,376v2.941a2.941,2.941,0,0,1-2.941,2.941H18.941A2.941,2.941,0,0,1,16,378.941V376Z" transform="translate(-16 -331.892)" fill="#e0e0e2"/>
            <path id="Path_1213818" data-name="Path 1213818" d="M213.722,429.881H200L201.96,424h9.8Z" transform="translate(-177.456 -374.011)" fill="#57565c"/>
            <path id="Path_1213819" data-name="Path 1213819" d="M168,472h21.564v2.941H168Z" transform="translate(-149.377 -416.13)" fill="#e0e0e2"/>
            <path id="Path_1213820" data-name="Path 1213820" d="M195.6,80V91.762a25.485,25.485,0,0,1-19.6,0V80" transform="translate(-156.396 -72.159)" fill="#2d2d30"/>
            <ellipse id="Ellipse_12719" data-name="Ellipse 12719" cx="2" cy="1.5" rx="2" ry="1.5" transform="translate(40.02 22.02)" fill="#ffda44"/>
            <path id="Path_1213821" data-name="Path 1213821" d="M150.7,27.762,136,21.881,150.7,16l14.7,5.881Z" transform="translate(-121.297 -16)" fill="#3e3d42"/>
          </g>
          <path id="Path_1213822" data-name="Path 1213822" d="M80,248H99.6v11.762H80Z" transform="translate(-72.159 -219.575)" fill="#ffda44"/>
        </g>
        <g id="Group_1226344" data-name="Group 1226344" transform="translate(8 8)">
          <path id="Path_1213823" data-name="Path 1213823" d="M64.85,18.782H52.108V16.309l1.344-.538a.98.98,0,0,0,0-1.821L38.749,8.07a.983.983,0,0,0-.728,0l-14.7,5.881a.98.98,0,0,0,0,1.821L27.6,17.486v1.3H11.921A3.924,3.924,0,0,0,8,22.7V56.029a3.924,3.924,0,0,0,3.921,3.921h20.2L30.817,63.87H27.6a.98.98,0,0,0-.98.98v2.941a.98.98,0,0,0,.98.98H49.167a.98.98,0,0,0,.98-.98V64.85a.98.98,0,0,0-.98-.98H45.954l-1.307-3.921h20.2a3.924,3.924,0,0,0,3.921-3.921V22.7A3.924,3.924,0,0,0,64.85,18.782ZM52.108,32.5a.98.98,0,1,1-.98-.98A.98.98,0,0,1,52.108,32.5ZM26.322,14.861l12.064-4.825,12.064,4.825L38.385,19.686Zm23.826,2.232v1.688h-.98v-1.3ZM47.207,18.27v9.642a24.542,24.542,0,0,1-17.643,0V18.27l8.458,3.383a.983.983,0,0,0,.728,0Zm.98,47.561v.98h-19.6v-.98Zm-15.3-1.96,1.307-3.921h8.388l1.307,3.921Zm33.926-7.841a1.963,1.963,0,0,1-1.96,1.96H11.921a1.963,1.963,0,0,1-1.96-1.96v-1.96h56.85Zm0-3.921H9.96V22.7a1.963,1.963,0,0,1,1.96-1.96H27.6v7.841a.981.981,0,0,0,.616.91,26.555,26.555,0,0,0,20.331,0,.981.981,0,0,0,.616-.91V20.742h.98v8.822a1.035,1.035,0,0,0,.015.164,2.941,2.941,0,1,0,1.931,0,1.036,1.036,0,0,0,.015-.164V20.742H64.85a1.963,1.963,0,0,1,1.96,1.96Z" transform="translate(-8 -8)"/>
          <path id="Path_1213824" data-name="Path 1213824" d="M46.861,392H40.98a.98.98,0,1,0,0,1.96h5.881a.98.98,0,1,0,0-1.96Z" transform="translate(-36.079 -344.952)"/>
          <path id="Path_1213825" data-name="Path 1213825" d="M113.96,392h-.98a.98.98,0,1,0,0,1.96h.98a.98.98,0,1,0,0-1.96Z" transform="translate(-99.258 -344.952)"/>
          <path id="Path_1213826" data-name="Path 1213826" d="M72.98,253.722h19.6a.98.98,0,0,0,.98-.98V240.98a.98.98,0,0,0-.98-.98H72.98a.98.98,0,0,0-.98.98v11.762A.98.98,0,0,0,72.98,253.722Zm.98-11.762H91.6v9.8H73.96Z" transform="translate(-64.159 -211.575)"/>
          <path id="Path_1213827" data-name="Path 1213827" d="M72.98,217.96h7.841a.98.98,0,1,0,0-1.96H72.98a.98.98,0,1,0,0,1.96Z" transform="translate(-64.159 -190.515)"/>
          <path id="Path_1213828" data-name="Path 1213828" d="M72.98,193.96h2.941a.98.98,0,1,0,0-1.96H72.98a.98.98,0,1,0,0,1.96Z" transform="translate(-64.159 -169.456)"/>
          <path id="Path_1213829" data-name="Path 1213829" d="M264.98,241.96h19.6a.98.98,0,1,0,0-1.96h-19.6a.98.98,0,0,0,0,1.96Z" transform="translate(-232.634 -211.575)"/>
          <path id="Path_1213830" data-name="Path 1213830" d="M264.98,265.96h19.6a.98.98,0,1,0,0-1.96h-19.6a.98.98,0,0,0,0,1.96Z" transform="translate(-232.634 -232.634)"/>
          <path id="Path_1213831" data-name="Path 1213831" d="M264.98,289.96h15.56a.98.98,0,0,0,0-1.96H264.98a.98.98,0,0,0,0,1.96Z" transform="translate(-232.634 -253.694)"/>
          <path id="Path_1213832" data-name="Path 1213832" d="M417.96,288h-.98a.98.98,0,0,0,0,1.96h.98a.98.98,0,0,0,0-1.96Z" transform="translate(-366.011 -253.694)"/>
          <path id="Path_1213833" data-name="Path 1213833" d="M264.98,313.96h19.6a.98.98,0,1,0,0-1.96h-19.6a.98.98,0,0,0,0,1.96Z" transform="translate(-232.634 -274.753)"/>
          <path id="Path_1213834" data-name="Path 1213834" d="M264.98,337.96h15.56a.98.98,0,0,0,0-1.96H264.98a.98.98,0,0,0,0,1.96Z" transform="translate(-232.634 -295.813)"/>
          <path id="Path_1213835" data-name="Path 1213835" d="M417.96,336h-.98a.98.98,0,0,0,0,1.96h.98a.98.98,0,0,0,0-1.96Z" transform="translate(-366.011 -295.813)"/>
        </g>
      </g>
    </g>
  </g>
</svg>
