<svg xmlns="http://www.w3.org/2000/svg" xmlns:xlink="http://www.w3.org/1999/xlink" width="106.16" height="106.16" viewBox="0 0 106.16 106.16">
  <defs>
    <filter id="Path_982547" x="0" y="0" width="106.16" height="106.16" filterUnits="userSpaceOnUse">
      <feOffset dy="3" input="SourceAlpha"/>
      <feGaussianBlur stdDeviation="3" result="blur"/>
      <feFlood flood-opacity="0.161"/>
      <feComposite operator="in" in2="blur"/>
      <feComposite in="SourceGraphic"/>
    </filter>
  </defs>
  <g id="Group_1206362" data-name="Group 1206362" transform="translate(-190.67 -3554.635)">
    <g id="Group_1206198" data-name="Group 1206198" transform="translate(0 22.417)">
      <g id="Group_1203824" data-name="Group 1203824" transform="translate(199.67 3538.218)">
        <g id="Group_1203344" data-name="Group 1203344" transform="translate(0 0)">
          <g id="Group_1177900" data-name="Group 1177900">
            <g id="Group_1172010" data-name="Group 1172010" transform="translate(0)">
              <g id="Group_1171046" data-name="Group 1171046">
                <g id="Group_1148525" data-name="Group 1148525">
                  <g transform="matrix(1, 0, 0, 1, -9, -6)" filter="url(#Path_982547)">
                    <g id="Path_982547-2" data-name="Path 982547" transform="translate(9 6)" fill="#fdfbec">
                      <path d="M 44.0802001953125 86.660400390625 C 38.33124923706055 86.660400390625 32.75506210327148 85.53479766845703 27.50652503967285 83.31484985351562 C 22.43628692626953 81.17032623291016 17.88242530822754 78.09992218017578 13.97144985198975 74.18894958496094 C 10.06047534942627 70.27797698974609 6.99007511138916 65.72411346435547 4.845550060272217 60.65387344360352 C 2.625600099563599 55.40533828735352 1.500000238418579 49.82915115356445 1.500000238418579 44.0802001953125 C 1.500000238418579 38.33124923706055 2.625600099563599 32.75506210327148 4.845550060272217 27.50652503967285 C 6.99007511138916 22.43628692626953 10.06047534942627 17.88242530822754 13.97144985198975 13.97144985198975 C 17.88242530822754 10.06047534942627 22.43628692626953 6.99007511138916 27.50652503967285 4.845550060272217 C 32.75506210327148 2.625600099563599 38.33124923706055 1.500000238418579 44.0802001953125 1.500000238418579 C 49.82915115356445 1.500000238418579 55.40533828735352 2.625600099563599 60.65387344360352 4.845550060272217 C 65.72411346435547 6.99007511138916 70.27797698974609 10.06047534942627 74.18894958496094 13.97144985198975 C 78.09992218017578 17.88242530822754 81.17032623291016 22.43628692626953 83.31484985351562 27.50652503967285 C 85.53479766845703 32.75506210327148 86.660400390625 38.33124923706055 86.660400390625 44.0802001953125 C 86.660400390625 49.82915115356445 85.53479766845703 55.40533828735352 83.31484985351562 60.65387344360352 C 81.17032623291016 65.72411346435547 78.09992218017578 70.27797698974609 74.18894958496094 74.18894958496094 C 70.27797698974609 78.09992218017578 65.72411346435547 81.17032623291016 60.65387344360352 83.31484985351562 C 55.40533828735352 85.53479766845703 49.82915115356445 86.660400390625 44.0802001953125 86.660400390625 Z" stroke="none"/>
                      <path d="M 44.0802001953125 3 C 38.53308486938477 3 33.15349960327148 4.085746765136719 28.09085845947266 6.227058410644531 C 23.19941711425781 8.29595947265625 18.80581665039062 11.25841522216797 15.03211212158203 15.03211212158203 C 11.25841522216797 18.80581665039062 8.29595947265625 23.19941711425781 6.227058410644531 28.09085845947266 C 4.085746765136719 33.15349960327148 3 38.53308486938477 3 44.0802001953125 C 3 49.62731552124023 4.085746765136719 55.00691604614258 6.227058410644531 60.06954193115234 C 8.29595947265625 64.96098327636719 11.25841522216797 69.35458374023438 15.03211212158203 73.12828826904297 C 18.80581665039062 76.90198516845703 23.19941711425781 79.86444091796875 28.09085845947266 81.93334197998047 C 33.15349960327148 84.07466125488281 38.53308486938477 85.160400390625 44.0802001953125 85.160400390625 C 49.62731552124023 85.160400390625 55.00691604614258 84.07466125488281 60.06954193115234 81.93334197998047 C 64.96099853515625 79.86444091796875 69.35458374023438 76.90198516845703 73.12828826904297 73.12828826904297 C 76.90198516845703 69.35458374023438 79.86444091796875 64.96099853515625 81.93334197998047 60.06954193115234 C 84.07466125488281 55.00691604614258 85.160400390625 49.62731552124023 85.160400390625 44.0802001953125 C 85.160400390625 38.53308486938477 84.07466125488281 33.15349960327148 81.93334197998047 28.09085845947266 C 79.86444091796875 23.19941711425781 76.90198516845703 18.80581665039062 73.12828826904297 15.03211212158203 C 69.35458374023438 11.25841522216797 64.96098327636719 8.29595947265625 60.06954193115234 6.227058410644531 C 55.00691604614258 4.085746765136719 49.62731552124023 3 44.0802001953125 3 M 44.0802001953125 0 C 68.42502593994141 0 88.160400390625 19.73538970947266 88.160400390625 44.0802001953125 C 88.160400390625 68.42502593994141 68.42502593994141 88.160400390625 44.0802001953125 88.160400390625 C 19.73538970947266 88.160400390625 0 68.42502593994141 0 44.0802001953125 C 0 19.73538970947266 19.73538970947266 0 44.0802001953125 0 Z" stroke="none" fill="#83793c"/>
                    </g>
                  </g>
                </g>
              </g>
            </g>
          </g>
        </g>
      </g>
      <g id="maestro_1_" data-name="maestro (1)" transform="translate(212.795 3552.01)">
        <g id="Group_1206196" data-name="Group 1206196" transform="translate(1.563 0.844)">
          <path id="Path_1044773" data-name="Path 1044773" d="M167.95,121.048h30.5a3.866,3.866,0,0,0,3.866-3.866V82.6a3.866,3.866,0,0,0-3.866-3.866h-30.5a3.866,3.866,0,0,0-3.866,3.866v34.582A3.866,3.866,0,0,0,167.95,121.048Z" transform="translate(-146.542 -70.717)" fill="#e49280"/>
          <path id="Path_1044774" data-name="Path 1044774" d="M0,0H34.214V34.755H0Z" transform="translate(17.078 46.281) rotate(-90)" fill="#97da7b"/>
          <g id="Group_1206195" data-name="Group 1206195">
            <path id="Path_1044775" data-name="Path 1044775" d="M79.1,366.133H76.5a9.5,9.5,0,0,0-9.5,9.5v5.319a.749.749,0,0,0,.749.749H87.854a.749.749,0,0,0,.749-.749v-5.319A9.5,9.5,0,0,0,79.1,366.133Z" transform="translate(-60.383 -325.771)" fill="#2ed1e2"/>
            <path id="Path_1044776" data-name="Path 1044776" d="M80.756,366.278a9.508,9.508,0,0,0-7.847,9.361v6.067H67.747a.749.749,0,0,1-.749-.749v-5.318a9.505,9.505,0,0,1,9.505-9.505H79.1A9.569,9.569,0,0,1,80.756,366.278Z" transform="translate(-60.383 -325.772)" fill="#02c7dd"/>
            <path id="Path_1044777" data-name="Path 1044777" d="M131.142,372.7a4.329,4.329,0,0,0,7.167,0l-3.584-6.567Z" transform="translate(-117.308 -325.771)" fill="#cbe5e8"/>
            <path id="Path_1044778" data-name="Path 1044778" d="M63.839,29.978V21.9a14.4,14.4,0,1,0-28.8,0v8.079Z" transform="translate(-32.022 -7.5)" fill="#596c76"/>
            <path id="Path_1044779" data-name="Path 1044779" d="M53.767,8.161A14.412,14.412,0,0,0,43.694,21.9v8.08H35.041V21.9A14.411,14.411,0,0,1,53.767,8.161Z" transform="translate(-32.022 -7.5)" fill="#465a61"/>
            <path id="Path_1044780" data-name="Path 1044780" d="M37.114,176.528a4.067,4.067,0,0,1,5.78,4.74c-.625,2.157-3.254,4.7-5.412,4.073a2.413,2.413,0,0,1-.465-.19H14.257a2.406,2.406,0,0,1-.465.19c-2.158.625-4.787-1.916-5.411-4.073a4.067,4.067,0,0,1,5.779-4.74Z" transform="translate(-8.219 -157.099)" fill="#ffcebf"/>
            <path id="Path_1044781" data-name="Path 1044781" d="M120.465,366.133l1.494.332a1.874,1.874,0,0,1,1.43,2.2l-.7,3.453a.924.924,0,0,1-1.424.582l-3.586-2.428L114.1,372.7a.924.924,0,0,1-1.424-.582l-.7-3.453a1.874,1.874,0,0,1,1.43-2.2l1.494-.332Z" transform="translate(-100.265 -325.771)" fill="#deecf1"/>
            <path id="Path_1044782" data-name="Path 1044782" d="M143.822,312.72v6.011l-2.783,4.141-.711-1.057-2.072-3.083V312.72Z" transform="translate(-123.621 -278.37)" fill="#ffdfcf"/>
            <path id="Path_1044783" data-name="Path 1044783" d="M83.959,140.057v9.678a11.477,11.477,0,0,1-22.953,0v-9.678q0-.5.044-1a4.858,4.858,0,0,0,7.278-1.2,4.859,4.859,0,0,0,8.309,0,4.858,4.858,0,0,0,7.278,1.2q.045.493.044,1Z" transform="translate(-55.065 -123.187)" fill="#ffdfcf"/>
            <g id="Group_1206194" data-name="Group 1206194" transform="translate(5.941 15.872)">
              <path id="Path_1044784" data-name="Path 1044784" d="M75.314,170.334a11.488,11.488,0,0,1-14.307-11.125v-9.678q0-.5.044-1a4.856,4.856,0,0,0,5.629.441c-.009.184-.014.369-.014.556v9.678A11.48,11.48,0,0,0,75.314,170.334Z" transform="translate(-61.007 -148.534)" fill="#ffcebf"/>
              <path id="Path_1044785" data-name="Path 1044785" d="M140.328,327.309v6.623l-2.072-3.083v-4.475Z" transform="translate(-129.562 -306.359)" fill="#ffcebf"/>
            </g>
          </g>
          <path id="Path_1044786" data-name="Path 1044786" d="M245.68,444.43h-1.038a2.861,2.861,0,0,0-2.861,2.861v1.038a2.861,2.861,0,0,0,2.861,2.861h1.038a2.861,2.861,0,0,0,2.861-2.861v-1.038A2.861,2.861,0,0,0,245.68,444.43Z" transform="translate(-215.495 -395.257)" fill="#ffdfcf"/>
          <path id="Path_1044787" data-name="Path 1044787" d="M246.4,451.1a2.865,2.865,0,0,1-.72.091h-1.038a2.862,2.862,0,0,1-2.862-2.861v-1.039a2.862,2.862,0,0,1,2.862-2.861h1.038a2.865,2.865,0,0,1,.72.091,2.863,2.863,0,0,0-2.141,2.77v1.039A2.863,2.863,0,0,0,246.4,451.1Z" transform="translate(-215.496 -395.253)" fill="#ffcebf"/>
        </g>
        <g id="Group_1206197" data-name="Group 1206197" transform="translate(0.719)">
          <path id="Path_1044788" data-name="Path 1044788" d="M53.469,8.016H32.4A15.241,15.241,0,0,0,9.773,3.095a.844.844,0,1,0,1.021,1.345,13.429,13.429,0,0,1,8.187-2.751A13.57,13.57,0,0,1,32.535,15.243v3.733a4.873,4.873,0,0,0-1.234.106V17.713c0-.364-.016-.724-.047-1.073a.844.844,0,0,0-1.384-.571,4.014,4.014,0,0,1-6.014-.994.844.844,0,0,0-.721-.406h0a.844.844,0,0,0-.721.406,4.015,4.015,0,0,1-6.866,0,.844.844,0,0,0-.721-.406h0a.844.844,0,0,0-.721.406,4.014,4.014,0,0,1-6.014.994.844.844,0,0,0-1.384.571c-.031.348-.047.709-.047,1.073v1.368a4.875,4.875,0,0,0-1.234-.106V15.243A13.431,13.431,0,0,1,8.177,7.056.844.844,0,0,0,6.832,6.035a15.1,15.1,0,0,0-3.095,9.208v4.11a4.919,4.919,0,0,0-2.825,5.9,7.474,7.474,0,0,0,2.405,3.5,5.006,5.006,0,0,0,3.12,1.282,3.423,3.423,0,0,0,.5-.037,12.365,12.365,0,0,0,8.417,9.177v1.362l-.834.185a2.685,2.685,0,0,0-1.194.609,10.368,10.368,0,0,0-5.991,9.388V56.03a1.594,1.594,0,0,0,1.592,1.592H20.595a.844.844,0,0,0,0-1.688H9.023V50.711a8.68,8.68,0,0,1,3.409-6.886c0,.027.009.054.014.081l.7,3.453a1.759,1.759,0,0,0,1.955,1.4,5.171,5.171,0,0,0,7.765,0,1.768,1.768,0,0,0,1.955-1.4l.7-3.453c.006-.028.01-.057.015-.085a8.614,8.614,0,0,1,3.346,5.841A3.707,3.707,0,0,0,27,52.879v1.038a3.683,3.683,0,0,0,.6,2.017H24.533a.844.844,0,0,0,0,1.688h7.215a3.71,3.71,0,0,0,3.705-3.705V52.879a3.7,3.7,0,0,0-.1-.86H53.469a4.715,4.715,0,0,0,4.71-4.71V12.726a4.715,4.715,0,0,0-4.71-4.71ZM33.226,20.787a3.227,3.227,0,0,1,2.2,3.991,5.815,5.815,0,0,1-1.856,2.662,3.137,3.137,0,0,1-2.3.877c.015-.2.035-2.285.035-2.285a1.964,1.964,0,0,1,1.452-1.9.844.844,0,1,0-.437-1.631,3.629,3.629,0,0,0-1.015.448V20.829a3.213,3.213,0,0,1,1.925-.042ZM4.39,27.441a5.814,5.814,0,0,1-1.856-2.662,3.223,3.223,0,0,1,4.126-3.95v2.126a3.629,3.629,0,0,0-1.015-.448.844.844,0,1,0-.437,1.631,1.964,1.964,0,0,1,1.452,1.9s.02,2.089.035,2.285a3.137,3.137,0,0,1-2.3-.877Zm3.958-.049V18.2a5.7,5.7,0,0,0,6.478-1.3,5.711,5.711,0,0,0,8.31,0,5.7,5.7,0,0,0,6.478,1.3v9.188a10.632,10.632,0,0,1-21.265,0ZM18.981,39.712a12.362,12.362,0,0,0,1.939-.153v1.39l-1.939,2.885-1.939-2.885v-1.39A12.361,12.361,0,0,0,18.981,39.712Zm-4.88,3.86a1.036,1.036,0,0,1,.786-1.209l.932-.207,1.992,2.964-2.889,1.956a.08.08,0,0,1-.124-.051Zm2.554,4.368,2.325-1.574,2.325,1.574a3.484,3.484,0,0,1-4.651,0Zm7.205-4.368-.7,3.453a.08.08,0,0,1-.124.05L20.15,45.119l1.992-2.964.932.207a1.036,1.036,0,0,1,.786,1.21Zm6.4,4.4h2.407l-.36,1.247a3.715,3.715,0,0,0-.56-.042H30.71c-.066,0-.131,0-.2.005a10.347,10.347,0,0,0-.252-1.209Zm3.5,5.947a2.02,2.02,0,0,1-2.017,2.017H30.71a2.02,2.02,0,0,1-2.017-2.017V52.879a2.02,2.02,0,0,1,2.017-2.017h1.038a2.02,2.02,0,0,1,2.017,2.017Zm22.726-6.608a3.025,3.025,0,0,1-3.022,3.022H34.434a3.737,3.737,0,0,0-.553-.479l.544-1.883H53.4a.844.844,0,0,0,.844-.844V37.164a.844.844,0,1,0-1.688,0v9.117H34.913L39.4,30.751a.844.844,0,0,0-1.622-.469l-4.623,16H29.638a10.324,10.324,0,0,0-5-4.958,2.687,2.687,0,0,0-1.194-.609l-.834-.185V39.167a12.365,12.365,0,0,0,8.417-9.177,3.405,3.405,0,0,0,.5.037,5.007,5.007,0,0,0,3.12-1.283,7.474,7.474,0,0,0,2.406-3.5,4.919,4.919,0,0,0-2.825-5.9v-4.11q0-.753-.073-1.488h18.4v19.47a.844.844,0,1,0,1.688,0V12.911a.844.844,0,0,0-.844-.844H33.89A15.107,15.107,0,0,0,33.182,9.7H53.469a3.025,3.025,0,0,1,3.022,3.022Z" transform="translate(-0.719)"/>
          <path id="Path_1044789" data-name="Path 1044789" d="M117.921,190.848v-1.489a.844.844,0,1,0-1.688,0v1.489a.844.844,0,1,0,1.688,0Z" transform="translate(-103.233 -167.299)"/>
          <path id="Path_1044790" data-name="Path 1044790" d="M195.575,191.692a.844.844,0,0,0,.844-.844v-1.489a.844.844,0,1,0-1.688,0v1.489A.844.844,0,0,0,195.575,191.692Z" transform="translate(-172.896 -167.299)"/>
          <path id="Path_1044791" data-name="Path 1044791" d="M136.422,257.474a.844.844,0,1,0-1.194-1.194,3.37,3.37,0,0,1-4.761,0,.844.844,0,1,0-1.194,1.194,5.061,5.061,0,0,0,7.148,0Z" transform="translate(-114.586 -227.219)"/>
        </g>
      </g>
    </g>
  </g>
</svg>
