<svg xmlns="http://www.w3.org/2000/svg" xmlns:xlink="http://www.w3.org/1999/xlink" width="106.16" height="106.16" viewBox="0 0 106.16 106.16">
  <defs>
    <filter id="Path_982547" x="0" y="0" width="106.16" height="106.16" filterUnits="userSpaceOnUse">
      <feOffset dy="3" input="SourceAlpha"/>
      <feGaussianBlur stdDeviation="3" result="blur"/>
      <feFlood flood-opacity="0.161"/>
      <feComposite operator="in" in2="blur"/>
      <feComposite in="SourceGraphic"/>
    </filter>
  </defs>
  <g id="Group_1206335" data-name="Group 1206335" transform="translate(-191 -1803.312)">
    <g id="Group_1206130" data-name="Group 1206130" transform="translate(0 21.312)">
      <g id="Group_1203672" data-name="Group 1203672" transform="translate(0.08 -4797.878)">
        <g id="Group_1203344" data-name="Group 1203344" transform="translate(-81.08 5174.875)">
          <g id="Group_1177900" data-name="Group 1177900" transform="translate(281 1411.003)">
            <g id="Group_1172010" data-name="Group 1172010" transform="translate(0)">
              <g id="Group_1171046" data-name="Group 1171046">
                <g id="Group_1148525" data-name="Group 1148525">
                  <g transform="matrix(1, 0, 0, 1, -9, -6)" filter="url(#Path_982547)">
                    <g id="Path_982547-2" data-name="Path 982547" transform="translate(9 6)" fill="#fdfbec">
                      <path d="M 44.0802001953125 86.660400390625 C 38.33124923706055 86.660400390625 32.75506210327148 85.53479766845703 27.50652503967285 83.31484985351562 C 22.43628692626953 81.17032623291016 17.88242530822754 78.09992218017578 13.97144985198975 74.18894958496094 C 10.06047534942627 70.27797698974609 6.99007511138916 65.72411346435547 4.845550060272217 60.65387344360352 C 2.625600099563599 55.40533828735352 1.500000238418579 49.82915115356445 1.500000238418579 44.0802001953125 C 1.500000238418579 38.33124923706055 2.625600099563599 32.75506210327148 4.845550060272217 27.50652503967285 C 6.99007511138916 22.43628692626953 10.06047534942627 17.88242530822754 13.97144985198975 13.97144985198975 C 17.88242530822754 10.06047534942627 22.43628692626953 6.99007511138916 27.50652503967285 4.845550060272217 C 32.75506210327148 2.625600099563599 38.33124923706055 1.500000238418579 44.0802001953125 1.500000238418579 C 49.82915115356445 1.500000238418579 55.40533828735352 2.625600099563599 60.65387344360352 4.845550060272217 C 65.72411346435547 6.99007511138916 70.27797698974609 10.06047534942627 74.18894958496094 13.97144985198975 C 78.09992218017578 17.88242530822754 81.17032623291016 22.43628692626953 83.31484985351562 27.50652503967285 C 85.53479766845703 32.75506210327148 86.660400390625 38.33124923706055 86.660400390625 44.0802001953125 C 86.660400390625 49.82915115356445 85.53479766845703 55.40533828735352 83.31484985351562 60.65387344360352 C 81.17032623291016 65.72411346435547 78.09992218017578 70.27797698974609 74.18894958496094 74.18894958496094 C 70.27797698974609 78.09992218017578 65.72411346435547 81.17032623291016 60.65387344360352 83.31484985351562 C 55.40533828735352 85.53479766845703 49.82915115356445 86.660400390625 44.0802001953125 86.660400390625 Z" stroke="none"/>
                      <path d="M 44.0802001953125 3 C 38.53308486938477 3 33.15349960327148 4.085746765136719 28.09085845947266 6.227058410644531 C 23.19941711425781 8.29595947265625 18.80581665039062 11.25841522216797 15.03211212158203 15.03211212158203 C 11.25841522216797 18.80581665039062 8.29595947265625 23.19941711425781 6.227058410644531 28.09085845947266 C 4.085746765136719 33.15349960327148 3 38.53308486938477 3 44.0802001953125 C 3 49.62731552124023 4.085746765136719 55.00691604614258 6.227058410644531 60.06954193115234 C 8.29595947265625 64.96098327636719 11.25841522216797 69.35458374023438 15.03211212158203 73.12828826904297 C 18.80581665039062 76.90198516845703 23.19941711425781 79.86444091796875 28.09085845947266 81.93334197998047 C 33.15349960327148 84.07466125488281 38.53308486938477 85.160400390625 44.0802001953125 85.160400390625 C 49.62731552124023 85.160400390625 55.00691604614258 84.07466125488281 60.06954193115234 81.93334197998047 C 64.96099853515625 79.86444091796875 69.35458374023438 76.90198516845703 73.12828826904297 73.12828826904297 C 76.90198516845703 69.35458374023438 79.86444091796875 64.96099853515625 81.93334197998047 60.06954193115234 C 84.07466125488281 55.00691604614258 85.160400390625 49.62731552124023 85.160400390625 44.0802001953125 C 85.160400390625 38.53308486938477 84.07466125488281 33.15349960327148 81.93334197998047 28.09085845947266 C 79.86444091796875 23.19941711425781 76.90198516845703 18.80581665039062 73.12828826904297 15.03211212158203 C 69.35458374023438 11.25841522216797 64.96098327636719 8.29595947265625 60.06954193115234 6.227058410644531 C 55.00691604614258 4.085746765136719 49.62731552124023 3 44.0802001953125 3 M 44.0802001953125 0 C 68.42502593994141 0 88.160400390625 19.73538970947266 88.160400390625 44.0802001953125 C 88.160400390625 68.42502593994141 68.42502593994141 88.160400390625 44.0802001953125 88.160400390625 C 19.73538970947266 88.160400390625 0 68.42502593994141 0 44.0802001953125 C 0 19.73538970947266 19.73538970947266 0 44.0802001953125 0 Z" stroke="none" fill="#83793c"/>
                    </g>
                  </g>
                </g>
              </g>
            </g>
          </g>
        </g>
      </g>
      <g id="confuso" transform="translate(211.156 1802)">
        <path id="Path_1044481" data-name="Path 1044481" d="M124.611,380.336a1.913,1.913,0,0,0,1.892-2.174,16.245,16.245,0,0,0-32.2,0,1.913,1.913,0,0,0,1.892,2.174Z" transform="translate(-80.072 -321.977)" fill="#8fd9a9"/>
        <path id="Path_1044482" data-name="Path 1044482" d="M122.812,374.8l-1.745-4.069,2.551-.372c.777,1.752,3.322,3.973,8.074,4.615a16.248,16.248,0,0,0-30.674,0c4.753-.641,7.3-2.862,8.074-4.615l2.551.372L109.9,374.8a1.2,1.2,0,0,0,.471,1.5,11.138,11.138,0,0,1,3.478,4.032h5.015a11.137,11.137,0,0,1,3.478-4.032A1.2,1.2,0,0,0,122.812,374.8Z" transform="translate(-86.023 -321.977)" fill="#6ac65e"/>
        <ellipse id="Ellipse_12663" data-name="Ellipse 12663" cx="7.117" cy="5.818" rx="7.117" ry="5.818" transform="translate(4.61 27.396)" fill="#ffd3bd"/>
        <ellipse id="Ellipse_12664" data-name="Ellipse 12664" cx="7.117" cy="5.818" rx="7.117" ry="5.818" transform="translate(41.821 27.396)" fill="#ffbe9d"/>
        <path id="Path_1044483" data-name="Path 1044483" d="M98.347,159.157c0,10.114-9.114,17-20.356,17s-20.356-6.887-20.356-17,9.114-18.312,20.356-18.312S98.347,149.044,98.347,159.157Z" transform="translate(-47.659 -124.553)" fill="#ffd3bd"/>
        <path id="Path_1044484" data-name="Path 1044484" d="M77.991,182.923a25.268,25.268,0,0,0,8.042-1.275c-27.112-2.864-22.872-24.16-14.306-33.153-8.177,2.377-14.091,9.28-14.091,17.427C57.635,176.036,66.749,182.923,77.991,182.923Z" transform="translate(-47.658 -131.318)" fill="#ffbe9d"/>
        <g id="Group_1206128" data-name="Group 1206128" transform="translate(16.167 34.898)">
          <g id="Group_1206127" data-name="Group 1206127">
            <ellipse id="Ellipse_12665" data-name="Ellipse 12665" cx="3.818" cy="3.041" rx="3.818" ry="3.041" fill="#eda1ab"/>
            <ellipse id="Ellipse_12666" data-name="Ellipse 12666" cx="3.818" cy="3.041" rx="3.818" ry="3.041" transform="translate(20.696)" fill="#eda1ab"/>
          </g>
        </g>
        <path id="Path_1044485" data-name="Path 1044485" d="M56.076,97.206a9.943,9.943,0,0,1,5.936,2.035,1.1,1.1,0,0,0,1.31-.069c4.5-3.721,13.2-5.824,19.288-5.873a8.552,8.552,0,0,1,8.649,8.465,8.436,8.436,0,0,1-8.436,8.406c-4.39,0-15.39-.778-21.539-4.109a1.09,1.09,0,0,0-1.329.239,5.455,5.455,0,0,1-9.519-3.573A5.525,5.525,0,0,1,56.076,97.206Z" transform="translate(-41.291 -82.507)" fill="#cb9d82"/>
        <path id="Path_1044486" data-name="Path 1044486" d="M6.2,16.237a.906.906,0,1,0-.541-1.161A.906.906,0,0,0,6.2,16.237ZM8.02,8.7l-1.093,3a.868.868,0,0,0,1.631.593L9.92,8.551A.868.868,0,0,0,9.4,7.439a2.941,2.941,0,1,1,3.77-1.758.868.868,0,0,0,1.63.594A4.676,4.676,0,1,0,8.02,8.7ZM61.9,17.733a4.678,4.678,0,0,0-5.23-3.252l-1.093-3a.868.868,0,0,0-1.631.594l1.362,3.743a.868.868,0,0,0,1.112.518A2.941,2.941,0,1,1,54.664,20.1a.868.868,0,0,0-1.63.594A4.676,4.676,0,0,0,61.9,17.733ZM36.193,3.814a.906.906,0,1,0-1.281,0A.906.906,0,0,0,36.193,3.814ZM54.056,9.832A.906.906,0,1,0,52.9,9.291.906.906,0,0,0,54.056,9.832ZM23.222,31.016a1.972,1.972,0,0,1-2.025,0A.868.868,0,0,0,20.3,32.5a3.691,3.691,0,0,0,1.19.457.863.863,0,0,0-.152.49v1.561a.868.868,0,0,0,1.735,0V33.451a.863.863,0,0,0-.152-.49,3.691,3.691,0,0,0,1.19-.457.868.868,0,0,0-.893-1.487Zm9.58,4.122a12.884,12.884,0,0,0-4.579-.639h-.033a.868.868,0,0,0,0,1.735h.03a11.643,11.643,0,0,1,3.925.51.868.868,0,0,0,.657-1.606Zm5.653-2.555a.868.868,0,0,0-.868.868v1.561a.868.868,0,1,0,1.735,0V33.451A.868.868,0,0,0,38.455,32.583Zm-9.9-11.464a.868.868,0,1,0-.62,1.621,29.306,29.306,0,0,0,10.734,1.177.868.868,0,1,0-.234-1.719,28.13,28.13,0,0,1-9.88-1.078ZM49.6,26.554c-.257-.5-.535-.995-.841-1.476a9.254,9.254,0,0,0,2.08-5.817,9.423,9.423,0,0,0-9.524-9.336,40.278,40.278,0,0,0-8.7,1.132,4.654,4.654,0,0,0-.8-2.908l2.26-2.259a.868.868,0,1,0-1.227-1.227L30.019,7.479a.868.868,0,0,0,0,1.227,2.931,2.931,0,0,1,.763,2.828,35.553,35.553,0,0,0-4.562,1.636,2.941,2.941,0,0,1-.36-4.465.868.868,0,1,0-1.227-1.227,4.676,4.676,0,0,0-.1,6.512A18.322,18.322,0,0,0,21.479,16a.23.23,0,0,1-.275.017,11.329,11.329,0,0,0-4.892-2.067.868.868,0,0,0-.247,1.717,9.642,9.642,0,0,1,4.176,1.792,1.954,1.954,0,0,0,2.345-.122c4.434-3.663,13.184-5.674,18.8-5.674A7.684,7.684,0,0,1,49.1,19.254,7.582,7.582,0,0,1,41.533,26.8a72.479,72.479,0,0,1-9.981-.8,35.544,35.544,0,0,1-11.145-3.209,1.95,1.95,0,0,0-2.389.423,4.577,4.577,0,1,1-5.511-7.108.868.868,0,1,0-.8-1.537,6.291,6.291,0,0,0-.157,11.114c-.167.287-.328.577-.479.871A8.689,8.689,0,0,0,6.1,28.463a6.149,6.149,0,0,0-2.362,4.751c0,3.15,2.563,5.816,6.17,6.51a16.991,16.991,0,0,0,6.534,8.642,17.014,17.014,0,0,0-3.072,7.7,2.782,2.782,0,0,0,2.752,3.157H41.493a.868.868,0,1,0,0-1.735H34.38a8.9,8.9,0,0,1,2.392-2.425,2.082,2.082,0,0,0,.815-2.583l-.384-.895q.766-.2,1.506-.456a12.9,12.9,0,0,0,6.3,2.645,15.26,15.26,0,0,1,.559,2.523,1.047,1.047,0,0,1-.467,1.025.868.868,0,1,0,.949,1.452,2.8,2.8,0,0,0,1.237-2.707,17.013,17.013,0,0,0-3.072-7.7,16.991,16.991,0,0,0,6.534-8.642c3.607-.695,6.17-3.361,6.17-6.51,0-3.693-3.428-6.4-7.326-6.66ZM9.416,37.809c-2.315-.742-3.938-2.563-3.938-4.6,0-2.31,2.041-4.274,4.768-4.806A17.331,17.331,0,0,0,9.416,37.809ZM17.911,49.3a21.539,21.539,0,0,0,2.127,1.084A11.77,11.77,0,0,1,16.4,51.861,15.353,15.353,0,0,1,17.911,49.3Zm-1.784,8.189A1.045,1.045,0,0,1,15.094,56.3a15.26,15.26,0,0,1,.559-2.523,12.9,12.9,0,0,0,6.3-2.645q.74.251,1.506.456l-.384.895a2.082,2.082,0,0,0,.815,2.583,8.9,8.9,0,0,1,2.392,2.425Zm13.339,0H28.341a11.7,11.7,0,0,0-3.54-3.9.337.337,0,0,1-.127-.42l.507-1.183a26.869,26.869,0,0,0,4.284.473Zm6.4-3.9a11.7,11.7,0,0,0-3.54,3.9H31.2V52.458a26.881,26.881,0,0,0,4.284-.473l.507,1.183A.337.337,0,0,1,35.865,53.587Zm8.4-1.727a11.767,11.767,0,0,1-3.641-1.474A21.551,21.551,0,0,0,42.755,49.3,15.369,15.369,0,0,1,44.268,51.861ZM30.333,50.737c-10.376,0-19.488-6.211-19.488-16.133a16.005,16.005,0,0,1,2.34-8.29,6.314,6.314,0,0,0,6.125-1.943.221.221,0,0,1,.27-.055c6.153,3.333,17.05,4.214,21.953,4.214A9.258,9.258,0,0,0,47.5,26.353,15.983,15.983,0,0,1,49.821,34.6c0,9.916-9.1,16.133-19.488,16.133ZM51.249,37.809a17.324,17.324,0,0,0-.831-9.4c2.728.532,4.769,2.5,4.769,4.806C55.187,35.246,53.564,37.068,51.249,37.809ZM38.37,15.994c1-.129,3.64-.473,4.69.805A.868.868,0,1,0,44.4,15.7c-1.66-2.02-4.879-1.6-6.254-1.424a.868.868,0,0,0,.223,1.721Z"/>
      </g>
    </g>
  </g>
</svg>
