<svg xmlns="http://www.w3.org/2000/svg" xmlns:xlink="http://www.w3.org/1999/xlink" width="108" height="108" viewBox="0 0 108 108">
  <defs>
    <filter id="Path_904820" x="0" y="0" width="108" height="108" filterUnits="userSpaceOnUse">
      <feOffset dy="3" input="SourceAlpha"/>
      <feGaussianBlur stdDeviation="3" result="blur"/>
      <feFlood flood-opacity="0.161"/>
      <feComposite operator="in" in2="blur"/>
      <feComposite in="SourceGraphic"/>
    </filter>
  </defs>
  <g id="Group_1206325" data-name="Group 1206325" transform="translate(-205 -3931)">
    <g id="Group_1206126" data-name="Group 1206126" transform="translate(0 69)">
      <g id="Group_1203792" data-name="Group 1203792" transform="translate(214 3868)">
        <g id="Group_1203172" data-name="Group 1203172">
          <g id="Group_1202793" data-name="Group 1202793">
            <g id="Group_1178315" data-name="Group 1178315" transform="translate(0 0)">
              <g id="Group_1173585" data-name="Group 1173585">
                <g id="Group_1173428" data-name="Group 1173428">
                  <g id="Group_1171958" data-name="Group 1171958">
                    <g id="Group_1167341" data-name="Group 1167341">
                      <g id="Group_1166792" data-name="Group 1166792">
                        <g transform="matrix(1, 0, 0, 1, -9, -6)" filter="url(#Path_904820)">
                          <g id="Path_904820-2" data-name="Path 904820" transform="translate(9 6)" fill="#effbfe">
                            <path d="M 44.99999618530273 88.49999237060547 C 39.12687301635742 88.49999237060547 33.43022155761719 87.35006713867188 28.06829643249512 85.08216857910156 C 22.88852119445801 82.89130401611328 18.23629570007324 79.75457763671875 14.24084663391113 75.75914001464844 C 10.24540901184082 71.76369476318359 7.108683586120605 67.11146545410156 4.917821407318115 61.93169403076172 C 2.649921178817749 56.56976699829102 1.499996185302734 50.87311553955078 1.499996185302734 44.99999237060547 C 1.499996185302734 39.12686920166016 2.649921178817749 33.43021774291992 4.917821407318115 28.06829261779785 C 7.108683586120605 22.88851737976074 10.24540901184082 18.23630523681641 14.24084663391113 14.24085521697998 C 18.23629570007324 10.24540519714355 22.88852119445801 7.108692169189453 28.06829643249512 4.917829990386963 C 33.43022155761719 2.649929761886597 39.12687301635742 1.500004887580872 44.99999618530273 1.500004887580872 C 50.87311935424805 1.500004887580872 56.56977081298828 2.649929761886597 61.93169784545898 4.917829990386963 C 67.11147308349609 7.108692169189453 71.76369476318359 10.24540519714355 75.75914764404297 14.24085521697998 C 79.75458526611328 18.23630523681641 82.89131164550781 22.88851737976074 85.08216857910156 28.06829261779785 C 87.35007476806641 33.43021774291992 88.5 39.12686920166016 88.5 44.99999237060547 C 88.5 50.87311553955078 87.35007476806641 56.56976699829102 85.08216857910156 61.93169403076172 C 82.89131164550781 67.11146545410156 79.75458526611328 71.76369476318359 75.75914764404297 75.75914001464844 C 71.76369476318359 79.75457763671875 67.11147308349609 82.89130401611328 61.93169784545898 85.08216857910156 C 56.56977081298828 87.35006713867188 50.87311935424805 88.49999237060547 44.99999618530273 88.49999237060547 Z" stroke="none"/>
                            <path d="M 44.99999618530273 2.999992370605469 C 39.32870864868164 2.999992370605469 33.82865142822266 4.11004638671875 28.65262603759766 6.299331665039062 C 23.65165710449219 8.414566040039062 19.15968322753906 11.44333648681641 15.301513671875 15.30150604248047 C 11.44333648681641 19.15967559814453 8.414566040039062 23.65164947509766 6.299339294433594 28.65262222290039 C 4.110054016113281 33.82864761352539 2.999992370605469 39.32870483398438 2.999992370605469 44.99999237060547 C 2.999992370605469 50.67127990722656 4.110054016113281 56.17132186889648 6.299339294433594 61.34736633300781 C 8.414566040039062 66.34833526611328 11.44333648681641 70.84029388427734 15.301513671875 74.69846343994141 C 19.15968322753906 78.55663299560547 23.65165710449219 81.58540344238281 28.65262603759766 83.70063781738281 C 33.82865142822266 85.88992309570312 39.32870864868164 86.99997711181641 44.99999618530273 86.99997711181641 C 50.67128372192383 86.99997711181641 56.17134094238281 85.88992309570312 61.34736633300781 83.70063781738281 C 66.34834289550781 81.58540344238281 70.84030914306641 78.55663299560547 74.69847869873047 74.69846343994141 C 78.55665588378906 70.84029388427734 81.58542633056641 66.34833526611328 83.70065307617188 61.34736633300781 C 85.88993835449219 56.17132186889648 87 50.67127990722656 87 44.99999237060547 C 87 39.32870483398438 85.88993835449219 33.82864761352539 83.70065307617188 28.65262222290039 C 81.58542633056641 23.65164947509766 78.55665588378906 19.15967559814453 74.69847869873047 15.30150604248047 C 70.84030914306641 11.44333648681641 66.34834289550781 8.414566040039062 61.34736633300781 6.299331665039062 C 56.17134094238281 4.11004638671875 50.67128372192383 2.999992370605469 44.99999618530273 2.999992370605469 M 44.99999618530273 -7.62939453125e-06 C 69.85281372070312 -7.62939453125e-06 90 20.14717864990234 90 44.99999237060547 C 90 69.85279083251953 69.85281372070312 89.99997711181641 44.99999618530273 89.99997711181641 C 20.14717864990234 89.99997711181641 -7.62939453125e-06 69.85279083251953 -7.62939453125e-06 44.99999237060547 C -7.62939453125e-06 20.14717864990234 20.14717864990234 -7.62939453125e-06 44.99999618530273 -7.62939453125e-06 Z" stroke="none" fill="#6ae2f6"/>
                          </g>
                        </g>
                      </g>
                    </g>
                  </g>
                </g>
              </g>
            </g>
          </g>
        </g>
      </g>
      <g id="libro" transform="translate(226.263 3841.203)">
        <g id="Group_1206124" data-name="Group 1206124" transform="translate(0.959 43.755)">
          <path id="Path_1044467" data-name="Path 1044467" d="M238.96,135.473v10.6l-15.227,5.238a3.647,3.647,0,0,1-1.653,0l-2.054-.706a7.324,7.324,0,0,1,.527-10.345l.361.127a6.051,6.051,0,0,0,3.986,0Z" transform="translate(-191.206 -124.579)" fill="#687daa"/>
          <path id="Path_1044468" data-name="Path 1044468" d="M143.033,150.607l-13.173-4.532v-10.6l13.7,4.789A15.6,15.6,0,0,0,143.033,150.607Z" transform="translate(-114.213 -124.579)" fill="#5972a5"/>
          <path id="Path_1044469" data-name="Path 1044469" d="M248.4,218.383v2.61a2.733,2.733,0,0,1-2.113,2.661l-13.114,3.056a3.647,3.647,0,0,1-1.653,0l-.537-.125a4.886,4.886,0,0,1-1.87-5.215l2.407.561a3.647,3.647,0,0,0,1.653,0Z" transform="translate(-200.641 -196.887)" fill="#ffeab7"/>
          <path id="Path_1044470" data-name="Path 1044470" d="M144.549,226.585l-12.577-2.931a2.733,2.733,0,0,1-2.113-2.661v-2.61l12.82,2.987A16.288,16.288,0,0,0,144.549,226.585Z" transform="translate(-114.213 -196.887)" fill="#fad989"/>
          <path id="Path_1044471" data-name="Path 1044471" d="M228.34,60.779,206.819,68.3a6.035,6.035,0,0,1-3.986,0l-1.045-.366c-5.359-4.148-6.166-11.631-.353-16.823l1.4-.488a6.035,6.035,0,0,1,3.986,0l21.521,7.522a1.4,1.4,0,0,1,0,2.633Z" transform="translate(-173.125 -50.285)" fill="#7888af"/>
          <path id="Path_1044472" data-name="Path 1044472" d="M85.625,73.575,65.149,66.419a1.4,1.4,0,0,1,0-2.633l20.123-7.033C81.61,61.889,82.762,69.418,85.625,73.575Z" transform="translate(-56.962 -55.926)" fill="#687daa"/>
          <circle id="Ellipse_12662" data-name="Ellipse 12662" cx="2.592" cy="2.592" r="2.592" transform="translate(29.108 6.585)" fill="#ffeab7"/>
          <path id="Path_1044473" data-name="Path 1044473" d="M424.343,170.845l-3.083,6.748a1.934,1.934,0,0,0,1.759,2.738h2.647a1.934,1.934,0,0,0,1.759-2.738Z" transform="translate(-368.194 -155.428)" fill="#ffeab7"/>
          <path id="Path_1044474" data-name="Path 1044474" d="M249.815,329.191a65.053,65.053,0,0,0,28.537,0v-5.884a.5.5,0,0,0-.494-.5c-13.967-.131-22.176-5.755-28.043,0a6.173,6.173,0,0,0-.894,3.581A6.1,6.1,0,0,0,249.815,329.191Z" transform="translate(-218.037 -285.705)" fill="#f3f5fc"/>
          <path id="Path_1044475" data-name="Path 1044475" d="M61.377,329.191a78.594,78.594,0,0,1-28.537,0v-5.884a.5.5,0,0,1,.494-.5c13.967-.131,22.176-5.755,28.043,0Z" transform="translate(-29.6 -285.705)" fill="#d7ddf5"/>
          <path id="Path_1044476" data-name="Path 1044476" d="M204.2,393.53a3.186,3.186,0,0,1-3.187,3.185H162.137a3.706,3.706,0,0,1-.3-6.372h39.176A3.187,3.187,0,0,1,204.2,393.53Z" transform="translate(-140.642 -346.857)" fill="#83deff"/>
          <path id="Path_1044477" data-name="Path 1044477" d="M233.084,399.467h-1.629a2.665,2.665,0,0,1-2.665-2.665v-6.461h6.959V396.8A2.665,2.665,0,0,1,233.084,399.467Z" transform="translate(-200.492 -346.855)" fill="#687daa"/>
          <path id="Path_1044478" data-name="Path 1044478" d="M28.994,396.719H10.687a3.186,3.186,0,1,1,0-6.372H28.693a5.861,5.861,0,0,0,.3,6.372Z" transform="translate(-7.5 -346.86)" fill="#2ecefb"/>
        </g>
        <g id="Group_1206125" data-name="Group 1206125" transform="translate(0 42.797)">
          <path id="Path_1044479" data-name="Path 1044479" d="M58.289,55.153l6.818,2.383V67.861a3.676,3.676,0,0,0,2.854,3.6l13.114,3.056a4.624,4.624,0,0,0,2.09,0l13.114-3.056a3.677,3.677,0,0,0,2.854-3.6V57.536l6.477-2.264v3.69l-3,6.559a2.893,2.893,0,0,0,2.632,4.1h2.647a2.893,2.893,0,0,0,2.632-4.1l-3-6.559V52.932a2.326,2.326,0,0,0-1.577-2.221L84.429,43.188a7.027,7.027,0,0,0-4.618,0L69.465,46.8a.959.959,0,0,0,.633,1.811L80.443,45A5.1,5.1,0,0,1,83.8,45l19.952,6.974H85.538a3.551,3.551,0,1,0,0,1.918h18.21L83.8,60.865a5.1,5.1,0,0,1-3.352,0L58.922,53.342a.435.435,0,0,1,0-.821l6.944-2.427a.959.959,0,0,0-.633-1.811l-6.944,2.427a2.353,2.353,0,0,0,0,4.443ZM95.843,69.588,82.729,72.645a2.694,2.694,0,0,1-1.219,0L68.4,69.588a1.766,1.766,0,0,1-1.371-1.728v-1.4l14.049,3.274a4.625,4.625,0,0,0,2.09,0l14.049-3.275v1.4a1.766,1.766,0,0,1-1.371,1.728Zm12.869-2.337a.959.959,0,0,1-.82.448h-2.647a.975.975,0,0,1-.887-1.38l2.211-4.839,2.211,4.839A.959.959,0,0,1,108.712,67.251ZM82.12,54.565a1.633,1.633,0,1,1,1.633-1.633A1.635,1.635,0,0,1,82.12,54.565Zm0,8.5a7,7,0,0,0,2.309-.39l12.785-4.469V64.49L82.729,67.866a2.7,2.7,0,0,1-1.219,0L67.025,64.49V58.207L79.81,62.676a7,7,0,0,0,2.309.39Z" transform="translate(-49.46 -42.797)"/>
          <path id="Path_1044480" data-name="Path 1044480" d="M62.234,321.837v-5.519a.959.959,0,0,0-.959-.959A72.092,72.092,0,0,1,47.5,313.8c-6.025-1.117-10.853-2.012-14.763,1.227-3.91-3.24-8.738-2.344-14.763-1.227A72.092,72.092,0,0,1,4.2,315.359a.959.959,0,0,0-.959.959v5.519a4.145,4.145,0,0,0,.905,8.19H28.423A3.711,3.711,0,0,0,32,332.781h1.468a3.711,3.711,0,0,0,3.58-2.753H52.77a.959.959,0,1,0,0-1.918H37.176v-4.455H61.329a2.227,2.227,0,0,1,0,4.455H57.246a.959.959,0,1,0,0,1.918h4.082a4.145,4.145,0,0,0,.9-8.19ZM47.15,315.685a76.272,76.272,0,0,0,13.165,1.583v4.468H33.7v-5C36.961,313.8,41.05,314.555,47.15,315.685Zm-28.826,0c6.1-1.131,10.189-1.888,13.454,1.048v5H5.159v-4.468a76.291,76.291,0,0,0,13.165-1.583Zm-16.406,10.2a2.23,2.23,0,0,1,2.227-2.227H28.3v4.455H4.146A2.23,2.23,0,0,1,1.918,325.882Zm33.339,3.194a1.788,1.788,0,0,1-1.786,1.786H32a1.788,1.788,0,0,1-1.786-1.786v-5.421h5.04v5.421Z" transform="translate(0 -278.252)"/>
        </g>
      </g>
    </g>
  </g>
</svg>
