<svg xmlns="http://www.w3.org/2000/svg" xmlns:xlink="http://www.w3.org/1999/xlink" width="113" height="113" viewBox="0 0 113 113">
  <defs>
    <filter id="Path_982547" x="0" y="0" width="113" height="113" filterUnits="userSpaceOnUse">
      <feOffset dy="3" input="SourceAlpha"/>
      <feGaussianBlur stdDeviation="3" result="blur"/>
      <feFlood flood-opacity="0.161"/>
      <feComposite operator="in" in2="blur"/>
      <feComposite in="SourceGraphic"/>
    </filter>
  </defs>
  <g id="Group_1206387" data-name="Group 1206387" transform="translate(-1163 -9396)">
    <g id="Group_1206283" data-name="Group 1206283" transform="translate(0 44)">
      <g id="Group_1203804" data-name="Group 1203804" transform="translate(-1 6552)">
        <g id="Group_1202426" data-name="Group 1202426" transform="translate(0.5 1464)">
          <g id="Group_1178323" data-name="Group 1178323" transform="translate(0 424)">
            <g id="Group_1177681" data-name="Group 1177681" transform="translate(1172.5 918)">
              <g id="Group_1172010" data-name="Group 1172010">
                <g id="Group_1171046" data-name="Group 1171046">
                  <g id="Group_1148525" data-name="Group 1148525">
                    <g transform="matrix(1, 0, 0, 1, -9, -6)" filter="url(#Path_982547)">
                      <g id="Path_982547-2" data-name="Path 982547" transform="translate(9 6)" fill="#dce8fa">
                        <path d="M 47.5 93.5 C 41.28937149047852 93.5 35.26533508300781 92.28397369384766 29.59518623352051 89.88570404052734 C 24.11771965026855 87.56893157958984 19.19813346862793 84.25196075439453 14.97309303283691 80.02691650390625 C 10.74804019927979 75.80186462402344 7.431066513061523 70.88229370117188 5.114293098449707 65.40481567382812 C 2.716026782989502 59.73468017578125 1.5 53.71062850952148 1.5 47.5 C 1.5 41.28937149047852 2.716026782989502 35.26533508300781 5.114293098449707 29.59518623352051 C 7.431066513061523 24.11771965026855 10.74804019927979 19.19813346862793 14.97309303283691 14.97309303283691 C 19.19813346862793 10.74804019927979 24.11771965026855 7.431066513061523 29.59518623352051 5.114293098449707 C 35.26533508300781 2.716026782989502 41.28937149047852 1.5 47.5 1.5 C 53.71062850952148 1.5 59.73468017578125 2.716026782989502 65.40481567382812 5.114293098449707 C 70.88229370117188 7.431066513061523 75.80186462402344 10.74804019927979 80.02691650390625 14.97309303283691 C 84.25196075439453 19.19813346862793 87.56893157958984 24.11771965026855 89.88570404052734 29.59518623352051 C 92.28397369384766 35.26533508300781 93.5 41.28937149047852 93.5 47.5 C 93.5 53.71062850952148 92.28397369384766 59.73468017578125 89.88570404052734 65.40481567382812 C 87.56893157958984 70.88229370117188 84.25196075439453 75.80186462402344 80.02691650390625 80.02691650390625 C 75.80186462402344 84.25196075439453 70.88229370117188 87.56893157958984 65.40481567382812 89.88570404052734 C 59.73468017578125 92.28397369384766 53.71062850952148 93.5 47.5 93.5 Z" stroke="none"/>
                        <path d="M 47.5 3 C 41.49121475219727 3 35.66376876831055 4.176155090332031 30.17950439453125 6.495796203613281 C 24.88084411621094 8.736953735351562 20.12152099609375 11.94598388671875 16.03375244140625 16.03375244140625 C 11.94598388671875 20.12152099609375 8.736953735351562 24.88084411621094 6.495796203613281 30.17950439453125 C 4.176155090332031 35.66376876831055 3 41.49121475219727 3 47.5 C 3 53.50878524780273 4.176155090332031 59.33623123168945 6.495796203613281 64.82049560546875 C 8.736953735351562 70.11915588378906 11.94598388671875 74.87847900390625 16.03375244140625 78.96624755859375 C 20.12152099609375 83.05401611328125 24.88084411621094 86.26304626464844 30.17950439453125 88.50419616699219 C 35.66376876831055 90.82384490966797 41.49121475219727 92 47.5 92 C 53.50878524780273 92 59.33623123168945 90.82384490966797 64.82049560546875 88.50419616699219 C 70.11915588378906 86.26304626464844 74.87847900390625 83.05401611328125 78.96624755859375 78.96624755859375 C 83.05401611328125 74.87847900390625 86.26304626464844 70.11915588378906 88.50419616699219 64.82049560546875 C 90.82384490966797 59.33623123168945 92 53.50878524780273 92 47.5 C 92 41.49121475219727 90.82384490966797 35.66376876831055 88.50419616699219 30.17950439453125 C 86.26304626464844 24.88084411621094 83.05401611328125 20.12152099609375 78.96624755859375 16.03375244140625 C 74.87847900390625 11.94598388671875 70.11915588378906 8.736953735351562 64.82049560546875 6.495796203613281 C 59.33623123168945 4.176155090332031 53.50878524780273 3 47.5 3 M 47.5 0 C 73.7335205078125 0 95 21.2664794921875 95 47.5 C 95 73.7335205078125 73.7335205078125 95 47.5 95 C 21.2664794921875 95 0 73.7335205078125 0 47.5 C 0 21.2664794921875 21.2664794921875 0 47.5 0 Z" stroke="none" fill="#5692e8"/>
                      </g>
                    </g>
                  </g>
                </g>
              </g>
            </g>
          </g>
        </g>
      </g>
      <g id="Layer_x0020_1" transform="translate(1039 9103)">
        <path id="Path_1045146" data-name="Path 1045146" d="M176.355,321.756c-2.07,0-3.928-1.1-6-3.168L157.982,306.17a6.63,6.63,0,0,1,9.377-9.377l8.87,8.87,22.344-22.386a28.515,28.515,0,1,0,5.28,30.918,1.126,1.126,0,0,1,2.07.887,30.755,30.755,0,1,1-5.744-33.368l7.518-7.561a6.66,6.66,0,1,1,9.419,9.419l-10.01,9.968a31,31,0,0,1,1.394,9.208,1.119,1.119,0,0,1-2.239,0,29.105,29.105,0,0,0-.971-7.392L181.466,319.18A7.209,7.209,0,0,1,176.355,321.756Zm24.667-37.718-23.991,23.991a1.175,1.175,0,0,1-1.605,0l-9.673-9.672a4.436,4.436,0,0,0-6.209,0,4.488,4.488,0,0,0,0,6.251l12.418,12.376c2.872,2.872,5.026,3.506,7.941.591l35.607-35.607a4.39,4.39,0,0,0-6.209-6.209Z" fill="#2d1616" fill-rule="evenodd"/>
        <path id="Path_1045147" data-name="Path 1045147" d="M427.685,372.773c2.872,2.872,5.026,3.506,7.941.591l35.607-35.607a4.39,4.39,0,0,0-6.209-6.209l-8.279,8.279-23.991,23.991a1.175,1.175,0,0,1-1.605,0l-9.672-9.672a4.437,4.437,0,0,0-6.209,0,4.488,4.488,0,0,0,0,6.251Z" transform="translate(-255.722 -55.79)" fill="#7fde4d" fill-rule="evenodd"/>
        <path id="Path_1045148" data-name="Path 1045148" d="M254.614,364.957a1.133,1.133,0,0,1,2.112.8A39.692,39.692,0,0,0,259.26,353.6a1.122,1.122,0,0,1-2.239-.084,29.1,29.1,0,0,0-.971-7.392l-23.822,23.822a7.209,7.209,0,0,1-5.111,2.577c-2.07,0-3.928-1.1-6-3.168l-12.376-12.418a6.63,6.63,0,0,1,9.377-9.377l8.87,8.87,22.344-22.386a28.515,28.515,0,1,0,5.28,30.918Z" transform="translate(-50.761 -50.761)" fill="#0cf" fill-rule="evenodd"/>
      </g>
    </g>
  </g>
</svg>
