<svg xmlns="http://www.w3.org/2000/svg" xmlns:xlink="http://www.w3.org/1999/xlink" width="106.16" height="106.16" viewBox="0 0 106.16 106.16">
  <defs>
    <filter id="Path_982547" x="0" y="0" width="106.16" height="106.16" filterUnits="userSpaceOnUse">
      <feOffset dy="3" input="SourceAlpha"/>
      <feGaussianBlur stdDeviation="3" result="blur"/>
      <feFlood flood-opacity="0.161"/>
      <feComposite operator="in" in2="blur"/>
      <feComposite in="SourceGraphic"/>
    </filter>
  </defs>
  <g id="Group_1206364" data-name="Group 1206364" transform="translate(-1031.17 -3550.817)">
    <g id="Group_1206202" data-name="Group 1206202" transform="translate(0 22.417)">
      <g id="Group_1203822" data-name="Group 1203822" transform="translate(-0.25 -3051.479)">
        <g id="Group_1203346" data-name="Group 1203346" transform="translate(759.42 5174.875)">
          <g id="Group_1177900" data-name="Group 1177900" transform="translate(281 1411.003)">
            <g id="Group_1172010" data-name="Group 1172010" transform="translate(0)">
              <g id="Group_1171046" data-name="Group 1171046">
                <g id="Group_1148525" data-name="Group 1148525">
                  <g transform="matrix(1, 0, 0, 1, -9, -6)" filter="url(#Path_982547)">
                    <g id="Path_982547-2" data-name="Path 982547" transform="translate(9 6)" fill="#fdfbec">
                      <path d="M 44.0802001953125 86.660400390625 C 38.33124923706055 86.660400390625 32.75506210327148 85.53479766845703 27.50652503967285 83.31484985351562 C 22.43628692626953 81.17032623291016 17.88242530822754 78.09992218017578 13.97144985198975 74.18894958496094 C 10.06047534942627 70.27797698974609 6.99007511138916 65.72411346435547 4.845550060272217 60.65387344360352 C 2.625600099563599 55.40533828735352 1.500000238418579 49.82915115356445 1.500000238418579 44.0802001953125 C 1.500000238418579 38.33124923706055 2.625600099563599 32.75506210327148 4.845550060272217 27.50652503967285 C 6.99007511138916 22.43628692626953 10.06047534942627 17.88242530822754 13.97144985198975 13.97144985198975 C 17.88242530822754 10.06047534942627 22.43628692626953 6.99007511138916 27.50652503967285 4.845550060272217 C 32.75506210327148 2.625600099563599 38.33124923706055 1.500000238418579 44.0802001953125 1.500000238418579 C 49.82915115356445 1.500000238418579 55.40533828735352 2.625600099563599 60.65387344360352 4.845550060272217 C 65.72411346435547 6.99007511138916 70.27797698974609 10.06047534942627 74.18894958496094 13.97144985198975 C 78.09992218017578 17.88242530822754 81.17032623291016 22.43628692626953 83.31484985351562 27.50652503967285 C 85.53479766845703 32.75506210327148 86.660400390625 38.33124923706055 86.660400390625 44.0802001953125 C 86.660400390625 49.82915115356445 85.53479766845703 55.40533828735352 83.31484985351562 60.65387344360352 C 81.17032623291016 65.72411346435547 78.09992218017578 70.27797698974609 74.18894958496094 74.18894958496094 C 70.27797698974609 78.09992218017578 65.72411346435547 81.17032623291016 60.65387344360352 83.31484985351562 C 55.40533828735352 85.53479766845703 49.82915115356445 86.660400390625 44.0802001953125 86.660400390625 Z" stroke="none"/>
                      <path d="M 44.0802001953125 3 C 38.53308486938477 3 33.15349960327148 4.085746765136719 28.09085845947266 6.227058410644531 C 23.19941711425781 8.29595947265625 18.80581665039062 11.25841522216797 15.03211212158203 15.03211212158203 C 11.25841522216797 18.80581665039062 8.29595947265625 23.19941711425781 6.227058410644531 28.09085845947266 C 4.085746765136719 33.15349960327148 3 38.53308486938477 3 44.0802001953125 C 3 49.62731552124023 4.085746765136719 55.00691604614258 6.227058410644531 60.06954193115234 C 8.29595947265625 64.96098327636719 11.25841522216797 69.35458374023438 15.03211212158203 73.12828826904297 C 18.80581665039062 76.90198516845703 23.19941711425781 79.86444091796875 28.09085845947266 81.93334197998047 C 33.15349960327148 84.07466125488281 38.53308486938477 85.160400390625 44.0802001953125 85.160400390625 C 49.62731552124023 85.160400390625 55.00691604614258 84.07466125488281 60.06954193115234 81.93334197998047 C 64.96099853515625 79.86444091796875 69.35458374023438 76.90198516845703 73.12828826904297 73.12828826904297 C 76.90198516845703 69.35458374023438 79.86444091796875 64.96099853515625 81.93334197998047 60.06954193115234 C 84.07466125488281 55.00691604614258 85.160400390625 49.62731552124023 85.160400390625 44.0802001953125 C 85.160400390625 38.53308486938477 84.07466125488281 33.15349960327148 81.93334197998047 28.09085845947266 C 79.86444091796875 23.19941711425781 76.90198516845703 18.80581665039062 73.12828826904297 15.03211212158203 C 69.35458374023438 11.25841522216797 64.96098327636719 8.29595947265625 60.06954193115234 6.227058410644531 C 55.00691604614258 4.085746765136719 49.62731552124023 3 44.0802001953125 3 M 44.0802001953125 0 C 68.42502593994141 0 88.160400390625 19.73538970947266 88.160400390625 44.0802001953125 C 88.160400390625 68.42502593994141 68.42502593994141 88.160400390625 44.0802001953125 88.160400390625 C 19.73538970947266 88.160400390625 0 68.42502593994141 0 44.0802001953125 C 0 19.73538970947266 19.73538970947266 0 44.0802001953125 0 Z" stroke="none" fill="#83793c"/>
                    </g>
                  </g>
                </g>
              </g>
            </g>
          </g>
        </g>
      </g>
      <g id="equipo" transform="translate(1050.896 3471.368)">
        <g id="Group_1206201" data-name="Group 1206201" transform="translate(0.979 85.786)">
          <path id="Path_1044823" data-name="Path 1044823" d="M106.917,175.2H108.6a4.111,4.111,0,0,1,4.1,4.1l1.078,5.392-1.078,4.783H96.86V179.3a4.111,4.111,0,0,1,4.1-4.1Z" transform="translate(-85.219 -164.404)" fill="#a5cdff" fill-rule="evenodd"/>
          <path id="Path_1044824" data-name="Path 1044824" d="M228.422,175.2h1.728a4.111,4.111,0,0,1,4.1,4.1l1.518,5.735-1.518,16.254H218.41V179.3a4.111,4.111,0,0,1,4.1-4.1Z" transform="translate(-190.933 -164.404)" fill="#ff6978" fill-rule="evenodd"/>
          <path id="Path_1044825" data-name="Path 1044825" d="M349.972,175.2H351.7a4.111,4.111,0,0,1,4.1,4.1v15.109H339.96V179.3a4.111,4.111,0,0,1,4.1-4.1Z" transform="translate(-296.646 -164.404)" fill="#ccf49f" fill-rule="evenodd"/>
          <path id="Path_1044826" data-name="Path 1044826" d="M409.9,179.3v15.109h3.161V179.3a4.111,4.111,0,0,0-4.1-4.1h-3.161A4.111,4.111,0,0,1,409.9,179.3Z" transform="translate(-353.915 -164.404)" fill="#b3e59f" fill-rule="evenodd"/>
          <path id="Path_1044827" data-name="Path 1044827" d="M288.355,179.3v15.109h3.161V179.3a4.111,4.111,0,0,0-4.1-4.1h-3.161A4.111,4.111,0,0,1,288.355,179.3Z" transform="translate(-248.202 -164.404)" fill="#eb616f" fill-rule="evenodd"/>
          <path id="Path_1044828" data-name="Path 1044828" d="M166.8,179.3v15.109h3.161V179.3a4.111,4.111,0,0,0-4.1-4.1h-3.161A4.111,4.111,0,0,1,166.8,179.3Z" transform="translate(-142.489 -164.404)" fill="#8abfff" fill-rule="evenodd"/>
          <path id="Path_1044829" data-name="Path 1044829" d="M111.5,232.547a5.045,5.045,0,0,1,1.688,9.8,14.711,14.711,0,0,0,4.321-1.355l12.837-5.728A5.04,5.04,0,0,1,137,237.81c1.134,2.541-.292,5.023-2.548,6.651L120.2,254.78c-3.634,2.63-6.755,2.231-10.042,1.932l-20.375-1.865c-2.892-.266-5.521-2.541-7.375-4.447V238.364c.875-4.225,8.912-5.7,11.641-5.817Z" transform="translate(-72.646 -214.277)" fill="#ffcbbe"/>
          <path id="Path_1044830" data-name="Path 1044830" d="M136.369,264.863a5.011,5.011,0,0,1,.632,1.052c1.134,2.541-.292,5.023-2.548,6.651L120.2,282.886c-3.634,2.63-6.755,2.231-10.042,1.932l-20.375-1.865c-2.892-.266-5.521-2.541-7.375-4.447v-2.134c1.743,1.625,3.959,3.22,6.352,3.442l20.375,1.865c3.287.3,6.408.7,10.042-1.932l14.259-10.319A6.458,6.458,0,0,0,136.369,264.863Z" transform="translate(-72.647 -242.382)" fill="#f7beaf"/>
          <g id="Group_1206200" data-name="Group 1206200">
            <path id="Path_1044831" data-name="Path 1044831" d="M16.074,244.963H11.635a4.173,4.173,0,0,0-4.122,4.2V261.2a4.17,4.17,0,0,0,4.122,4.2h4.439a4.173,4.173,0,0,0,4.125-4.2V249.162A4.177,4.177,0,0,0,16.074,244.963Z" transform="translate(-7.513 -225.075)" fill="#477b9e" fill-rule="evenodd"/>
            <path id="Path_1044832" data-name="Path 1044832" d="M206.406,240.386a.981.981,0,0,0,0,1.961h13.776a5.044,5.044,0,0,0-.1-9.539c-.092-.033-.188-.059-.284-.085a4.9,4.9,0,0,0-1.3-.174h-3.165a5.059,5.059,0,0,1,5.045,5.045,4.043,4.043,0,0,1-.262,1.6c-.388.9-.591,1.189-1.931,1.189H206.406Z" transform="translate(-179.641 -214.279)" fill="#f7beaf" fill-rule="evenodd"/>
            <path id="Path_1044833" data-name="Path 1044833" d="M376.084,99.4a4.343,4.343,0,0,1-8.686,0V94.748a2.437,2.437,0,0,1,2.43-2.43h3.826a2.437,2.437,0,0,1,2.43,2.43Z" transform="translate(-320.509 -92.318)" fill="#c68b87" fill-rule="evenodd"/>
            <path id="Path_1044834" data-name="Path 1044834" d="M132.985,99.4a4.343,4.343,0,0,1-8.686,0V94.748a2.437,2.437,0,0,1,2.43-2.43h5.61a.582.582,0,0,1,.646.646Z" transform="translate(-109.083 -92.318)" fill="#ffcbbe" fill-rule="evenodd"/>
            <path id="Path_1044835" data-name="Path 1044835" d="M367.4,94.748V97.6l2.969-1.455a1.5,1.5,0,0,1,1.193-.078l4.524,1.533V94.748a2.437,2.437,0,0,0-2.43-2.43h-3.826A2.437,2.437,0,0,0,367.4,94.748Z" transform="translate(-320.509 -92.318)" fill="#477b9e" fill-rule="evenodd"/>
            <path id="Path_1044836" data-name="Path 1044836" d="M124.3,94.748v1.4h8.686V92.964a.582.582,0,0,0-.646-.646h-5.61A2.437,2.437,0,0,0,124.3,94.748Z" transform="translate(-109.083 -92.318)" fill="#ffe5a0" fill-rule="evenodd"/>
            <path id="Path_1044837" data-name="Path 1044837" d="M254.535,99.4a4.343,4.343,0,0,1-8.686,0V94.748a2.437,2.437,0,0,1,2.43-2.43h3.826a2.437,2.437,0,0,1,2.43,2.43Z" transform="translate(-214.797 -92.318)" fill="#ffcbbe" fill-rule="evenodd"/>
            <path id="Path_1044838" data-name="Path 1044838" d="M245.849,94.747v1.691a3.307,3.307,0,0,0,2.836-.262c.458-.262.532-.31.986.085a5.2,5.2,0,0,0,4.864.812V94.747a2.437,2.437,0,0,0-2.43-2.43h-3.826A2.437,2.437,0,0,0,245.849,94.747Z" transform="translate(-214.797 -92.317)" fill="#c68b87" fill-rule="evenodd"/>
            <path id="Path_1044839" data-name="Path 1044839" d="M148.265,124.992a4.347,4.347,0,0,1-2.105,3.715,4.206,4.206,0,0,1-.657.329,4.34,4.34,0,0,0,5.924-4.044v-3.25h-3.161v3.25Z" transform="translate(-127.525 -117.908)" fill="#f7beaf" fill-rule="evenodd"/>
            <path id="Path_1044840" data-name="Path 1044840" d="M162.368,92.964v3.187h3.161V92.964a.582.582,0,0,0-.646-.646h-3.165A.583.583,0,0,1,162.368,92.964Z" transform="translate(-141.627 -92.318)" fill="#f2ce7e" fill-rule="evenodd"/>
            <path id="Path_1044841" data-name="Path 1044841" d="M269.815,131.156a4.347,4.347,0,0,1-2.105,3.715,4.209,4.209,0,0,1-.657.329,4.34,4.34,0,0,0,5.924-4.044v-2.327a5.769,5.769,0,0,1-3.161.1v2.223Z" transform="translate(-233.237 -124.072)" fill="#f7beaf" fill-rule="evenodd"/>
            <path id="Path_1044842" data-name="Path 1044842" d="M269.6,92.318a2.437,2.437,0,0,1,2.43,2.43v2.43a5.769,5.769,0,0,0,3.161-.1V94.748a2.437,2.437,0,0,0-2.43-2.43Z" transform="translate(-235.457 -92.318)" fill="#bd7d79" fill-rule="evenodd"/>
            <path id="Path_1044843" data-name="Path 1044843" d="M391.365,127.531a4.347,4.347,0,0,1-2.105,3.715,4.2,4.2,0,0,1-.657.329,4.34,4.34,0,0,0,5.924-4.044v-1.8l-3.161-1.071Z" transform="translate(-338.951 -120.447)" fill="#bd7d79" fill-rule="evenodd"/>
            <path id="Path_1044844" data-name="Path 1044844" d="M391.153,92.318a2.437,2.437,0,0,1,2.43,2.43v1.784l3.161,1.071V94.748a2.437,2.437,0,0,0-2.43-2.43Z" transform="translate(-341.17 -92.318)" fill="#365e7d" fill-rule="evenodd"/>
            <path id="Path_1044845" data-name="Path 1044845" d="M53.08,261.2a4.173,4.173,0,0,1-4.125,4.2h3.161a4.121,4.121,0,0,0,3.542-2.053,4.2,4.2,0,0,0,.584-2.142V249.163a4.218,4.218,0,0,0-1.045-2.785,4.08,4.08,0,0,0-3.08-1.414H48.955a4.177,4.177,0,0,1,4.125,4.2Z" transform="translate(-43.556 -225.076)" fill="#365e7d" fill-rule="evenodd"/>
          </g>
        </g>
        <path id="Path_1044846" data-name="Path 1044846" d="M13.595,105.359a16.1,16.1,0,0,1,1.906-.842v-2.256a.977.977,0,1,1,1.954,0V103.9a24.387,24.387,0,0,1,4.879-.812c.425-.011.861,0,1.289,0v-.82a.977.977,0,1,1,1.954,0v.82h1.9v-2.4a3.127,3.127,0,0,0-3.117-3.121H23.034a5.286,5.286,0,0,1-5,0H16.715a3.133,3.133,0,0,0-3.121,3.121v4.675Zm15.836-2.279h1.906v-.82a.977.977,0,1,1,1.954,0v.82h6.168v-.82a.977.977,0,1,1,1.954,0v1.03a6.128,6.128,0,0,1,1.906.909v-3.516A3.133,3.133,0,0,0,40.2,97.563H38.871a5.278,5.278,0,0,1-4.993,0H32.552a3.133,3.133,0,0,0-3.121,3.121v2.4Zm15.84,3.45a5.976,5.976,0,0,1-.019,5.174c.621-.31,1.285-.584,1.92-.864v-8.579a.977.977,0,1,1,1.954,0v7.7l6.168-2.751v-4.953a.977.977,0,1,1,1.954,0v4.081l1.034-.462a6.27,6.27,0,0,1,.872-.31v-4.886a3.133,3.133,0,0,0-3.121-3.121H54.711a5.286,5.286,0,0,1-5,0H48.388a3.127,3.127,0,0,0-3.117,3.121Zm15.836-1.163a6.029,6.029,0,0,1,5.115,3.553,5.339,5.339,0,0,1,.107,4.2,8.349,8.349,0,0,1-2.973,3.645l-5.278,3.819A.976.976,0,0,1,56.934,119l5.278-3.819a6.408,6.408,0,0,0,2.294-2.759,3.454,3.454,0,0,0-.063-2.707,4.069,4.069,0,0,0-5.366-2.053l-12.8,5.714a18.289,18.289,0,0,1-2.194.968,8.426,8.426,0,0,1-2.559.488H27.211a.977.977,0,0,1,0-1.954H41.349a4.07,4.07,0,0,0-1.522-7.841H22.4a20.571,20.571,0,0,0-4.694.82,15.283,15.283,0,0,0-3.7,1.518,5.2,5.2,0,0,1,.639,2.5v3.73a.977.977,0,1,1-1.954,0v-3.73a3.191,3.191,0,0,0-3.147-3.22H5.1a3.191,3.191,0,0,0-3.147,3.22v12.036a3.247,3.247,0,0,0,.931,2.279,3.1,3.1,0,0,0,2.216.942H9.54a3.106,3.106,0,0,0,2.22-.942,3.253,3.253,0,0,0,.927-2.279v-3.734a.977.977,0,0,1,1.954,0v3.734a5.159,5.159,0,0,1-.336,1.839,11.543,11.543,0,0,0,1.588.953,6.713,6.713,0,0,0,2.3.683l20.726,1.9c2.973.277,5.824.539,9.033-1.784l5.278-3.819a.976.976,0,1,1,1.145,1.581L49.1,127.079c-3.8,2.751-7.006,2.452-10.356,2.142l-20.723-1.9a8.5,8.5,0,0,1-2.977-.868,12.656,12.656,0,0,1-1.765-1.041,5.057,5.057,0,0,1-3.741,1.669H5.1a5.043,5.043,0,0,1-3.6-1.529A5.185,5.185,0,0,1,0,121.909V109.873A5.155,5.155,0,0,1,5.1,104.7H9.54a5.009,5.009,0,0,1,2.1.462v-4.476a5.086,5.086,0,0,1,4.369-5.027,5.291,5.291,0,0,1-.794-2.788V88.216a3.417,3.417,0,0,1,3.409-3.409h6.256a.977.977,0,0,1,.975.979v7.083a5.258,5.258,0,0,1-.794,2.788,5.056,5.056,0,0,1,2.881,1.44,5.288,5.288,0,0,1,.513.6,4.94,4.94,0,0,1,.513-.6,5.059,5.059,0,0,1,2.877-1.44,5.291,5.291,0,0,1-.794-2.788V88.216a3.417,3.417,0,0,1,3.409-3.409h3.826A3.417,3.417,0,0,1,41.7,88.216v4.653a5.291,5.291,0,0,1-.794,2.788,5.058,5.058,0,0,1,2.877,1.44,4.939,4.939,0,0,1,.513.6,5.274,5.274,0,0,1,.513-.6,5.058,5.058,0,0,1,2.881-1.44,5.257,5.257,0,0,1-.794-2.788V88.216A3.417,3.417,0,0,1,50.3,84.807h3.826a3.417,3.417,0,0,1,3.409,3.409v4.653a5.291,5.291,0,0,1-.794,2.788,5.086,5.086,0,0,1,4.369,5.026Zm-5.529-13.6-4.1-1.385-2.637,1.293v1.193a3.366,3.366,0,0,0,6.733,0v-1.1Zm-6.733-2.26,2.087-1.023a.981.981,0,0,1,.8-.078l3.848,1.3v-1.5a1.463,1.463,0,0,0-1.455-1.455H50.3a1.463,1.463,0,0,0-1.451,1.455ZM17.17,88.64H23.9V86.76H18.625a1.463,1.463,0,0,0-1.455,1.455ZM23.9,90.594H17.17v2.275a3.366,3.366,0,0,0,6.733,0V90.594Zm15.836,1.149a5.769,5.769,0,0,1-4.458-1.219,4.379,4.379,0,0,1-2.271.561v1.784a3.365,3.365,0,0,0,6.729,0V91.743ZM33.01,89.135a2.436,2.436,0,0,0,1.747-.6.972.972,0,0,1,1.374.1,3.805,3.805,0,0,0,3.608,1.148V88.216a1.457,1.457,0,0,0-1.451-1.455H34.461a1.457,1.457,0,0,0-1.451,1.455v.92Z"/>
      </g>
    </g>
  </g>
</svg>
