<svg xmlns="http://www.w3.org/2000/svg" xmlns:xlink="http://www.w3.org/1999/xlink" width="113" height="113" viewBox="0 0 113 113">
  <defs>
    <filter id="Path_982547" x="0" y="0" width="113" height="113" filterUnits="userSpaceOnUse">
      <feOffset dy="3" input="SourceAlpha"/>
      <feGaussianBlur stdDeviation="3" result="blur"/>
      <feFlood flood-opacity="0.161"/>
      <feComposite operator="in" in2="blur"/>
      <feComposite in="SourceGraphic"/>
    </filter>
  </defs>
  <g id="Group_1206374" data-name="Group 1206374" transform="translate(-1216 -6387.765)">
    <g id="Group_1206220" data-name="Group 1206220" transform="translate(0 30.5)">
      <g id="Group_1204000" data-name="Group 1204000" transform="translate(0 456.265)">
        <g id="Group_1202435" data-name="Group 1202435" transform="translate(-0.56 1255.486)">
          <g id="Group_1202052" data-name="Group 1202052" transform="translate(1225.561 4651.514)">
            <g id="Group_1172010" data-name="Group 1172010" transform="translate(0)">
              <g id="Group_1171046" data-name="Group 1171046">
                <g id="Group_1148525" data-name="Group 1148525">
                  <g transform="matrix(1, 0, 0, 1, -9, -6)" filter="url(#Path_982547)">
                    <g id="Path_982547-2" data-name="Path 982547" transform="translate(9 6)" fill="#edf3fc">
                      <path d="M 47.5 93.5 C 41.28937149047852 93.5 35.26533508300781 92.28397369384766 29.59518623352051 89.88570404052734 C 24.11771965026855 87.56893157958984 19.19813346862793 84.25196075439453 14.97309303283691 80.02691650390625 C 10.74804019927979 75.80186462402344 7.431066513061523 70.88229370117188 5.114293098449707 65.40481567382812 C 2.716026782989502 59.73468017578125 1.5 53.71062850952148 1.5 47.5 C 1.5 41.28937149047852 2.716026782989502 35.26533508300781 5.114293098449707 29.59518623352051 C 7.431066513061523 24.11771965026855 10.74804019927979 19.19813346862793 14.97309303283691 14.97309303283691 C 19.19813346862793 10.74804019927979 24.11771965026855 7.431066513061523 29.59518623352051 5.114293098449707 C 35.26533508300781 2.716026782989502 41.28937149047852 1.5 47.5 1.5 C 53.71062850952148 1.5 59.73468017578125 2.716026782989502 65.40481567382812 5.114293098449707 C 70.88229370117188 7.431066513061523 75.80186462402344 10.74804019927979 80.02691650390625 14.97309303283691 C 84.25196075439453 19.19813346862793 87.56893157958984 24.11771965026855 89.88570404052734 29.59518623352051 C 92.28397369384766 35.26533508300781 93.5 41.28937149047852 93.5 47.5 C 93.5 53.71062850952148 92.28397369384766 59.73468017578125 89.88570404052734 65.40481567382812 C 87.56893157958984 70.88229370117188 84.25196075439453 75.80186462402344 80.02691650390625 80.02691650390625 C 75.80186462402344 84.25196075439453 70.88229370117188 87.56893157958984 65.40481567382812 89.88570404052734 C 59.73468017578125 92.28397369384766 53.71062850952148 93.5 47.5 93.5 Z" stroke="none"/>
                      <path d="M 47.5 3 C 41.49121475219727 3 35.66376876831055 4.176155090332031 30.17950439453125 6.495796203613281 C 24.88084411621094 8.736953735351562 20.12152099609375 11.94598388671875 16.03375244140625 16.03375244140625 C 11.94598388671875 20.12152099609375 8.736953735351562 24.88084411621094 6.495796203613281 30.17950439453125 C 4.176155090332031 35.66376876831055 3 41.49121475219727 3 47.5 C 3 53.50878524780273 4.176155090332031 59.33623123168945 6.495796203613281 64.82049560546875 C 8.736953735351562 70.11915588378906 11.94598388671875 74.87847900390625 16.03375244140625 78.96624755859375 C 20.12152099609375 83.05401611328125 24.88084411621094 86.26304626464844 30.17950439453125 88.50419616699219 C 35.66376876831055 90.82384490966797 41.49121475219727 92 47.5 92 C 53.50878524780273 92 59.33623123168945 90.82384490966797 64.82049560546875 88.50419616699219 C 70.11915588378906 86.26304626464844 74.87847900390625 83.05401611328125 78.96624755859375 78.96624755859375 C 83.05401611328125 74.87847900390625 86.26304626464844 70.11915588378906 88.50419616699219 64.82049560546875 C 90.82384490966797 59.33623123168945 92 53.50878524780273 92 47.5 C 92 41.49121475219727 90.82384490966797 35.66376876831055 88.50419616699219 30.17950439453125 C 86.26304626464844 24.88084411621094 83.05401611328125 20.12152099609375 78.96624755859375 16.03375244140625 C 74.87847900390625 11.94598388671875 70.11915588378906 8.736953735351562 64.82049560546875 6.495796203613281 C 59.33623123168945 4.176155090332031 53.50878524780273 3 47.5 3 M 47.5 0 C 73.7335205078125 0 95 21.2664794921875 95 47.5 C 95 73.7335205078125 73.7335205078125 95 47.5 95 C 21.2664794921875 95 0 73.7335205078125 0 47.5 C 0 21.2664794921875 21.2664794921875 0 47.5 0 Z" stroke="none" fill="#5692e8"/>
                    </g>
                  </g>
                </g>
              </g>
            </g>
          </g>
        </g>
      </g>
      <g id="actitud" transform="translate(1241 6381)">
        <circle id="Ellipse_12672" data-name="Ellipse 12672" cx="14" cy="14" r="14" transform="translate(27 34)" fill="#e66d67"/>
        <circle id="Ellipse_12673" data-name="Ellipse 12673" cx="14" cy="14" r="14" transform="translate(2 5)" fill="#ffda73"/>
        <circle id="Ellipse_12674" data-name="Ellipse 12674" cx="18" cy="18" r="18" transform="translate(26 2)" fill="#ccdcff"/>
        <circle id="Ellipse_12675" data-name="Ellipse 12675" cx="8" cy="8" r="8" transform="translate(5 39)" fill="#36b385"/>
        <path id="Path_1044923" data-name="Path 1044923" d="M34.38,15.53h5.54V26.61H34.38Z" fill="#4575ba"/>
        <path id="Path_1044924" data-name="Path 1044924" d="M39.92,23.84l3.46,2.77h7.83a1.394,1.394,0,0,0,1.37-1.16l1.01-6.08A2.124,2.124,0,0,0,53,17.53a2.1,2.1,0,0,0-1.49-.62H48.23l1.07-4.26a1.637,1.637,0,0,0-3.11-1l-1.41,3.53a2.771,2.771,0,0,1-2.57,1.74H39.93" fill="#ffc9b9"/>
        <circle id="Ellipse_12676" data-name="Ellipse 12676" cx="1.87" cy="1.87" r="1.87" transform="translate(8.53 13.4)"/>
        <circle id="Ellipse_12677" data-name="Ellipse 12677" cx="1.87" cy="1.87" r="1.87" transform="translate(19.73 13.4)"/>
        <path id="Path_1044925" data-name="Path 1044925" d="M46.41,50.12,41,55.59l-5.4-5.47-.9-.92a3.906,3.906,0,0,1,0-5.47,3.779,3.779,0,0,1,5.41,0l.9.91.9-.91a3.8,3.8,0,0,1,5.41,0,3.906,3.906,0,0,1,0,5.47l-.9.92" fill="#ffc9b9"/>
        <path id="Path_1044926" data-name="Path 1044926" d="M16,34a15.023,15.023,0,0,0,9.64-3.51l-1.29-1.53a13,13,0,1,1,.01-19.92l1.29-1.53A15,15,0,1,0,16,34Z"/>
        <path id="Path_1044927" data-name="Path 1044927" d="M16,24.53c-2.54,0-4.6-1.64-4.6-3.67h-2c0,3.12,2.96,5.67,6.6,5.67s6.6-2.54,6.6-5.67h-2C20.6,22.88,18.54,24.53,16,24.53Z"/>
        <path id="Path_1044928" data-name="Path 1044928" d="M26,48a15,15,0,1,0,26.79-9.28l-1.57,1.24A12.875,12.875,0,0,1,54.01,48a13,13,0,1,1-21.36-9.96l-1.29-1.53A15,15,0,0,0,26,48Z"/>
        <path id="Path_1044929" data-name="Path 1044929" d="M13,56a9,9,0,1,0-9-9A9.014,9.014,0,0,0,13,56Zm0-16a7,7,0,1,1-7,7A7.008,7.008,0,0,1,13,40Z"/>
        <path id="Path_1044930" data-name="Path 1044930" d="M12,51h2V48h3V46H14V43H12v3H9v2h3Z"/>
        <path id="Path_1044931" data-name="Path 1044931" d="M51.51,15.92h-2l.76-3.02a2.62,2.62,0,0,0-1.38-3,2.654,2.654,0,0,0-2.12-.11,2.608,2.608,0,0,0-1.51,1.49l-1.41,3.53a1.771,1.771,0,0,1-1.64,1.11H40.93v-.38a1,1,0,0,0-1-1H34.39a1,1,0,0,0-1,1V26.62a1,1,0,0,0,1,1h5.54a1,1,0,0,0,1-1v-.69l1.84,1.47a1.02,1.02,0,0,0,.62.22h7.83a2.375,2.375,0,0,0,2.35-1.99l1.01-6.08a3.126,3.126,0,0,0-.87-2.71,3.086,3.086,0,0,0-2.2-.91ZM38.92,25.61H35.38V16.53h3.54Zm13.68-6.4-1.01,6.08a.378.378,0,0,1-.38.32H43.73l-2.81-2.25V17.92H42.2a3.756,3.756,0,0,0,3.5-2.37l1.41-3.53a.629.629,0,0,1,.37-.36.617.617,0,0,1,.51.03.623.623,0,0,1,.33.73l-1.07,4.26a1.049,1.049,0,0,0,.18.86,1,1,0,0,0,.79.38H51.5a1.089,1.089,0,0,1,.78.33,1.113,1.113,0,0,1,.31.97Z"/>
        <path id="Path_1044932" data-name="Path 1044932" d="M44,1A19,19,0,1,0,63,20,19.017,19.017,0,0,0,44,1Zm0,36A17,17,0,1,1,61,20,17.024,17.024,0,0,1,44,37Z"/>
        <path id="Path_1044933" data-name="Path 1044933" d="M34.88,50.82s.05.04.07.06l5.34,5.41a.99.99,0,0,0,1.42,0l5.41-5.47.9-.92a4.92,4.92,0,0,0,0-6.88,4.8,4.8,0,0,0-6.84,0l-.19.19-.19-.19a4.781,4.781,0,0,0-6.81-.01l-.02.02a4.92,4.92,0,0,0,0,6.88l.9.92Zm.51-6.38.02-.02a2.777,2.777,0,0,1,3.98,0l.9.91a.99.99,0,0,0,1.42,0l.9-.91a2.777,2.777,0,0,1,3.98,0,2.9,2.9,0,0,1,0,4.07l-5.6,5.67L36.3,49.41a.6.6,0,0,0-.07-.06l-.84-.85a2.907,2.907,0,0,1-.01-4.05Z"/>
      </g>
    </g>
  </g>
</svg>
