<svg xmlns="http://www.w3.org/2000/svg" xmlns:xlink="http://www.w3.org/1999/xlink" width="113" height="113" viewBox="0 0 113 113">
  <defs>
    <filter id="Path_982547" x="0" y="0" width="113" height="113" filterUnits="userSpaceOnUse">
      <feOffset dy="3" input="SourceAlpha"/>
      <feGaussianBlur stdDeviation="3" result="blur"/>
      <feFlood flood-opacity="0.161"/>
      <feComposite operator="in" in2="blur"/>
      <feComposite in="SourceGraphic"/>
    </filter>
  </defs>
  <g id="Group_1206386" data-name="Group 1206386" transform="translate(-743 -9396.41)">
    <g id="Group_1206282" data-name="Group 1206282" transform="translate(0 44)">
      <g id="Group_1203803" data-name="Group 1203803" transform="translate(0 6552.41)">
        <g id="Group_1202425" data-name="Group 1202425" transform="translate(-0.25 1464)">
          <g id="Group_1178324" data-name="Group 1178324" transform="translate(0 424)">
            <g id="Group_1177680" data-name="Group 1177680" transform="translate(752.25 918)">
              <g id="Group_1172010" data-name="Group 1172010">
                <g id="Group_1171046" data-name="Group 1171046">
                  <g id="Group_1148525" data-name="Group 1148525">
                    <g transform="matrix(1, 0, 0, 1, -9, -6)" filter="url(#Path_982547)">
                      <g id="Path_982547-2" data-name="Path 982547" transform="translate(9 6)" fill="#dce8fa">
                        <path d="M 47.5 93.5 C 41.28937149047852 93.5 35.26533508300781 92.28397369384766 29.59518623352051 89.88570404052734 C 24.11771965026855 87.56893157958984 19.19813346862793 84.25196075439453 14.97309303283691 80.02691650390625 C 10.74804019927979 75.80186462402344 7.431066513061523 70.88229370117188 5.114293098449707 65.40481567382812 C 2.716026782989502 59.73468017578125 1.5 53.71062850952148 1.5 47.5 C 1.5 41.28937149047852 2.716026782989502 35.26533508300781 5.114293098449707 29.59518623352051 C 7.431066513061523 24.11771965026855 10.74804019927979 19.19813346862793 14.97309303283691 14.97309303283691 C 19.19813346862793 10.74804019927979 24.11771965026855 7.431066513061523 29.59518623352051 5.114293098449707 C 35.26533508300781 2.716026782989502 41.28937149047852 1.5 47.5 1.5 C 53.71062850952148 1.5 59.73468017578125 2.716026782989502 65.40481567382812 5.114293098449707 C 70.88229370117188 7.431066513061523 75.80186462402344 10.74804019927979 80.02691650390625 14.97309303283691 C 84.25196075439453 19.19813346862793 87.56893157958984 24.11771965026855 89.88570404052734 29.59518623352051 C 92.28397369384766 35.26533508300781 93.5 41.28937149047852 93.5 47.5 C 93.5 53.71062850952148 92.28397369384766 59.73468017578125 89.88570404052734 65.40481567382812 C 87.56893157958984 70.88229370117188 84.25196075439453 75.80186462402344 80.02691650390625 80.02691650390625 C 75.80186462402344 84.25196075439453 70.88229370117188 87.56893157958984 65.40481567382812 89.88570404052734 C 59.73468017578125 92.28397369384766 53.71062850952148 93.5 47.5 93.5 Z" stroke="none"/>
                        <path d="M 47.5 3 C 41.49121475219727 3 35.66376876831055 4.176155090332031 30.17950439453125 6.495796203613281 C 24.88084411621094 8.736953735351562 20.12152099609375 11.94598388671875 16.03375244140625 16.03375244140625 C 11.94598388671875 20.12152099609375 8.736953735351562 24.88084411621094 6.495796203613281 30.17950439453125 C 4.176155090332031 35.66376876831055 3 41.49121475219727 3 47.5 C 3 53.50878524780273 4.176155090332031 59.33623123168945 6.495796203613281 64.82049560546875 C 8.736953735351562 70.11915588378906 11.94598388671875 74.87847900390625 16.03375244140625 78.96624755859375 C 20.12152099609375 83.05401611328125 24.88084411621094 86.26304626464844 30.17950439453125 88.50419616699219 C 35.66376876831055 90.82384490966797 41.49121475219727 92 47.5 92 C 53.50878524780273 92 59.33623123168945 90.82384490966797 64.82049560546875 88.50419616699219 C 70.11915588378906 86.26304626464844 74.87847900390625 83.05401611328125 78.96624755859375 78.96624755859375 C 83.05401611328125 74.87847900390625 86.26304626464844 70.11915588378906 88.50419616699219 64.82049560546875 C 90.82384490966797 59.33623123168945 92 53.50878524780273 92 47.5 C 92 41.49121475219727 90.82384490966797 35.66376876831055 88.50419616699219 30.17950439453125 C 86.26304626464844 24.88084411621094 83.05401611328125 20.12152099609375 78.96624755859375 16.03375244140625 C 74.87847900390625 11.94598388671875 70.11915588378906 8.736953735351562 64.82049560546875 6.495796203613281 C 59.33623123168945 4.176155090332031 53.50878524780273 3 47.5 3 M 47.5 0 C 73.7335205078125 0 95 21.2664794921875 95 47.5 C 95 73.7335205078125 73.7335205078125 95 47.5 95 C 21.2664794921875 95 0 73.7335205078125 0 47.5 C 0 21.2664794921875 21.2664794921875 0 47.5 0 Z" stroke="none" fill="#5692e8"/>
                      </g>
                    </g>
                  </g>
                </g>
              </g>
            </g>
          </g>
        </g>
      </g>
      <g id="contenido-de-la-tabla" transform="translate(770.781 9349.229)">
        <g id="Group_1206280" data-name="Group 1206280" transform="translate(0.856 31.856)">
          <g id="Group_1206276" data-name="Group 1206276">
            <path id="Path_1045118" data-name="Path 1045118" d="M7.5,38.5H64.226V88.149H7.5Z" transform="translate(-7.5 -38.5)" fill="#fff6cc"/>
            <path id="Path_1045119" data-name="Path 1045119" d="M464.5,38.5h4.565V88.149H464.5Z" transform="translate(-412.34 -38.5)" fill="#fff1b5"/>
            <path id="Path_1045120" data-name="Path 1045120" d="M7.5,38.5H64.226v6.525H7.5Z" transform="translate(-7.5 -38.5)" fill="#7b7b7f"/>
            <path id="Path_1045121" data-name="Path 1045121" d="M464.5,38.5h4.565v6.525H464.5Z" transform="translate(-412.34 -38.5)" fill="#6b6b73"/>
          </g>
          <g id="Group_1206279" data-name="Group 1206279" transform="translate(14.755 12.22)">
            <g id="Group_1206278" data-name="Group 1206278">
              <g id="Group_1206277" data-name="Group 1206277">
                <path id="Path_1045122" data-name="Path 1045122" d="M138.542,149.1h32.082a1.769,1.769,0,1,0,0-3.537H138.542a1.769,1.769,0,0,0,0,3.537Z" transform="translate(-136.773 -145.566)" fill="#00cfe9"/>
                <path id="Path_1045123" data-name="Path 1045123" d="M397.915,145.566H393.35a1.769,1.769,0,1,1,0,3.537h4.565a1.769,1.769,0,0,0,0-3.537Z" transform="translate(-364.065 -145.566)" fill="#00bfd6"/>
                <path id="Path_1045124" data-name="Path 1045124" d="M212.673,209.968h23.621a1.769,1.769,0,1,0,0-3.537H212.673a1.769,1.769,0,0,0,0,3.537Z" transform="translate(-202.443 -199.484)" fill="#80e1ff"/>
                <path id="Path_1045125" data-name="Path 1045125" d="M397.915,206.431H393.35a1.769,1.769,0,1,1,0,3.537h4.565a1.769,1.769,0,0,0,0-3.537Z" transform="translate(-364.065 -199.484)" fill="#59d8ff"/>
                <path id="Path_1045126" data-name="Path 1045126" d="M138.542,331.7h32.082a1.769,1.769,0,1,0,0-3.537H138.542a1.769,1.769,0,1,0,0,3.537Z" transform="translate(-136.773 -307.319)" fill="#fd0"/>
                <path id="Path_1045127" data-name="Path 1045127" d="M397.915,328.161H393.35a1.769,1.769,0,1,1,0,3.537h4.565a1.769,1.769,0,1,0,0-3.537Z" transform="translate(-364.065 -307.32)" fill="#f7d200"/>
                <path id="Path_1045128" data-name="Path 1045128" d="M138.542,391.478h32.082a1.769,1.769,0,1,0,0-3.537H138.542a1.769,1.769,0,1,0,0,3.537Z" transform="translate(-136.773 -360.277)" fill="#ff7de9"/>
                <path id="Path_1045129" data-name="Path 1045129" d="M397.915,387.941H393.35a1.769,1.769,0,1,1,0,3.537h4.565a1.769,1.769,0,0,0,0-3.537Z" transform="translate(-364.065 -360.277)" fill="#ff5ee4"/>
                <path id="Path_1045130" data-name="Path 1045130" d="M292.9,270.833h14.464a1.769,1.769,0,0,0,0-3.537H292.9a1.769,1.769,0,1,0,0,3.537Z" transform="translate(-273.513 -253.402)" fill="#c4f1ff"/>
                <path id="Path_1045131" data-name="Path 1045131" d="M397.915,267.3H393.35a1.769,1.769,0,1,1,0,3.537h4.565a1.769,1.769,0,0,0,0-3.537Z" transform="translate(-364.065 -253.402)" fill="#a1e9ff"/>
              </g>
            </g>
          </g>
        </g>
        <g id="Group_1206281" data-name="Group 1206281" transform="translate(0 31)">
          <path id="Path_1045132" data-name="Path 1045132" d="M35.278,59.583a.856.856,0,0,0,0,1.712A.856.856,0,0,0,35.278,59.583Z" transform="translate(-30.493 -56.321)"/>
          <path id="Path_1045133" data-name="Path 1045133" d="M62.111,59.583a.856.856,0,1,0,0,1.712A.856.856,0,0,0,62.111,59.583Z" transform="translate(-54.264 -56.321)"/>
          <path id="Path_1045134" data-name="Path 1045134" d="M88.945,59.583a.856.856,0,0,0,0,1.712A.856.856,0,0,0,88.945,59.583Z" transform="translate(-78.035 -56.321)"/>
          <path id="Path_1045135" data-name="Path 1045135" d="M57.582,31H.856A.856.856,0,0,0,0,31.856v37a.857.857,0,0,0,1.712,0V39.237H56.726V80.649H1.712V73.412a.857.857,0,0,0-1.712,0v8.094a.856.856,0,0,0,.856.856H57.582a.856.856,0,0,0,.856-.856V31.856A.856.856,0,0,0,57.582,31ZM1.712,37.525V32.712H56.726v4.813Z" transform="translate(0 -31)"/>
          <path id="Path_1045136" data-name="Path 1045136" d="M229.755,198.932H206.135a2.625,2.625,0,0,0,0,5.249h23.621A2.625,2.625,0,0,0,229.755,198.932Zm0,3.537H206.135a.913.913,0,0,1,0-1.825h23.621A.913.913,0,0,1,229.755,202.469Z" transform="translate(-180.294 -179.765)"/>
          <path id="Path_1045137" data-name="Path 1045137" d="M132,325.91h32.082a2.625,2.625,0,0,0,0-5.249H132A2.625,2.625,0,0,0,132,325.91Zm0-3.537h32.082a.913.913,0,0,1,0,1.825H132A.913.913,0,0,1,132,322.373Z" transform="translate(-114.624 -287.6)"/>
          <path id="Path_1045138" data-name="Path 1045138" d="M132,139.778H154.83a.856.856,0,0,0,0-1.712H132a2.625,2.625,0,0,0,0,5.249h32.082a2.625,2.625,0,0,0,0-5.249h-4.691a.856.856,0,0,0,0,1.712h4.691a.913.913,0,0,1,0,1.825H132a.913.913,0,0,1,0-1.825Z" transform="translate(-114.624 -125.846)"/>
          <path id="Path_1045139" data-name="Path 1045139" d="M164.085,380.441H132a2.625,2.625,0,0,0,0,5.249h32.082A2.625,2.625,0,0,0,164.085,380.441Zm0,3.537H132a.913.913,0,0,1,0-1.825h32.082A.913.913,0,0,1,164.085,383.978Z" transform="translate(-114.624 -340.557)"/>
          <path id="Path_1045140" data-name="Path 1045140" d="M300.825,259.8H286.361a2.625,2.625,0,0,0,0,5.249h14.464A2.625,2.625,0,0,0,300.825,259.8Zm0,3.537H286.361a.913.913,0,0,1,0-1.825h14.464A.913.913,0,0,1,300.825,263.333Z" transform="translate(-251.364 -233.682)"/>
          <path id="Path_1045141" data-name="Path 1045141" d="M57.184,142.817a.856.856,0,0,0,1.211,0l3.29-3.29a.856.856,0,0,0-1.211-1.211L57.79,141l-.673-.673a.856.856,0,0,0-1.211,1.211Z" transform="translate(-49.303 -125.846)"/>
          <path id="Path_1045142" data-name="Path 1045142" d="M134.44,199.183l-2.684,2.684-.673-.673a.856.856,0,0,0-1.211,1.211l1.278,1.278a.856.856,0,0,0,1.211,0l3.29-3.29a.856.856,0,0,0-1.211-1.211Z" transform="translate(-114.823 -179.765)"/>
          <path id="Path_1045143" data-name="Path 1045143" d="M215.474,260.047l-2.684,2.684-.673-.673a.856.856,0,0,0-1.211,1.211l1.278,1.278a.856.856,0,0,0,1.211,0l3.29-3.29a.856.856,0,0,0-1.211-1.211Z" transform="translate(-186.612 -233.682)"/>
          <path id="Path_1045144" data-name="Path 1045144" d="M55.872,324.134l1.278,1.278a.856.856,0,0,0,1.211,0l3.29-3.29a.856.856,0,0,0-1.211-1.211L57.755,323.6l-.673-.673A.856.856,0,0,0,55.872,324.134Z" transform="translate(-49.269 -287.6)"/>
          <path id="Path_1045145" data-name="Path 1045145" d="M55.905,385l1.278,1.278a.856.856,0,0,0,1.211,0l3.29-3.29a.856.856,0,0,0-1.211-1.211l-2.684,2.684-.673-.673A.856.856,0,0,0,55.905,385Z" transform="translate(-49.302 -341.518)"/>
        </g>
      </g>
    </g>
  </g>
</svg>
