<svg xmlns="http://www.w3.org/2000/svg" xmlns:xlink="http://www.w3.org/1999/xlink" width="106.16" height="106.16" viewBox="0 0 106.16 106.16">
  <defs>
    <filter id="Path_982547" x="0" y="0" width="106.16" height="106.16" filterUnits="userSpaceOnUse">
      <feOffset dy="3" input="SourceAlpha"/>
      <feGaussianBlur stdDeviation="3" result="blur"/>
      <feFlood flood-opacity="0.161"/>
      <feComposite operator="in" in2="blur"/>
      <feComposite in="SourceGraphic"/>
    </filter>
  </defs>
  <g id="Group_1206363" data-name="Group 1206363" transform="translate(-610.67 -3550.817)">
    <g id="Group_1206199" data-name="Group 1206199" transform="translate(0 22.417)">
      <g id="Group_1203823" data-name="Group 1203823" transform="translate(-0.25 -3051.479)">
        <g id="Group_1203345" data-name="Group 1203345" transform="translate(338.92 5174.875)">
          <g id="Group_1177900" data-name="Group 1177900" transform="translate(281 1411.003)">
            <g id="Group_1172010" data-name="Group 1172010" transform="translate(0)">
              <g id="Group_1171046" data-name="Group 1171046">
                <g id="Group_1148525" data-name="Group 1148525">
                  <g transform="matrix(1, 0, 0, 1, -9, -6)" filter="url(#Path_982547)">
                    <g id="Path_982547-2" data-name="Path 982547" transform="translate(9 6)" fill="#fdfbec">
                      <path d="M 44.0802001953125 86.660400390625 C 38.33124923706055 86.660400390625 32.75506210327148 85.53479766845703 27.50652503967285 83.31484985351562 C 22.43628692626953 81.17032623291016 17.88242530822754 78.09992218017578 13.97144985198975 74.18894958496094 C 10.06047534942627 70.27797698974609 6.99007511138916 65.72411346435547 4.845550060272217 60.65387344360352 C 2.625600099563599 55.40533828735352 1.500000238418579 49.82915115356445 1.500000238418579 44.0802001953125 C 1.500000238418579 38.33124923706055 2.625600099563599 32.75506210327148 4.845550060272217 27.50652503967285 C 6.99007511138916 22.43628692626953 10.06047534942627 17.88242530822754 13.97144985198975 13.97144985198975 C 17.88242530822754 10.06047534942627 22.43628692626953 6.99007511138916 27.50652503967285 4.845550060272217 C 32.75506210327148 2.625600099563599 38.33124923706055 1.500000238418579 44.0802001953125 1.500000238418579 C 49.82915115356445 1.500000238418579 55.40533828735352 2.625600099563599 60.65387344360352 4.845550060272217 C 65.72411346435547 6.99007511138916 70.27797698974609 10.06047534942627 74.18894958496094 13.97144985198975 C 78.09992218017578 17.88242530822754 81.17032623291016 22.43628692626953 83.31484985351562 27.50652503967285 C 85.53479766845703 32.75506210327148 86.660400390625 38.33124923706055 86.660400390625 44.0802001953125 C 86.660400390625 49.82915115356445 85.53479766845703 55.40533828735352 83.31484985351562 60.65387344360352 C 81.17032623291016 65.72411346435547 78.09992218017578 70.27797698974609 74.18894958496094 74.18894958496094 C 70.27797698974609 78.09992218017578 65.72411346435547 81.17032623291016 60.65387344360352 83.31484985351562 C 55.40533828735352 85.53479766845703 49.82915115356445 86.660400390625 44.0802001953125 86.660400390625 Z" stroke="none"/>
                      <path d="M 44.0802001953125 3 C 38.53308486938477 3 33.15349960327148 4.085746765136719 28.09085845947266 6.227058410644531 C 23.19941711425781 8.29595947265625 18.80581665039062 11.25841522216797 15.03211212158203 15.03211212158203 C 11.25841522216797 18.80581665039062 8.29595947265625 23.19941711425781 6.227058410644531 28.09085845947266 C 4.085746765136719 33.15349960327148 3 38.53308486938477 3 44.0802001953125 C 3 49.62731552124023 4.085746765136719 55.00691604614258 6.227058410644531 60.06954193115234 C 8.29595947265625 64.96098327636719 11.25841522216797 69.35458374023438 15.03211212158203 73.12828826904297 C 18.80581665039062 76.90198516845703 23.19941711425781 79.86444091796875 28.09085845947266 81.93334197998047 C 33.15349960327148 84.07466125488281 38.53308486938477 85.160400390625 44.0802001953125 85.160400390625 C 49.62731552124023 85.160400390625 55.00691604614258 84.07466125488281 60.06954193115234 81.93334197998047 C 64.96099853515625 79.86444091796875 69.35458374023438 76.90198516845703 73.12828826904297 73.12828826904297 C 76.90198516845703 69.35458374023438 79.86444091796875 64.96099853515625 81.93334197998047 60.06954193115234 C 84.07466125488281 55.00691604614258 85.160400390625 49.62731552124023 85.160400390625 44.0802001953125 C 85.160400390625 38.53308486938477 84.07466125488281 33.15349960327148 81.93334197998047 28.09085845947266 C 79.86444091796875 23.19941711425781 76.90198516845703 18.80581665039062 73.12828826904297 15.03211212158203 C 69.35458374023438 11.25841522216797 64.96098327636719 8.29595947265625 60.06954193115234 6.227058410644531 C 55.00691604614258 4.085746765136719 49.62731552124023 3 44.0802001953125 3 M 44.0802001953125 0 C 68.42502593994141 0 88.160400390625 19.73538970947266 88.160400390625 44.0802001953125 C 88.160400390625 68.42502593994141 68.42502593994141 88.160400390625 44.0802001953125 88.160400390625 C 19.73538970947266 88.160400390625 0 68.42502593994141 0 44.0802001953125 C 0 19.73538970947266 19.73538970947266 0 44.0802001953125 0 Z" stroke="none" fill="#83793c"/>
                    </g>
                  </g>
                </g>
              </g>
            </g>
          </g>
        </g>
      </g>
      <g id="conversacion" transform="translate(632.239 3542.039)">
        <path id="Path_1044792" data-name="Path 1044792" d="M27.876,308.846v11.019a9.151,9.151,0,0,1-12.939,8.325h0a9.151,9.151,0,0,1-5.268-7.07,2.95,2.95,0,1,1,3.06-4.871l.768-4.4.524-3H27.876Z" transform="translate(-6.791 -266.172)" fill="#fcd2be"/>
        <path id="Path_1044793" data-name="Path 1044793" d="M14.936,350.791a9.151,9.151,0,0,1-5.268-7.07,2.95,2.95,0,1,1,3.06-4.871l.768-4.4,2.408.489C14.891,336.685,10.615,343.074,14.936,350.791Z" transform="translate(-6.79 -288.773)" fill="#fab998"/>
        <path id="Path_1044794" data-name="Path 1044794" d="M46.406,270.779a7.947,7.947,0,0,1-7.947,7.947h-8.3v.738a3.177,3.177,0,0,1-3.178,3.176,2.951,2.951,0,0,0-3.144-.668v-3.246a7.948,7.948,0,0,1,7.947-7.947Z" transform="translate(-21.045 -232.564)" fill="#f9ce55"/>
        <path id="Path_1044795" data-name="Path 1044795" d="M38.27,270.779H31.784a7.948,7.948,0,0,0-7.947,7.947v3.246a2.951,2.951,0,0,1,3.144.668,3.177,3.177,0,0,0,3.178-3.176v-.738h.164A7.948,7.948,0,0,1,38.27,270.779Z" transform="translate(-21.045 -232.564)" fill="#e2a11e"/>
        <path id="Path_1044796" data-name="Path 1044796" d="M72.439,64.264H49.875a2.59,2.59,0,0,0-2.59,2.59V78.248a2.59,2.59,0,0,0,2.59,2.59H62.6v4.684l4.178-4.684h5.663a2.59,2.59,0,0,0,2.59-2.59V66.854A2.59,2.59,0,0,0,72.439,64.264Z" transform="translate(-41.746 -50.24)" fill="#3facc9"/>
        <path id="Path_1044797" data-name="Path 1044797" d="M245.271,15.048h22.564a2.59,2.59,0,0,1,2.59,2.59V29.032a2.59,2.59,0,0,1-2.59,2.59H255.111v4.684l-4.178-4.684H245.27a2.59,2.59,0,0,1-2.59-2.59V17.639A2.59,2.59,0,0,1,245.271,15.048Z" transform="translate(-214.252 -6.789)" fill="#00c7a9"/>
        <path id="Path_1044798" data-name="Path 1044798" d="M329.106,282.779l-.046-.019a8.256,8.256,0,0,1-4.683-7.574l-13.843-13.675c-.649-2.4-.449-6.616,5.51-7.1q.557-.047,1.182-.047c7.112,0,14.09.572,15.567,11.04C333.78,272.406,331.213,279.211,329.106,282.779Z" transform="translate(-273.935 -218.071)" fill="#6b4b3d"/>
        <path id="Path_1044799" data-name="Path 1044799" d="M372.539,282.779l-.046-.019a.016.016,0,0,0,0-.007c2.4-20.419-6.846-28.343-13.018-28.343q.557-.047,1.182-.047c7.112,0,14.09.572,15.567,11.04C377.213,272.406,374.646,279.211,372.539,282.779Z" transform="translate(-317.368 -218.071)" fill="#5b3d2d"/>
        <path id="Path_1044800" data-name="Path 1044800" d="M330.256,312.9a2.726,2.726,0,0,1-1.027.647,8.436,8.436,0,0,1-16.793-1.157v-7.122s3.74.134,5.216-1.342a7.619,7.619,0,0,0,6.774,3.049h0a8.006,8.006,0,0,0,1.981-.364v2.444h0a2.72,2.72,0,0,1,3.847,3.847Z" transform="translate(-275.838 -261.829)" fill="#fcd2be"/>
        <path id="Path_1044801" data-name="Path 1044801" d="M408.9,333.128a2.726,2.726,0,0,1-1.027.647,8.439,8.439,0,0,1-6.358,7.04c4.381-2.4,1.593-13.462,1.555-13.611h0a8.005,8.005,0,0,0,1.981-.364v2.444h0a2.721,2.721,0,0,1,3.847,3.847Z" transform="translate(-354.484 -282.056)" fill="#fab998"/>
        <path id="Path_1044802" data-name="Path 1044802" d="M107.471,366.483V364.97a.9.9,0,1,0-1.8,0v1.513a.9.9,0,0,0,1.8,0Z" transform="translate(-93.291 -314.926)"/>
        <path id="Path_1044803" data-name="Path 1044803" d="M139.244,364.97v1.513a.9.9,0,0,0,1.8,0V364.97a.9.9,0,1,0-1.8,0Z" transform="translate(-122.933 -314.926)"/>
        <path id="Path_1044804" data-name="Path 1044804" d="M78.938,417.63a.9.9,0,0,0-1.564.894,5.187,5.187,0,0,0,4.478,2.577H81.9a.9.9,0,0,0,.047-1.8A3.424,3.424,0,0,1,78.938,417.63Z" transform="translate(-68.205 -361.812)"/>
        <path id="Path_1044805" data-name="Path 1044805" d="M25.36,263.094H10.739a8.857,8.857,0,0,0-8.847,8.847.9.9,0,0,0,1.8,0,7.053,7.053,0,0,1,7.046-7.045H24.4a7.056,7.056,0,0,1-6.988,6.145h-8.3a.9.9,0,0,0-.9.9v.737a2.279,2.279,0,0,1-1.959,2.254,3.855,3.855,0,0,0-3.783-.587,3.854,3.854,0,0,0-.4,7.01,10.048,10.048,0,0,0,19.918-1.882V274.33a.9.9,0,0,0-1.8,0v5.143A8.246,8.246,0,0,1,3.771,280.6a.9.9,0,0,0-.594-.728,2.049,2.049,0,0,1-.775-3.384,2.022,2.022,0,0,1,.713-.465,2.052,2.052,0,0,1,2.18.46.9.9,0,0,0,.686.268,4.083,4.083,0,0,0,4.031-3.914h7.4a8.857,8.857,0,0,0,8.847-8.847A.9.9,0,0,0,25.36,263.094Z" transform="translate(0 -225.779)"/>
        <path id="Path_1044806" data-name="Path 1044806" d="M68.239,70.558a.9.9,0,0,0-.9.9,1.692,1.692,0,0,1-1.69,1.69H59.986a.9.9,0,0,0-.672.3l-2.6,2.92V74.05a.9.9,0,0,0-.9-.9H43.085a1.692,1.692,0,0,1-1.69-1.69V60.065a1.692,1.692,0,0,1,1.69-1.69H60.312a.9.9,0,1,0,0-1.8H43.085a3.5,3.5,0,0,0-3.491,3.491V71.459a3.5,3.5,0,0,0,3.491,3.491H54.908v3.783a.9.9,0,0,0,1.573.6L60.39,74.95h5.259a3.5,3.5,0,0,0,3.491-3.491A.9.9,0,0,0,68.239,70.558Z" transform="translate(-34.956 -43.451)"/>
        <path id="Path_1044807" data-name="Path 1044807" d="M238.48,25.734h5.259l3.909,4.383a.9.9,0,0,0,1.573-.6V25.734h11.822a3.5,3.5,0,0,0,3.491-3.491V10.849a3.5,3.5,0,0,0-3.491-3.491H259a.9.9,0,1,0,0,1.8h2.048a1.692,1.692,0,0,1,1.69,1.69V22.243a1.692,1.692,0,0,1-1.69,1.69H248.321a.9.9,0,0,0-.9.9v2.321l-2.6-2.92a.9.9,0,0,0-.672-.3H238.48a1.692,1.692,0,0,1-1.69-1.69V10.849a1.691,1.691,0,0,1,1.69-1.69h17.633a.9.9,0,1,0,0-1.8H238.48a3.5,3.5,0,0,0-3.491,3.491V22.243A3.5,3.5,0,0,0,238.48,25.734Z" transform="translate(-207.462)"/>
        <path id="Path_1044808" data-name="Path 1044808" d="M356.2,46.32H346.045a.9.9,0,1,0,0,1.8H356.2a.9.9,0,0,0,0-1.8Z" transform="translate(-304.714 -34.398)"/>
        <path id="Path_1044809" data-name="Path 1044809" d="M275.879,48.123H281.1a.9.9,0,1,0,0-1.8h-5.216a.9.9,0,0,0,0,1.8Z" transform="translate(-242.767 -34.399)"/>
        <path id="Path_1044810" data-name="Path 1044810" d="M409.158,77.849h-3.131a.9.9,0,0,0,0,1.8h3.131a.9.9,0,1,0,0-1.8Z" transform="translate(-357.669 -62.234)"/>
        <path id="Path_1044811" data-name="Path 1044811" d="M275.879,79.652h12.243a.9.9,0,1,0,0-1.8H275.879a.9.9,0,0,0,0,1.8Z" transform="translate(-242.767 -62.235)"/>
        <path id="Path_1044812" data-name="Path 1044812" d="M275.879,111.18h12.783a.9.9,0,1,0,0-1.8H275.879a.9.9,0,0,0,0,1.8Z" transform="translate(-242.767 -90.069)"/>
        <path id="Path_1044813" data-name="Path 1044813" d="M77.989,94.262h5.216a.9.9,0,0,0,0-1.8H77.989a.9.9,0,1,0,0,1.8Z" transform="translate(-68.058 -75.133)"/>
        <path id="Path_1044814" data-name="Path 1044814" d="M158.567,94.262a.9.9,0,0,0,0-1.8h-5.216a.9.9,0,0,0,0,1.8Z" transform="translate(-134.592 -75.133)"/>
        <path id="Path_1044815" data-name="Path 1044815" d="M77.989,123.988a.9.9,0,1,0,0,1.8H93.775a.9.9,0,0,0,0-1.8Z" transform="translate(-68.058 -102.968)"/>
        <path id="Path_1044816" data-name="Path 1044816" d="M125.6,155.517a.9.9,0,1,0,0,1.8H132.8a.9.9,0,1,0,0-1.8Z" transform="translate(-110.09 -130.804)"/>
        <path id="Path_1044817" data-name="Path 1044817" d="M77.989,155.517a.9.9,0,1,0,0,1.8h2.574a.9.9,0,1,0,0-1.8Z" transform="translate(-68.058 -130.804)"/>
        <path id="Path_1044818" data-name="Path 1044818" d="M368.019,342.044v-1.4a.9.9,0,1,0-1.8,0v1.4a.9.9,0,1,0,1.8,0Z" transform="translate(-323.318 -293.454)"/>
        <path id="Path_1044819" data-name="Path 1044819" d="M337.05,342.044v-1.4a.9.9,0,1,0-1.8,0v1.4a.9.9,0,1,0,1.8,0Z" transform="translate(-295.977 -293.454)"/>
        <path id="Path_1044820" data-name="Path 1044820" d="M362.944,391.64a.9.9,0,0,0,.9.853h.049a4.851,4.851,0,0,0,4.187-2.412.9.9,0,0,0-1.564-.894,3.093,3.093,0,0,1-2.719,1.507A.9.9,0,0,0,362.944,391.64Z" transform="translate(-320.428 -336.7)"/>
        <path id="Path_1044821" data-name="Path 1044821" d="M436.117,279.138c-.571-4.048-1.961-6.948-4.251-8.864a.9.9,0,0,0-1.156,1.381c1.932,1.618,3.117,4.148,3.623,7.735a27.281,27.281,0,0,1-3.146,16.041,7.361,7.361,0,0,1-3.123-3.983.9.9,0,1,0-1.718.542,9.171,9.171,0,0,0,4.849,5.484.9.9,0,0,0,1.119-.375A29.253,29.253,0,0,0,436.117,279.138Z" transform="translate(-376.367 -231.932)"/>
        <path id="Path_1044822" data-name="Path 1044822" d="M321.344,263.617a3.622,3.622,0,0,0-2.731-6.669v-.893a.9.9,0,0,0-1.2-.848,7.087,7.087,0,0,1-7.738-2.385.9.9,0,0,0-1.351-.088c-.731.731-2.531,1.027-3.856,1.076a4.442,4.442,0,0,1,.7-3.5c.935-1.221,2.707-1.84,5.269-1.84,2.936,0,6.015.083,8.557,1.078a.9.9,0,0,0,.656-1.678c-2.834-1.108-6.106-1.2-9.214-1.2-3.152,0-5.406.857-6.7,2.546a6.72,6.72,0,0,0-.862,5.738.9.9,0,0,0,.837.665,10.907,10.907,0,0,0,5.106-1.014,8.391,8.391,0,0,0,5.785,2.725,9.9,9.9,0,0,0,2.211-.126v1.3a.9.9,0,0,0,1.54.634,1.823,1.823,0,0,1,1.941-.41,1.819,1.819,0,0,1,.631,2.985,1.818,1.818,0,0,1-.688.434.9.9,0,0,0-.594.728,7.535,7.535,0,0,1-15-1.034v-4.073a.9.9,0,0,0-1.8,0v4.073a9.338,9.338,0,0,0,18.5,1.782Z" transform="translate(-267.142 -211.273)"/>
      </g>
    </g>
  </g>
</svg>
