<svg xmlns="http://www.w3.org/2000/svg" xmlns:xlink="http://www.w3.org/1999/xlink" width="108" height="108" viewBox="0 0 108 108">
  <defs>
    <filter id="Path_904820" x="0" y="0" width="108" height="108" filterUnits="userSpaceOnUse">
      <feOffset dy="3" input="SourceAlpha"/>
      <feGaussianBlur stdDeviation="3" result="blur"/>
      <feFlood flood-opacity="0.161"/>
      <feComposite operator="in" in2="blur"/>
      <feComposite in="SourceGraphic"/>
    </filter>
  </defs>
  <g id="Group_1226383" data-name="Group 1226383" transform="translate(-615 -3437.542)">
    <g id="Group_1225380" data-name="Group 1225380">
      <g id="Group_1224533" data-name="Group 1224533" transform="translate(624 3443.542)">
        <g id="Group_1223816" data-name="Group 1223816" transform="translate(0 0)">
          <g id="Group_1203798" data-name="Group 1203798">
            <g id="Group_1202437" data-name="Group 1202437">
              <g id="Group_1177315" data-name="Group 1177315">
                <g id="Group_1173585" data-name="Group 1173585">
                  <g id="Group_1173428" data-name="Group 1173428">
                    <g id="Group_1171958" data-name="Group 1171958">
                      <g id="Group_1167341" data-name="Group 1167341">
                        <g id="Group_1166792" data-name="Group 1166792">
                          <g transform="matrix(1, 0, 0, 1, -9, -6)" filter="url(#Path_904820)">
                            <g id="Path_904820-2" data-name="Path 904820" transform="translate(9 6)" fill="#edf3fc">
                              <path d="M 44.99999618530273 88.5 C 39.12687301635742 88.5 33.43022155761719 87.35008239746094 28.06829643249512 85.08217620849609 C 22.88852119445801 82.89131927490234 18.23629570007324 79.75459289550781 14.24084663391113 75.7591552734375 C 10.24540901184082 71.76370239257812 7.108683586120605 67.11148071289062 4.917821407318115 61.93170547485352 C 2.649921178817749 56.56977844238281 1.499996185302734 50.87312698364258 1.499996185302734 45.00000381469727 C 1.499996185302734 39.12688064575195 2.649921178817749 33.43022918701172 4.917821407318115 28.06830406188965 C 7.108683586120605 22.88852882385254 10.24540901184082 18.23630332946777 14.24084663391113 14.24085426330566 C 18.23629570007324 10.24541664123535 22.88852119445801 7.108691215515137 28.06829643249512 4.917829036712646 C 33.43022155761719 2.64992880821228 39.12687301635742 1.500003814697266 44.99999618530273 1.500003814697266 C 50.87311935424805 1.500003814697266 56.56977081298828 2.64992880821228 61.93169784545898 4.917829036712646 C 67.11147308349609 7.108691215515137 71.76369476318359 10.24541664123535 75.75914764404297 14.24085426330566 C 79.75458526611328 18.23630332946777 82.89131164550781 22.88852882385254 85.08216857910156 28.06830406188965 C 87.35007476806641 33.43022918701172 88.5 39.12688064575195 88.5 45.00000381469727 C 88.5 50.87312698364258 87.35007476806641 56.56977844238281 85.08216857910156 61.93170547485352 C 82.89131164550781 67.11148071289062 79.75458526611328 71.76370239257812 75.75914764404297 75.7591552734375 C 71.76369476318359 79.75459289550781 67.11147308349609 82.89131927490234 61.93169784545898 85.08217620849609 C 56.56977081298828 87.35008239746094 50.87311935424805 88.5 44.99999618530273 88.5 Z" stroke="none"/>
                              <path d="M 44.99999618530273 3.000007629394531 C 39.32870864868164 3.000007629394531 33.82865142822266 4.110061645507812 28.65262603759766 6.299346923828125 C 23.65165710449219 8.414573669433594 19.15968322753906 11.44334411621094 15.301513671875 15.30152130126953 C 11.44333648681641 19.15969085693359 8.414566040039062 23.65166473388672 6.299339294433594 28.65263366699219 C 4.110054016113281 33.82865905761719 2.999992370605469 39.32871627807617 2.999992370605469 45.00000381469727 C 2.999992370605469 50.67129135131836 4.110054016113281 56.17134857177734 6.299339294433594 61.34737396240234 C 8.414566040039062 66.34834289550781 11.44333648681641 70.84031677246094 15.301513671875 74.698486328125 C 19.15968322753906 78.55666351318359 23.65165710449219 81.58543395996094 28.65262603759766 83.70066070556641 C 33.82865142822266 85.88994598388672 39.32870864868164 87 44.99999618530273 87 C 50.67128372192383 87 56.17134094238281 85.88994598388672 61.34736633300781 83.70066070556641 C 66.34834289550781 81.58543395996094 70.84030914306641 78.55666351318359 74.69847869873047 74.698486328125 C 78.55665588378906 70.84031677246094 81.58542633056641 66.34834289550781 83.70065307617188 61.34737396240234 C 85.88993835449219 56.17134857177734 87 50.67129135131836 87 45.00000381469727 C 87 39.32871627807617 85.88993835449219 33.82865905761719 83.70065307617188 28.65263366699219 C 81.58542633056641 23.65166473388672 78.55665588378906 19.15969085693359 74.69847869873047 15.30152130126953 C 70.84030914306641 11.44334411621094 66.34834289550781 8.414573669433594 61.34736633300781 6.299346923828125 C 56.17134094238281 4.110061645507812 50.67128372192383 3.000007629394531 44.99999618530273 3.000007629394531 M 44.99999618530273 7.62939453125e-06 C 69.85281372070312 7.62939453125e-06 90 20.14718627929688 90 45.00000381469727 C 90 69.85281372070312 69.85281372070312 90 44.99999618530273 90 C 20.14717864990234 90 -7.62939453125e-06 69.85281372070312 -7.62939453125e-06 45.00000381469727 C -7.62939453125e-06 20.14718627929688 20.14717864990234 7.62939453125e-06 44.99999618530273 7.62939453125e-06 Z" stroke="none" fill="#5692e8"/>
                            </g>
                          </g>
                        </g>
                      </g>
                    </g>
                  </g>
                </g>
              </g>
            </g>
          </g>
        </g>
      </g>
      <g id="colegio_4_" data-name="colegio (4)" transform="translate(637.881 3429.051)">
        <g id="Group_1225378" data-name="Group 1225378" transform="translate(0.912 28.969)">
          <path id="Path_1212610" data-name="Path 1212610" d="M256,35.557h6.821v4.872H256Z" transform="translate(-225.792 -35.557)" fill="#ff8086"/>
          <path id="Path_1212611" data-name="Path 1212611" d="M256,35.557h2.923v4.872H256Z" transform="translate(-225.792 -35.557)" fill="#e5646e"/>
          <path id="Path_1212612" data-name="Path 1212612" d="M64.018,179.847H11.4l-3.9,8.77H67.916Z" transform="translate(-7.5 -162.307)" fill="#ff8086"/>
          <path id="Path_1212613" data-name="Path 1212613" d="M8.8,227.944l-1.3,2.923H67.916l-1.3-2.923Z" transform="translate(-7.5 -204.557)" fill="#e5646e"/>
          <path id="Path_1212614" data-name="Path 1212614" d="M80.05,166.61H23.532V139.325H36.2l15.591-15.591,15.591,15.591H80.05Z" transform="translate(-21.583 -113.015)" fill="#ffc269"/>
          <path id="Path_1212615" data-name="Path 1212615" d="M207.9,372.234H219.6v10.719H207.9Z" transform="translate(-183.542 -331.307)" fill="#c38c66"/>
          <circle id="Ellipse_12673" data-name="Ellipse 12673" cx="5.847" cy="5.847" r="5.847" transform="translate(24.361 22.412)" fill="#fff0af"/>
          <circle id="Ellipse_12674" data-name="Ellipse 12674" cx="2.923" cy="2.923" r="2.923" transform="translate(27.284 25.336)" fill="#fff"/>
          <path id="Path_1212616" data-name="Path 1212616" d="M191.871,444.379h15.591v3.9H191.871Z" transform="translate(-169.459 -394.682)" fill="#c8c5c9"/>
          <path id="Path_1212617" data-name="Path 1212617" d="M67.382,139.325,51.791,123.734,36.2,139.325H23.532V166.61h2.923V144.2a1.949,1.949,0,0,1,1.949-1.949h7.537a3.9,3.9,0,0,0,2.771-1.157l13.079-13.223L64.87,141.092a3.9,3.9,0,0,0,2.771,1.157H80.05v-2.923Z" transform="translate(-21.583 -113.015)" fill="#ffa95f"/>
          <path id="Path_1212618" data-name="Path 1212618" d="M344.177,292.073h13.642v5.847H344.177Z" transform="translate(-303.25 -260.891)" fill="#edf4ff"/>
          <path id="Path_1212619" data-name="Path 1212619" d="M347.1,293.047v-.974h-2.923v5.847H357.82V295h-8.77A1.949,1.949,0,0,1,347.1,293.047Z" transform="translate(-303.251 -260.891)" fill="#dbeaff"/>
          <path id="Path_1212620" data-name="Path 1212620" d="M344.177,372.234h13.642v5.847H344.177Z" transform="translate(-303.25 -331.307)" fill="#edf4ff"/>
          <path id="Path_1212621" data-name="Path 1212621" d="M347.1,373.208v-.974h-2.923v5.847H357.82v-2.923h-8.77A1.949,1.949,0,0,1,347.1,373.208Z" transform="translate(-303.251 -331.307)" fill="#dbeaff"/>
          <path id="Path_1212622" data-name="Path 1212622" d="M55.6,292.073H69.239v5.847H55.6Z" transform="translate(-49.75 -260.891)" fill="#edf4ff"/>
          <path id="Path_1212623" data-name="Path 1212623" d="M58.52,293.047v-.974H55.6v5.847H69.239V295h-8.77A1.949,1.949,0,0,1,58.52,293.047Z" transform="translate(-49.75 -260.891)" fill="#dbeaff"/>
          <path id="Path_1212624" data-name="Path 1212624" d="M55.6,372.234H69.239v4.145H55.6Z" transform="translate(-49.75 -331.307)" fill="#edf4ff"/>
          <path id="Path_1212625" data-name="Path 1212625" d="M58.52,373.208v-.974H55.6v5.847H69.239v-2.923h-8.77A1.949,1.949,0,0,1,58.52,373.208Z" transform="translate(-49.75 -331.307)" fill="#dbeaff"/>
        </g>
        <g id="Group_1225379" data-name="Group 1225379" transform="translate(0 28.057)">
          <path id="Path_1212626" data-name="Path 1212626" d="M61.327,81.651H60.29V56.19h1.037a.912.912,0,0,0,.833-1.282l-3.9-8.77a.912.912,0,0,0-.833-.541H38.318L32.031,39.31V34.753H37.94a.912.912,0,0,0,.912-.912V28.969a.912.912,0,0,0-.912-.912H31.119a.912.912,0,0,0-.912.912V39.31L23.92,45.6H4.809a.912.912,0,0,0-.833.541l-3.9,8.77A.912.912,0,0,0,.912,56.19H1.949V81.651H.912a.912.912,0,1,0,0,1.823H61.327a.912.912,0,0,0,0-1.824Zm-24.3-48.722h-5V29.88h5ZM5.4,47.42H22.1L15.15,54.367H2.314Zm-1.63,8.77H15.528a.911.911,0,0,0,.645-.267L31.119,40.977,46.066,55.923a.911.911,0,0,0,.645.267h6.821a.912.912,0,0,0,0-1.823H47.088L40.141,47.42h16.7l3.087,6.947H57.429a.912.912,0,1,0,0,1.823h1.037V81.651H39.827V78.665a.912.912,0,0,0-.912-.912H37.878V69.9a.912.912,0,0,0-.912-.912H25.273a.912.912,0,0,0-.912.912v7.858H23.324a.912.912,0,0,0-.912.912v2.986H3.772ZM36.054,70.807v6.947H32.031V70.807Zm-5.847,6.947H26.184V70.807h4.023ZM38,79.577v2.074H24.235V79.577Z" transform="translate(0 -28.057)"/>
          <path id="Path_1212627" data-name="Path 1212627" d="M207.161,225.944a6.758,6.758,0,1,0-6.758-6.758A6.766,6.766,0,0,0,207.161,225.944Zm0-11.693a4.935,4.935,0,1,1-4.935,4.935A4.941,4.941,0,0,1,207.161,214.25Z" transform="translate(-176.042 -190.015)"/>
          <path id="Path_1212628" data-name="Path 1212628" d="M249.412,257.254a.912.912,0,0,0,.912-.912v-1.385l1.445-.722a.912.912,0,0,0-.815-1.631l-1.949.974a.912.912,0,0,0-.5.815v1.949A.912.912,0,0,0,249.412,257.254Z" transform="translate(-218.292 -225.223)"/>
          <path id="Path_1212629" data-name="Path 1212629" d="M62.651,364.734H49.009a.912.912,0,0,0-.912.912v5.847a.912.912,0,0,0,.912.912h1.949a.912.912,0,0,0,0-1.823H49.92v-4.023h5v4.023h-.063a.912.912,0,0,0,0,1.823h7.8a.912.912,0,0,0,.912-.912v-5.847A.912.912,0,0,0,62.651,364.734Zm-.912,5.847h-5v-4.023h5Z" transform="translate(-42.25 -323.807)"/>
          <path id="Path_1212630" data-name="Path 1212630" d="M62.651,284.573H49.009a.912.912,0,0,0-.912.912v5.847a.912.912,0,0,0,.912.912H62.651a.912.912,0,0,0,.912-.912v-5.847A.912.912,0,0,0,62.651,284.573ZM49.92,286.4h5v4.023h-5Zm11.819,4.023h-5V286.4h5Z" transform="translate(-42.25 -253.391)"/>
          <path id="Path_1212631" data-name="Path 1212631" d="M337.589,372.4h13.642a.912.912,0,0,0,.912-.912v-5.847a.912.912,0,0,0-.912-.912H337.589a.912.912,0,0,0-.912.912v5.847A.912.912,0,0,0,337.589,372.4Zm12.731-1.823h-5v-4.023h5ZM338.5,366.557h5v4.023h-5Z" transform="translate(-295.75 -323.807)"/>
          <path id="Path_1212632" data-name="Path 1212632" d="M337.589,292.242h13.642a.912.912,0,0,0,.912-.912v-5.847a.912.912,0,0,0-.912-.912H337.589a.912.912,0,0,0-.912.912v5.847A.912.912,0,0,0,337.589,292.242Zm12.731-1.823h-5V286.4h5ZM338.5,286.4h5v4.023h-5Z" transform="translate(-295.75 -253.39)"/>
        </g>
      </g>
    </g>
  </g>
</svg>
