<svg xmlns="http://www.w3.org/2000/svg" xmlns:xlink="http://www.w3.org/1999/xlink" width="113" height="113" viewBox="0 0 113 113">
  <defs>
    <filter id="Path_982547" x="0" y="0" width="113" height="113" filterUnits="userSpaceOnUse">
      <feOffset dy="3" input="SourceAlpha"/>
      <feGaussianBlur stdDeviation="3" result="blur"/>
      <feFlood flood-opacity="0.161"/>
      <feComposite operator="in" in2="blur"/>
      <feComposite in="SourceGraphic"/>
    </filter>
  </defs>
  <g id="Group_1206371" data-name="Group 1206371" transform="translate(-272 -6387.765)">
    <g id="Group_1206215" data-name="Group 1206215" transform="translate(0 30.5)">
      <g id="Group_1203997" data-name="Group 1203997" transform="translate(0 456.265)">
        <g id="Group_1202432" data-name="Group 1202432" transform="translate(0 1255.486)">
          <g id="Group_1202055" data-name="Group 1202055" transform="translate(0 3240.511)">
            <g id="Group_1177900" data-name="Group 1177900" transform="translate(281 1411.003)">
              <g id="Group_1172010" data-name="Group 1172010" transform="translate(0)">
                <g id="Group_1171046" data-name="Group 1171046">
                  <g id="Group_1148525" data-name="Group 1148525">
                    <g transform="matrix(1, 0, 0, 1, -9, -6)" filter="url(#Path_982547)">
                      <g id="Path_982547-2" data-name="Path 982547" transform="translate(9 6)" fill="#edf3fc">
                        <path d="M 47.5 93.5 C 41.28937149047852 93.5 35.26533508300781 92.28397369384766 29.59518623352051 89.88570404052734 C 24.11771965026855 87.56893157958984 19.19813346862793 84.25196075439453 14.97309303283691 80.02691650390625 C 10.74804019927979 75.80186462402344 7.431066513061523 70.88229370117188 5.114293098449707 65.40481567382812 C 2.716026782989502 59.73468017578125 1.5 53.71062850952148 1.5 47.5 C 1.5 41.28937149047852 2.716026782989502 35.26533508300781 5.114293098449707 29.59518623352051 C 7.431066513061523 24.11771965026855 10.74804019927979 19.19813346862793 14.97309303283691 14.97309303283691 C 19.19813346862793 10.74804019927979 24.11771965026855 7.431066513061523 29.59518623352051 5.114293098449707 C 35.26533508300781 2.716026782989502 41.28937149047852 1.5 47.5 1.5 C 53.71062850952148 1.5 59.73468017578125 2.716026782989502 65.40481567382812 5.114293098449707 C 70.88229370117188 7.431066513061523 75.80186462402344 10.74804019927979 80.02691650390625 14.97309303283691 C 84.25196075439453 19.19813346862793 87.56893157958984 24.11771965026855 89.88570404052734 29.59518623352051 C 92.28397369384766 35.26533508300781 93.5 41.28937149047852 93.5 47.5 C 93.5 53.71062850952148 92.28397369384766 59.73468017578125 89.88570404052734 65.40481567382812 C 87.56893157958984 70.88229370117188 84.25196075439453 75.80186462402344 80.02691650390625 80.02691650390625 C 75.80186462402344 84.25196075439453 70.88229370117188 87.56893157958984 65.40481567382812 89.88570404052734 C 59.73468017578125 92.28397369384766 53.71062850952148 93.5 47.5 93.5 Z" stroke="none"/>
                        <path d="M 47.5 3 C 41.49121475219727 3 35.66376876831055 4.176155090332031 30.17950439453125 6.495796203613281 C 24.88084411621094 8.736953735351562 20.12152099609375 11.94598388671875 16.03375244140625 16.03375244140625 C 11.94598388671875 20.12152099609375 8.736953735351562 24.88084411621094 6.495796203613281 30.17950439453125 C 4.176155090332031 35.66376876831055 3 41.49121475219727 3 47.5 C 3 53.50878524780273 4.176155090332031 59.33623123168945 6.495796203613281 64.82049560546875 C 8.736953735351562 70.11915588378906 11.94598388671875 74.87847900390625 16.03375244140625 78.96624755859375 C 20.12152099609375 83.05401611328125 24.88084411621094 86.26304626464844 30.17950439453125 88.50419616699219 C 35.66376876831055 90.82384490966797 41.49121475219727 92 47.5 92 C 53.50878524780273 92 59.33623123168945 90.82384490966797 64.82049560546875 88.50419616699219 C 70.11915588378906 86.26304626464844 74.87847900390625 83.05401611328125 78.96624755859375 78.96624755859375 C 83.05401611328125 74.87847900390625 86.26304626464844 70.11915588378906 88.50419616699219 64.82049560546875 C 90.82384490966797 59.33623123168945 92 53.50878524780273 92 47.5 C 92 41.49121475219727 90.82384490966797 35.66376876831055 88.50419616699219 30.17950439453125 C 86.26304626464844 24.88084411621094 83.05401611328125 20.12152099609375 78.96624755859375 16.03375244140625 C 74.87847900390625 11.94598388671875 70.11915588378906 8.736953735351562 64.82049560546875 6.495796203613281 C 59.33623123168945 4.176155090332031 53.50878524780273 3 47.5 3 M 47.5 0 C 73.7335205078125 0 95 21.2664794921875 95 47.5 C 95 73.7335205078125 73.7335205078125 95 47.5 95 C 21.2664794921875 95 0 73.7335205078125 0 47.5 C 0 21.2664794921875 21.2664794921875 0 47.5 0 Z" stroke="none" fill="#5692e8"/>
                      </g>
                    </g>
                  </g>
                </g>
              </g>
            </g>
          </g>
        </g>
      </g>
      <g id="liderazgo-intelectual" transform="translate(261.269 6373.761)">
        <g id="Group_1206213" data-name="Group 1206213" transform="translate(35.923 1.084)">
          <path id="Path_1044867" data-name="Path 1044867" d="M182.847,130.179l-4.588-6.437a5.421,5.421,0,0,1-1.006-3.149,21.617,21.617,0,0,0-8.605-17.28,4.822,4.822,0,0,1-1.633.929l-.089.03-.009.094a3.407,3.407,0,0,1-1.246,2.332l-.012.01-.01.012a11.416,11.416,0,0,1-20.252-5.251,21.586,21.586,0,0,0-4.848,3.521,7.708,7.708,0,0,1,.24,1.912c0,.119,0,.236-.009.354l0,.067.05.046a11.415,11.415,0,0,1-5.895,19.687,21.549,21.549,0,0,0,2.522,5.349,11.419,11.419,0,1,1,7.077,20.382,11.641,11.641,0,0,1-1.315-.075V158.5a1.445,1.445,0,0,0,1.445,1.445h20.333a1.445,1.445,0,0,0,1.445-1.445v-9.082a2.168,2.168,0,0,1,2.168-2.168h4.31a4.336,4.336,0,0,0,4.336-4.336V135.6a1.445,1.445,0,0,1,1.445-1.445h2.1a2.518,2.518,0,0,0,2.05-3.979Z" transform="translate(-121.547 -87.886)" fill="#ffb09e"/>
          <path id="Path_1044868" data-name="Path 1044868" d="M231.625,136.363l-4.592-6.444a5.427,5.427,0,0,1-1.008-3.152,21.654,21.654,0,0,0-9.645-18.033,36.045,36.045,0,0,1-24.428,51.7v4.278a1.447,1.447,0,0,0,1.447,1.447h20.354a1.447,1.447,0,0,0,1.447-1.447v-9.092a2.171,2.171,0,0,1,2.17-2.17h4.314a4.341,4.341,0,0,0,4.341-4.341v-7.314a1.447,1.447,0,0,1,1.447-1.447h2.1a2.521,2.521,0,0,0,2.053-3.983Z" transform="translate(-170.326 -94.102)" fill="#f89580"/>
          <path id="Path_1044869" data-name="Path 1044869" d="M61.574,138.35a7.519,7.519,0,0,1-2.381,5.3,5.374,5.374,0,0,0-1.716,3.878v3.74a2.026,2.026,0,0,1-2.024,2.024h-2.94a2.026,2.026,0,0,1-2.024-2.024v-3.74a5.162,5.162,0,0,0-1.64-3.807,7.609,7.609,0,0,1-2.46-5.5,11.563,11.563,0,1,0,15.184.137Z" transform="translate(-42.339 -119.319)" fill="#05e39c"/>
          <path id="Path_1044870" data-name="Path 1044870" d="M148.425,296a11.54,11.54,0,0,0-8.941,4.231h9.663a3.473,3.473,0,0,1,3.469,3.469v7.727a3.473,3.473,0,0,1-3.469,3.469h-5.59a.575.575,0,0,0-.409.169l-1.711,1.711A11.563,11.563,0,1,0,148.425,296Z" transform="translate(-125.442 -254.299)" fill="#ffe177"/>
          <g id="Group_1206208" data-name="Group 1206208" transform="translate(3.903 11.058)">
            <path id="Path_1044871" data-name="Path 1044871" d="M77.328,84a7.815,7.815,0,0,0-7.989,7.671,7.719,7.719,0,0,0,2.509,5.771,5.012,5.012,0,0,1,1.593,3.7v.194h7.277v-.194a5.2,5.2,0,0,1,1.671-3.773A7.74,7.74,0,0,0,77.328,84Z" transform="translate(-69.339 -84)" fill="#ffe177"/>
            <path id="Path_1044872" data-name="Path 1044872" d="M77.328,84a7.815,7.815,0,0,0-7.989,7.671,7.719,7.719,0,0,0,2.509,5.771,5.012,5.012,0,0,1,1.593,3.7v.194h7.277v-.194a5.2,5.2,0,0,1,1.671-3.773A7.74,7.74,0,0,0,77.328,84Z" transform="translate(-69.339 -84)" fill="#ffe177"/>
            <path id="Path_1044873" data-name="Path 1044873" d="M91.226,89.46a8.1,8.1,0,0,1-9.332,11.927,7.812,7.812,0,0,0,.695.729,5.012,5.012,0,0,1,1.593,3.7v.194h7.277v-.194a5.2,5.2,0,0,1,1.671-3.773,7.74,7.74,0,0,0-1.9-12.584Z" transform="translate(-80.079 -88.671)" fill="#ffd15b"/>
            <path id="Path_1044874" data-name="Path 1044874" d="M102.833,209.68h-2.94a2.168,2.168,0,0,1-2.168-2.168v-3.546H105v3.546A2.168,2.168,0,0,1,102.833,209.68Z" transform="translate(-93.621 -186.625)" fill="#cbc4cc"/>
            <path id="Path_1044875" data-name="Path 1044875" d="M101.981,204.621a2.168,2.168,0,0,1-2.168,2.168H97.724v.723a2.168,2.168,0,0,0,2.168,2.168h2.94A2.168,2.168,0,0,0,105,207.511v-3.546h-3.019v.656Z" transform="translate(-93.621 -186.625)" fill="#b5adb6"/>
          </g>
          <g id="Group_1206211" data-name="Group 1206211" transform="translate(23.561)">
            <path id="Path_1044876" data-name="Path 1044876" d="M223.731,26.869a3.437,3.437,0,0,1-3.433-3.433V14.691a3.436,3.436,0,0,1,5.694-2.587V11.92a11.564,11.564,0,1,0,0,14.286v-.184A3.422,3.422,0,0,1,223.731,26.869Z" transform="translate(-205.339 -7.5)" fill="#ffe177"/>
            <g id="Group_1206210" data-name="Group 1206210" transform="translate(4.281 3.614)">
              <path id="Path_1044877" data-name="Path 1044877" d="M241.91,32.5a3.577,3.577,0,0,0-3.56,3.237,4.969,4.969,0,0,0,0,9.426,3.577,3.577,0,0,0,7.138-.341V36.077A3.577,3.577,0,0,0,241.91,32.5Z" transform="translate(-234.954 -32.5)" fill="#fd8087"/>
              <g id="Group_1206209" data-name="Group 1206209" transform="translate(4.017 0.025)">
                <path id="Path_1044878" data-name="Path 1044878" d="M266.1,32.67V43.43A3.577,3.577,0,0,1,262.742,47a3.574,3.574,0,0,0,6.517-2.032V36.223A3.577,3.577,0,0,0,266.1,32.67Z" transform="translate(-262.742 -32.67)" fill="#fe646f"/>
              </g>
              <path id="Path_1044879" data-name="Path 1044879" d="M311.406,32.5a3.577,3.577,0,0,1,3.56,3.237,4.969,4.969,0,0,1,0,9.426,3.577,3.577,0,0,1-7.138-.341V36.077A3.577,3.577,0,0,1,311.406,32.5Z" transform="translate(-297.295 -32.5)" fill="#fd8087"/>
              <path id="Path_1044880" data-name="Path 1044880" d="M311.406,32.5a3.577,3.577,0,0,1,3.56,3.237,4.969,4.969,0,0,1,0,9.426,3.577,3.577,0,0,1-7.138-.341V36.077A3.577,3.577,0,0,1,311.406,32.5Z" transform="translate(-297.295 -32.5)" fill="#fd8087"/>
              <path id="Path_1044881" data-name="Path 1044881" d="M319.483,57.864a5.934,5.934,0,0,1-3.367,6.621,1.18,1.18,0,0,0-.658.808,4.273,4.273,0,0,1-3.451,3.216,3.577,3.577,0,0,0,6.534-1.648,4.967,4.967,0,0,0,.942-9Z" transform="translate(-300.869 -54.198)" fill="#fe646f"/>
            </g>
          </g>
          <g id="Group_1206212" data-name="Group 1206212" transform="translate(7.819 45.787)">
            <path id="Path_1044882" data-name="Path 1044882" d="M112.32,324.27H100.048a3.614,3.614,0,0,0-3.614,3.614v7.727a3.614,3.614,0,0,0,3.614,3.614h1.671a.434.434,0,0,1,.434.434v2.918a.434.434,0,0,0,.74.307l3.531-3.531a.434.434,0,0,1,.307-.127h5.59a3.614,3.614,0,0,0,3.614-3.614v-7.727A3.614,3.614,0,0,0,112.32,324.27Z" transform="translate(-96.434 -324.27)" fill="#26a6fe"/>
            <path id="Path_1044883" data-name="Path 1044883" d="M112.32,324.27v9.173a2.168,2.168,0,0,1-2.168,2.168H96.434a3.614,3.614,0,0,0,3.614,3.614h1.671a.434.434,0,0,1,.434.434v2.918a.434.434,0,0,0,.74.307l3.531-3.531a.434.434,0,0,1,.307-.127h5.59a3.614,3.614,0,0,0,3.614-3.614v-7.727A3.613,3.613,0,0,0,112.32,324.27Z" transform="translate(-96.434 -324.27)" fill="#0593fc"/>
          </g>
        </g>
        <g id="Group_1206214" data-name="Group 1206214" transform="translate(34.839 0)">
          <path id="Path_1044884" data-name="Path 1044884" d="M98.105,42.531l-4.588-6.437a4.314,4.314,0,0,1-.805-2.519,22.567,22.567,0,0,0-8-17.308A6.056,6.056,0,0,0,82.4,7.152,4.631,4.631,0,0,0,80.761,4.6l.028-.023A12.642,12.642,0,0,0,63.757,2.315a1.084,1.084,0,0,0,1.252,1.771,10.469,10.469,0,0,1,11.625-.3A4.673,4.673,0,0,0,74.3,5.291a4.66,4.66,0,0,0-8.1,1.862,6.053,6.053,0,0,0,0,10.991A4.66,4.66,0,0,0,74.3,20a4.674,4.674,0,0,0,2.339,1.509A10.479,10.479,0,0,1,61.9,7.532a1.117,1.117,0,0,0-.349-1.5,1.084,1.084,0,0,0-1.514.387,12.66,12.66,0,0,0-1.575,7.518A22.67,22.67,0,0,0,55.5,16.01a8.831,8.831,0,0,0-7.649-4.949,8.721,8.721,0,0,0-4.695,1.208,1.084,1.084,0,0,0,1.1,1.869,6.55,6.55,0,0,1,3.528-.91,6.656,6.656,0,0,1,4.352,11.5A6.386,6.386,0,0,0,50.189,28.4H48.651V22.205h.554a1.084,1.084,0,1,0,0-2.168H45.928a1.084,1.084,0,0,0,0,2.168h.554V28.4H44.949a6.058,6.058,0,0,0-1.881-3.609,6.669,6.669,0,0,1-2.158-4.963,6.457,6.457,0,0,1,.477-2.379,1.084,1.084,0,0,0-2.009-.814,8.617,8.617,0,0,0-.63,3,12.644,12.644,0,0,0,8.739,21.786c.38,0,.755-.018,1.126-.051a22.639,22.639,0,0,0,1.733,3.681q-.386.355-.744.745H47.356a4.7,4.7,0,0,0-4.7,4.7v.973a1.084,1.084,0,0,0,2.168,0v-.973a2.532,2.532,0,0,1,2.53-2.53H59.628a2.532,2.532,0,0,1,2.53,2.53v7.727a2.532,2.532,0,0,1-2.53,2.53h-5.59a1.508,1.508,0,0,0-1.073.444l-2.421,2.421V62.26a1.519,1.519,0,0,0-1.518-1.518H47.356a2.532,2.532,0,0,1-2.53-2.53v-1.7a1.084,1.084,0,0,0-2.168,0v1.7a4.7,4.7,0,0,0,4.7,4.7h1.02v2.267a1.517,1.517,0,0,0,2.591,1.073l1.2-1.2a12.508,12.508,0,0,0,4.34,1.717v4.709a2.532,2.532,0,0,0,2.53,2.53H79.368a2.532,2.532,0,0,0,2.53-2.53V62.4a1.085,1.085,0,0,1,1.084-1.084h4.31a5.426,5.426,0,0,0,5.42-5.42V48.584a.362.362,0,0,1,.361-.361h2.1a3.6,3.6,0,0,0,2.934-5.693ZM73.214,17.02a2.493,2.493,0,0,1-4.823.888l1.475-.84a1.084,1.084,0,1,0-1.073-1.884l-1.714.976a3.88,3.88,0,0,1,0-7.024l1.166.664v1.109a1.084,1.084,0,1,0,2.168,0V9.747a2.082,2.082,0,0,0-1.05-1.806l-.973-.554a2.493,2.493,0,0,1,4.823.888Zm2.168,0V8.275a2.493,2.493,0,0,1,4.823-.888l-.973.554a2.082,2.082,0,0,0-1.05,1.806v1.161a1.084,1.084,0,1,0,2.168,0V9.8l1.166-.664a3.88,3.88,0,0,1,0,7.024L79.8,15.184a1.084,1.084,0,1,0-1.073,1.884l1.475.84a2.493,2.493,0,0,1-4.823-.888ZM45.013,30.566h5.109v2.462a1.085,1.085,0,0,1-1.084,1.084H46.1a1.085,1.085,0,0,1-1.084-1.084Zm2.474,8.678a10.472,10.472,0,0,1-8.359-16.791A8.837,8.837,0,0,0,41.6,26.386a3.932,3.932,0,0,1,1.242,2.9v3.74A3.256,3.256,0,0,0,46.1,36.281h2.94a3.256,3.256,0,0,0,3.252-3.252v-3.74A4.086,4.086,0,0,1,53.62,26.3a8.851,8.851,0,0,0,2.338-3.7,10.474,10.474,0,0,1-8.471,16.641ZM54.308,62.91h5.321a4.7,4.7,0,0,0,4.7-4.7V50.485a4.7,4.7,0,0,0-4.7-4.7H52.871a10.475,10.475,0,1,1,.875,17.684ZM95.172,46.055h-2.1a2.532,2.532,0,0,0-2.53,2.53v7.306a3.256,3.256,0,0,1-3.252,3.252h-4.31A3.256,3.256,0,0,0,79.73,62.4v9.082a.362.362,0,0,1-.361.361H59.036a.362.362,0,0,1-.361-.361V66.992c.077,0,.154,0,.231,0A12.648,12.648,0,1,0,52.077,43.7a20.5,20.5,0,0,1-1.294-2.729,12.645,12.645,0,0,0,5.606-21.19,8.9,8.9,0,0,0-.152-1.552,20.509,20.509,0,0,1,2.673-2.024,12.645,12.645,0,0,0,21.982,4.374A4.629,4.629,0,0,0,82.4,18.143a6.059,6.059,0,0,0,.714-.391,20.419,20.419,0,0,1,7.43,15.821,6.471,6.471,0,0,0,1.208,3.778l4.588,6.437a1.434,1.434,0,0,1-1.168,2.266Z" transform="translate(-34.839 0)"/>
          <path id="Path_1044885" data-name="Path 1044885" d="M132.589,356H122.471a1.084,1.084,0,1,0,0,2.168h10.118a1.084,1.084,0,1,0,0-2.168Z" transform="translate(-108.877 -304.542)"/>
          <path id="Path_1044886" data-name="Path 1044886" d="M122.471,383.168h1.684a1.084,1.084,0,1,0,0-2.168h-1.684a1.084,1.084,0,1,0,0,2.168Z" transform="translate(-108.877 -325.929)"/>
          <path id="Path_1044887" data-name="Path 1044887" d="M161.378,381h-5.254a1.084,1.084,0,1,0,0,2.168h5.254a1.084,1.084,0,1,0,0-2.168Z" transform="translate(-137.666 -325.929)"/>
        </g>
      </g>
    </g>
  </g>
</svg>
