<svg xmlns="http://www.w3.org/2000/svg" xmlns:xlink="http://www.w3.org/1999/xlink" width="106.16" height="106.16" viewBox="0 0 106.16 106.16">
  <defs>
    <filter id="Path_982547" x="0" y="0" width="106.16" height="106.16" filterUnits="userSpaceOnUse">
      <feOffset dy="3" input="SourceAlpha"/>
      <feGaussianBlur stdDeviation="3" result="blur"/>
      <feFlood flood-opacity="0.161"/>
      <feComposite operator="in" in2="blur"/>
      <feComposite in="SourceGraphic"/>
    </filter>
  </defs>
  <g id="Group_1206351" data-name="Group 1206351" transform="translate(-824.67 -1237.417)">
    <g id="Group_1206175" data-name="Group 1206175" transform="translate(0 8)">
      <g id="Group_1203805" data-name="Group 1203805" transform="translate(-0.25 -641.196)">
        <g id="Group_1202421" data-name="Group 1202421" transform="translate(552.92 465.609)">
          <g id="Group_1177900" data-name="Group 1177900" transform="translate(281 1411.003)">
            <g id="Group_1172010" data-name="Group 1172010" transform="translate(0)">
              <g id="Group_1171046" data-name="Group 1171046">
                <g id="Group_1148525" data-name="Group 1148525">
                  <g transform="matrix(1, 0, 0, 1, -9, -6)" filter="url(#Path_982547)">
                    <g id="Path_982547-2" data-name="Path 982547" transform="translate(9 6)" fill="#fdfbec">
                      <path d="M 44.0802001953125 86.660400390625 C 38.33124923706055 86.660400390625 32.75506210327148 85.53479766845703 27.50652503967285 83.31484985351562 C 22.43628692626953 81.17032623291016 17.88242530822754 78.09992218017578 13.97144985198975 74.18894958496094 C 10.06047534942627 70.27797698974609 6.99007511138916 65.72411346435547 4.845550060272217 60.65387344360352 C 2.625600099563599 55.40533828735352 1.500000238418579 49.82915115356445 1.500000238418579 44.0802001953125 C 1.500000238418579 38.33124923706055 2.625600099563599 32.75506210327148 4.845550060272217 27.50652503967285 C 6.99007511138916 22.43628692626953 10.06047534942627 17.88242530822754 13.97144985198975 13.97144985198975 C 17.88242530822754 10.06047534942627 22.43628692626953 6.99007511138916 27.50652503967285 4.845550060272217 C 32.75506210327148 2.625600099563599 38.33124923706055 1.500000238418579 44.0802001953125 1.500000238418579 C 49.82915115356445 1.500000238418579 55.40533828735352 2.625600099563599 60.65387344360352 4.845550060272217 C 65.72411346435547 6.99007511138916 70.27797698974609 10.06047534942627 74.18894958496094 13.97144985198975 C 78.09992218017578 17.88242530822754 81.17032623291016 22.43628692626953 83.31484985351562 27.50652503967285 C 85.53479766845703 32.75506210327148 86.660400390625 38.33124923706055 86.660400390625 44.0802001953125 C 86.660400390625 49.82915115356445 85.53479766845703 55.40533828735352 83.31484985351562 60.65387344360352 C 81.17032623291016 65.72411346435547 78.09992218017578 70.27797698974609 74.18894958496094 74.18894958496094 C 70.27797698974609 78.09992218017578 65.72411346435547 81.17032623291016 60.65387344360352 83.31484985351562 C 55.40533828735352 85.53479766845703 49.82915115356445 86.660400390625 44.0802001953125 86.660400390625 Z" stroke="none"/>
                      <path d="M 44.0802001953125 3 C 38.53308486938477 3 33.15349960327148 4.085746765136719 28.09085845947266 6.227058410644531 C 23.19941711425781 8.29595947265625 18.80581665039062 11.25841522216797 15.03211212158203 15.03211212158203 C 11.25841522216797 18.80581665039062 8.29595947265625 23.19941711425781 6.227058410644531 28.09085845947266 C 4.085746765136719 33.15349960327148 3 38.53308486938477 3 44.0802001953125 C 3 49.62731552124023 4.085746765136719 55.00691604614258 6.227058410644531 60.06954193115234 C 8.29595947265625 64.96098327636719 11.25841522216797 69.35458374023438 15.03211212158203 73.12828826904297 C 18.80581665039062 76.90198516845703 23.19941711425781 79.86444091796875 28.09085845947266 81.93334197998047 C 33.15349960327148 84.07466125488281 38.53308486938477 85.160400390625 44.0802001953125 85.160400390625 C 49.62731552124023 85.160400390625 55.00691604614258 84.07466125488281 60.06954193115234 81.93334197998047 C 64.96099853515625 79.86444091796875 69.35458374023438 76.90198516845703 73.12828826904297 73.12828826904297 C 76.90198516845703 69.35458374023438 79.86444091796875 64.96099853515625 81.93334197998047 60.06954193115234 C 84.07466125488281 55.00691604614258 85.160400390625 49.62731552124023 85.160400390625 44.0802001953125 C 85.160400390625 38.53308486938477 84.07466125488281 33.15349960327148 81.93334197998047 28.09085845947266 C 79.86444091796875 23.19941711425781 76.90198516845703 18.80581665039062 73.12828826904297 15.03211212158203 C 69.35458374023438 11.25841522216797 64.96098327636719 8.29595947265625 60.06954193115234 6.227058410644531 C 55.00691604614258 4.085746765136719 49.62731552124023 3 44.0802001953125 3 M 44.0802001953125 0 C 68.42502593994141 0 88.160400390625 19.73538970947266 88.160400390625 44.0802001953125 C 88.160400390625 68.42502593994141 68.42502593994141 88.160400390625 44.0802001953125 88.160400390625 C 19.73538970947266 88.160400390625 0 68.42502593994141 0 44.0802001953125 C 0 19.73538970947266 19.73538970947266 0 44.0802001953125 0 Z" stroke="none" fill="#83793c"/>
                    </g>
                  </g>
                </g>
              </g>
            </g>
          </g>
        </g>
      </g>
      <g id="profesor_1_" data-name="profesor (1)" transform="translate(846.983 1234.216)">
        <path id="Path_1044558" data-name="Path 1044558" d="M150.012,329.07a.6.6,0,0,1-.6-.6V312.308a5.432,5.432,0,0,1-3.206,1.042h-.611v4.712a.6.6,0,0,1-.9.52l-5.406-3.137a.6.6,0,0,0-.6,0l-5.406,3.137a.6.6,0,0,1-.9-.52V313.35h-.611a5.432,5.432,0,0,1-3.206-1.042v16.161a.6.6,0,0,1-.6.6H123v4.056a.6.6,0,0,0,.6.6h30.767a.6.6,0,0,0,.6-.6V329.07Z" transform="translate(-108.217 -262.478)" fill="#ffd15b"/>
        <path id="Path_1044559" data-name="Path 1044559" d="M127.807,455.836V451.78H123v4.056a.6.6,0,0,0,.6.6h4.807A.6.6,0,0,1,127.807,455.836Z" transform="translate(-108.217 -385.188)" fill="#fdb441"/>
        <path id="Path_1044560" data-name="Path 1044560" d="M236.873,337.814a.6.6,0,0,0-.6,0l-2.352,1.365,2.09,5.7a.6.6,0,0,0,1.128,0l2.09-5.7Z" transform="translate(-205.804 -284.847)" fill="#fff"/>
        <path id="Path_1044561" data-name="Path 1044561" d="M166.62,22.937a6.924,6.924,0,0,0-4.263-1.461h-2.617a9.239,9.239,0,0,0-9.239,9.239v19.4h1.652a.6.6,0,0,1,.6.6V56.43a5.432,5.432,0,0,0,3.206,1.042h.611V53.464a.6.6,0,0,1,.265-.5l2.633-1.777a8.428,8.428,0,0,0,2.979.541h1.467a8.432,8.432,0,0,0,2.979-.541l2.633,1.777a.6.6,0,0,1,.265.5v4.007h.611a5.432,5.432,0,0,0,3.206-1.042V50.712a.6.6,0,0,1,.6-.6h1.652V32.177A9.239,9.239,0,0,0,166.62,22.937Z" transform="translate(-132.412 -6.599)" fill="#fe7701"/>
        <g id="Group_1206156" data-name="Group 1206156" transform="translate(18.088 14.877)">
          <path id="Path_1044562" data-name="Path 1044562" d="M151.621,37.761H154c0,.006,0,.011,0,.017a2.594,2.594,0,0,1,2.335-2.581V30.715a9.24,9.24,0,0,1,7.522-9.077,6.961,6.961,0,0,0-1.494-.162h-2.617a9.239,9.239,0,0,0-9.239,9.239v7.233A3.445,3.445,0,0,1,151.621,37.761Z" transform="translate(-150.5 -21.476)" fill="#f46700"/>
          <path id="Path_1044563" data-name="Path 1044563" d="M156.569,230.276a5.457,5.457,0,0,1-.24-1.605v-2.906a8.441,8.441,0,0,1-1.954-3.312h-2.755a3.445,3.445,0,0,1-1.121-.187v4.5h1.652a.6.6,0,0,1,.6.6v5.717a5.432,5.432,0,0,0,3.206,1.042h.611Z" transform="translate(-150.5 -198.134)" fill="#f46700"/>
        </g>
        <path id="Path_1044564" data-name="Path 1044564" d="M213.956,270.48l-2.633-1.777a8.429,8.429,0,0,1-2.979.541h-1.467a8.432,8.432,0,0,1-2.979-.541l-2.633,1.777a.6.6,0,0,0-.265.5V279.7a.6.6,0,0,0,.9.52l5.406-3.137a.6.6,0,0,1,.6,0l5.406,3.137a.6.6,0,0,0,.9-.52v-8.719A.6.6,0,0,0,213.956,270.48Z" transform="translate(-176.843 -224.114)" fill="#eaf6ff"/>
        <path id="Path_1044565" data-name="Path 1044565" d="M203.9,268.7l-2.633,1.777a.6.6,0,0,0-.265.5V279.7a.6.6,0,0,0,.9.52L204,279v-8.02a.6.6,0,0,1,.265-.5l1.88-1.269A8.4,8.4,0,0,1,203.9,268.7Z" transform="translate(-176.843 -224.114)" fill="#d8ecfe"/>
        <path id="Path_1044566" data-name="Path 1044566" d="M231.243,269.844h-1.467a8.436,8.436,0,0,1-2.749-.46v4.4l3.482,3.723,3.482-3.723v-4.4A8.436,8.436,0,0,1,231.243,269.844Z" transform="translate(-199.742 -224.713)" fill="#fed2a4"/>
        <path id="Path_1044567" data-name="Path 1044567" d="M230.035,269.844h-.259a8.436,8.436,0,0,1-2.749-.46v4.4l3.482,3.723,1.959-2.094-2.433-2.6Z" transform="translate(-199.742 -224.713)" fill="#ffbd86"/>
        <g id="Group_1206157" data-name="Group 1206157" transform="translate(15.758 31.161)">
          <path id="Path_1044568" data-name="Path 1044568" d="M136.939,162.493v-5.5c0-.006,0-.011,0-.017h-2.374a3.451,3.451,0,0,0-3.451,3.451v1.133a3.451,3.451,0,0,0,3.45,3.451h2.755A8.444,8.444,0,0,1,136.939,162.493Z" transform="translate(-131.115 -156.975)" fill="#ffe5c2"/>
          <path id="Path_1044569" data-name="Path 1044569" d="M332.01,156.976h-2.374v5.518a8.446,8.446,0,0,1-.381,2.516h2.755a3.451,3.451,0,0,0,3.451-3.451v-1.133A3.451,3.451,0,0,0,332.01,156.976Z" transform="translate(-305.442 -156.976)" fill="#ffe5c2"/>
        </g>
        <g id="Group_1206158" data-name="Group 1206158" transform="translate(21.582 25.326)">
          <path id="Path_1044570" data-name="Path 1044570" d="M193.531,108.925a2.562,2.562,0,0,1,3.025-.013,3.449,3.449,0,0,1,1.391,2.771v8.094a8.452,8.452,0,0,1-8.451,8.451h-1.467a8.452,8.452,0,0,1-8.451-8.451v-5.5a2.594,2.594,0,0,1,2.594-2.594h6.712a2.594,2.594,0,0,0,1.521-.493Z" transform="translate(-179.577 -108.425)" fill="#ffe5c2"/>
        </g>
        <g id="Group_1206160" data-name="Group 1206160" transform="translate(21.582 28.585)">
          <g id="Group_1206159" data-name="Group 1206159">
            <path id="Path_1044571" data-name="Path 1044571" d="M183.611,143.63v-5.5a2.594,2.594,0,0,1,2.594-2.594H182.17a2.594,2.594,0,0,0-2.594,2.594v5.5a8.452,8.452,0,0,0,8.452,8.452h1.467a8.522,8.522,0,0,0,1.284-.1A8.454,8.454,0,0,1,183.611,143.63Z" transform="translate(-179.576 -135.536)" fill="#fed2a4"/>
          </g>
        </g>
        <path id="Path_1044572" data-name="Path 1044572" d="M225.21,216.388a.552.552,0,0,0-.545.65,3.514,3.514,0,0,0,3.453,2.863h.61a3.514,3.514,0,0,0,3.453-2.863.552.552,0,0,0-.545-.65Z" transform="translate(-197.656 -178.086)" fill="#fff"/>
        <g id="Group_1206164" data-name="Group 1206164" transform="translate(0.901 43.512)">
          <g id="Group_1206161" data-name="Group 1206161" transform="translate(1.532)">
            <path id="Path_1044573" data-name="Path 1044573" d="M37.55,259.736H20.844a.6.6,0,0,0-.6.6v17.142h2.614a1.382,1.382,0,0,1,1.382,1.382v3.956H37.549a.6.6,0,0,0,.6-.6V260.337a.6.6,0,0,0-.6-.6Z" transform="translate(-20.243 -259.736)" fill="#d8ecfe"/>
            <path id="Path_1044574" data-name="Path 1044574" d="M25.141,282.216V260.337a.6.6,0,0,1,.6-.6h-4.9a.6.6,0,0,0-.6.6v17.142h2.614a1.382,1.382,0,0,1,1.382,1.382v3.956h1.5A.6.6,0,0,1,25.141,282.216Z" transform="translate(-20.243 -259.736)" fill="#c4e2ff"/>
          </g>
          <g id="Group_1206162" data-name="Group 1206162" transform="translate(0 17.743)">
            <path id="Path_1044575" data-name="Path 1044575" d="M11.645,414.416H8.882A1.382,1.382,0,0,1,7.5,413.035v-4.283a1.382,1.382,0,0,1,1.382-1.382h2.763a1.382,1.382,0,0,1,1.382,1.382v4.283A1.382,1.382,0,0,1,11.645,414.416Z" transform="translate(-7.5 -407.37)" fill="#ffe5c2"/>
          </g>
          <g id="Group_1206163" data-name="Group 1206163" transform="translate(0 17.743)">
            <path id="Path_1044576" data-name="Path 1044576" d="M10.324,413.035v-4.283a1.381,1.381,0,0,1,1.351-1.38l-.031,0H8.882A1.382,1.382,0,0,0,7.5,408.752v4.283a1.382,1.382,0,0,0,1.382,1.382h2.763l.031,0A1.381,1.381,0,0,1,10.324,413.035Z" transform="translate(-7.5 -407.37)" fill="#fed2a4"/>
          </g>
        </g>
        <g id="Group_1206173" data-name="Group 1206173" transform="translate(41.194 43.512)">
          <g id="Group_1206170" data-name="Group 1206170">
            <path id="Path_1044577" data-name="Path 1044577" d="M356.669,278.861a1.382,1.382,0,0,1,1.382-1.382h2.614V260.337a.6.6,0,0,0-.6-.6H343.358a.6.6,0,0,0-.6.6v21.879a.6.6,0,0,0,.6.6h13.311v-3.956Z" transform="translate(-342.757 -259.736)" fill="#0593fc"/>
            <g id="Group_1206165" data-name="Group 1206165">
              <path id="Path_1044578" data-name="Path 1044578" d="M348.074,282.216V260.337a.6.6,0,0,1,.6-.6h-5.317a.6.6,0,0,0-.6.6v21.879a.6.6,0,0,0,.6.6h5.317A.6.6,0,0,1,348.074,282.216Z" transform="translate(-342.757 -259.736)" fill="#0182fc"/>
            </g>
            <g id="Group_1206169" data-name="Group 1206169" transform="translate(3.309 6.123)">
              <path id="Path_1044579" data-name="Path 1044579" d="M379.08,327.112a1.935,1.935,0,1,1-3.144,1.5l0,0a3.269,3.269,0,0,0-2.817-1.543c-1.8.124-3.053,2.126-2.793,4.47s1.932,4.144,3.735,4.019h3.752c1.8.124,3.475-1.675,3.735-4.019C381.789,329.338,380.7,327.441,379.08,327.112Z" transform="translate(-370.289 -325.093)" fill="#fb2b3a"/>
              <g id="Group_1206167" data-name="Group 1206167" transform="translate(0 1.969)">
                <g id="Group_1206166" data-name="Group 1206166">
                  <path id="Path_1044580" data-name="Path 1044580" d="M374.383,331.536a4.564,4.564,0,0,1,1-3.566,3.005,3.005,0,0,0-2.266-.9c-1.8.124-3.053,2.126-2.793,4.47s1.932,4.144,3.735,4.019h3.711C376.1,335.445,374.626,333.729,374.383,331.536Z" transform="translate(-370.289 -327.061)" fill="#e41f2d"/>
                </g>
              </g>
              <g id="Group_1206168" data-name="Group 1206168" transform="translate(4.85)">
                <ellipse id="Ellipse_12670" data-name="Ellipse 12670" cx="2.213" cy="1.183" rx="2.213" ry="1.183" transform="translate(0 3.129) rotate(-45)" fill="#97d729"/>
              </g>
            </g>
          </g>
          <g id="Group_1206171" data-name="Group 1206171" transform="translate(13.912 17.743)">
            <path id="Path_1044581" data-name="Path 1044581" d="M462.66,414.416H459.9a1.382,1.382,0,0,1-1.382-1.382v-4.283a1.382,1.382,0,0,1,1.382-1.382h2.763a1.382,1.382,0,0,1,1.382,1.382v4.283A1.382,1.382,0,0,1,462.66,414.416Z" transform="translate(-458.515 -407.37)" fill="#ffe5c2"/>
          </g>
          <g id="Group_1206172" data-name="Group 1206172" transform="translate(13.912 17.743)">
            <path id="Path_1044582" data-name="Path 1044582" d="M461.339,413.035v-4.283a1.381,1.381,0,0,1,1.351-1.38l-.03,0H459.9a1.382,1.382,0,0,0-1.382,1.382v4.283a1.382,1.382,0,0,0,1.382,1.382h2.763l.03,0A1.381,1.381,0,0,1,461.339,413.035Z" transform="translate(-458.515 -407.37)" fill="#fed2a4"/>
          </g>
        </g>
        <g id="Group_1206174" data-name="Group 1206174" transform="translate(0 13.975)">
          <path id="Path_1044583" data-name="Path 1044583" d="M225.037,208.889h-6.425a1.454,1.454,0,0,0-1.431,1.717,4.414,4.414,0,0,0,4.339,3.6h.61a4.414,4.414,0,0,0,4.339-3.6,1.454,1.454,0,0,0-1.431-1.717Zm-2.908,3.513h-.61a2.613,2.613,0,0,1-2.452-1.71h5.514A2.613,2.613,0,0,1,222.129,212.4Z" transform="translate(-191.057 -185.463)"/>
          <path id="Path_1044584" data-name="Path 1044584" d="M213.495,150.373V148.1a.9.9,0,1,0-1.8,0v2.274a.9.9,0,0,0,1.8,0Z" transform="translate(-186.25 -131.186)"/>
          <path id="Path_1044585" data-name="Path 1044585" d="M286.209,147.2a.9.9,0,0,0-.9.9v2.274a.9.9,0,1,0,1.8,0V148.1A.9.9,0,0,0,286.209,147.2Z" transform="translate(-251.018 -131.186)"/>
          <path id="Path_1044586" data-name="Path 1044586" d="M239.475,162.46a.9.9,0,0,0,1.347-1.2l-.759-.854.789-.986a.9.9,0,0,0-1.408-1.126l-1.264,1.58a.9.9,0,0,0,.03,1.162Z" transform="translate(-209.381 -140.653)"/>
          <path id="Path_1044587" data-name="Path 1044587" d="M57.789,309.014a.9.9,0,0,0-.825.539l-4.146,9.433a.9.9,0,1,0,1.65.725l.978-2.226h4.686l.978,2.226a.9.9,0,1,0,1.65-.725l-4.146-9.433A.9.9,0,0,0,57.789,309.014Zm1.55,6.669h-3.1l1.55-3.527Z" transform="translate(-46.402 -273.555)"/>
          <path id="Path_1044588" data-name="Path 1044588" d="M373.465,308.166a3.579,3.579,0,0,0-.066-.75.9.9,0,0,0-.709-.709,3.562,3.562,0,0,0-2.455.4.9.9,0,0,0-1.8.017v1.155a3.647,3.647,0,0,0-1.978-.445,3.6,3.6,0,0,0-2.516,1.331,5.509,5.509,0,0,0-1.111,4.137c.3,2.718,2.275,4.827,4.459,4.827.066,0,.133,0,.2-.006h3.694c.067,0,.133.006.2.006,2.184,0,4.158-2.109,4.459-4.827a5.508,5.508,0,0,0-1.111-4.137A3.8,3.8,0,0,0,373.465,308.166Zm-2.714.791a.519.519,0,1,1-.476.874A1.755,1.755,0,0,1,370.751,308.957Zm3.3,4.145c-.2,1.782-1.4,3.223-2.664,3.223-.038,0-.075,0-.113,0l-.062,0h-3.752l-.062,0c-1.3.089-2.573-1.385-2.777-3.219a3.761,3.761,0,0,1,.7-2.783,1.812,1.812,0,0,1,1.257-.688q.055,0,.11,0a2.367,2.367,0,0,1,1.769.984c.011.095.024.19.043.285a.9.9,0,0,0,.709.709,3.562,3.562,0,0,0,3.744-1.653,2.168,2.168,0,0,1,.392.368A3.761,3.761,0,0,1,374.049,313.1Z" transform="translate(-319.186 -271.098)"/>
          <path id="Path_1044589" data-name="Path 1044589" d="M60,60.483V50.875a.9.9,0,1,0-1.8,0v9.479H56.488A2.286,2.286,0,0,0,54.2,62.637v3.054H42.1V44.413H58.2v2.255a.9.9,0,1,0,1.8,0V44.113a1.5,1.5,0,0,0-1.5-1.5H44.348V39.6a4.355,4.355,0,0,0,2.33-3.852V34.612a4.356,4.356,0,0,0-2.33-3.852V25.577a10.153,10.153,0,0,0-9.835-10.136,7.774,7.774,0,0,0-4.568-1.466H27.327A10.152,10.152,0,0,0,17.186,24.116V30.76a4.355,4.355,0,0,0-2.33,3.852v1.133a4.355,4.355,0,0,0,2.33,3.852V42.61H15.744a.9.9,0,0,0,0,1.8h3.695V65.691H7.329V62.637a2.286,2.286,0,0,0-2.283-2.283H3.334V44.413h8.2a.9.9,0,0,0,0-1.8h-8.5a1.5,1.5,0,0,0-1.5,1.5V60.483A2.285,2.285,0,0,0,0,62.637V66.92A2.286,2.286,0,0,0,2.283,69.2H5.046a2.285,2.285,0,0,0,2.207-1.709h6.628v3.154a1.5,1.5,0,0,0,1.5,1.5H36.175a.9.9,0,0,0,0-1.8H15.684V67.494h4.055a1.5,1.5,0,0,0,1.5-1.5V51.339a6.306,6.306,0,0,0,2.014.426v3.818a1.5,1.5,0,0,0,2.256,1.3l2.125-1.233,1.72,4.69a1.5,1.5,0,0,0,2.821,0l1.72-4.69,2.125,1.233a1.5,1.5,0,0,0,2.256-1.3V51.766a6.3,6.3,0,0,0,2.014-.426V65.992a1.5,1.5,0,0,0,1.5,1.5H45.85v2.854H40.382a.9.9,0,1,0,0,1.8h5.769a1.5,1.5,0,0,0,1.5-1.5V67.494h6.628A2.285,2.285,0,0,0,56.488,69.2h2.763a2.286,2.286,0,0,0,2.283-2.283V62.637A2.285,2.285,0,0,0,60,60.483ZM5.527,66.92a.481.481,0,0,1-.48.48H2.283a.481.481,0,0,1-.48-.48V62.637a.481.481,0,0,1,.48-.48H5.046a.481.481,0,0,1,.48.48V66.92ZM44.875,35.745a2.552,2.552,0,0,1-2.549,2.549H40.713a9.372,9.372,0,0,0,.14-1.615V32.063h1.472a2.552,2.552,0,0,1,2.549,2.549ZM18.989,24.116a8.347,8.347,0,0,1,8.338-8.338h2.617a5.994,5.994,0,0,1,3.71,1.272.9.9,0,0,0,.553.19,8.347,8.347,0,0,1,8.338,8.338v4.689q-.109-.005-.219-.006H40.854V28.585A4.377,4.377,0,0,0,39.1,25.092a3.441,3.441,0,0,0-4.092.006l-3.127,2.265a1.683,1.683,0,0,1-.993.322H24.176A3.5,3.5,0,0,0,20.8,30.26h-1.6q-.11,0-.219.006v-6.15ZM31.5,44.229H30.034a7.559,7.559,0,0,1-7.55-7.55v-5.5a1.694,1.694,0,0,1,1.693-1.693h6.712a3.475,3.475,0,0,0,2.05-.664l3.127-2.265a1.668,1.668,0,0,1,1.957-.021,2.533,2.533,0,0,1,1.029,2.048v8.095A7.559,7.559,0,0,1,31.5,44.229Zm1.847,1.619v2.865l-2.581,2.759-2.581-2.759V45.848a9.358,9.358,0,0,0,1.847.184H31.5A9.358,9.358,0,0,0,33.348,45.848ZM16.659,34.612a2.552,2.552,0,0,1,2.549-2.549h1.472v4.616a9.373,9.373,0,0,0,.14,1.615H19.208a2.552,2.552,0,0,1-2.549-2.549Zm7.258,11.007a1.5,1.5,0,0,0-.662,1.245v3.1a4.522,4.522,0,0,1-2.014-.618v-5.23a1.5,1.5,0,0,0-1.5-1.5h-.75V40.091q.109.005.219.006h2.12a9.409,9.409,0,0,0,3.928,4.619Zm1.141,9.443V47.024l1.325-.894v2.939a.9.9,0,0,0,.243.616l2.709,2.9Zm5.709,3.888L29.22,54.732l1.547-.9,1.547.9Zm5.709-3.888L32.2,52.581l2.709-2.9a.9.9,0,0,0,.243-.616V46.13l1.325.894Zm3.817-10.95v5.23a4.523,4.523,0,0,1-2.014.618v-3.1a1.5,1.5,0,0,0-.662-1.245l-1.339-.9A9.41,9.41,0,0,0,40.206,40.1h2.12q.11,0,.219-.006V42.61h-.75A1.5,1.5,0,0,0,40.293,44.113ZM59.732,66.92a.481.481,0,0,1-.48.48H56.488a.481.481,0,0,1-.48-.48V62.637a.481.481,0,0,1,.48-.48h2.763a.481.481,0,0,1,.48.48Z" transform="translate(0 -13.975)"/>
        </g>
      </g>
    </g>
  </g>
</svg>
