<svg xmlns="http://www.w3.org/2000/svg" width="33.79" height="38.253" viewBox="0 0 33.79 38.253">
  <g id="Group_1206400" data-name="Group 1206400" transform="translate(-338.478 -12159.064)">
    <g id="outline" transform="translate(338.478 12159.064)">
      <path id="Path_1045257" data-name="Path 1045257" d="M128.638,105.275h14.026a.638.638,0,0,0,0-1.275H128.638a.638.638,0,0,0,0,1.275Z" transform="translate(-120.986 -96.987)"/>
      <path id="Path_1045258" data-name="Path 1045258" d="M128.638,153.275h14.026a.638.638,0,0,0,0-1.275H128.638a.638.638,0,0,0,0,1.275Z" transform="translate(-120.986 -141.162)"/>
      <path id="Path_1045259" data-name="Path 1045259" d="M128.638,201.275h14.026a.638.638,0,0,0,0-1.275H128.638a.638.638,0,0,0,0,1.275Z" transform="translate(-120.986 -185.336)"/>
      <path id="Path_1045260" data-name="Path 1045260" d="M128.638,249.275h14.026a.638.638,0,0,0,0-1.275H128.638a.638.638,0,0,0,0,1.275Z" transform="translate(-120.986 -229.511)"/>
      <path id="Path_1045261" data-name="Path 1045261" d="M128.638,297.275h5.1a.638.638,0,1,0,0-1.275h-5.1a.638.638,0,0,0,0,1.275Z" transform="translate(-120.986 -273.686)"/>
      <path id="Path_1045262" data-name="Path 1045262" d="M72.833,31.063a1.915,1.915,0,0,0-2.617.683l-1.537,2.623V18.55a.638.638,0,0,0-.638-.638H63.2a25,25,0,0,0-1.992-1.885A.636.636,0,0,0,61.028,16H42.539a.638.638,0,0,0-.638.638v1.993a2.55,2.55,0,0,0,0,4.939v1.437a2.55,2.55,0,0,0,0,4.939v1.437a2.55,2.55,0,0,0,0,4.939v.8a2.55,2.55,0,0,0,0,4.939v3.906a.638.638,0,0,0,.638.638h.638v1.913a.638.638,0,0,0,.638.638h16.2l-.437.745a.633.633,0,0,0-.078.217s0,.007,0,.011l0,.01v0l-.51,3.382a.638.638,0,0,0,1.021.6l2.712-2.105c.174-.135.259-.217.245-.328l1.484-2.533h3.592a.638.638,0,0,0,.638-.638v-6.58l4.837-8.255A1.915,1.915,0,0,0,72.833,31.063ZM71.705,32.1a.638.638,0,0,1,.711.939l-.322.55-1.1-.645.322-.55a.633.633,0,0,1,.389-.295ZM62.1,50.637,61,49.993l8.381-14.3,1.1.645Zm-.435-32.461,2.286,2.286H61.665Zm8.361,16.414.322-.55,1.1.645-.322.55ZM67.4,19.188V36.4a.641.641,0,0,0,.012.123l-1.287,2.2V21.1a.636.636,0,0,0-.186-.45h0L64.48,19.188ZM43.177,17.275H60.39V21.1a.638.638,0,0,0,.638.638h3.825V40.9l-2.6,4.43H43.177V42.059a2.548,2.548,0,0,0,1.832-1.832.638.638,0,0,0-1.235-.318,1.271,1.271,0,0,1-.6.785V36.321a2.548,2.548,0,0,0,1.832-1.832.638.638,0,0,0-1.235-.318,1.271,1.271,0,0,1-.6.785v-5.01a2.548,2.548,0,0,0,1.832-1.832.638.638,0,0,0-1.235-.318,1.271,1.271,0,0,1-.6.785V23.57a2.548,2.548,0,0,0,1.832-1.832.638.638,0,1,0-1.235-.318,1.271,1.271,0,0,1-.6.785ZM41.264,21.1A1.275,1.275,0,0,1,41.9,20V22.2A1.275,1.275,0,0,1,41.264,21.1Zm0,6.375a1.275,1.275,0,0,1,.638-1.1v2.205A1.275,1.275,0,0,1,41.264,27.476Zm0,6.375a1.275,1.275,0,0,1,.638-1.1v2.205A1.275,1.275,0,0,1,41.264,33.851Zm0,5.738a1.275,1.275,0,0,1,.638-1.1v2.205A1.275,1.275,0,0,1,41.264,39.589Zm3.188,8.288V46.6H61.51l-.747,1.275Zm16.167,3.369.575.337-.709.551ZM67.4,47.877H65.2L67.4,44.111Z" transform="translate(-39.988 -16)"/>
    </g>
  </g>
</svg>
