<svg xmlns="http://www.w3.org/2000/svg" xmlns:xlink="http://www.w3.org/1999/xlink" width="113" height="113" viewBox="0 0 113 113">
  <defs>
    <filter id="Path_982547" x="0" y="0" width="113" height="113" filterUnits="userSpaceOnUse">
      <feOffset dy="3" input="SourceAlpha"/>
      <feGaussianBlur stdDeviation="3" result="blur"/>
      <feFlood flood-opacity="0.161"/>
      <feComposite operator="in" in2="blur"/>
      <feComposite in="SourceGraphic"/>
    </filter>
  </defs>
  <g id="Group_1206372" data-name="Group 1206372" transform="translate(-586 -6388.052)">
    <g id="Group_1206221" data-name="Group 1206221" transform="translate(0 30.5)">
      <g id="Group_1206218" data-name="Group 1206218">
        <g id="Group_1203998" data-name="Group 1203998" transform="translate(0 456.265)">
          <g id="Group_1202433" data-name="Group 1202433" transform="translate(-0.56 1255.773)">
            <g id="Group_1202054" data-name="Group 1202054" transform="translate(0 3240.511)">
              <g id="Group_1177897" data-name="Group 1177897" transform="translate(595.561 1411.003)">
                <g id="Group_1172010" data-name="Group 1172010" transform="translate(0)">
                  <g id="Group_1171046" data-name="Group 1171046">
                    <g id="Group_1148525" data-name="Group 1148525">
                      <g transform="matrix(1, 0, 0, 1, -9, -6)" filter="url(#Path_982547)">
                        <g id="Path_982547-2" data-name="Path 982547" transform="translate(9 6)" fill="#edf3fc">
                          <path d="M 47.5 93.5 C 41.28937149047852 93.5 35.26533508300781 92.28397369384766 29.59518623352051 89.88570404052734 C 24.11771965026855 87.56893157958984 19.19813346862793 84.25196075439453 14.97309303283691 80.02691650390625 C 10.74804019927979 75.80186462402344 7.431066513061523 70.88229370117188 5.114293098449707 65.40481567382812 C 2.716026782989502 59.73468017578125 1.5 53.71062850952148 1.5 47.5 C 1.5 41.28937149047852 2.716026782989502 35.26533508300781 5.114293098449707 29.59518623352051 C 7.431066513061523 24.11771965026855 10.74804019927979 19.19813346862793 14.97309303283691 14.97309303283691 C 19.19813346862793 10.74804019927979 24.11771965026855 7.431066513061523 29.59518623352051 5.114293098449707 C 35.26533508300781 2.716026782989502 41.28937149047852 1.5 47.5 1.5 C 53.71062850952148 1.5 59.73468017578125 2.716026782989502 65.40481567382812 5.114293098449707 C 70.88229370117188 7.431066513061523 75.80186462402344 10.74804019927979 80.02691650390625 14.97309303283691 C 84.25196075439453 19.19813346862793 87.56893157958984 24.11771965026855 89.88570404052734 29.59518623352051 C 92.28397369384766 35.26533508300781 93.5 41.28937149047852 93.5 47.5 C 93.5 53.71062850952148 92.28397369384766 59.73468017578125 89.88570404052734 65.40481567382812 C 87.56893157958984 70.88229370117188 84.25196075439453 75.80186462402344 80.02691650390625 80.02691650390625 C 75.80186462402344 84.25196075439453 70.88229370117188 87.56893157958984 65.40481567382812 89.88570404052734 C 59.73468017578125 92.28397369384766 53.71062850952148 93.5 47.5 93.5 Z" stroke="none"/>
                          <path d="M 47.5 3 C 41.49121475219727 3 35.66376876831055 4.176155090332031 30.17950439453125 6.495796203613281 C 24.88084411621094 8.736953735351562 20.12152099609375 11.94598388671875 16.03375244140625 16.03375244140625 C 11.94598388671875 20.12152099609375 8.736953735351562 24.88084411621094 6.495796203613281 30.17950439453125 C 4.176155090332031 35.66376876831055 3 41.49121475219727 3 47.5 C 3 53.50878524780273 4.176155090332031 59.33623123168945 6.495796203613281 64.82049560546875 C 8.736953735351562 70.11915588378906 11.94598388671875 74.87847900390625 16.03375244140625 78.96624755859375 C 20.12152099609375 83.05401611328125 24.88084411621094 86.26304626464844 30.17950439453125 88.50419616699219 C 35.66376876831055 90.82384490966797 41.49121475219727 92 47.5 92 C 53.50878524780273 92 59.33623123168945 90.82384490966797 64.82049560546875 88.50419616699219 C 70.11915588378906 86.26304626464844 74.87847900390625 83.05401611328125 78.96624755859375 78.96624755859375 C 83.05401611328125 74.87847900390625 86.26304626464844 70.11915588378906 88.50419616699219 64.82049560546875 C 90.82384490966797 59.33623123168945 92 53.50878524780273 92 47.5 C 92 41.49121475219727 90.82384490966797 35.66376876831055 88.50419616699219 30.17950439453125 C 86.26304626464844 24.88084411621094 83.05401611328125 20.12152099609375 78.96624755859375 16.03375244140625 C 74.87847900390625 11.94598388671875 70.11915588378906 8.736953735351562 64.82049560546875 6.495796203613281 C 59.33623123168945 4.176155090332031 53.50878524780273 3 47.5 3 M 47.5 0 C 73.7335205078125 0 95 21.2664794921875 95 47.5 C 95 73.7335205078125 73.7335205078125 95 47.5 95 C 21.2664794921875 95 0 73.7335205078125 0 47.5 C 0 21.2664794921875 21.2664794921875 0 47.5 0 Z" stroke="none" fill="#5692e8"/>
                        </g>
                      </g>
                    </g>
                  </g>
                </g>
              </g>
            </g>
          </g>
        </g>
      </g>
      <g id="settings_1527273" transform="translate(610.929 6376.867)">
        <path id="Path_1044934" data-name="Path 1044934" d="M62.6,40.774a23.956,23.956,0,0,0-.212-3.175l6.5-6.085a3.174,3.174,0,0,0,.58-3.9l-3.949-6.84a3.174,3.174,0,0,0-3.671-1.45L53.31,21.911a23.814,23.814,0,0,0-5.488-3.178L45.8,10.059a3.173,3.173,0,0,0-3.091-2.454h-7.9a3.173,3.173,0,0,0-3.091,2.454L29.7,18.733a23.824,23.824,0,0,0-5.488,3.178L15.683,19.32a3.174,3.174,0,0,0-3.671,1.45l-3.949,6.84a3.174,3.174,0,0,0,.58,3.9l6.5,6.085a23.908,23.908,0,0,0,0,6.35l-6.5,6.086a3.173,3.173,0,0,0-.58,3.9l3.949,6.84a3.174,3.174,0,0,0,3.671,1.45l8.533-2.591A23.815,23.815,0,0,0,29.7,62.814l2.019,8.676a3.174,3.174,0,0,0,3.091,2.455h7.9A3.174,3.174,0,0,0,45.8,71.491l2.019-8.676a23.8,23.8,0,0,0,5.488-3.177l8.533,2.591a3.174,3.174,0,0,0,3.671-1.45l3.949-6.84a3.174,3.174,0,0,0-.58-3.9l-6.5-6.086a23.962,23.962,0,0,0,.212-3.175ZM38.763,59.224a18.45,18.45,0,1,1,18.451-18.45A18.449,18.449,0,0,1,38.763,59.224Zm0,0" transform="translate(-6.617 -6.59)" fill="#e4edef"/>
        <path id="Path_1044935" data-name="Path 1044935" d="M101.876,138.541a21.4,21.4,0,1,1,21.4-21.4A21.4,21.4,0,0,1,101.876,138.541Zm0,0" transform="translate(-69.73 -82.957)" fill="#bbd8dd"/>
        <path id="Path_1044936" data-name="Path 1044936" d="M121.009,154.725a18.45,18.45,0,1,1,18.451-18.45A18.449,18.449,0,0,1,121.009,154.725Zm0,0" transform="translate(-88.863 -102.09)" fill="#fc315f"/>
        <path id="Path_1044937" data-name="Path 1044937" d="M202.119,136.277h-7.777a4.767,4.767,0,0,1,.3-1.186,4.928,4.928,0,0,1,.587-1.078,4.12,4.12,0,1,0-6.68.007,4.784,4.784,0,0,1,.88,2.257h-5.758v-5.758a4.781,4.781,0,0,0-2.257.88,4.121,4.121,0,1,1-.007-6.68,4.829,4.829,0,0,0,1.078.587,4.749,4.749,0,0,0,1.186.3v-7.775a18.449,18.449,0,0,1,18.451,18.449Zm0,0" transform="translate(-151.523 -102.094)" fill="#55c7f3"/>
        <path id="Path_1044938" data-name="Path 1044938" d="M125.674,260.085a4.12,4.12,0,1,1-2.409,7.462,4.8,4.8,0,0,0-2.263-.884v7.775a18.45,18.45,0,0,1-18.451-18.451h7.777a4.815,4.815,0,0,1-.886,2.263,4.12,4.12,0,1,0,6.68-.007,4.787,4.787,0,0,1-.88-2.257H121v5.759a4.8,4.8,0,0,0,2.257-.88,4.093,4.093,0,0,1,2.416-.782Zm0,0" transform="translate(-88.856 -221.805)" fill="#5b5b68"/>
        <path id="Path_1044939" data-name="Path 1044939" d="M240.723,217.385v-7.775a4.8,4.8,0,0,1,2.263.884,4.088,4.088,0,0,0,2.552.774,4.12,4.12,0,1,0-2.559-7.454,4.8,4.8,0,0,1-2.257.88v-5.759h5.758a4.785,4.785,0,0,0-.88-2.257,4.121,4.121,0,1,1,6.68-.007,4.928,4.928,0,0,0-.587,1.078,4.765,4.765,0,0,0-.3,1.186h7.777a18.45,18.45,0,0,1-18.451,18.451Zm0,0" transform="translate(-208.577 -164.75)" fill="#fed563"/>
        <path id="Path_1044940" data-name="Path 1044940" d="M56.837,36.971a24.975,24.975,0,0,0,0-5.574l6.123-5.732a4.172,4.172,0,0,0,.765-5.153l-3.949-6.84a4.172,4.172,0,0,0-4.845-1.914L46.894,14.2a24.829,24.829,0,0,0-4.816-2.789l-.389-1.673a1.015,1.015,0,0,0-1.978.461l.506,2.175a1.017,1.017,0,0,0,.6.708,22.772,22.772,0,0,1,5.254,3.042,1.016,1.016,0,0,0,.917.168L55.522,13.7a2.149,2.149,0,0,1,2.5.986l3.949,6.84a2.148,2.148,0,0,1-.394,2.655l-6.5,6.085a1.017,1.017,0,0,0-.312.876,22.886,22.886,0,0,1,0,6.082,1.016,1.016,0,0,0,.312.876l6.5,6.085a2.149,2.149,0,0,1,.394,2.655l-3.949,6.84a2.149,2.149,0,0,1-2.5.986l-8.533-2.591a1.017,1.017,0,0,0-.917.168,22.772,22.772,0,0,1-5.254,3.042,1.015,1.015,0,0,0-.6.709L38.2,64.67a2.15,2.15,0,0,1-2.1,1.67H28.2a2.149,2.149,0,0,1-2.1-1.669l-2.019-8.676a1.014,1.014,0,0,0-.6-.708,22.794,22.794,0,0,1-5.254-3.042,1.015,1.015,0,0,0-.916-.168L8.771,54.666a2.149,2.149,0,0,1-2.5-.986l-3.949-6.84a2.15,2.15,0,0,1,.394-2.655L9.22,38.1a1.013,1.013,0,0,0,.312-.876,22.941,22.941,0,0,1,0-6.081,1.013,1.013,0,0,0-.312-.876l-6.5-6.086a2.149,2.149,0,0,1-.394-2.655l3.949-6.84a2.149,2.149,0,0,1,2.5-.986L17.3,16.293a1.015,1.015,0,0,0,.916-.168,22.794,22.794,0,0,1,5.254-3.042,1.015,1.015,0,0,0,.6-.708L26.1,3.7A2.149,2.149,0,0,1,28.2,2.03h7.9A2.15,2.15,0,0,1,38.2,3.7l.442,1.9a1.015,1.015,0,1,0,1.977-.461l-.442-1.9A4.172,4.172,0,0,0,36.1,0H28.2a4.171,4.171,0,0,0-4.08,3.239l-1.9,8.172A24.8,24.8,0,0,0,17.4,14.2L9.361,11.758a4.171,4.171,0,0,0-4.845,1.914L.567,20.512a4.172,4.172,0,0,0,.765,5.153L7.455,31.4a24.892,24.892,0,0,0,0,5.574L1.331,42.7a4.171,4.171,0,0,0-.765,5.153L4.516,54.7A4.171,4.171,0,0,0,9.361,56.61L17.4,54.169a24.838,24.838,0,0,0,4.816,2.788l1.9,8.174a4.171,4.171,0,0,0,4.08,3.239h7.9a4.172,4.172,0,0,0,4.08-3.24l1.9-8.173a24.84,24.84,0,0,0,4.816-2.789l8.038,2.441A4.172,4.172,0,0,0,59.777,54.7l3.949-6.84a4.172,4.172,0,0,0-.765-5.153Zm0,0" transform="translate(0)"/>
        <path id="Path_1044941" data-name="Path 1044941" d="M125.937,142.778a1.015,1.015,0,1,0,1.342,1.524,19.466,19.466,0,1,0-12.86,4.852h0a19.3,19.3,0,0,0,8.349-1.877,1.015,1.015,0,0,0-.872-1.834,17.23,17.23,0,0,1-6.461,1.651v-5.4a3.866,3.866,0,0,1,.653.38,5.083,5.083,0,0,0,3.181.968,5.159,5.159,0,0,0,4.952-4.888,5.136,5.136,0,0,0-8.142-4.405,3.775,3.775,0,0,1-.645.377V130.7h4.718a1.029,1.029,0,0,0,.509-.122,1.015,1.015,0,0,0,.525-1.01,5.809,5.809,0,0,0-1.067-2.736,3.105,3.105,0,0,1,2.666-4.921,3.117,3.117,0,0,1,2.953,2.993,3.072,3.072,0,0,1-.584,1.924,5.861,5.861,0,0,0-1.069,2.741,1.016,1.016,0,0,0,.759,1.1,1.027,1.027,0,0,0,.274.031h6.706a17.448,17.448,0,0,1-5.887,12.075ZM113.4,112.283v5.4a3.89,3.89,0,0,1-.654-.381,5.084,5.084,0,0,0-3.182-.968,5.158,5.158,0,0,0-4.952,4.888,5.136,5.136,0,0,0,8.142,4.405,3.779,3.779,0,0,1,.646-.377v3.417H108.66a1.016,1.016,0,0,0-1.016,1.016,1.089,1.089,0,0,0,.007.117,5.817,5.817,0,0,0,1.067,2.736,3.1,3.1,0,0,1-2.666,4.921,3.117,3.117,0,0,1-2.953-2.993,3.078,3.078,0,0,1,.584-1.923,5.847,5.847,0,0,0,1.069-2.741,1.016,1.016,0,0,0-1.009-1.133h-6.73A17.458,17.458,0,0,1,113.4,112.283Zm.34,23.922a1.019,1.019,0,0,0,.792.25,5.815,5.815,0,0,0,2.736-1.067,3.1,3.1,0,0,1,4.921,2.666,3.117,3.117,0,0,1-2.993,2.953,3.079,3.079,0,0,1-1.924-.584,5.848,5.848,0,0,0-2.741-1.069,1.016,1.016,0,0,0-1.132,1.024v6.714A17.459,17.459,0,0,1,97.015,130.7h5.4a3.89,3.89,0,0,1-.381.654,5.087,5.087,0,0,0-.968,3.182,5.158,5.158,0,0,0,4.888,4.952c.083,0,.166.006.249.006a5.135,5.135,0,0,0,4.156-8.147,3.837,3.837,0,0,1-.377-.646H113.4v4.744a1.017,1.017,0,0,0,.34.758Zm14.024-11.368a5.158,5.158,0,0,0-4.888-4.952,5.136,5.136,0,0,0-4.405,8.142,3.756,3.756,0,0,1,.377.645h-3.417v-4.743a1.015,1.015,0,0,0-1.132-1.009,5.817,5.817,0,0,0-2.736,1.067,3.1,3.1,0,0,1-4.921-2.666,3.116,3.116,0,0,1,2.993-2.952,3.071,3.071,0,0,1,1.923.584,5.852,5.852,0,0,0,2.741,1.069,1,1,0,0,0,.261,0,1.015,1.015,0,0,0,.872-1.005v-6.73a17.459,17.459,0,0,1,16.389,16.389h-5.4a3.848,3.848,0,0,1,.38-.653,5.085,5.085,0,0,0,.968-3.182Zm0,0" transform="translate(-82.273 -95.504)"/>
      </g>
    </g>
  </g>
</svg>
