<svg xmlns="http://www.w3.org/2000/svg" xmlns:xlink="http://www.w3.org/1999/xlink" width="103" height="103" viewBox="0 0 103 103">
  <defs>
    <filter id="Path_978624" x="0" y="0" width="103" height="103" filterUnits="userSpaceOnUse">
      <feOffset dy="3" input="SourceAlpha"/>
      <feGaussianBlur stdDeviation="3" result="blur"/>
      <feFlood flood-opacity="0.161"/>
      <feComposite operator="in" in2="blur"/>
      <feComposite in="SourceGraphic"/>
    </filter>
  </defs>
  <g id="Group_1206316" data-name="Group 1206316" transform="translate(-171 -749)">
    <g id="Group_1206116" data-name="Group 1206116">
      <g id="Group_1203387" data-name="Group 1203387" transform="translate(0 -83)">
        <g id="Group_1178310" data-name="Group 1178310" transform="translate(0 -2034)">
          <g id="Group_1176881" data-name="Group 1176881">
            <g id="Group_1175148" data-name="Group 1175148" transform="translate(0 1580)">
              <g id="Group_1173798" data-name="Group 1173798" transform="translate(-3 -3520)">
                <g id="Group_1171925" data-name="Group 1171925" transform="translate(-22 -2246)">
                  <g id="Group_1164524" data-name="Group 1164524" transform="translate(205 7058)">
                    <g id="Group_1144123" data-name="Group 1144123">
                      <g transform="matrix(1, 0, 0, 1, -9, -6)" filter="url(#Path_978624)">
                        <g id="Path_978624-2" data-name="Path 978624" transform="translate(9 6)" fill="#ebe9f0">
                          <path d="M 42.5 83.5 C 36.96437835693359 83.5 31.59512901306152 82.41617584228516 26.54141235351562 80.27863311767578 C 21.65934181213379 78.21369171142578 17.27447128295898 75.25723266601562 13.50862312316895 71.49137878417969 C 9.742764472961426 67.72553253173828 6.786305904388428 63.34066009521484 4.721364498138428 58.45858764648438 C 2.583823442459106 53.40486907958984 1.5 48.03562164306641 1.5 42.5 C 1.5 36.96437835693359 2.583823442459106 31.59512901306152 4.721364498138428 26.54141235351562 C 6.786305904388428 21.65934181213379 9.742764472961426 17.27447128295898 13.50862312316895 13.50862312316895 C 17.27447128295898 9.742764472961426 21.65934181213379 6.786305904388428 26.54141235351562 4.721364498138428 C 31.59512901306152 2.583823442459106 36.96437835693359 1.5 42.5 1.5 C 48.03562164306641 1.5 53.40486907958984 2.583823442459106 58.45858764648438 4.721364498138428 C 63.34066009521484 6.786305904388428 67.72553253173828 9.742764472961426 71.49137878417969 13.50862312316895 C 75.25723266601562 17.27447128295898 78.21369171142578 21.65934181213379 80.27863311767578 26.54141235351562 C 82.41617584228516 31.59512901306152 83.5 36.96437835693359 83.5 42.5 C 83.5 48.03562164306641 82.41617584228516 53.40486907958984 80.27863311767578 58.45858764648438 C 78.21369171142578 63.34066009521484 75.25723266601562 67.72553253173828 71.49137878417969 71.49137878417969 C 67.72553253173828 75.25723266601562 63.34066009521484 78.21369171142578 58.45858764648438 80.27863311767578 C 53.40486907958984 82.41617584228516 48.03562164306641 83.5 42.5 83.5 Z" stroke="none"/>
                          <path d="M 42.5 3 C 37.16621398925781 3 31.99356079101562 4.043960571289062 27.125732421875 6.102882385253906 C 22.42246627807617 8.092185974121094 18.19785308837891 10.94070434570312 14.56928253173828 14.56928253173828 C 10.94070434570312 18.19785308837891 8.092185974121094 22.42246627807617 6.102882385253906 27.125732421875 C 4.043960571289062 31.99356079101562 3 37.16621398925781 3 42.5 C 3 47.83378601074219 4.043960571289062 53.00643920898438 6.102882385253906 57.87425231933594 C 8.092185974121094 62.57753372192383 10.94070434570312 66.80213165283203 14.56928253173828 70.43071746826172 C 18.19786834716797 74.05929565429688 22.42246627807617 76.90781402587891 27.125732421875 78.89711761474609 C 31.99356079101562 80.95603942871094 37.16621398925781 82 42.5 82 C 47.83378601074219 82 53.00642395019531 80.95603942871094 57.87425231933594 78.89711761474609 C 62.57753372192383 76.90781402587891 66.80213165283203 74.05929565429688 70.43071746826172 70.43071746826172 C 74.05929565429688 66.80213165283203 76.90781402587891 62.57753372192383 78.89711761474609 57.87425231933594 C 80.95603942871094 53.00642395019531 82 47.83378601074219 82 42.5 C 82 37.16621398925781 80.95603942871094 31.99356079101562 78.89711761474609 27.125732421875 C 76.90781402587891 22.42246627807617 74.05929565429688 18.19786834716797 70.43071746826172 14.56928253173828 C 66.80213165283203 10.94070434570312 62.57753372192383 8.092185974121094 57.87425231933594 6.102882385253906 C 53.00643920898438 4.043960571289062 47.83378601074219 3 42.5 3 M 42.5 0 C 65.97209167480469 0 85 19.02789306640625 85 42.5 C 85 65.97209167480469 65.97209167480469 85 42.5 85 C 19.02789306640625 85 0 65.97209167480469 0 42.5 C 0 19.02789306640625 19.02789306640625 0 42.5 0 Z" stroke="none" fill="#c6c0d6"/>
                        </g>
                      </g>
                    </g>
                  </g>
                </g>
              </g>
            </g>
          </g>
        </g>
      </g>
      <g id="maestro" transform="translate(175.722 767)">
        <g id="Group_1206114" data-name="Group 1206114" transform="translate(20.865 0.848)">
          <g id="Group_1206111" data-name="Group 1206111" transform="translate(0)">
            <path id="Path_1044436" data-name="Path 1044436" d="M91.554,30.735A3.663,3.663,0,0,0,89.265,25.1a17.859,17.859,0,0,0-35.715,0,3.663,3.663,0,0,0-2.289,5.635A7.239,7.239,0,0,0,54.815,43.11a5.028,5.028,0,0,0,4.525,7.217H83.475A5.028,5.028,0,0,0,88,43.11a7.238,7.238,0,0,0,3.554-12.375Z" transform="translate(-48.98 -7.496)" fill="#596c76"/>
            <path id="Path_1044437" data-name="Path 1044437" d="M72.939,50.332h-13.6a5.026,5.026,0,0,1-4.525-7.217,7.239,7.239,0,0,1-3.554-12.376,3.607,3.607,0,0,1-.462-.958A3.666,3.666,0,0,1,53.548,25.1,17.877,17.877,0,0,1,76.006,8.1,17.874,17.874,0,0,0,62.748,25.1s.527,3.713.064,4.116Z" transform="translate(-48.978 -7.5)" fill="#465a61"/>
            <path id="Path_1044438" data-name="Path 1044438" d="M172.925,375.676v5.347a.751.751,0,0,1-.752.752H151.956a.753.753,0,0,1-.752-.752v-5.347a9.516,9.516,0,0,1,2.238-6.145,9.613,9.613,0,0,1,2.613-2.172,9.5,9.5,0,0,1,4.706-1.239h2.608a9.557,9.557,0,0,1,9.556,9.556Z" transform="translate(-139.637 -325.543)" fill="#97da7b"/>
            <path id="Path_1044439" data-name="Path 1044439" d="M165.04,366.269a9.559,9.559,0,0,0-7.889,9.411v6.1h-5.19a.753.753,0,0,1-.753-.753V375.68a9.556,9.556,0,0,1,9.556-9.556h2.609A9.635,9.635,0,0,1,165.04,366.269Z" transform="translate(-139.641 -325.546)" fill="#80d261"/>
            <path id="Path_1044440" data-name="Path 1044440" d="M206.091,332.1a6.011,6.011,0,0,1-12.022,0,9.453,9.453,0,0,1,3.213-1.122V326.36h5.643v4.623A9.451,9.451,0,0,1,206.091,332.1Z" transform="translate(-177.652 -290.281)" fill="#ffdfcf"/>
            <path id="Path_1044441" data-name="Path 1044441" d="M199.443,330.91v5.571a9.6,9.6,0,0,0-3.436,4.034,5.989,5.989,0,0,1-1.938-4.382,9.454,9.454,0,0,1,3.213-1.122v-4.1Z" transform="translate(-177.652 -294.316)" fill="#ffcebf"/>
            <path id="Path_1044442" data-name="Path 1044442" d="M121.479,176.52a4.089,4.089,0,0,1,5.811,4.766c-.628,2.169-3.271,4.722-5.441,4.094a2.427,2.427,0,0,1-.468-.191H98.5a2.419,2.419,0,0,1-.468.191c-2.17.628-4.813-1.926-5.44-4.094a4.088,4.088,0,0,1,5.81-4.766Z" transform="translate(-87.513 -156.987)" fill="#ffcebf"/>
            <path id="Path_1044443" data-name="Path 1044443" d="M168.291,131.228v8.828a11.538,11.538,0,0,1-23.076,0v-8.4a.963.963,0,0,1,1.216-.931,17.4,17.4,0,0,0,4.473.6,15.894,15.894,0,0,0,10.946-4.261.722.722,0,0,1,1.1.157,6.306,6.306,0,0,0,4.487,3.051A.97.97,0,0,1,168.291,131.228Z" transform="translate(-134.326 -113.367)" fill="#ffdfcf"/>
            <path id="Path_1044444" data-name="Path 1044444" d="M159.6,181.139a11.549,11.549,0,0,1-14.384-11.185v-8.4a.963.963,0,0,1,1.216-.931,17.4,17.4,0,0,0,4.473.6v8.732A11.542,11.542,0,0,0,159.6,181.139Z" transform="translate(-134.326 -143.265)" fill="#ffcebf"/>
          </g>
          <g id="Group_1206112" data-name="Group 1206112" transform="translate(30.293 41.093)">
            <path id="Path_1044445" data-name="Path 1044445" d="M333.569,370.733l-7.213,1.685-7.213-1.685a1.982,1.982,0,0,0-2.433,1.93v11.176a1.982,1.982,0,0,0,1.982,1.982H334.02A1.982,1.982,0,0,0,336,383.838V372.662A1.982,1.982,0,0,0,333.569,370.733Z" transform="translate(-316.71 -370.68)" fill="#fd8087"/>
            <path id="Path_1044446" data-name="Path 1044446" d="M321.631,385.827h-2.938a1.982,1.982,0,0,1-1.982-1.982V372.669a1.981,1.981,0,0,1,2.433-1.929l1.343.313a1.968,1.968,0,0,0-.836,1.616v11.176A1.982,1.982,0,0,0,321.631,385.827Z" transform="translate(-316.71 -370.686)" fill="#fe646f"/>
            <path id="Path_1044447" data-name="Path 1044447" d="M366.589,454.7h-1.731a2.832,2.832,0,0,0-2.832,2.832v2.8h7.4v-2.8A2.832,2.832,0,0,0,366.589,454.7Z" transform="translate(-356.899 -445.194)" fill="#ffdfcf"/>
            <path id="Path_1044448" data-name="Path 1044448" d="M366.993,454.741a2.833,2.833,0,0,0-2.355,2.791v2.8h-2.686v-2.8a2.833,2.833,0,0,1,2.832-2.832h1.731A2.765,2.765,0,0,1,366.993,454.741Z" transform="translate(-356.833 -445.193)" fill="#ffcebf"/>
          </g>
          <g id="Group_1206113" data-name="Group 1206113" transform="translate(6.48 49.436)">
            <path id="Path_1044449" data-name="Path 1044449" d="M110.167,444.42h-1.044a2.877,2.877,0,0,0-2.877,2.877v1.044a2.877,2.877,0,0,0,2.877,2.877h1.044a2.877,2.877,0,0,0,2.877-2.877V447.3A2.877,2.877,0,0,0,110.167,444.42Z" transform="translate(-106.247 -444.42)" fill="#ffdfcf"/>
            <path id="Path_1044450" data-name="Path 1044450" d="M110.893,451.121a2.878,2.878,0,0,1-.724.092h-1.043a2.877,2.877,0,0,1-2.877-2.876v-1.044a2.877,2.877,0,0,1,2.877-2.876h1.043a2.878,2.878,0,0,1,.724.092,2.878,2.878,0,0,0-2.152,2.785v1.044A2.878,2.878,0,0,0,110.893,451.121Z" transform="translate(-106.248 -444.416)" fill="#ffcebf"/>
          </g>
        </g>
        <g id="Group_1206115" data-name="Group 1206115" transform="translate(17.278 0)">
          <path id="Path_1044451" data-name="Path 1044451" d="M202.14,189.354a.849.849,0,0,0-1.7,0v1.5a.849.849,0,1,0,1.7,0Z" transform="translate(-179.718 -167.176)"/>
          <path id="Path_1044452" data-name="Path 1044452" d="M280.638,190.85v-1.5a.849.849,0,1,0-1.7,0v1.5a.849.849,0,1,0,1.7,0Z" transform="translate(-249.334 -167.176)"/>
          <path id="Path_1044453" data-name="Path 1044453" d="M217.078,258.958a5.066,5.066,0,0,0,3.593-1.486.849.849,0,1,0-1.2-1.2,3.389,3.389,0,0,1-4.787,0,.849.849,0,1,0-1.2,1.2A5.066,5.066,0,0,0,217.078,258.958Z" transform="translate(-191.064 -227.055)"/>
          <path id="Path_1044454" data-name="Path 1044454" d="M70.227,41.707a2.815,2.815,0,0,0-2.4-.538l-1.139.266a.849.849,0,0,0,.386,1.653l1.14-.266a1.133,1.133,0,0,1,1.391,1.1V55.1a1.135,1.135,0,0,1-1.134,1.134H64.53V54.281a3.687,3.687,0,0,0-2.877-3.592V44.353l1.663-.389a.849.849,0,1,0-.386-1.653l-2.125.5-1.06-.248a5.866,5.866,0,0,0,1.338-5.24q-.032-.139-.071-.277a8.108,8.108,0,0,0,5.557-7.684,8.069,8.069,0,0,0-2.078-5.411,4.515,4.515,0,0,0-.6-4.777,4.539,4.539,0,0,0-1.907-1.36,18.709,18.709,0,0,0-37.374,0,4.516,4.516,0,0,0-2.731,5.568,4.449,4.449,0,0,0,.22.57,8.089,8.089,0,0,0,3.478,13.094,5.9,5.9,0,0,0,.215,3.841.849.849,0,1,0,1.569-.647,4.189,4.189,0,0,1,.106-3.4.849.849,0,0,0-.6-1.2,6.394,6.394,0,0,1-5.149-6.271A6.332,6.332,0,0,1,23.726,24.7a.848.848,0,0,0,.122-1.092,2.806,2.806,0,0,1-.481-1.575,2.823,2.823,0,0,1,2.238-2.755.849.849,0,0,0,.676-.819,17.011,17.011,0,0,1,34.018,0,.849.849,0,0,0,.676.819,2.827,2.827,0,0,1,1.6.967,2.814,2.814,0,0,1,.16,3.36.849.849,0,0,0,.121,1.095A6.39,6.39,0,0,1,59.72,35.63a.849.849,0,0,0-.6,1.2,4.174,4.174,0,0,1,.418,1.82,4.2,4.2,0,0,1-1.805,3.437l-3.949-.922a2.834,2.834,0,0,0-3.112,1.368,10.417,10.417,0,0,0-.949-.611h0a10.282,10.282,0,0,0-2.737-1.073V39.361A12.433,12.433,0,0,0,55.4,30.15a3.434,3.434,0,0,0,.5.037,5.034,5.034,0,0,0,3.136-1.29,7.515,7.515,0,0,0,2.419-3.516,4.938,4.938,0,0,0-5.778-6.2v-.474a1.827,1.827,0,0,0-1.588-1.8,5.014,5.014,0,0,1-.855-.19.849.849,0,0,0-.515,1.617,6.7,6.7,0,0,0,1.146.255.125.125,0,0,1,.116.116v7.447c0,.005,0,.011,0,.016s0,0,0,.007v1.358a10.69,10.69,0,1,1-21.379,0v-8.4a.112.112,0,0,1,.046-.094.106.106,0,0,1,.1-.019,18.223,18.223,0,0,0,4.741.627,16.715,16.715,0,0,0,11.361-4.379c.106.165.22.328.339.487a.849.849,0,1,0,1.358-1.018c-.119-.158-.23-.322-.332-.486a1.572,1.572,0,0,0-2.394-.34,15.455,15.455,0,0,1-14.626,3.472,1.812,1.812,0,0,0-2.288,1.75v.047a4.938,4.938,0,0,0-5.779,6.2A7.515,7.515,0,0,0,27.545,28.9a5.033,5.033,0,0,0,3.136,1.289,3.433,3.433,0,0,0,.5-.037,12.432,12.432,0,0,0,8.462,9.226v1.467a10.263,10.263,0,0,0-2.782,1.084h0a10.577,10.577,0,0,0-1.345.9H31.223a4.141,4.141,0,0,1-1.584-.311.849.849,0,1,0-.646,1.57,5.829,5.829,0,0,0,2.229.438h2.594a10.322,10.322,0,0,0-2.125,4.934,3.739,3.739,0,0,0-.428-.025H30.221a3.726,3.726,0,0,0-.782.083l-10.6-16.408a.849.849,0,1,0-1.426.921L27.894,50.256a3.719,3.719,0,0,0-1.4,2.906v1.044a3.73,3.73,0,0,0,3.725,3.725H68.467A2.834,2.834,0,0,0,71.3,55.1V43.924a2.815,2.815,0,0,0-1.071-2.217ZM57.614,20.9a3.245,3.245,0,0,1,2.213,4.013,5.846,5.846,0,0,1-1.866,2.677,3.156,3.156,0,0,1-2.316.882q.034-.462.035-.932V26.164a1.974,1.974,0,0,1,1.46-1.9.849.849,0,1,0-.439-1.639,3.651,3.651,0,0,0-1.02.45V20.94a3.231,3.231,0,0,1,1.935-.042ZM28.623,27.587a5.846,5.846,0,0,1-1.866-2.676,3.24,3.24,0,0,1,4.148-3.971v2.137a3.648,3.648,0,0,0-1.021-.451.849.849,0,0,0-.439,1.639,1.975,1.975,0,0,1,1.46,1.906s0,.007,0,.01v1.355q0,.47.035.932a3.155,3.155,0,0,1-2.317-.882ZM62.832,54.281v1.952h-5.7V54.281A1.986,1.986,0,0,1,59.118,52.3h1.731A1.986,1.986,0,0,1,62.832,54.281Zm-22.207-11.9a.849.849,0,0,0,.717-.838V39.77a12.416,12.416,0,0,0,3.946-.008V41.55a.849.849,0,0,0,.714.838,8.583,8.583,0,0,1,2.426.772,5.163,5.163,0,0,1-10.27,0,8.587,8.587,0,0,1,2.468-.78ZM36.6,44.138a6.887,6.887,0,0,0,5.84,5.293v2.735a.849.849,0,0,0,1.7,0V49.431a6.888,6.888,0,0,0,5.841-5.291c.112.088.221.18.328.273V55.1a2.815,2.815,0,0,0,.238,1.134H34.387a3.7,3.7,0,0,0,.6-2.028V53.161a3.724,3.724,0,0,0-1.662-3.1A8.64,8.64,0,0,1,36.6,44.138Zm-6.382,12.1a2.03,2.03,0,0,1-2.028-2.028V53.162a2.03,2.03,0,0,1,2.028-2.028h1.044a2.03,2.03,0,0,1,2.028,2.028v1.044a2.03,2.03,0,0,1-2.028,2.028Zm22.918,0A1.134,1.134,0,0,1,52.007,55.1V43.924a1.133,1.133,0,0,1,1.391-1.1l6.557,1.532V50.6h-.837a3.685,3.685,0,0,0-3.681,3.681v1.952Z" transform="translate(-17.278 0)"/>
          <path id="Path_1044455" data-name="Path 1044455" d="M419.91,404.315a.848.848,0,0,0,1.019.633l4.336-1.013a.849.849,0,0,0-.386-1.653l-4.336,1.013A.849.849,0,0,0,419.91,404.315Z" transform="translate(-374.333 -356.745)"/>
        </g>
      </g>
    </g>
  </g>
</svg>
