<svg xmlns="http://www.w3.org/2000/svg" xmlns:xlink="http://www.w3.org/1999/xlink" width="113" height="113" viewBox="0 0 113 113">
  <defs>
    <filter id="Path_982547" x="0" y="0" width="113" height="113" filterUnits="userSpaceOnUse">
      <feOffset dy="3" input="SourceAlpha"/>
      <feGaussianBlur stdDeviation="3" result="blur"/>
      <feFlood flood-opacity="0.161"/>
      <feComposite operator="in" in2="blur"/>
      <feComposite in="SourceGraphic"/>
    </filter>
  </defs>
  <g id="Group_1206385" data-name="Group 1206385" transform="translate(-324 -9396.41)">
    <g id="Group_1206275" data-name="Group 1206275" transform="translate(0 44)">
      <g id="Group_1203802" data-name="Group 1203802" transform="translate(0.5 6552.41)">
        <g id="Group_1202424" data-name="Group 1202424" transform="translate(0 1464)">
          <g id="Group_1178325" data-name="Group 1178325" transform="translate(0 424)">
            <g id="Group_1177679" data-name="Group 1177679" transform="translate(332.5 918)">
              <g id="Group_1172010" data-name="Group 1172010">
                <g id="Group_1171046" data-name="Group 1171046">
                  <g id="Group_1148525" data-name="Group 1148525">
                    <g transform="matrix(1, 0, 0, 1, -9, -6)" filter="url(#Path_982547)">
                      <g id="Path_982547-2" data-name="Path 982547" transform="translate(9 6)" fill="#dce8fa">
                        <path d="M 47.5 93.5 C 41.28937149047852 93.5 35.26533508300781 92.28397369384766 29.59518623352051 89.88570404052734 C 24.11771965026855 87.56893157958984 19.19813346862793 84.25196075439453 14.97309303283691 80.02691650390625 C 10.74804019927979 75.80186462402344 7.431066513061523 70.88229370117188 5.114293098449707 65.40481567382812 C 2.716026782989502 59.73468017578125 1.5 53.71062850952148 1.5 47.5 C 1.5 41.28937149047852 2.716026782989502 35.26533508300781 5.114293098449707 29.59518623352051 C 7.431066513061523 24.11771965026855 10.74804019927979 19.19813346862793 14.97309303283691 14.97309303283691 C 19.19813346862793 10.74804019927979 24.11771965026855 7.431066513061523 29.59518623352051 5.114293098449707 C 35.26533508300781 2.716026782989502 41.28937149047852 1.5 47.5 1.5 C 53.71062850952148 1.5 59.73468017578125 2.716026782989502 65.40481567382812 5.114293098449707 C 70.88229370117188 7.431066513061523 75.80186462402344 10.74804019927979 80.02691650390625 14.97309303283691 C 84.25196075439453 19.19813346862793 87.56893157958984 24.11771965026855 89.88570404052734 29.59518623352051 C 92.28397369384766 35.26533508300781 93.5 41.28937149047852 93.5 47.5 C 93.5 53.71062850952148 92.28397369384766 59.73468017578125 89.88570404052734 65.40481567382812 C 87.56893157958984 70.88229370117188 84.25196075439453 75.80186462402344 80.02691650390625 80.02691650390625 C 75.80186462402344 84.25196075439453 70.88229370117188 87.56893157958984 65.40481567382812 89.88570404052734 C 59.73468017578125 92.28397369384766 53.71062850952148 93.5 47.5 93.5 Z" stroke="none"/>
                        <path d="M 47.5 3 C 41.49121475219727 3 35.66376876831055 4.176155090332031 30.17950439453125 6.495796203613281 C 24.88084411621094 8.736953735351562 20.12152099609375 11.94598388671875 16.03375244140625 16.03375244140625 C 11.94598388671875 20.12152099609375 8.736953735351562 24.88084411621094 6.495796203613281 30.17950439453125 C 4.176155090332031 35.66376876831055 3 41.49121475219727 3 47.5 C 3 53.50878524780273 4.176155090332031 59.33623123168945 6.495796203613281 64.82049560546875 C 8.736953735351562 70.11915588378906 11.94598388671875 74.87847900390625 16.03375244140625 78.96624755859375 C 20.12152099609375 83.05401611328125 24.88084411621094 86.26304626464844 30.17950439453125 88.50419616699219 C 35.66376876831055 90.82384490966797 41.49121475219727 92 47.5 92 C 53.50878524780273 92 59.33623123168945 90.82384490966797 64.82049560546875 88.50419616699219 C 70.11915588378906 86.26304626464844 74.87847900390625 83.05401611328125 78.96624755859375 78.96624755859375 C 83.05401611328125 74.87847900390625 86.26304626464844 70.11915588378906 88.50419616699219 64.82049560546875 C 90.82384490966797 59.33623123168945 92 53.50878524780273 92 47.5 C 92 41.49121475219727 90.82384490966797 35.66376876831055 88.50419616699219 30.17950439453125 C 86.26304626464844 24.88084411621094 83.05401611328125 20.12152099609375 78.96624755859375 16.03375244140625 C 74.87847900390625 11.94598388671875 70.11915588378906 8.736953735351562 64.82049560546875 6.495796203613281 C 59.33623123168945 4.176155090332031 53.50878524780273 3 47.5 3 M 47.5 0 C 73.7335205078125 0 95 21.2664794921875 95 47.5 C 95 73.7335205078125 73.7335205078125 95 47.5 95 C 21.2664794921875 95 0 73.7335205078125 0 47.5 C 0 21.2664794921875 21.2664794921875 0 47.5 0 Z" stroke="none" fill="#5692e8"/>
                      </g>
                    </g>
                  </g>
                </g>
              </g>
            </g>
          </g>
        </g>
      </g>
      <g id="logro" transform="translate(352.416 9372.311)">
        <g id="Group_1206266" data-name="Group 1206266" transform="translate(1.003 2.047)">
          <path id="Path_1045108" data-name="Path 1045108" d="M4.5,9.3V59.587a4.181,4.181,0,0,0,4.167,4.171H46.729A4.181,4.181,0,0,0,50.9,59.587V9.3a4.181,4.181,0,0,0-4.167-4.171H8.667A4.181,4.181,0,0,0,4.5,9.3Z" transform="translate(-4.5 -5.134)" fill="#eaf6ff" fill-rule="evenodd"/>
        </g>
        <g id="Group_1206267" data-name="Group 1206267" transform="translate(5.808 43.638)">
          <path id="Path_1045109" data-name="Path 1045109" d="M42.705,335.816H53.28v10.571H42.705Z" transform="translate(-42.705 -335.816)" fill="#ffd301" fill-rule="evenodd"/>
        </g>
        <g id="Group_1206268" data-name="Group 1206268" transform="translate(5.808 27.287)">
          <path id="Path_1045110" data-name="Path 1045110" d="M42.705,205.815H53.28v10.571H42.705Z" transform="translate(-42.705 -205.815)" fill="#ffd301" fill-rule="evenodd"/>
        </g>
        <g id="Group_1206269" data-name="Group 1206269" transform="translate(5.808 10.937)">
          <path id="Path_1045111" data-name="Path 1045111" d="M42.705,75.814H53.28V86.389H42.705Z" transform="translate(-42.705 -75.814)" fill="#ffd301" fill-rule="evenodd"/>
        </g>
        <g id="Group_1206270" data-name="Group 1206270" transform="translate(26.904 39.11)">
          <path id="Path_1045112" data-name="Path 1045112" d="M223.455,325.857a13.021,13.021,0,1,0-13.021-13.021A13.045,13.045,0,0,0,223.455,325.857Z" transform="translate(-210.434 -299.816)" fill="#fd646f" fill-rule="evenodd"/>
        </g>
        <g id="Group_1206271" data-name="Group 1206271" transform="translate(31.457 43.412)">
          <path id="Path_1045113" data-name="Path 1045113" d="M255.1,350.952a8.468,8.468,0,1,0-8.467-8.468A8.482,8.482,0,0,0,255.1,350.952Z" transform="translate(-246.635 -334.017)" fill="#f5f5f5" fill-rule="evenodd"/>
        </g>
        <g id="Group_1206272" data-name="Group 1206272" transform="translate(36.057 48.012)">
          <path id="Path_1045114" data-name="Path 1045114" d="M287.077,378.327a3.868,3.868,0,1,0-3.868-3.868A3.875,3.875,0,0,0,287.077,378.327Z" transform="translate(-283.209 -370.592)" fill="#fd646f" fill-rule="evenodd"/>
        </g>
        <g id="Group_1206273" data-name="Group 1206273" transform="translate(29.994 48.357)">
          <path id="Path_1045115" data-name="Path 1045115" d="M257.324,376.165A13.308,13.308,0,0,1,235,385.956a13.024,13.024,0,0,0,22.019-12.62A13.277,13.277,0,0,1,257.324,376.165Z" transform="translate(-235.002 -373.336)" fill="#eb4954" fill-rule="evenodd"/>
        </g>
        <g id="Group_1206274" data-name="Group 1206274" transform="translate(54.599 37.519)">
          <path id="Path_1045116" data-name="Path 1045116" d="M430.633,293.087v-3.658l3.918-2.262v3.658l3.171,1.833-3.918,2.262Z" transform="translate(-430.633 -287.166)" fill="#fac149" fill-rule="evenodd"/>
        </g>
        <path id="Path_1045117" data-name="Path 1045117" d="M5.118,43.5A.879.879,0,0,1,6,42.621h7.283a.879.879,0,0,1,0,1.758h-6.4v8.668h8.668v-5.44a.879.879,0,1,1,1.758,0v6.319a.879.879,0,0,1-.879.879H6a.879.879,0,0,1-.879-.879Zm13.846-3.084a.879.879,0,0,0-1.235.137l-6.694,8.362L9.24,46.044a.879.879,0,0,0-1.49.932L10.2,50.9a.88.88,0,0,0,.694.412l.051,0a.879.879,0,0,0,.686-.33L19.1,41.651a.879.879,0,0,0-.137-1.235ZM5.118,37.8A.879.879,0,0,0,6,38.679H16.422A.879.879,0,0,0,17.3,37.8V31.481a.879.879,0,1,0-1.758,0v5.44H6.876V28.253h6.4a.879.879,0,0,0,0-1.758H6a.879.879,0,0,0-.879.879ZM18.964,24.294a.879.879,0,0,0-1.235.137l-6.694,8.359L9.24,29.919a.879.879,0,1,0-1.49.932L10.2,34.772a.879.879,0,0,0,.694.411l.051,0a.879.879,0,0,0,.686-.33L19.1,25.529a.879.879,0,0,0-.137-1.236Zm8.09,35.125H5.492a3.238,3.238,0,0,1-3.234-3.234V6.6A3.238,3.238,0,0,1,5.492,3.361H43.027A3.238,3.238,0,0,1,46.261,6.6V38.34a.879.879,0,1,0,1.758,0V6.6A5,5,0,0,0,43.026,1.6H5.492A5,5,0,0,0,.5,6.6V56.184a5,5,0,0,0,4.992,4.992H27.054a.879.879,0,0,0,0-1.758ZM13.281,12.128a.879.879,0,0,0,0-1.758H6a.879.879,0,0,0-.879.879V21.678A.879.879,0,0,0,6,22.557H16.422a.879.879,0,0,0,.879-.879V15.355a.879.879,0,1,0-1.758,0V20.8H6.876V12.128Zm5.684-3.959a.879.879,0,0,0-1.235.137l-6.694,8.359L9.24,13.8a.879.879,0,1,0-1.49.932L10.2,18.646a.879.879,0,0,0,.694.411l.051,0a.879.879,0,0,0,.686-.33L19.1,9.4a.879.879,0,0,0-.137-1.235Zm21.465,2.2H22.656a.879.879,0,0,0,0,1.758H40.429a.879.879,0,0,0,0-1.758Zm0,4.7H22.656a.879.879,0,0,0,0,1.758H40.429a.879.879,0,0,0,0-1.758Zm0,11.422H22.656a.879.879,0,0,0,0,1.758H40.429a.879.879,0,0,0,0-1.758Zm.879,5.583a.879.879,0,0,0-.879-.879H22.656a.879.879,0,0,0,0,1.758H40.429A.879.879,0,0,0,41.308,32.078ZM27.9,43.5a.879.879,0,0,0-.879-.879H22.656a.879.879,0,0,0,0,1.758h4.369A.879.879,0,0,0,27.9,43.5Zm-5.248,3.825a.879.879,0,0,0,0,1.758h2.327a.879.879,0,0,0,0-1.758ZM64.33,38.781l-3.973,2.292,1.81,1.046a.879.879,0,0,1,0,1.522L58.3,45.872a.878.878,0,0,1-.879,0l-2.688-1.553-2.55,1.472a13.759,13.759,0,1,1-.881-1.521L53.857,42.8V39.7a.879.879,0,0,1,.439-.761L58.161,36.7a.879.879,0,0,1,1.318.761v2.086l3.973-2.292a.879.879,0,0,1,.879,1.522Zm-13.669,7.89-2.376,1.372a9.26,9.26,0,1,1-.881-1.521l2.376-1.372a11.9,11.9,0,1,0,.882,1.521ZM38.983,51.385l2.893-1.67a2.935,2.935,0,1,0,.88,1.521l-2.895,1.671a.879.879,0,1,1-.879-1.522Zm4.459-2.574,2.434-1.405a7.453,7.453,0,1,0,.881,1.521l-2.433,1.4a4.708,4.708,0,1,1-.881-1.521Zm16.529-5.93-1.8-1.041,0,0,0,0-.021-.014a.877.877,0,0,1-.073-.049l-.028-.024c-.02-.017-.04-.033-.059-.052s-.023-.026-.034-.038-.029-.031-.042-.048a.9.9,0,0,1-.064-.1h0a.9.9,0,0,1-.046-.094l-.01-.025c-.01-.026-.019-.051-.026-.077l-.007-.025a.874.874,0,0,1-.019-.1v-.006a.865.865,0,0,1-.007-.108s0,0,0-.007V38.987L55.615,40.2V42.8l2.249,1.3Z" transform="translate(0 0)"/>
      </g>
    </g>
  </g>
</svg>
