<svg xmlns="http://www.w3.org/2000/svg" xmlns:xlink="http://www.w3.org/1999/xlink" width="108" height="108" viewBox="0 0 108 108">
  <defs>
    <filter id="Path_904820" x="0" y="0" width="108" height="108" filterUnits="userSpaceOnUse">
      <feOffset dy="3" input="SourceAlpha"/>
      <feGaussianBlur stdDeviation="3" result="blur"/>
      <feFlood flood-opacity="0.161"/>
      <feComposite operator="in" in2="blur"/>
      <feComposite in="SourceGraphic"/>
    </filter>
  </defs>
  <g id="Group_1206342" data-name="Group 1206342" transform="translate(-620.999 -4384.897)">
    <g id="Group_1206150" data-name="Group 1206150" transform="translate(0 60.815)">
      <g id="Group_1203798" data-name="Group 1203798" transform="translate(629.999 4330.083)">
        <g id="Group_1202437" data-name="Group 1202437" transform="translate(0 0)">
          <g id="Group_1177315" data-name="Group 1177315">
            <g id="Group_1173585" data-name="Group 1173585">
              <g id="Group_1173428" data-name="Group 1173428">
                <g id="Group_1171958" data-name="Group 1171958">
                  <g id="Group_1167341" data-name="Group 1167341">
                    <g id="Group_1166792" data-name="Group 1166792">
                      <g transform="matrix(1, 0, 0, 1, -9, -6)" filter="url(#Path_904820)">
                        <g id="Path_904820-2" data-name="Path 904820" transform="translate(9 6)" fill="#effbfe">
                          <path d="M 44.99999618530273 88.5 C 39.12687301635742 88.5 33.43022155761719 87.35008239746094 28.06829643249512 85.08217620849609 C 22.88852119445801 82.89131927490234 18.23629570007324 79.75459289550781 14.24084663391113 75.7591552734375 C 10.24540901184082 71.76370239257812 7.108683586120605 67.11148071289062 4.917821407318115 61.93170547485352 C 2.649921178817749 56.56977844238281 1.499996185302734 50.87312698364258 1.499996185302734 45.00000381469727 C 1.499996185302734 39.12688064575195 2.649921178817749 33.43022918701172 4.917821407318115 28.06830406188965 C 7.108683586120605 22.88852882385254 10.24540901184082 18.23630332946777 14.24084663391113 14.24085426330566 C 18.23629570007324 10.24541664123535 22.88852119445801 7.108691215515137 28.06829643249512 4.917829036712646 C 33.43022155761719 2.64992880821228 39.12687301635742 1.500003814697266 44.99999618530273 1.500003814697266 C 50.87311935424805 1.500003814697266 56.56977081298828 2.64992880821228 61.93169784545898 4.917829036712646 C 67.11147308349609 7.108691215515137 71.76369476318359 10.24541664123535 75.75914764404297 14.24085426330566 C 79.75458526611328 18.23630332946777 82.89131164550781 22.88852882385254 85.08216857910156 28.06830406188965 C 87.35007476806641 33.43022918701172 88.5 39.12688064575195 88.5 45.00000381469727 C 88.5 50.87312698364258 87.35007476806641 56.56977844238281 85.08216857910156 61.93170547485352 C 82.89131164550781 67.11148071289062 79.75458526611328 71.76370239257812 75.75914764404297 75.7591552734375 C 71.76369476318359 79.75459289550781 67.11147308349609 82.89131927490234 61.93169784545898 85.08217620849609 C 56.56977081298828 87.35008239746094 50.87311935424805 88.5 44.99999618530273 88.5 Z" stroke="none"/>
                          <path d="M 44.99999618530273 3.000007629394531 C 39.32870864868164 3.000007629394531 33.82865142822266 4.110061645507812 28.65262603759766 6.299346923828125 C 23.65165710449219 8.414573669433594 19.15968322753906 11.44334411621094 15.301513671875 15.30152130126953 C 11.44333648681641 19.15969085693359 8.414566040039062 23.65166473388672 6.299339294433594 28.65263366699219 C 4.110054016113281 33.82865905761719 2.999992370605469 39.32871627807617 2.999992370605469 45.00000381469727 C 2.999992370605469 50.67129135131836 4.110054016113281 56.17134857177734 6.299339294433594 61.34737396240234 C 8.414566040039062 66.34834289550781 11.44333648681641 70.84031677246094 15.301513671875 74.698486328125 C 19.15968322753906 78.55666351318359 23.65165710449219 81.58543395996094 28.65262603759766 83.70066070556641 C 33.82865142822266 85.88994598388672 39.32870864868164 87 44.99999618530273 87 C 50.67128372192383 87 56.17134094238281 85.88994598388672 61.34736633300781 83.70066070556641 C 66.34834289550781 81.58543395996094 70.84030914306641 78.55666351318359 74.69847869873047 74.698486328125 C 78.55665588378906 70.84031677246094 81.58542633056641 66.34834289550781 83.70065307617188 61.34737396240234 C 85.88993835449219 56.17134857177734 87 50.67129135131836 87 45.00000381469727 C 87 39.32871627807617 85.88993835449219 33.82865905761719 83.70065307617188 28.65263366699219 C 81.58542633056641 23.65166473388672 78.55665588378906 19.15969085693359 74.69847869873047 15.30152130126953 C 70.84030914306641 11.44334411621094 66.34834289550781 8.414573669433594 61.34736633300781 6.299346923828125 C 56.17134094238281 4.110061645507812 50.67128372192383 3.000007629394531 44.99999618530273 3.000007629394531 M 44.99999618530273 7.62939453125e-06 C 69.85281372070312 7.62939453125e-06 90 20.14718627929688 90 45.00000381469727 C 90 69.85281372070312 69.85281372070312 90 44.99999618530273 90 C 20.14717864990234 90 -7.62939453125e-06 69.85281372070312 -7.62939453125e-06 45.00000381469727 C -7.62939453125e-06 20.14718627929688 20.14717864990234 7.62939453125e-06 44.99999618530273 7.62939453125e-06 Z" stroke="none" fill="#497f88"/>
                        </g>
                      </g>
                    </g>
                  </g>
                </g>
              </g>
            </g>
          </g>
        </g>
      </g>
      <g id="educacion" transform="translate(644.943 4347.812)">
        <g id="Group_1206149" data-name="Group 1206149" transform="translate(3.915 0.798)">
          <g id="Group_1206148" data-name="Group 1206148">
            <g id="Group_1206146" data-name="Group 1206146" transform="translate(0 20.252)">
              <g id="Group_1206142" data-name="Group 1206142" transform="translate(3.196)">
                <path id="Path_1044511" data-name="Path 1044511" d="M101.6,226.781H62.767a2.973,2.973,0,0,1,0-5.946H101.6A6.529,6.529,0,0,0,101.6,226.781Z" transform="translate(-57.751 -218.359)" fill="#f7f7f7"/>
                <path id="Path_1044512" data-name="Path 1044512" d="M126.529,220.834h-3.2a6.528,6.528,0,0,0,0,5.946h3.2A6.528,6.528,0,0,1,126.529,220.834Z" transform="translate(-82.682 -218.358)" fill="#efefef"/>
                <path id="Path_1044513" data-name="Path 1044513" d="M46.065,208.49a5.454,5.454,0,0,1-5.448-5.5,5.5,5.5,0,0,1,5.508-5.4H84.9a1.61,1.61,0,0,1,0,3.22H46.065a2.229,2.229,0,0,0,0,4.458H84.9a1.61,1.61,0,0,1,0,3.22Z" transform="translate(-40.617 -197.592)" fill="#ff815c"/>
              </g>
              <g id="Group_1206145" data-name="Group 1206145" transform="translate(0 10.898)">
                <g id="Group_1206143" data-name="Group 1206143" transform="translate(0 10.898)">
                  <path id="Path_1044514" data-name="Path 1044514" d="M82.054,431.382H36.831a2.973,2.973,0,0,1,0-5.946H82.054a6.528,6.528,0,0,0,0,5.946Z" transform="translate(-31.382 -422.96)" fill="#f7f7f7"/>
                  <path id="Path_1044515" data-name="Path 1044515" d="M453.454,425.436h-3.2a6.528,6.528,0,0,0,0,5.946h3.2A6.528,6.528,0,0,1,453.454,425.436Z" transform="translate(-402.783 -422.96)" fill="#efefef"/>
                  <path id="Path_1044516" data-name="Path 1044516" d="M16.065,413.091a5.454,5.454,0,0,1-5.448-5.5,5.5,5.5,0,0,1,5.508-5.4H61.288a1.61,1.61,0,0,1,0,3.22H16.065a2.229,2.229,0,0,0,0,4.458H61.288a1.61,1.61,0,0,1,0,3.22H16.065Z" transform="translate(-10.617 -402.193)" fill="#ffe66b"/>
                </g>
                <g id="Group_1206144" data-name="Group 1206144" transform="translate(0)">
                  <path id="Path_1044517" data-name="Path 1044517" d="M25.729,323.135H70.952a2.973,2.973,0,0,1,0,5.946H25.729A6.528,6.528,0,0,0,25.729,323.135Z" transform="translate(-24.119 -320.659)" fill="#f7f7f7"/>
                  <path id="Path_1044518" data-name="Path 1044518" d="M12.227,310.79a1.61,1.61,0,0,1,0-3.22H57.45a2.229,2.229,0,0,0,0-4.458H12.227a1.61,1.61,0,0,1,0-3.22H57.45a5.454,5.454,0,0,1,5.448,5.5,5.5,5.5,0,0,1-5.508,5.4Z" transform="translate(-10.617 -299.892)" fill="#c9f0ff"/>
                  <path id="Path_1044519" data-name="Path 1044519" d="M426.793,301.508a5.409,5.409,0,0,0-3.87-1.616h-3.2a5.454,5.454,0,0,1,5.448,5.5,5.5,5.5,0,0,1-5.508,5.4h3.2a5.5,5.5,0,0,0,5.508-5.4A5.411,5.411,0,0,0,426.793,301.508Z" transform="translate(-376.09 -299.892)" fill="#b5eaff"/>
                </g>
              </g>
            </g>
            <g id="Group_1206147" data-name="Group 1206147" transform="translate(1.333)">
              <path id="Path_1044520" data-name="Path 1044520" d="M145.826,107.343H116l3.2-10.761H142.63Z" transform="translate(-106.104 -87.091)" fill="#288a9a"/>
              <path id="Path_1044521" data-name="Path 1044521" d="M45.183,7.849l-21.2,5.569a1.143,1.143,0,0,0,0,2.21l21.2,5.569a10.843,10.843,0,0,0,5.509,0l21.2-5.569a1.143,1.143,0,0,0,0-2.21l-21.2-5.569A10.843,10.843,0,0,0,45.183,7.849Z" transform="translate(-23.13 -7.493)" fill="#3498ac"/>
              <path id="Path_1044522" data-name="Path 1044522" d="M229.832,13.417l-21.2-5.569a10.843,10.843,0,0,0-5.509,0l-3.221.846a10.845,10.845,0,0,1,4.469.219l21.2,5.569a1.143,1.143,0,0,1,0,2.21l4.261-1.065a1.143,1.143,0,0,0,0-2.21Z" transform="translate(-181.069 -7.493)" fill="#288a9a"/>
              <path id="Path_1044523" data-name="Path 1044523" d="M306.9,182.794h-4.6s0-6.939,2.3-6.939S306.9,182.794,306.9,182.794Z" transform="translate(-272.56 -157.919)" fill="#ffe66b"/>
            </g>
          </g>
          <path id="Path_1044524" data-name="Path 1044524" d="M96.8,341.016,93,343.01V330.118h3.8Z" transform="translate(-84.221 -295.748)" fill="#3498ac"/>
        </g>
        <path id="Path_1044525" data-name="Path 1044525" d="M243.6,44.778a2.96,2.96,0,0,1-3.159,0V42.507a1.58,1.58,0,1,1,3.159,0Z" transform="translate(-212.039 -36.567)" fill="#ffe66b"/>
        <path id="Path_1044526" data-name="Path 1044526" d="M54.854,49.74a5.75,5.75,0,0,1,0-2.89,2.41,2.41,0,0,0,.016-4.786A6.211,6.211,0,0,0,57,37.458a6.314,6.314,0,0,0-3.633-5.738,2.438,2.438,0,0,0-2.141-3.791,5.752,5.752,0,0,1,0-2.86c3.184.167,3.393-4.818.17-4.818H45.567l-2.279-7.675,10.927-2.87a1.954,1.954,0,0,0,0-3.756L33.013.381a11.663,11.663,0,0,0-5.915,0L19.215,2.452A.8.8,0,0,0,19.621,4L27.5,1.926a10.065,10.065,0,0,1,5.1,0L53.808,7.5a.344.344,0,0,1,0,.665L37.492,12.446,32.357,7.789V5.939a2.379,2.379,0,0,0-4.757,0V8.211a.8.8,0,0,0,.381.681,3.74,3.74,0,0,0,3.5.259l4.168,3.78-3.04.8a10.065,10.065,0,0,1-5.1,0L6.3,8.16a.344.344,0,0,1,0-.665l9.274-2.436a.8.8,0,0,0-.406-1.546L5.9,5.95a1.954,1.954,0,0,0,0,3.756l10.927,2.87L14.545,20.25H12.62a6.246,6.246,0,0,0-4.229,10.9H5.525a2.41,2.41,0,0,0-.267,4.8,5.74,5.74,0,0,1,0,2.89,2.41,2.41,0,0,0-.016,4.786A6.235,6.235,0,0,0,9.364,54.543H54.587a2.41,2.41,0,0,0,.267-4.8ZM30.759,7.72a2.114,2.114,0,0,1-1.561,0V5.939a.781.781,0,0,1,1.561,0ZM50.748,35.967a1.43,1.43,0,0,1,0,2.86H17.291v-2.86ZM15.693,45.583l-2.2,1.155V35.967h2.2Zm-3.8-6.756H6.9a7.346,7.346,0,0,0,0-2.86h4.992Zm.386,9.917a.8.8,0,0,0,.785.024l3.626-1.9H53.211a7.365,7.365,0,0,0,0,2.86H9.364a1.43,1.43,0,0,1,0-2.86h2.528V48.06a.8.8,0,0,0,.386.684Zm37.3-20.815H12.56a1.43,1.43,0,0,1,0-2.86H34.2c-.02.569-.017,1.4.786,1.4h4.6c.806,0,.806-.834.786-1.4h9.21a7.365,7.365,0,0,0,0,2.86Zm-12.294-8.4c.7,0,1.374,2.5,1.484,5.341H35.8c.11-2.843.78-5.341,1.484-5.341ZM52.2,22.659a.812.812,0,0,1-.811.811H40.268c-.053-.543-.122-1.085-.219-1.622H51.391a.812.812,0,0,1,.811.811ZM43.9,20.25H39.65a3.4,3.4,0,0,0-1.563-2.142V13.942l3.654-.96ZM18.371,12.982,27.1,15.274a11.708,11.708,0,0,0,5.915,0l3.475-.913v3.747a3.4,3.4,0,0,0-1.563,2.142H16.212ZM9.257,29.769A4.618,4.618,0,0,1,7.91,26.453a4.7,4.7,0,0,1,4.71-4.6H34.527c-.1.537-.167,1.079-.219,1.622H12.56a3.028,3.028,0,0,0,0,6.056H51.391a.812.812,0,0,1,0,1.622H12.56a4.617,4.617,0,0,1-3.3-1.38ZM4.714,33.558a.812.812,0,0,1,.811-.811H50.748a4.65,4.65,0,1,1-.06,9.3H46.5a.8.8,0,0,0,0,1.6h8.089a.811.811,0,0,1,0,1.622h-37.3V43.645h25a.8.8,0,0,0,0-1.6h-25V40.425H50.748a3.028,3.028,0,0,0,0-6.056H5.525a.812.812,0,0,1-.811-.811Zm.811,8.489a.811.811,0,0,1,0-1.622h6.367v1.622Zm49.062,10.9H9.364a4.655,4.655,0,0,1-4.649-4.7,4.7,4.7,0,0,1,4.71-4.6h2.468v1.622H9.364a3.028,3.028,0,0,0,0,6.056H54.587A.811.811,0,0,1,54.587,52.945Z"/>
      </g>
    </g>
  </g>
</svg>
