<svg xmlns="http://www.w3.org/2000/svg" xmlns:xlink="http://www.w3.org/1999/xlink" width="97.533" height="97.533" viewBox="0 0 97.533 97.533">
  <defs>
    <filter id="Path_982547" x="0" y="0" width="97.533" height="97.533" filterUnits="userSpaceOnUse">
      <feOffset dy="3" input="SourceAlpha"/>
      <feGaussianBlur stdDeviation="3" result="blur"/>
      <feFlood flood-opacity="0.161"/>
      <feComposite operator="in" in2="blur"/>
      <feComposite in="SourceGraphic"/>
    </filter>
  </defs>
  <g id="Group_1206392" data-name="Group 1206392" transform="translate(-190 -10774.641)">
    <g id="Group_1206298" data-name="Group 1206298" transform="translate(0 87)">
      <g id="Group_1204178" data-name="Group 1204178" transform="translate(199 10693.641)">
        <g id="Group_1203357" data-name="Group 1203357" transform="translate(0)">
          <g id="Group_1202156" data-name="Group 1202156">
            <g id="Group_1177900" data-name="Group 1177900">
              <g id="Group_1172010" data-name="Group 1172010">
                <g id="Group_1171046" data-name="Group 1171046">
                  <g id="Group_1148525" data-name="Group 1148525">
                    <g transform="matrix(1, 0, 0, 1, -9, -6)" filter="url(#Path_982547)">
                      <g id="Path_982547-2" data-name="Path 982547" transform="translate(9 6)" fill="#fdfbec">
                        <path d="M 39.7666015625 78.033203125 C 34.59997940063477 78.033203125 29.58870124816895 77.02164459228516 24.87196731567383 75.02663421630859 C 20.31538963317871 73.099365234375 16.22284507751465 70.34000396728516 12.70802402496338 66.82518005371094 C 9.193202018737793 63.31035614013672 6.433835029602051 59.21781158447266 4.506568431854248 54.66123580932617 C 2.511557102203369 49.94449996948242 1.500001549720764 44.93322372436523 1.500001549720764 39.7666015625 C 1.500001549720764 34.59997940063477 2.511557102203369 29.58870124816895 4.506568431854248 24.87196731567383 C 6.433835029602051 20.31538963317871 9.193202018737793 16.22284507751465 12.70802402496338 12.70802402496338 C 16.22284507751465 9.193202018737793 20.31538963317871 6.433835029602051 24.87196731567383 4.506568431854248 C 29.58870124816895 2.511557102203369 34.59997940063477 1.500001549720764 39.7666015625 1.500001549720764 C 44.93322372436523 1.500001549720764 49.94449996948242 2.511557102203369 54.66123580932617 4.506568431854248 C 59.21781158447266 6.433835029602051 63.31035614013672 9.193202018737793 66.82518005371094 12.70802402496338 C 70.34000396728516 16.22284507751465 73.099365234375 20.31538963317871 75.02663421630859 24.87196731567383 C 77.02164459228516 29.58870124816895 78.033203125 34.59997940063477 78.033203125 39.7666015625 C 78.033203125 44.93322372436523 77.02164459228516 49.94449996948242 75.02663421630859 54.66123580932617 C 73.099365234375 59.21781158447266 70.34000396728516 63.31035614013672 66.82518005371094 66.82518005371094 C 63.31035614013672 70.34000396728516 59.21781158447266 73.099365234375 54.66123580932617 75.02663421630859 C 49.94449996948242 77.02164459228516 44.93322372436523 78.033203125 39.7666015625 78.033203125 Z" stroke="none"/>
                        <path d="M 39.7666015625 3 C 34.80181503295898 3 29.98714065551758 3.971687316894531 25.45630264282227 5.888076782226562 C 21.07851409912109 7.739715576171875 17.146240234375 10.39113616943359 13.76869201660156 13.76869201660156 C 10.39113616943359 17.146240234375 7.739715576171875 21.07851409912109 5.888076782226562 25.45630264282227 C 3.971687316894531 29.98714065551758 3 34.80181503295898 3 39.7666015625 C 3 44.73138809204102 3.971687316894531 49.54606628417969 5.888076782226562 54.076904296875 C 7.739715576171875 58.45468902587891 10.39113616943359 62.386962890625 13.76869201660156 65.76451110839844 C 17.146240234375 69.14206695556641 21.07851409912109 71.79348754882812 25.45630264282227 73.64512634277344 C 29.98714065551758 75.56151580810547 34.80181503295898 76.533203125 39.7666015625 76.533203125 C 44.73138809204102 76.533203125 49.54606628417969 75.56151580810547 54.076904296875 73.64512634277344 C 58.45468902587891 71.79348754882812 62.386962890625 69.14206695556641 65.76451110839844 65.76451110839844 C 69.14206695556641 62.386962890625 71.79348754882812 58.45468902587891 73.64512634277344 54.076904296875 C 75.56151580810547 49.54606628417969 76.533203125 44.73138809204102 76.533203125 39.7666015625 C 76.533203125 34.80181503295898 75.56151580810547 29.98714065551758 73.64512634277344 25.45630264282227 C 71.79348754882812 21.07851409912109 69.14206695556641 17.146240234375 65.76451110839844 13.76869201660156 C 62.386962890625 10.39113616943359 58.45468902587891 7.739715576171875 54.076904296875 5.888076782226562 C 49.54606628417969 3.971687316894531 44.73138809204102 3 39.7666015625 3 M 39.7666015625 0 C 61.72908782958984 0 79.533203125 17.80411529541016 79.533203125 39.7666015625 C 79.533203125 61.72908782958984 61.72908782958984 79.533203125 39.7666015625 79.533203125 C 17.80411529541016 79.533203125 0 61.72908782958984 0 39.7666015625 C 0 17.80411529541016 17.80411529541016 0 39.7666015625 0 Z" stroke="none" fill="#83793c"/>
                      </g>
                    </g>
                  </g>
                </g>
              </g>
            </g>
          </g>
        </g>
      </g>
      <g id="work_time" data-name="work time" transform="translate(211.845 10706.219)">
        <circle id="Ellipse_12682" data-name="Ellipse 12682" cx="15" cy="15" r="15" transform="translate(21 20.843)" fill="#ffdaaa"/>
        <path id="Path_1045235" data-name="Path 1045235" d="M57.784,39.953A14.953,14.953,0,0,1,42.831,54.906c-.274,0-.557-.008-.831-.025a14.953,14.953,0,0,0,0-29.856c.274-.017.557-.025.831-.025A14.953,14.953,0,0,1,57.784,39.953Z" transform="translate(-6.771 -3.894)" fill="#ffc477"/>
        <path id="Path_1045236" data-name="Path 1045236" d="M58.291,11.307l-1.645.407.872,1.454-2.351,2.351-1.454-.872-.407,1.645H49.984l-.407-1.645-1.454.872-2.351-2.351.872-1.454L45,11.307V7.984l1.645-.407-.872-1.454,2.351-2.351,1.454.872L49.984,3h3.323l.407,1.645,1.454-.872,2.351,2.351-.872,1.454,1.645.407Z" transform="translate(-7.279 -0.169)" fill="#c0ab91"/>
        <circle id="Ellipse_12683" data-name="Ellipse 12683" cx="2.5" cy="2.5" r="2.5" transform="translate(42 6.843)" fill="#ffde55"/>
        <path id="Path_1045237" data-name="Path 1045237" d="M27.456,20.246a10.871,10.871,0,0,1-.814,1.977l1.18,1.653,1.047,1.47-3.522,3.522-1.47-1.047-1.653-1.18a10.87,10.87,0,0,1-1.977.814l-.631,3.788H14.63L14,27.456a10.871,10.871,0,0,1-1.977-.814L8.9,28.868,5.376,25.346,7.6,22.223a12.06,12.06,0,0,1-.814-1.977L3,19.614V14.63L6.788,14A14.069,14.069,0,0,1,7.6,12.022L5.376,8.9,8.9,5.376,12.022,7.6A10.871,10.871,0,0,1,14,6.788L14.63,3h4.984l.631,3.788a10.871,10.871,0,0,1,1.977.814l3.123-2.226L28.868,8.9l-2.226,3.123A10.87,10.87,0,0,1,27.456,14l3.788.631v4.984Z" transform="translate(-0.169 -0.169)" fill="#57a4ff"/>
        <path id="Path_1045238" data-name="Path 1045238" d="M23.307,16.815l-4.154,9.138V20.138H15L19.154,11v5.815Z" transform="translate(-2.201 -1.524)" fill="#ffde55"/>
        <path id="Path_1045239" data-name="Path 1045239" d="M16.291,53.307l-1.645.407.872,1.454-2.351,2.351-1.454-.872-.407,1.645H7.984l-.407-1.645-1.454.872L3.773,55.168l.872-1.454L3,53.307V49.984l1.645-.407-.872-1.454,2.351-2.351,1.454.872L7.984,45h3.323l.407,1.645,1.454-.872,2.351,2.351-.872,1.454,1.645.407Z" transform="translate(-0.169 -7.279)" fill="#c0ab91"/>
        <circle id="Ellipse_12684" data-name="Ellipse 12684" cx="2.5" cy="2.5" r="2.5" transform="translate(7 41.843)" fill="#ffde55"/>
        <path id="Path_1045240" data-name="Path 1045240" d="M35.965,3.661H43V2H35.521a.831.831,0,0,0-.691.37L33.168,4.862l1.382.922Z" transform="translate(-5.276 0)"/>
        <path id="Path_1045241" data-name="Path 1045241" d="M26.032,59.567H19v1.661h7.476a.831.831,0,0,0,.691-.37l1.661-2.492-1.382-.922Z" transform="translate(-2.878 -9.386)"/>
        <path id="Path_1045242" data-name="Path 1045242" d="M36.059,20.276a15.6,15.6,0,0,0-8.188,2.309l-.431-.6a11.714,11.714,0,0,0,.483-1.169l3.29-.548a.831.831,0,0,0,.694-.819V14.461a.831.831,0,0,0-.694-.819l-3.29-.548a11.713,11.713,0,0,0-.483-1.169l1.937-2.712a.831.831,0,0,0-.089-1.07L25.763,4.618a.831.831,0,0,0-1.07-.089L21.981,6.466a11.713,11.713,0,0,0-1.169-.478L20.264,2.7a.831.831,0,0,0-.819-.7H14.461a.831.831,0,0,0-.819.694l-.548,3.29a11.713,11.713,0,0,0-1.169.483L9.212,4.529a.831.831,0,0,0-1.07.089L4.618,8.142a.831.831,0,0,0-.089,1.07l1.946,2.725A11.01,11.01,0,0,0,6,13.091l-3.305.551A.831.831,0,0,0,2,14.461v4.984a.831.831,0,0,0,.694.819l3.3.551a12.336,12.336,0,0,0,.468,1.163L4.529,24.693a.831.831,0,0,0,.089,1.07l3.525,3.525a.831.831,0,0,0,1.07.089l2.712-1.937a11.713,11.713,0,0,0,1.169.483l.548,3.29a.831.831,0,0,0,.819.694h4.984a.831.831,0,0,0,.819-.694l.548-3.29a11.713,11.713,0,0,0,1.169-.483l.6.431a15.6,15.6,0,0,0-2.309,8.188A15.784,15.784,0,1,0,36.059,20.276Zm-14.4,5.464a9.94,9.94,0,0,1-1.828.754.831.831,0,0,0-.582.659l-.511,3.092H15.164l-.515-3.092a.831.831,0,0,0-.581-.659,9.94,9.94,0,0,1-1.828-.754.831.831,0,0,0-.876.056l-2.55,1.821L6.29,25.087l1.821-2.55a.831.831,0,0,0,.056-.876A11.225,11.225,0,0,1,7.4,19.8a.831.831,0,0,0-.645-.54l-3.093-.515V15.164l3.092-.515a.831.831,0,0,0,.645-.54,13.624,13.624,0,0,1,.787-1.9.831.831,0,0,0-.075-.839L6.29,8.818,8.818,6.29l2.55,1.821a.831.831,0,0,0,.876.056,9.94,9.94,0,0,1,1.828-.754.831.831,0,0,0,.581-.659l.511-3.092h3.577l.515,3.092a.831.831,0,0,0,.581.659,9.94,9.94,0,0,1,1.828.754.831.831,0,0,0,.876-.056l2.55-1.821L27.62,8.818,25.8,11.369a.831.831,0,0,0-.056.876,9.94,9.94,0,0,1,.754,1.828.831.831,0,0,0,.659.581l3.092.515v3.577l-3.092.515a.831.831,0,0,0-.659.581,9.94,9.94,0,0,1-.754,1.828.831.831,0,0,0,.056.876L27.62,25.1l-2.529,2.529L22.541,25.8a.831.831,0,0,0-.88-.064Zm15.229,24.4v-2.45H35.229v2.45A14.117,14.117,0,0,1,21.979,36.89h2.45V35.229H21.968a13.913,13.913,0,0,1,1.97-6.391l.755.539a.831.831,0,0,0,1.07-.089l3.525-3.525a.831.831,0,0,0,.089-1.07l-.539-.755a13.913,13.913,0,0,1,6.391-1.97v2.461H36.89v-2.45A14.117,14.117,0,0,1,50.139,35.229h-2.45V36.89h2.45A14.117,14.117,0,0,1,36.89,50.139Z" transform="translate(0 0)"/>
        <path id="Path_1045243" data-name="Path 1045243" d="M43.661,31H42v9.969a.831.831,0,0,0,.831.831h6.646V40.138H43.661Z" transform="translate(-6.771 -4.909)"/>
        <path id="Path_1045244" data-name="Path 1045244" d="M23.138,15.815H19.815V10.831a.831.831,0,0,0-1.587-.344l-4.154,9.138a.831.831,0,0,0,.756,1.175h3.323v4.984a.831.831,0,0,0,.655.812.851.851,0,0,0,.176.018.831.831,0,0,0,.756-.487l4.154-9.138a.831.831,0,0,0-.756-1.175Zm-3.323,6.133v-1.98a.831.831,0,0,0-.831-.831H16.121l2.033-4.472v1.98a.831.831,0,0,0,.831.831h2.863Z" transform="translate(-2.031 -1.354)"/>
        <path id="Path_1045245" data-name="Path 1045245" d="M19,6h1.661V7.661H19Z" transform="translate(-2.878 -0.677)"/>
        <path id="Path_1045246" data-name="Path 1045246" d="M0,0H1.661V1.661H0Z" transform="translate(8.14 9.317) rotate(-45)"/>
        <path id="Path_1045247" data-name="Path 1045247" d="M6,19H7.661v1.661H6Z" transform="translate(-0.677 -2.878)"/>
        <path id="Path_1045248" data-name="Path 1045248" d="M0,0H1.661V1.661H0Z" transform="translate(8.138 24.587) rotate(-45)"/>
        <path id="Path_1045249" data-name="Path 1045249" d="M19,32h1.661v1.661H19Z" transform="translate(-2.878 -5.079)"/>
        <path id="Path_1045250" data-name="Path 1045250" d="M0,0H1.661V1.661H0Z" transform="translate(23.409 24.589) rotate(-45)"/>
        <path id="Path_1045251" data-name="Path 1045251" d="M32,19h1.661v1.661H32Z" transform="translate(-5.079 -2.878)"/>
        <path id="Path_1045252" data-name="Path 1045252" d="M0,0H1.661V1.661H0Z" transform="translate(23.411 9.319) rotate(-45)"/>
        <path id="Path_1045253" data-name="Path 1045253" d="M52.323,7a3.323,3.323,0,1,0,3.323,3.323A3.323,3.323,0,0,0,52.323,7Zm0,4.984a1.661,1.661,0,1,1,1.661-1.661A1.661,1.661,0,0,1,52.323,11.984Z" transform="translate(-7.956 -0.846)"/>
        <path id="Path_1045254" data-name="Path 1045254" d="M58.324,7.009l-.556-.139.295-.491a.831.831,0,0,0-.125-1.015L55.588,3.015a.831.831,0,0,0-1.015-.125l-.491.295-.139-.556A.831.831,0,0,0,53.138,2H49.815a.831.831,0,0,0-.806.629l-.139.556L48.38,2.89a.831.831,0,0,0-1.015.125L45.015,5.364A.831.831,0,0,0,44.89,6.38l.295.491-.556.139A.831.831,0,0,0,44,7.815v3.323a.831.831,0,0,0,.629.806l.556.139-.295.491a.831.831,0,0,0,.125,1.015l2.349,2.349a.831.831,0,0,0,1.015.125l.491-.295.139.556a.831.831,0,0,0,.806.629h3.323a.831.831,0,0,0,.806-.629l.139-.556.491.295a.831.831,0,0,0,1.015-.125l2.349-2.349a.831.831,0,0,0,.125-1.015l-.295-.491.556-.139a.831.831,0,0,0,.629-.806V7.815a.831.831,0,0,0-.629-.806Zm-1.033,3.48-1.014.249a.831.831,0,0,0-.51,1.234l.537.9L54.872,14.3l-.9-.537a.831.831,0,0,0-1.234.51l-.253,1.018H50.464l-.249-1.014a.831.831,0,0,0-1.234-.51l-.9.537-1.432-1.432.537-.9a.831.831,0,0,0-.51-1.234l-1.018-.253V8.464l1.014-.249a.831.831,0,0,0,.51-1.234l-.537-.9L48.08,4.652l.9.537a.831.831,0,0,0,1.234-.511l.249-1.013h2.025l.249,1.013a.831.831,0,0,0,1.234.511l.9-.537L56.3,6.085l-.537.9a.831.831,0,0,0,.51,1.234l1.014.249Z" transform="translate(-7.11)"/>
        <path id="Path_1045255" data-name="Path 1045255" d="M10.323,49a3.323,3.323,0,1,0,3.323,3.323A3.323,3.323,0,0,0,10.323,49Zm0,4.984a1.661,1.661,0,1,1,1.661-1.661A1.661,1.661,0,0,1,10.323,53.984Z" transform="translate(-0.846 -7.956)"/>
        <path id="Path_1045256" data-name="Path 1045256" d="M16.063,54.573l-.295-.491.556-.139a.831.831,0,0,0,.629-.806V49.815a.831.831,0,0,0-.629-.806l-.556-.139.295-.491a.831.831,0,0,0-.125-1.015l-2.349-2.349a.831.831,0,0,0-1.015-.125l-.491.295-.139-.556A.831.831,0,0,0,11.138,44H7.815a.831.831,0,0,0-.806.629l-.139.556L6.38,44.89a.831.831,0,0,0-1.015.125L3.015,47.364A.831.831,0,0,0,2.89,48.38l.295.491-.556.139A.831.831,0,0,0,2,49.815v3.323a.831.831,0,0,0,.629.806l.556.139-.295.491a.831.831,0,0,0,.125,1.015l2.349,2.349a.831.831,0,0,0,1.015.125l.491-.295.139.556a.831.831,0,0,0,.806.629h3.323a.831.831,0,0,0,.806-.629l.139-.556.491.295a.831.831,0,0,0,1.015-.125l2.349-2.349a.831.831,0,0,0,.125-1.015Zm-.772-2.084-1.014.249a.831.831,0,0,0-.51,1.234l.537.9L12.872,56.3l-.9-.537a.831.831,0,0,0-1.234.51l-.253,1.018H8.464l-.249-1.014a.831.831,0,0,0-1.234-.51l-.9.537L4.648,54.872l.537-.9a.831.831,0,0,0-.51-1.234l-1.014-.253V50.464l1.014-.249a.831.831,0,0,0,.51-1.234l-.537-.9L6.08,46.652l.9.537a.831.831,0,0,0,1.234-.511l.249-1.013h2.025l.249,1.013a.831.831,0,0,0,1.234.511l.9-.537L14.3,48.085l-.537.9a.831.831,0,0,0,.51,1.234l1.014.249Z" transform="translate(0 -7.11)"/>
      </g>
    </g>
  </g>
</svg>
