<svg xmlns="http://www.w3.org/2000/svg" xmlns:xlink="http://www.w3.org/1999/xlink" width="108" height="108" viewBox="0 0 108 108">
  <defs>
    <filter id="Path_904820" x="0" y="0" width="108" height="108" filterUnits="userSpaceOnUse">
      <feOffset dy="3" input="SourceAlpha"/>
      <feGaussianBlur stdDeviation="3" result="blur"/>
      <feFlood flood-opacity="0.161"/>
      <feComposite operator="in" in2="blur"/>
      <feComposite in="SourceGraphic"/>
    </filter>
  </defs>
  <g id="Group_1206338" data-name="Group 1206338" transform="translate(-166 -3243.9)">
    <g id="Group_1206141" data-name="Group 1206141" transform="translate(0 37.4)">
      <g id="Group_1203796" data-name="Group 1203796" transform="translate(0 21.5)">
        <g id="Group_1203172" data-name="Group 1203172" transform="translate(0 561)">
          <g id="Group_1202793" data-name="Group 1202793" transform="translate(175 2630)">
            <g id="Group_1178315" data-name="Group 1178315" transform="translate(0 0)">
              <g id="Group_1173585" data-name="Group 1173585" transform="translate(0)">
                <g id="Group_1173428" data-name="Group 1173428">
                  <g id="Group_1171958" data-name="Group 1171958">
                    <g id="Group_1167341" data-name="Group 1167341">
                      <g id="Group_1166792" data-name="Group 1166792">
                        <g transform="matrix(1, 0, 0, 1, -9, -6)" filter="url(#Path_904820)">
                          <g id="Path_904820-2" data-name="Path 904820" transform="translate(9 6)" fill="#ebe9f0">
                            <path d="M 44.99999618530273 88.49999237060547 C 39.12687301635742 88.49999237060547 33.43022155761719 87.35006713867188 28.06829643249512 85.08216857910156 C 22.88852119445801 82.89130401611328 18.23629570007324 79.75457763671875 14.24084663391113 75.75914001464844 C 10.24540901184082 71.76369476318359 7.108683586120605 67.11146545410156 4.917821407318115 61.93169403076172 C 2.649921178817749 56.56976699829102 1.499996185302734 50.87311553955078 1.499996185302734 44.99999237060547 C 1.499996185302734 39.12686920166016 2.649921178817749 33.43021774291992 4.917821407318115 28.06829261779785 C 7.108683586120605 22.88851737976074 10.24540901184082 18.23630523681641 14.24084663391113 14.24085521697998 C 18.23629570007324 10.24540519714355 22.88852119445801 7.108692169189453 28.06829643249512 4.917829990386963 C 33.43022155761719 2.649929761886597 39.12687301635742 1.500004887580872 44.99999618530273 1.500004887580872 C 50.87311935424805 1.500004887580872 56.56977081298828 2.649929761886597 61.93169784545898 4.917829990386963 C 67.11147308349609 7.108692169189453 71.76369476318359 10.24540519714355 75.75914764404297 14.24085521697998 C 79.75458526611328 18.23630523681641 82.89131164550781 22.88851737976074 85.08216857910156 28.06829261779785 C 87.35007476806641 33.43021774291992 88.5 39.12686920166016 88.5 44.99999237060547 C 88.5 50.87311553955078 87.35007476806641 56.56976699829102 85.08216857910156 61.93169403076172 C 82.89131164550781 67.11146545410156 79.75458526611328 71.76369476318359 75.75914764404297 75.75914001464844 C 71.76369476318359 79.75457763671875 67.11147308349609 82.89130401611328 61.93169784545898 85.08216857910156 C 56.56977081298828 87.35006713867188 50.87311935424805 88.49999237060547 44.99999618530273 88.49999237060547 Z" stroke="none"/>
                            <path d="M 44.99999618530273 2.999992370605469 C 39.32870864868164 2.999992370605469 33.82865142822266 4.11004638671875 28.65262603759766 6.299331665039062 C 23.65165710449219 8.414566040039062 19.15968322753906 11.44333648681641 15.301513671875 15.30150604248047 C 11.44333648681641 19.15967559814453 8.414566040039062 23.65164947509766 6.299339294433594 28.65262222290039 C 4.110054016113281 33.82864761352539 2.999992370605469 39.32870483398438 2.999992370605469 44.99999237060547 C 2.999992370605469 50.67127990722656 4.110054016113281 56.17132186889648 6.299339294433594 61.34736633300781 C 8.414566040039062 66.34833526611328 11.44333648681641 70.84029388427734 15.301513671875 74.69846343994141 C 19.15968322753906 78.55663299560547 23.65165710449219 81.58540344238281 28.65262603759766 83.70063781738281 C 33.82865142822266 85.88992309570312 39.32870864868164 86.99997711181641 44.99999618530273 86.99997711181641 C 50.67128372192383 86.99997711181641 56.17134094238281 85.88992309570312 61.34736633300781 83.70063781738281 C 66.34834289550781 81.58540344238281 70.84030914306641 78.55663299560547 74.69847869873047 74.69846343994141 C 78.55665588378906 70.84029388427734 81.58542633056641 66.34833526611328 83.70065307617188 61.34736633300781 C 85.88993835449219 56.17132186889648 87 50.67127990722656 87 44.99999237060547 C 87 39.32870483398438 85.88993835449219 33.82864761352539 83.70065307617188 28.65262222290039 C 81.58542633056641 23.65164947509766 78.55665588378906 19.15967559814453 74.69847869873047 15.30150604248047 C 70.84030914306641 11.44333648681641 66.34834289550781 8.414566040039062 61.34736633300781 6.299331665039062 C 56.17134094238281 4.11004638671875 50.67128372192383 2.999992370605469 44.99999618530273 2.999992370605469 M 44.99999618530273 -7.62939453125e-06 C 69.85281372070312 -7.62939453125e-06 90 20.14717864990234 90 44.99999237060547 C 90 69.85279083251953 69.85281372070312 89.99997711181641 44.99999618530273 89.99997711181641 C 20.14717864990234 89.99997711181641 -7.62939453125e-06 69.85279083251953 -7.62939453125e-06 44.99999237060547 C -7.62939453125e-06 20.14717864990234 20.14717864990234 -7.62939453125e-06 44.99999618530273 -7.62939453125e-06 Z" stroke="none" fill="#c6c0d6"/>
                          </g>
                        </g>
                      </g>
                    </g>
                  </g>
                </g>
              </g>
            </g>
          </g>
        </g>
      </g>
      <g id="aprender-en-linea" transform="translate(191.141 3212.095)">
        <g id="Group_1206139" data-name="Group 1206139" transform="translate(0.845 20.058)">
          <path id="Path_1044487" data-name="Path 1044487" d="M176.578,381.041v3.449a3.88,3.88,0,0,1-1.67,3.236L172.4,389.4h18.849l-2.507-1.673a3.88,3.88,0,0,1-1.67-3.236v-3.449Z" transform="translate(-153.81 -341.099)" fill="#b1dbfc"/>
          <path id="Path_1044488" data-name="Path 1044488" d="M176.577,381.04v3.449a3.88,3.88,0,0,1-1.67,3.236L172.4,389.4h6.084l.053-.035a3.88,3.88,0,0,0,1.67-3.236v-2.388a1.061,1.061,0,0,1,1.061-1.061h5.8V381.04H176.577Z" transform="translate(-153.81 -341.098)" fill="#8bcaff"/>
          <path id="Path_1044489" data-name="Path 1044489" d="M170.32,454.111H147.961a1.127,1.127,0,0,0-1.127,1.127V456.5a1.127,1.127,0,0,0,1.127,1.127H170.32a1.127,1.127,0,0,0,1.127-1.127v-1.262A1.127,1.127,0,0,0,170.32,454.111Z" transform="translate(-131.127 -405.931)" fill="#dfebfa"/>
          <path id="Path_1044490" data-name="Path 1044490" d="M153.081,456.5v-1.262a1.127,1.127,0,0,1,1.127-1.127h-6.247a1.127,1.127,0,0,0-1.127,1.127V456.5a1.127,1.127,0,0,0,1.127,1.127h6.247a1.127,1.127,0,0,1-1.127-1.127Z" transform="translate(-131.127 -405.931)" fill="#b1dbfc"/>
          <g id="Group_1206135" data-name="Group 1206135" transform="translate(0 0)">
            <g id="Group_1206134" data-name="Group 1206134">
              <path id="Path_1044491" data-name="Path 1044491" d="M60.278,26.727H10.748A3.253,3.253,0,0,0,7.5,29.976V63.569a3.253,3.253,0,0,0,3.249,3.249h49.53a3.253,3.253,0,0,0,3.249-3.249V29.976a3.253,3.253,0,0,0-3.249-3.249Z" transform="translate(-7.499 -26.727)" fill="#695d67"/>
            </g>
          </g>
          <path id="Path_1044492" data-name="Path 1044492" d="M11.257,63.568V29.975a3.253,3.253,0,0,1,3.249-3.249H10.748A3.253,3.253,0,0,0,7.5,29.975V63.568a3.253,3.253,0,0,0,3.249,3.249h3.758A3.253,3.253,0,0,1,11.257,63.568Z" transform="translate(-7.499 -26.726)" fill="#554e56"/>
          <g id="Group_1206136" data-name="Group 1206136" transform="translate(3.517 7.472)">
            <path id="Path_1044493" data-name="Path 1044493" d="M38.695,93.011v28.635a.467.467,0,0,0,.467.467H87.222a.467.467,0,0,0,.467-.467V93.011Z" transform="translate(-38.695 -93.011)" fill="#dfebfa"/>
          </g>
          <path id="Path_1044494" data-name="Path 1044494" d="M42.077,121.646V93.011H38.695v28.635a.467.467,0,0,0,.467.467h3.382A.467.467,0,0,1,42.077,121.646Z" transform="translate(-35.178 -85.539)" fill="#b1dbfc"/>
          <path id="Path_1044495" data-name="Path 1044495" d="M126.293,57.923H82.73V62.1h44.03V58.39A.467.467,0,0,0,126.293,57.923Z" transform="translate(-74.249 -54.406)" fill="#5cb3f8"/>
          <path id="Path_1044496" data-name="Path 1044496" d="M43.772,57.923H39.162a.467.467,0,0,0-.467.467V62.1h5.077Z" transform="translate(-35.178 -54.406)" fill="#ff656f"/>
          <path id="Path_1044497" data-name="Path 1044497" d="M42.545,57.923H39.162a.467.467,0,0,0-.467.467V62.1h3.382V58.39A.467.467,0,0,1,42.545,57.923Z" transform="translate(-35.178 -54.406)" fill="#ff4756"/>
          <path id="Path_1044498" data-name="Path 1044498" d="M177.983,209.438a2.217,2.217,0,0,1-1.987,0l-8.742-4.38v6.687a2.078,2.078,0,0,0,.36.252,19.794,19.794,0,0,0,18.752,0,2.078,2.078,0,0,0,.36-.252v-6.687Z" transform="translate(-149.245 -184.954)" fill="#6e60b8"/>
          <path id="Path_1044499" data-name="Path 1044499" d="M171.319,207.1l-4.066-2.037v6.687a2.078,2.078,0,0,0,.36.252,19.708,19.708,0,0,0,3.707,1.533V207.1Z" transform="translate(-149.244 -184.954)" fill="#6353b2"/>
          <path id="Path_1044500" data-name="Path 1044500" d="M186.366,261.632a19.794,19.794,0,0,1-18.752,0,2.084,2.084,0,0,1-.36-.252v2.29a2.013,2.013,0,0,0,1.042,1.777,18.353,18.353,0,0,0,17.387,0,2.014,2.014,0,0,0,1.042-1.777v-2.29A2.076,2.076,0,0,1,186.366,261.632Z" transform="translate(-149.245 -234.927)" fill="#9790cc"/>
          <path id="Path_1044501" data-name="Path 1044501" d="M171.318,263.166a19.706,19.706,0,0,1-3.707-1.533,2.078,2.078,0,0,1-.36-.252v2.29a2.014,2.014,0,0,0,1.042,1.777,18.285,18.285,0,0,0,3.024,1.294v-3.576Z" transform="translate(-149.243 -234.927)" fill="#8479c2"/>
          <path id="Path_1044502" data-name="Path 1044502" d="M156.074,124.958l-12.583-6.3a2.217,2.217,0,0,0-1.987,0l-12.583,6.3a.981.981,0,0,0,0,1.754l12.583,6.3a2.217,2.217,0,0,0,1.987,0l12.583-6.3A.981.981,0,0,0,156.074,124.958Z" transform="translate(-114.752 -108.082)" fill="#9790cc"/>
          <path id="Path_1044503" data-name="Path 1044503" d="M156.074,124.958l-12.583-6.3a2.217,2.217,0,0,0-1.987,0l-12.583,6.3a.981.981,0,0,0,0,1.754l12.583,6.3a2.217,2.217,0,0,0,1.987,0l12.583-6.3A.981.981,0,0,0,156.074,124.958Z" transform="translate(-114.752 -108.082)" fill="#9790cc"/>
          <path id="Path_1044504" data-name="Path 1044504" d="M145.592,170.3l-13.035-6.531a1.009,1.009,0,0,1-.538-1.115l-3.1,1.553a.981.981,0,0,0,0,1.754l12.583,6.3a2.217,2.217,0,0,0,1.987,0l3.494-1.751A2.3,2.3,0,0,1,145.592,170.3Z" transform="translate(-114.751 -147.331)" fill="#8479c2"/>
          <g id="Group_1206137" data-name="Group 1206137" transform="translate(39.539 28.527)">
            <path id="Path_1044505" data-name="Path 1044505" d="M362.843,283.815l-1-4.038a1.638,1.638,0,0,1-2.569,0l-1,4.038a1.217,1.217,0,0,0,1.178,1.526h2.212A1.218,1.218,0,0,0,362.843,283.815Z" transform="translate(-358.235 -279.777)" fill="#fec458"/>
          </g>
          <g id="Group_1206138" data-name="Group 1206138" transform="translate(39.539 28.527)">
            <path id="Path_1044506" data-name="Path 1044506" d="M360.306,283.815l.877-3.543a1.614,1.614,0,0,1-.622.126,1.646,1.646,0,0,1-1.284-.622l-1,4.038a1.217,1.217,0,0,0,1.178,1.526h2.029A1.218,1.218,0,0,1,360.306,283.815Z" transform="translate(-358.236 -279.777)" fill="#f9ab49"/>
          </g>
          <circle id="Ellipse_12667" data-name="Ellipse 12667" cx="1.657" cy="1.657" r="1.657" transform="translate(26.088 16.096)" fill="#8479c2"/>
          <circle id="Ellipse_12668" data-name="Ellipse 12668" cx="1.657" cy="1.657" r="1.657" transform="translate(40.206 26.059)" fill="#ffe181"/>
          <path id="Path_1044507" data-name="Path 1044507" d="M366.178,259.543a1.653,1.653,0,0,1,.643-1.309,1.657,1.657,0,1,0,0,2.617A1.653,1.653,0,0,1,366.178,259.543Z" transform="translate(-323.943 -231.826)" fill="#fec458"/>
        </g>
        <g id="Group_1206140" data-name="Group 1206140" transform="translate(0 19.211)">
          <path id="Path_1044508" data-name="Path 1044508" d="M53.625,19.211H4.094A4.1,4.1,0,0,0,0,23.305V56.9a4.1,4.1,0,0,0,4.094,4.094H22.767v2.455a3.052,3.052,0,0,1-1.294,2.533l-2.113,1.41H17.68a1.975,1.975,0,0,0-1.973,1.973v1.262A1.975,1.975,0,0,0,17.68,72.6h9.206a.845.845,0,1,0,0-1.691H17.68a.282.282,0,0,1-.282-.282V69.364a.282.282,0,0,1,.282-.282H40.039a.282.282,0,0,1,.282.282v1.262a.282.282,0,0,1-.282.282H30.832a.845.845,0,1,0,0,1.691h9.207a1.975,1.975,0,0,0,1.973-1.973V69.364a1.975,1.975,0,0,0-1.973-1.973h-1.68l-2.113-1.41a3.052,3.052,0,0,1-1.294-2.533V60.993H53.624A4.1,4.1,0,0,0,57.719,56.9V23.305a4.1,4.1,0,0,0-4.094-4.094ZM35.307,67.388l0,0h-12.9l0,0a4.7,4.7,0,0,0,2.047-3.94V60.993h8.8v2.455a4.7,4.7,0,0,0,2.046,3.94ZM56.028,56.9a2.406,2.406,0,0,1-2.4,2.4H4.094a2.406,2.406,0,0,1-2.4-2.4V23.305a2.406,2.406,0,0,1,2.4-2.4h49.53a2.406,2.406,0,0,1,2.4,2.4Z" transform="translate(0 -19.211)"/>
          <path id="Path_1044509" data-name="Path 1044509" d="M81.882,51.72a1.314,1.314,0,0,0-1.313-1.313H32.51A1.314,1.314,0,0,0,31.2,51.72V83.842a1.314,1.314,0,0,0,1.313,1.313H80.569a1.314,1.314,0,0,0,1.313-1.313V69.754a.845.845,0,0,0-1.691,0v13.71h-47.3V56.279h47.3v9.53a.845.845,0,0,0,1.691,0c0-.424,0-13.865,0-14.089ZM36.274,54.588H32.888V52.1h3.386Zm43.918,0H37.965V52.1H80.191v2.49Z" transform="translate(-27.68 -46.89)"/>
          <path id="Path_1044510" data-name="Path 1044510" d="M148.86,136.364h2.212a2.062,2.062,0,0,0,2-2.586h0l-.9-3.441a2.5,2.5,0,0,0-1.354-3.549V119.18a1.817,1.817,0,0,0-1.008-1.633h0l-12.583-6.3a3.078,3.078,0,0,0-2.744,0l-12.583,6.3a1.827,1.827,0,0,0,0,3.266l3.374,1.691v7.667a2.852,2.852,0,0,0,1.487,2.521,19.207,19.207,0,0,0,18.189,0,2.852,2.852,0,0,0,1.487-2.521V122.5l2.691-1.348v5.633a2.5,2.5,0,0,0-1.354,3.549l-.9,3.441A2.062,2.062,0,0,0,148.86,136.364Zm-4.122-6.193a1.163,1.163,0,0,1-.6,1.033,17.515,17.515,0,0,1-16.584,0,1.163,1.163,0,0,1-.6-1.033v-.843a20.654,20.654,0,0,0,17.78,0Zm0-2.739a18.947,18.947,0,0,1-17.78,0v-4.081l7.518,3.767a3.08,3.08,0,0,0,2.744,0h0l7.518-3.767v4.081Zm-8.89-10.754a2.5,2.5,0,1,0,2.356,3.349h9.4l-11.137,5.58a1.379,1.379,0,0,1-1.229,0l-12.583-6.3a.134.134,0,0,1,0-.242l12.583-6.3a1.379,1.379,0,0,1,1.229,0l11.137,5.58h-9.4A2.507,2.507,0,0,0,135.848,116.677Zm.812,2.5a.812.812,0,1,1-.812-.812A.813.813,0,0,1,136.66,119.18Zm13.306,9.151a.813.813,0,0,1,.812.812.812.812,0,1,1-1.624,0A.813.813,0,0,1,149.967,128.331Zm-1.466,5.875.7-2.68a2.5,2.5,0,0,0,1.527,0l.7,2.68h0a.372.372,0,0,1-.36.466H148.86A.372.372,0,0,1,148.5,134.206Z" transform="translate(-107.258 -100.581)"/>
        </g>
      </g>
    </g>
  </g>
</svg>
