<svg xmlns="http://www.w3.org/2000/svg" xmlns:xlink="http://www.w3.org/1999/xlink" width="106.16" height="106.16" viewBox="0 0 106.16 106.16">
  <defs>
    <filter id="Path_982547" x="0" y="0" width="106.16" height="106.16" filterUnits="userSpaceOnUse">
      <feOffset dy="3" input="SourceAlpha"/>
      <feGaussianBlur stdDeviation="3" result="blur"/>
      <feFlood flood-opacity="0.161"/>
      <feComposite operator="in" in2="blur"/>
      <feComposite in="SourceGraphic"/>
    </filter>
  </defs>
  <g id="Group_1206350" data-name="Group 1206350" transform="translate(-194.75 -1237.804)">
    <g id="Group_1206155" data-name="Group 1206155" transform="translate(0 8)">
      <g id="Group_1203806" data-name="Group 1203806" transform="translate(-0.25 -641.196)">
        <g id="Group_1203391" data-name="Group 1203391">
          <g id="Group_1202420" data-name="Group 1202420" transform="translate(-77 465.997)">
            <g id="Group_1177900" data-name="Group 1177900" transform="translate(281 1411.003)">
              <g id="Group_1172010" data-name="Group 1172010" transform="translate(0)">
                <g id="Group_1171046" data-name="Group 1171046">
                  <g id="Group_1148525" data-name="Group 1148525">
                    <g transform="matrix(1, 0, 0, 1, -9, -6)" filter="url(#Path_982547)">
                      <g id="Path_982547-2" data-name="Path 982547" transform="translate(9 6)" fill="#fdfbec">
                        <path d="M 44.0802001953125 86.660400390625 C 38.33124923706055 86.660400390625 32.75506210327148 85.53479766845703 27.50652503967285 83.31484985351562 C 22.43628692626953 81.17032623291016 17.88242530822754 78.09992218017578 13.97144985198975 74.18894958496094 C 10.06047534942627 70.27797698974609 6.99007511138916 65.72411346435547 4.845550060272217 60.65387344360352 C 2.625600099563599 55.40533828735352 1.500000238418579 49.82915115356445 1.500000238418579 44.0802001953125 C 1.500000238418579 38.33124923706055 2.625600099563599 32.75506210327148 4.845550060272217 27.50652503967285 C 6.99007511138916 22.43628692626953 10.06047534942627 17.88242530822754 13.97144985198975 13.97144985198975 C 17.88242530822754 10.06047534942627 22.43628692626953 6.99007511138916 27.50652503967285 4.845550060272217 C 32.75506210327148 2.625600099563599 38.33124923706055 1.500000238418579 44.0802001953125 1.500000238418579 C 49.82915115356445 1.500000238418579 55.40533828735352 2.625600099563599 60.65387344360352 4.845550060272217 C 65.72411346435547 6.99007511138916 70.27797698974609 10.06047534942627 74.18894958496094 13.97144985198975 C 78.09992218017578 17.88242530822754 81.17032623291016 22.43628692626953 83.31484985351562 27.50652503967285 C 85.53479766845703 32.75506210327148 86.660400390625 38.33124923706055 86.660400390625 44.0802001953125 C 86.660400390625 49.82915115356445 85.53479766845703 55.40533828735352 83.31484985351562 60.65387344360352 C 81.17032623291016 65.72411346435547 78.09992218017578 70.27797698974609 74.18894958496094 74.18894958496094 C 70.27797698974609 78.09992218017578 65.72411346435547 81.17032623291016 60.65387344360352 83.31484985351562 C 55.40533828735352 85.53479766845703 49.82915115356445 86.660400390625 44.0802001953125 86.660400390625 Z" stroke="none"/>
                        <path d="M 44.0802001953125 3 C 38.53308486938477 3 33.15349960327148 4.085746765136719 28.09085845947266 6.227058410644531 C 23.19941711425781 8.29595947265625 18.80581665039062 11.25841522216797 15.03211212158203 15.03211212158203 C 11.25841522216797 18.80581665039062 8.29595947265625 23.19941711425781 6.227058410644531 28.09085845947266 C 4.085746765136719 33.15349960327148 3 38.53308486938477 3 44.0802001953125 C 3 49.62731552124023 4.085746765136719 55.00691604614258 6.227058410644531 60.06954193115234 C 8.29595947265625 64.96098327636719 11.25841522216797 69.35458374023438 15.03211212158203 73.12828826904297 C 18.80581665039062 76.90198516845703 23.19941711425781 79.86444091796875 28.09085845947266 81.93334197998047 C 33.15349960327148 84.07466125488281 38.53308486938477 85.160400390625 44.0802001953125 85.160400390625 C 49.62731552124023 85.160400390625 55.00691604614258 84.07466125488281 60.06954193115234 81.93334197998047 C 64.96099853515625 79.86444091796875 69.35458374023438 76.90198516845703 73.12828826904297 73.12828826904297 C 76.90198516845703 69.35458374023438 79.86444091796875 64.96099853515625 81.93334197998047 60.06954193115234 C 84.07466125488281 55.00691604614258 85.160400390625 49.62731552124023 85.160400390625 44.0802001953125 C 85.160400390625 38.53308486938477 84.07466125488281 33.15349960327148 81.93334197998047 28.09085845947266 C 79.86444091796875 23.19941711425781 76.90198516845703 18.80581665039062 73.12828826904297 15.03211212158203 C 69.35458374023438 11.25841522216797 64.96098327636719 8.29595947265625 60.06954193115234 6.227058410644531 C 55.00691604614258 4.085746765136719 49.62731552124023 3 44.0802001953125 3 M 44.0802001953125 0 C 68.42502593994141 0 88.160400390625 19.73538970947266 88.160400390625 44.0802001953125 C 88.160400390625 68.42502593994141 68.42502593994141 88.160400390625 44.0802001953125 88.160400390625 C 19.73538970947266 88.160400390625 0 68.42502593994141 0 44.0802001953125 C 0 19.73538970947266 19.73538970947266 0 44.0802001953125 0 Z" stroke="none" fill="#83793c"/>
                      </g>
                    </g>
                  </g>
                </g>
              </g>
            </g>
          </g>
        </g>
      </g>
      <g id="analisis" transform="translate(185.189 1240.323)">
        <g id="Group_1206154" data-name="Group 1206154" transform="translate(43.067 17.27)">
          <g id="Group_1206152" data-name="Group 1206152" transform="translate(0)">
            <path id="Path_1044542" data-name="Path 1044542" d="M204.438,444.523h-8.617v3.965a2.622,2.622,0,0,0,2.614,2.614h3.392a2.621,2.621,0,0,0,2.611-2.614Z" transform="translate(-183.96 -397.77)" fill="#b1b1b5" fill-rule="evenodd"/>
            <path id="Path_1044543" data-name="Path 1044543" d="M174.8,405.449l.06,3.83a2.636,2.636,0,0,0,2.614,2.614h8.752a2.607,2.607,0,0,0,2.611-2.614l-.057-3.83C184.215,405.594,179.393,405.449,174.8,405.449Z" transform="translate(-165.677 -363.789)" fill="#d1d1d6" fill-rule="evenodd"/>
            <path id="Path_1044544" data-name="Path 1044544" d="M130.5,123.45c.772-13.165,6.478-12.632,6.478-21.564a16.082,16.082,0,1,0-32.165,0c0,8.932,5.7,8.4,6.478,21.564.346,2.6,1.83,3.187,2.69,3.187C126.785,126.637,129.053,127.9,130.5,123.45Z" transform="translate(-104.818 -85.802)" fill="#ffe177" fill-rule="evenodd"/>
            <path id="Path_1044545" data-name="Path 1044545" d="M231.86,123.45c.772-13.165,6.478-12.632,6.478-21.564A16.084,16.084,0,0,0,222.254,85.8c-.3,0-.6.01-.891.025a16.087,16.087,0,0,1,15.19,16.059c0,8.932-5.707,8.4-6.482,21.564-.86,2.642-2.009,3.272-5.48,3.345C229.485,126.867,230.865,126.5,231.86,123.45Z" transform="translate(-206.173 -85.802)" fill="#ffd064" fill-rule="evenodd"/>
            <path id="Path_1044546" data-name="Path 1044546" d="M248.741,411.893h1.789a2.607,2.607,0,0,0,2.611-2.614l-.057-3.83c-.592.019-1.187.032-1.786.044l.057,3.786A2.608,2.608,0,0,1,248.741,411.893Z" transform="translate(-229.983 -363.789)" fill="#b1b1b5" fill-rule="evenodd"/>
            <path id="Path_1044547" data-name="Path 1044547" d="M154.524,374.664v2.614a2.622,2.622,0,0,0,2.614,2.614h13.98a2.622,2.622,0,0,0,2.614-2.614v-2.614Z" transform="translate(-148.046 -337.016)" fill="#eceff1" fill-rule="evenodd"/>
            <path id="Path_1044548" data-name="Path 1044548" d="M268.121,379.892h1.789a2.622,2.622,0,0,0,2.614-2.614v-2.614h-1.789v2.614A2.62,2.62,0,0,1,268.121,379.892Z" transform="translate(-246.837 -337.016)" fill="#d1d1d6" fill-rule="evenodd"/>
          </g>
          <g id="Group_1206153" data-name="Group 1206153" transform="translate(7.214 6.632)">
            <path id="Path_1044549" data-name="Path 1044549" d="M333.321,299.192a14.1,14.1,0,0,1-2.39,2.634l6.5,6.372,2.475-2.551Z" transform="translate(-308.675 -278.013)" fill="#a79ba7" fill-rule="evenodd"/>
            <path id="Path_1044550" data-name="Path 1044550" d="M344.882,298.864a1.635,1.635,0,0,1-.709.948l6.458,6.417.792-.868Z" transform="translate(-320.191 -277.727)" fill="#837683" fill-rule="evenodd"/>
            <path id="Path_1044551" data-name="Path 1044551" d="M377.681,347.973l2.792-2.88a1.285,1.285,0,0,0-.026-1.811l-7.738-7.508a1.285,1.285,0,0,0-1.811.029l-2.793,2.878a1.285,1.285,0,0,0,.026,1.811L375.87,348A1.285,1.285,0,0,0,377.681,347.973Z" transform="translate(-340.691 -309.514)" fill="#f1ba84" fill-rule="evenodd"/>
            <path id="Path_1044552" data-name="Path 1044552" d="M394.914,335.776l7.738,7.508a1.285,1.285,0,0,1,.026,1.811l-2.793,2.88a1.3,1.3,0,0,1-.346.251,1.286,1.286,0,0,0,1.491-.251l2.793-2.88a1.285,1.285,0,0,0-.026-1.811l-7.738-7.508a1.288,1.288,0,0,0-1.465-.225A1.287,1.287,0,0,1,394.914,335.776Z" transform="translate(-364.041 -309.516)" fill="#e3a76f" fill-rule="evenodd"/>
            <path id="Path_1044553" data-name="Path 1044553" d="M174.259,136.689a14.089,14.089,0,1,1-14.089,14.089A14.088,14.088,0,0,1,174.259,136.689Z" transform="translate(-160.17 -136.689)" fill="#8ac9fe" fill-rule="evenodd"/>
            <path id="Path_1044554" data-name="Path 1044554" d="M263.7,136.689a14.089,14.089,0,0,1,0,28.178c-.23,0-.458-.007-.685-.017a14.089,14.089,0,0,0,0-28.144C263.24,136.694,263.467,136.689,263.7,136.689Z" transform="translate(-249.608 -136.689)" fill="#60b7ff" fill-rule="evenodd"/>
            <path id="Path_1044555" data-name="Path 1044555" d="M196.174,161.888a10.8,10.8,0,1,1-10.8,10.8A10.805,10.805,0,0,1,196.174,161.888Z" transform="translate(-182.085 -158.604)" fill="#eceff1" fill-rule="evenodd"/>
            <path id="Path_1044556" data-name="Path 1044556" d="M196.174,161.888c.245,0,.488.007.73.023a10.8,10.8,0,0,0,0,21.56c-.243.016-.485.026-.73.026a10.8,10.8,0,1,1,0-21.609Z" transform="translate(-182.085 -158.604)" fill="#d1d1d6" fill-rule="evenodd"/>
          </g>
        </g>
        <path id="Path_1044557" data-name="Path 1044557" d="M48.5,54.947c-.452-7.62-2.625-10.484-4.286-13.422a14.955,14.955,0,0,1-2.194-8.17,17.13,17.13,0,0,1,33.211-5.9,15.14,15.14,0,0,1,2.026,18.466l3.156,3.064a2.338,2.338,0,0,1,2.612.429h0l7.737,7.509a2.328,2.328,0,0,1,.048,3.286h0L88.02,63.089h0a2.332,2.332,0,0,1-3.282.054l0,0L77,55.631a2.327,2.327,0,0,1-.514-2.6l-3.03-2.94a15.1,15.1,0,0,1-3.375,1.916c-.125.9-.223,1.889-.286,2.97V55l0,2.534a3.67,3.67,0,0,1-2.609,3.5V62.76A3.674,3.674,0,0,1,64.5,66.284v1.7a3.67,3.67,0,0,1-3.652,3.657h-3.4a3.675,3.675,0,0,1-3.657-3.657v-1.7a3.669,3.669,0,0,1-2.679-3.524V61.036a3.669,3.669,0,0,1-2.614-3.5ZM71.357,24.564a15.043,15.043,0,0,0-27.249,8.792c0,4.216,1.372,6.19,2.81,8.671a25.025,25.025,0,0,1,3.6,11.848H67.783q.048-.6.111-1.163a15.134,15.134,0,1,1,3.463-28.147Zm-3.648,31.4H50.587v1.572A1.575,1.575,0,0,0,52.158,59.1H66.141a1.574,1.574,0,0,0,1.566-1.572Zm8.322-8.323q-.469.567-.991,1.086l2.794,2.712,1.023-1.054ZM65.1,61.188H53.2V62.76a1.575,1.575,0,0,0,1.572,1.572h8.754A1.577,1.577,0,0,0,65.1,62.76Zm-2.684,5.229H55.88v1.572a1.579,1.579,0,0,0,1.572,1.572h3.4a1.576,1.576,0,0,0,1.566-1.572Zm24.109-4.779,2.793-2.877a.239.239,0,0,0,0-.337h0l-7.738-7.509a.239.239,0,0,0-.337,0h0L78.446,53.8l0,0a.234.234,0,0,0,0,.331l0,0,7.734,7.51a.241.241,0,0,0,.336,0ZM64.369,24.943A13.048,13.048,0,1,0,77.416,37.991,13.047,13.047,0,0,0,64.369,24.943Zm0,1.2A11.847,11.847,0,1,1,52.522,37.991,11.847,11.847,0,0,1,64.369,26.144Zm0,2.085a9.761,9.761,0,1,0,9.762,9.761,9.761,9.761,0,0,0-9.762-9.761Zm0,14.849a1.239,1.239,0,1,1-1.24,1.237A1.239,1.239,0,0,1,64.369,43.078Zm-1.811-8.361a1.24,1.24,0,0,1-2.48,0A4.292,4.292,0,1,1,66.194,38.6a1,1,0,0,0-.433.374,1.028,1.028,0,0,0-.152.552v.612a1.24,1.24,0,1,1-2.48,0v-.612a3.506,3.506,0,0,1,.539-1.879,3.461,3.461,0,0,1,1.473-1.284,1.836,1.836,0,0,0,.761-.677,1.812,1.812,0,1,0-3.344-.969ZM60.192,11.832a1.043,1.043,0,0,1-2.085,0V8.043a1.043,1.043,0,0,1,2.085,0ZM47.92,14.562A1.043,1.043,0,1,1,46.113,15.6L44.221,12.32a1.043,1.043,0,1,1,1.807-1.041Zm-9.259,8.5a1.043,1.043,0,1,1-1.044,1.805l-3.283-1.9a1.043,1.043,0,0,1,1.044-1.806ZM72.181,15.6a1.043,1.043,0,0,1-1.805-1.044l1.9-3.283a1.043,1.043,0,1,1,1.806,1.044Zm8.5,9.264a1.043,1.043,0,0,1-1.045-1.8l3.277-1.9a1.043,1.043,0,1,1,1.045,1.8Z" transform="translate(0)" fill-rule="evenodd"/>
      </g>
    </g>
  </g>
</svg>
