<svg xmlns="http://www.w3.org/2000/svg" xmlns:xlink="http://www.w3.org/1999/xlink" width="97.533" height="97.533" viewBox="0 0 97.533 97.533">
  <defs>
    <filter id="Path_982547" x="0" y="0" width="97.533" height="97.533" filterUnits="userSpaceOnUse">
      <feOffset dy="3" input="SourceAlpha"/>
      <feGaussianBlur stdDeviation="3" result="blur"/>
      <feFlood flood-opacity="0.161"/>
      <feComposite operator="in" in2="blur"/>
      <feComposite in="SourceGraphic"/>
    </filter>
  </defs>
  <g id="Group_1206390" data-name="Group 1206390" transform="translate(-189.967 -10454.641)">
    <g id="Group_1206295" data-name="Group 1206295" transform="translate(0 87)">
      <g id="Group_1206294" data-name="Group 1206294">
        <g id="Group_1204176" data-name="Group 1204176" transform="translate(198.967 10373.641)">
          <g id="Group_1203355" data-name="Group 1203355" transform="translate(0)">
            <g id="Group_1202156" data-name="Group 1202156">
              <g id="Group_1177900" data-name="Group 1177900">
                <g id="Group_1172010" data-name="Group 1172010">
                  <g id="Group_1171046" data-name="Group 1171046">
                    <g id="Group_1148525" data-name="Group 1148525">
                      <g transform="matrix(1, 0, 0, 1, -9, -6)" filter="url(#Path_982547)">
                        <g id="Path_982547-2" data-name="Path 982547" transform="translate(9 6)" fill="#fdfbec">
                          <path d="M 39.7666015625 78.033203125 C 34.59997940063477 78.033203125 29.58870124816895 77.02164459228516 24.87196731567383 75.02663421630859 C 20.31538963317871 73.099365234375 16.22284507751465 70.34000396728516 12.70802402496338 66.82518005371094 C 9.193202018737793 63.31035614013672 6.433835029602051 59.21781158447266 4.506568431854248 54.66123580932617 C 2.511557102203369 49.94449996948242 1.500001549720764 44.93322372436523 1.500001549720764 39.7666015625 C 1.500001549720764 34.59997940063477 2.511557102203369 29.58870124816895 4.506568431854248 24.87196731567383 C 6.433835029602051 20.31538963317871 9.193202018737793 16.22284507751465 12.70802402496338 12.70802402496338 C 16.22284507751465 9.193202018737793 20.31538963317871 6.433835029602051 24.87196731567383 4.506568431854248 C 29.58870124816895 2.511557102203369 34.59997940063477 1.500001549720764 39.7666015625 1.500001549720764 C 44.93322372436523 1.500001549720764 49.94449996948242 2.511557102203369 54.66123580932617 4.506568431854248 C 59.21781158447266 6.433835029602051 63.31035614013672 9.193202018737793 66.82518005371094 12.70802402496338 C 70.34000396728516 16.22284507751465 73.099365234375 20.31538963317871 75.02663421630859 24.87196731567383 C 77.02164459228516 29.58870124816895 78.033203125 34.59997940063477 78.033203125 39.7666015625 C 78.033203125 44.93322372436523 77.02164459228516 49.94449996948242 75.02663421630859 54.66123580932617 C 73.099365234375 59.21781158447266 70.34000396728516 63.31035614013672 66.82518005371094 66.82518005371094 C 63.31035614013672 70.34000396728516 59.21781158447266 73.099365234375 54.66123580932617 75.02663421630859 C 49.94449996948242 77.02164459228516 44.93322372436523 78.033203125 39.7666015625 78.033203125 Z" stroke="none"/>
                          <path d="M 39.7666015625 3 C 34.80181503295898 3 29.98714065551758 3.971687316894531 25.45630264282227 5.888076782226562 C 21.07851409912109 7.739715576171875 17.146240234375 10.39113616943359 13.76869201660156 13.76869201660156 C 10.39113616943359 17.146240234375 7.739715576171875 21.07851409912109 5.888076782226562 25.45630264282227 C 3.971687316894531 29.98714065551758 3 34.80181503295898 3 39.7666015625 C 3 44.73138809204102 3.971687316894531 49.54606628417969 5.888076782226562 54.076904296875 C 7.739715576171875 58.45468902587891 10.39113616943359 62.386962890625 13.76869201660156 65.76451110839844 C 17.146240234375 69.14206695556641 21.07851409912109 71.79348754882812 25.45630264282227 73.64512634277344 C 29.98714065551758 75.56151580810547 34.80181503295898 76.533203125 39.7666015625 76.533203125 C 44.73138809204102 76.533203125 49.54606628417969 75.56151580810547 54.076904296875 73.64512634277344 C 58.45468902587891 71.79348754882812 62.386962890625 69.14206695556641 65.76451110839844 65.76451110839844 C 69.14206695556641 62.386962890625 71.79348754882812 58.45468902587891 73.64512634277344 54.076904296875 C 75.56151580810547 49.54606628417969 76.533203125 44.73138809204102 76.533203125 39.7666015625 C 76.533203125 34.80181503295898 75.56151580810547 29.98714065551758 73.64512634277344 25.45630264282227 C 71.79348754882812 21.07851409912109 69.14206695556641 17.146240234375 65.76451110839844 13.76869201660156 C 62.386962890625 10.39113616943359 58.45468902587891 7.739715576171875 54.076904296875 5.888076782226562 C 49.54606628417969 3.971687316894531 44.73138809204102 3 39.7666015625 3 M 39.7666015625 0 C 61.72908782958984 0 79.533203125 17.80411529541016 79.533203125 39.7666015625 C 79.533203125 61.72908782958984 61.72908782958984 79.533203125 39.7666015625 79.533203125 C 17.80411529541016 79.533203125 0 61.72908782958984 0 39.7666015625 C 0 17.80411529541016 17.80411529541016 0 39.7666015625 0 Z" stroke="none" fill="#83793c"/>
                        </g>
                      </g>
                    </g>
                  </g>
                </g>
              </g>
            </g>
          </g>
        </g>
        <g id="examen" transform="translate(203.656 10381.686)">
          <g id="Group_1206292" data-name="Group 1206292" transform="translate(13.076 12.064)">
            <g id="Group_1206290" data-name="Group 1206290" transform="translate(37.846)">
              <path id="Path_1045182" data-name="Path 1045182" d="M99.973,24.565h6.154v24.3H99.973Z" transform="translate(-99.972 -19.489)" fill="#ffbe40"/>
              <path id="Path_1045183" data-name="Path 1045183" d="M99.973,79.731l3.077,6.631,3.077-6.631Z" transform="translate(-99.972 -50.355)" fill="#4d5e80"/>
              <path id="Path_1045184" data-name="Path 1045184" d="M103.968,13.043h-1.84A2.158,2.158,0,0,0,99.97,15.2V18.12h6.155V15.2a2.158,2.158,0,0,0-2.156-2.157Z" transform="translate(-99.97 -13.043)" fill="#3c4465"/>
            </g>
            <g id="Group_1206291" data-name="Group 1206291" transform="translate(0)">
              <path id="Path_1045185" data-name="Path 1045185" d="M14.055,13.043V54.6A3.342,3.342,0,0,0,17.4,57.937h33.36A3.342,3.342,0,0,1,47.415,54.6V13.043Z" transform="translate(-14.055 -13.043)" fill="#fff5f5"/>
              <path id="Path_1045186" data-name="Path 1045186" d="M58.344,105.365v-1.579H24.985v1.579a3.342,3.342,0,0,1-3.342,3.342H55a3.342,3.342,0,0,0,3.342-3.342Z" transform="translate(-18.3 -63.813)" fill="#efe1e1"/>
            </g>
          </g>
          <g id="Group_1206293" data-name="Group 1206293" transform="translate(12.306 11.293)">
            <path id="Path_1045187" data-name="Path 1045187" d="M56.831,26.981a.771.771,0,0,0,.771-.771V19.8a.771.771,0,0,0-.771-.771H52.993a.771.771,0,0,0-.771.771v6.41a.771.771,0,1,0,1.542,0V23.776h2.3V26.21a.77.77,0,0,0,.771.771Zm-3.067-4.746V20.571h2.3v1.663Z" transform="translate(-34.639 -15.621)" fill="#292a2d"/>
            <path id="Path_1045188" data-name="Path 1045188" d="M36.053,26.832a.77.77,0,0,0,1.077-.168l4.684-6.409a.771.771,0,0,0-1.245-.91L38.851,21.7l-1.718-2.353a.771.771,0,1,0-1.245.91l2.01,2.75-2.013,2.751a.771.771,0,0,0,.168,1.076Z" transform="translate(-25.416 -15.621)" fill="#292a2d"/>
            <path id="Path_1045189" data-name="Path 1045189" d="M98.995,13.45a.771.771,0,0,0-.771.771V41.44a.757.757,0,0,0,.011.111.113.113,0,0,0,0,.034.755.755,0,0,0,.055.171l0,.008,3.077,6.631a.771.771,0,0,0,1.4,0l3.077-6.631,0-.008a.751.751,0,0,0,.055-.171.12.12,0,0,1,0-.035.754.754,0,0,0,.011-.11V26.872a.771.771,0,0,0-1.542,0v13.8h-1.535V17.91h1.535v2.369a.771.771,0,0,0,1.542,0V14.221a2.931,2.931,0,0,0-2.928-2.928h-1.84a.771.771,0,0,0,0,1.542h1.84a1.387,1.387,0,0,1,1.386,1.386v2.148H99.766V14.221a.771.771,0,0,0-.771-.771Zm4.945,28.761-1.87,4.028-1.87-4.028Zm-2.64-24.3V40.669H99.764V17.91Z" transform="translate(-60.377 -11.293)" fill="#292a2d"/>
            <path id="Path_1045190" data-name="Path 1045190" d="M112.965,37.441a.771.771,0,0,0-.771.771v.3a.771.771,0,1,0,1.542,0v-.3A.771.771,0,0,0,112.965,37.441Z" transform="translate(-68.193 -25.923)" fill="#292a2d"/>
            <path id="Path_1045191" data-name="Path 1045191" d="M39.467,51.3a.77.77,0,0,0,.771.771H56.8a.771.771,0,1,0,0-1.542H40.238a.77.77,0,0,0-.771.771Z" transform="translate(-27.502 -33.248)" fill="#292a2d"/>
            <path id="Path_1045192" data-name="Path 1045192" d="M55.037,113.207a.771.771,0,0,0,0,1.542h.49a.771.771,0,0,0,0-1.542Z" transform="translate(-35.782 -68.313)" fill="#292a2d"/>
            <path id="Path_1045193" data-name="Path 1045193" d="M55.7,80.745a.771.771,0,1,0-1.542,0v8.948H28.25a.77.77,0,0,0-.771.771v1.579a.771.771,0,0,0,1.542,0v-.808H60.839v.808a2.574,2.574,0,0,1-2.571,2.571H43.314a.771.771,0,0,0,0,1.542H58.267a4.117,4.117,0,0,0,4.113-4.113V90.463a.77.77,0,0,0-.771-.771H55.7Z" transform="translate(-20.795 -49.72)" fill="#292a2d"/>
            <path id="Path_1045194" data-name="Path 1045194" d="M24.047,86.291H27.7a.77.77,0,0,0,.771-.771V81.87A.77.77,0,0,0,27.7,81.1h-3.65a.771.771,0,0,0-.771.771v3.65A.771.771,0,0,0,24.047,86.291Zm.771-3.65h2.109v2.109H24.818Z" transform="translate(-18.444 -50.349)" fill="#292a2d"/>
            <path id="Path_1045195" data-name="Path 1045195" d="M25.779,20.571a.771.771,0,1,0,0-1.542H21.941a.771.771,0,0,0-.771.771v6.41a.77.77,0,0,0,.771.771h3.838a.771.771,0,1,0,0-1.542H22.712V23.776h3.067a.771.771,0,1,0,0-1.542H22.712V20.571Z" transform="translate(-17.265 -15.621)" fill="#292a2d"/>
            <path id="Path_1045196" data-name="Path 1045196" d="M24.047,63.744a.771.771,0,0,0-.771.771v3.65a.771.771,0,0,0,.771.771H27.7a.77.77,0,0,0,.771-.771v-3.65a.77.77,0,0,0-.771-.771Zm2.88,3.65H24.818V65.286h2.109Z" transform="translate(-18.444 -40.639)" fill="#292a2d"/>
            <path id="Path_1045197" data-name="Path 1045197" d="M46.436,11.293H13.077a.77.77,0,0,0-.771.771V53.616a4.117,4.117,0,0,0,4.113,4.113H28.807a.771.771,0,1,0,0-1.542H16.419a2.574,2.574,0,0,1-2.571-2.571V12.835H45.666V36.1a.771.771,0,0,0,1.542,0V12.064a.77.77,0,0,0-.771-.771Z" transform="translate(-12.306 -11.293)" fill="#292a2d"/>
            <path id="Path_1045198" data-name="Path 1045198" d="M88.807,74.5a.77.77,0,0,0,.771-.771v-.45a.771.771,0,0,0-1.542,0v.45a.77.77,0,0,0,.771.771Z" transform="translate(-54.676 -45.541)" fill="#292a2d"/>
            <path id="Path_1045199" data-name="Path 1045199" d="M26.209,49.829l-1.1-1.1a.771.771,0,1,0-1.09,1.09l1.644,1.645a.772.772,0,0,0,1.09,0l2.858-2.854a.771.771,0,1,0-1.09-1.09Z" transform="translate(-18.733 -31.435)" fill="#292a2d"/>
            <path id="Path_1045200" data-name="Path 1045200" d="M73.015,26.981a.77.77,0,0,0,.771-.771V19.8a.771.771,0,0,0-1.37-.485l-2.129,2.629L68.16,19.315a.771.771,0,0,0-1.37.485v6.41a.771.771,0,1,0,1.542,0V21.978l1.357,1.676a.8.8,0,0,0,1.2,0l1.357-1.674v4.23A.77.77,0,0,0,73.015,26.981Z" transform="translate(-42.789 -15.621)" fill="#292a2d"/>
            <path id="Path_1045201" data-name="Path 1045201" d="M56.8,85.242H40.236a.771.771,0,1,0,0,1.542H56.8a.771.771,0,1,0,0-1.542Z" transform="translate(-27.501 -52.667)" fill="#292a2d"/>
            <path id="Path_1045202" data-name="Path 1045202" d="M56.8,67.888H40.236a.771.771,0,1,0,0,1.542H56.8a.771.771,0,1,0,0-1.542Z" transform="translate(-27.501 -42.958)" fill="#292a2d"/>
            <path id="Path_1045203" data-name="Path 1045203" d="M46.11,33.711a.771.771,0,0,0,.622-1.225l-.811-1.111a.771.771,0,0,0-1.245.91l.811,1.11a.769.769,0,0,0,.623.316Z" transform="translate(-30.333 -22.352)" fill="#292a2d"/>
          </g>
        </g>
      </g>
    </g>
  </g>
</svg>
