<svg xmlns="http://www.w3.org/2000/svg" width="91.636" height="106" viewBox="0 0 91.636 106">
  <g id="Group_1206394" data-name="Group 1206394" transform="translate(-180 -10948.636)">
    <g id="Group_1206299" data-name="Group 1206299" transform="translate(-418.763 756.153)">
      <g id="Group_1206207" data-name="Group 1206207" transform="translate(600 10192.482)">
        <rect id="Rectangle_421497" data-name="Rectangle 421497" width="85" height="104" transform="translate(0)" fill="#6ae2f6"/>
      </g>
      <g id="pensar-pregunta" transform="translate(598.762 10206.846)">
        <g id="Group_1206287" data-name="Group 1206287" transform="translate(1.343 1.416)">
          <path id="Path_1045149" data-name="Path 1045149" d="M80.174,403.934s-2.53,4.2-3.643,6.234l-17.649,6.776H20.811L13.99,412.53v-8.911a78,78,0,0,1,10.72-3.376l4.584-1.19,5.087-1.2,22.458,2.207,4.541-1.98c1.528.4,5.967,1.477,7.494,1.874C72.714,400.957,76.87,401.621,80.174,403.934Z" transform="translate(-12.828 -328.065)" fill="#8ac9fe"/>
          <path id="Path_1045150" data-name="Path 1045150" d="M15.482,440.635v2.74H8.037a.536.536,0,0,1-.537-.537V431.147a.538.538,0,0,1,.209-.426c.129-.1.258-.2.358-.27.2-.14.394-.274.594-.4l.4.2A11.61,11.61,0,0,1,15.482,440.635Z" transform="translate(-7.5 -354.497)" fill="#60b7ff"/>
          <path id="Path_1045151" data-name="Path 1045151" d="M363.346,443.744v.539a.537.537,0,0,1-.537.537h-12.3V437.1A11.587,11.587,0,0,1,355.5,432.3l.968-.485.124.086.2.145C360.93,435.073,363.1,438.7,363.346,443.744Z" transform="translate(-289.119 -355.942)" fill="#60b7ff"/>
          <path id="Path_1045152" data-name="Path 1045152" d="M112.071,27.72c-3.724,7.052-7.474,13.651-15.995,14.067l-26.336.077V28.219A17.15,17.15,0,0,1,72.4,19a24.281,24.281,0,0,1,8.56-8.147A22.8,22.8,0,0,1,92.15,7.91h.94a22.7,22.7,0,0,1,9.389,2.039C109.92,15.63,114.044,23.985,112.071,27.72Z" transform="translate(-58.6 -7.91)" fill="#73788c"/>
          <path id="Path_1045153" data-name="Path 1045153" d="M236.313,37.57V51.083l-19.423.055a24.385,24.385,0,0,0,6.4-31.838,24.1,24.1,0,0,1,10.356,9.054,16.877,16.877,0,0,1,1.985,4.4A17.343,17.343,0,0,1,236.313,37.57Z" transform="translate(-179.414 -17.261)" fill="#5e6577"/>
          <path id="Path_1045154" data-name="Path 1045154" d="M93.055,200.81a9.94,9.94,0,0,0,7.573-9.653,3.953,3.953,0,0,0-3.953-3.953H50.531a3.953,3.953,0,0,0-3.953,3.953,9.94,9.94,0,0,0,7.573,9.653Z" transform="translate(-39.584 -155.115)" fill="#ffb09e"/>
          <path id="Path_1045155" data-name="Path 1045155" d="M118.429,126.4a3.835,3.835,0,0,1,5.26,2.227l1.687,6.571a2.6,2.6,0,0,0,2.42,1.779v14.7a12.264,12.264,0,0,1-4.19,9.233l-7.618,6.666A8.177,8.177,0,0,1,110.6,169.6h-4.518a8.177,8.177,0,0,1-5.385-2.022l-7.618-6.666a12.264,12.264,0,0,1-4.19-9.233v-14.7a2.6,2.6,0,0,0,2.42-1.779l1.678-6.544a3.835,3.835,0,0,1,5.282-2.216l.245.117,1.974.756a21.856,21.856,0,0,0,15.637,0l1.974-.756Z" transform="translate(-74.325 -104.891)" fill="#ffcebf"/>
          <g id="Group_1206284" data-name="Group 1206284" transform="translate(16.424 53.119)">
            <path id="Path_1045156" data-name="Path 1045156" d="M131.979,326.472l-.662.816-7.206,8.892-2.577-1.632a12.074,12.074,0,0,0-6.008-1.885,9.929,9.929,0,0,1-4.916-1.536l-6.377-4.05a2.254,2.254,0,0,1-1.049-1.906c0-.025,0-.049,0-.074,0,0,.321-.652.483-.958a8.561,8.561,0,0,1,1.134-.682c.32.173,1.181-.634,1.874-.194l-1.45-.92a2.333,2.333,0,0,1-1.048-1.954c0-.023,0,.023,0,0,.069-.372.962-.52,1.123-.828.03-.061-.05-.08.267-.236,0,0,1.405-1.235,2.1-.795l-.925-.589a2.255,2.255,0,0,1-1.051-1.91c0-.025,0-.049,0-.074.011-.326.5-.523.656-.829a2.849,2.849,0,0,1,.759-.67s1.378-.771,2.073-.331l-8.863-5.629a2.252,2.252,0,0,1-.8-2.941c.892-.8,1.462-1,1.836-.765l14.268,9.439c4.271,2.288,6.075.568,6.077.554.03-.147.51-.953.542-1.092a2.693,2.693,0,0,0,.29-.757.277.277,0,0,0,.009-.041c.084-.4.172-.773.265-1.119a11.33,11.33,0,0,1,1.953-4.02,4.982,4.982,0,0,1,.888-.981,3.388,3.388,0,0,1,.931-.514,6.757,6.757,0,0,1,2.069.141c.107.068-1.342,5.223-1.263,6.086,0,0,.245,6.846.288,7.355a5.227,5.227,0,0,0,2.873,4.525Z" transform="translate(-99.265 -304.7)" fill="#ffb09e"/>
          </g>
          <path id="Path_1045157" data-name="Path 1045157" d="M261.983,435.608H237.925a.157.157,0,0,1-.089-.029l-5.772-4.281a.149.149,0,0,1-.038-.2l6.633-10.51h2.433L261.776,434.2Z" transform="translate(-191.822 -346.73)" fill="#60b7ff"/>
          <path id="Path_1045158" data-name="Path 1045158" d="M296.072,427.331h-3.558L269.19,412.313l1.094-1.734a.151.151,0,0,1,.208-.047l25.664,16.525A.149.149,0,0,1,296.072,427.331Z" transform="translate(-222.354 -338.453)" fill="#26a6fe"/>
          <path id="Path_1045159" data-name="Path 1045159" d="M227.858,407.546l-7.71,10.34a1.578,1.578,0,0,1-2.194.322l-2.674-1.981a1.563,1.563,0,0,1-.324-2.187l7.653-10.261c1-.813,2.139-2.141,2.649-1.763l2.871,2.126C228.6,404.495,228.779,406.027,227.858,407.546Z" transform="translate(-177.573 -331.426)" fill="#eaf6ff"/>
          <path id="Path_1045160" data-name="Path 1045160" d="M265.851,401.668l-1.473,1.974a1.714,1.714,0,0,0-.705-1.419L260.8,400.1a1.709,1.709,0,0,0-1.673-.222l1.53-2.051a1.574,1.574,0,0,1,2.192-.322l2.676,1.979A1.565,1.565,0,0,1,265.851,401.668Z" transform="translate(-214.093 -327.522)" fill="#d8ecfe"/>
          <g id="Group_1206286" data-name="Group 1206286" transform="translate(48.12 0.285)">
            <g id="Group_1206285" data-name="Group 1206285">
              <path id="Path_1045161" data-name="Path 1045161" d="M309.067,13.654c-.161-.017-.325-.029-.49-.036a.555.555,0,0,1-.43-.233c-.159-.225-.33-.444-.51-.653A9.26,9.26,0,0,0,296.8,10.317a.55.55,0,0,1-.489-.018,6.758,6.758,0,0,0-9.617,3.877.53.53,0,0,1-.5.37,8.255,8.255,0,0,0-7.361,12.034.543.543,0,0,1-.165.7,5.27,5.27,0,0,0-.541,8.29.538.538,0,0,1,.164.5,7.621,7.621,0,0,0,.15,3.379c3.573,4.636,10.757,5.833,14.823,5.833,11.635,0,18.985-6.012,18.985-17.648C312.248,24.847,312.248,17.336,309.067,13.654Z" transform="translate(-276.361 -9.5)" fill="#eaf6ff"/>
              <path id="Path_1045162" data-name="Path 1045162" d="M325.764,50.1a.526.526,0,0,0-.03.548A8.241,8.241,0,0,1,322.4,61.841c-.07.038-.191.1-.3.154a.528.528,0,0,0-.3.425,7.267,7.267,0,0,1-.257,1.376.007.007,0,0,0,0,.005A7.234,7.234,0,0,1,311.4,68.242a.529.529,0,0,0-.6.1,8.729,8.729,0,0,1-14.422-3.78.531.531,0,0,0-.538-.38,7.746,7.746,0,0,1-7.858-5.67,21.073,21.073,0,0,0,30.626-25.8A7.431,7.431,0,0,1,324.9,42.43a.529.529,0,0,0,.138.545,5.555,5.555,0,0,1,.726,7.13Z" transform="translate(-285.901 -28.557)" fill="#d8ecfe"/>
              <path id="Path_1045163" data-name="Path 1045163" d="M348.5,66.06c-1.858,14.839-9.636,14.635-16.432,14.635A12.557,12.557,0,1,1,348.5,66.06Z" transform="translate(-315.162 -47.924)" fill="#73788c"/>
              <path id="Path_1045164" data-name="Path 1045164" d="M387.543,113.617A12.607,12.607,0,0,1,370.8,125.465a21.09,21.09,0,0,0,16.432-14.635A12.546,12.546,0,0,1,387.543,113.617Z" transform="translate(-353.898 -92.694)" fill="#5e6577"/>
            </g>
            <path id="Path_1045165" data-name="Path 1045165" d="M429.539,273.956c0,1.994-2.392,2.873-4.391,2.873-.945,0-1.683-.944-2.342-1.9a3.738,3.738,0,0,1-.086-.805,3.871,3.871,0,0,1,5.847-3.311A4.905,4.905,0,0,1,429.539,273.956Z" transform="translate(-396.525 -223.597)" fill="#eaf6ff"/>
            <path id="Path_1045166" data-name="Path 1045166" d="M430.853,276.61a3.871,3.871,0,0,1-7.653.805,3.624,3.624,0,0,0,6.071-2.658,3.575,3.575,0,0,0-.31-1.459A3.844,3.844,0,0,1,430.853,276.61Z" transform="translate(-396.919 -226.085)" fill="#d8ecfe"/>
            <path id="Path_1045167" data-name="Path 1045167" d="M403.022,336.291a2.567,2.567,0,0,1-2.75,2.293c-.728,0-1.313-.369-2.077-1.62a2.814,2.814,0,0,1,4.02-2.892A3.111,3.111,0,0,1,403.022,336.291Z" transform="translate(-376.369 -275.749)" fill="#eaf6ff"/>
            <path id="Path_1045168" data-name="Path 1045168" d="M403.908,337.889a2.812,2.812,0,0,1-5.6.372,2.5,2.5,0,0,0,4.337-1.679,2.462,2.462,0,0,0-.317-1.213A2.8,2.8,0,0,1,403.908,337.889Z" transform="translate(-376.484 -277.046)" fill="#d8ecfe"/>
          </g>
        </g>
        <g id="Group_1206288" data-name="Group 1206288" transform="translate(0.001 0)">
          <path id="Path_1045169" data-name="Path 1045169" d="M63.583,24.937a1.342,1.342,0,0,0,1.342-1.342v-.778a15.761,15.761,0,0,1,2.454-8.493A22.276,22.276,0,0,1,83.422,4.006,1.342,1.342,0,1,0,83.1,1.341,24.951,24.951,0,0,0,65.116,12.88a18.442,18.442,0,0,0-2.875,9.936v.778a1.342,1.342,0,0,0,1.342,1.342Z" transform="translate(-51.101 -1.093)"/>
          <path id="Path_1045170" data-name="Path 1045170" d="M10.38,405.764c-3.741.907-7,1.809-9.866,4.095a1.34,1.34,0,0,0,1.536,2.192l.576.288a8.726,8.726,0,0,1,4.85,7.847V423.4a1.342,1.342,0,1,0,2.685,0v-3.219a11.386,11.386,0,0,0-5.485-9.777,31.754,31.754,0,0,1,6.337-2.035,1.342,1.342,0,1,0-.631-2.609Z" transform="translate(-0.001 -333.111)"/>
          <path id="Path_1045171" data-name="Path 1045171" d="M420.428,262.251a5.216,5.216,0,1,0,5.212,5.216A5.22,5.22,0,0,0,420.428,262.251Zm0,7.748a2.532,2.532,0,1,1,2.527-2.532A2.532,2.532,0,0,1,420.428,270Z" transform="translate(-340.902 -215.314)"/>
          <path id="Path_1045172" data-name="Path 1045172" d="M394.827,326.1a4.158,4.158,0,1,0,4.154,4.158A4.161,4.161,0,0,0,394.827,326.1Zm0,5.631a1.473,1.473,0,1,1,1.47-1.473A1.473,1.473,0,0,1,394.827,331.726Z" transform="translate(-320.752 -267.731)"/>
          <path id="Path_1045173" data-name="Path 1045173" d="M123.719,19.846a6.936,6.936,0,0,0-1.758-4.618A8.8,8.8,0,0,0,114.2,4.164q-.173-.227-.359-.443A10.574,10.574,0,0,0,101.787.787a8.087,8.087,0,0,0-10.99,4.3,9.574,9.574,0,0,0-5.6,2.227A24.662,24.662,0,0,0,70.662.231,1.342,1.342,0,1,0,70.354,2.9,21.985,21.985,0,0,1,83.4,9.315a9.681,9.681,0,0,0-.858,9.211,6.651,6.651,0,0,0-1.971,2.889,5.194,5.194,0,0,0-3.612.295c-.1.079-2.03.8-2.21.871a20.482,20.482,0,0,1-14.677,0c-.094-.039-2.109-.8-2.12-.831a5.172,5.172,0,0,0-7.162,3.094l-1.662,6.484a1.274,1.274,0,0,1-1.244.836H45.907v-3.4a1.342,1.342,0,1,0-2.685,0V32.29a5.3,5.3,0,0,0-4.146,5.168A11.245,11.245,0,0,0,46.65,48.113a13.539,13.539,0,0,0,2.115,7.375,3.62,3.62,0,0,0,1.522,4.062l5.921,3.778a3.623,3.623,0,0,0-.917,3.98,3.624,3.624,0,0,0-1.682,2.351c-.829.242-4.322,1.288-5.091,1.459a1.342,1.342,0,0,0,.675,2.6c.8-.18,3.817-1.084,4.657-1.33A3.612,3.612,0,0,0,54.2,78.22l6.377,4.069a11.233,11.233,0,0,0,5.584,1.753,10.62,10.62,0,0,1,2.873.518,2.912,2.912,0,0,0,1.043,3.181l2.683,2a2.877,2.877,0,0,0,1.725.573,2.953,2.953,0,0,0,.432-.032,2.887,2.887,0,0,0,1.441-.648l2.377,1.746a1.342,1.342,0,0,0,1.589-2.164l-2.3-1.69,7.384-9.951,21.513,13.851a1.342,1.342,0,0,0,2.069-1.129V89.218c0-.021,0-.043,0-.064-.258-5.39-2.582-9.481-7.316-12.874-2.942-2.109-6.417-2.945-9.779-3.754-.691-.166-1.405-.338-2.09-.516-.755-.2-2.167-.583-3.533-.956l-2.006-.548-.9-.67a2.884,2.884,0,0,0-2.156-.541,2.924,2.924,0,0,0-.822.247,5.938,5.938,0,0,1,.014-1.363,15.065,15.065,0,0,0-.007-3.527L80.134,61.7c-.006-.072-.01-.143-.012-.214l3.468-3.034A13.606,13.606,0,0,0,88.239,48.2v-.1A11.27,11.27,0,0,0,94.3,43.087a10.067,10.067,0,0,0,12.66-.426,8.562,8.562,0,0,0,11.762-6.712,9.651,9.651,0,0,0,4.052-12.608,6.873,6.873,0,0,0,.94-3.494ZM46.65,45.217a8.57,8.57,0,0,1-4.889-7.759,2.613,2.613,0,0,1,2.611-2.61H46.65Zm54.106,33.724a13,13,0,0,1,5.41,8.8l-9.121-5.873a8.73,8.73,0,0,1,3.136-2.64ZM87.22,74.1c.769.209,1.456.395,1.913.514.708.184,1.435.359,2.137.528A34.328,34.328,0,0,1,98.132,77.3a11.373,11.373,0,0,0-3.348,3.113l-7.823-5.037A2.9,2.9,0,0,0,87.22,74.1ZM66.273,81.359a8.548,8.548,0,0,1-4.248-1.334l-6.376-4.069a.933.933,0,0,1-.283-1.285.926.926,0,0,1,1.28-.285l1.944,1.24a1.342,1.342,0,1,0,1.444-2.263L56.642,71.2a.932.932,0,0,1-.283-1.285.925.925,0,0,1,1.279-.285l2.871,1.832A1.342,1.342,0,1,0,61.952,69.2l-3.8-2.424a.932.932,0,0,1-.283-1.285.926.926,0,0,1,1.273-.288l3.8,2.427a1.342,1.342,0,1,0,1.444-2.263L51.731,57.286A.932.932,0,0,1,51.448,56a.925.925,0,0,1,1.279-.285l15.657,9.991a4.061,4.061,0,0,0,6.165-2.6,10.546,10.546,0,0,1,1.994-4.654,3.444,3.444,0,0,1,.623-.71,1.761,1.761,0,0,1,1.618-.331l-.674,1.276a5.819,5.819,0,0,0-.651,3.248l.266,2.968c0,.008,0,.015,0,.023a12.468,12.468,0,0,1,.015,2.911,8.6,8.6,0,0,0,.463,4.078L70.54,82.245a13.3,13.3,0,0,0-4.267-.886ZM81.46,72.037a.217.217,0,0,1,.145-.085.211.211,0,0,1,.162.039l2.683,2a.231.231,0,0,1,.046.314L74.674,87.536a.224.224,0,0,1-.307.046l-2.683-2a.231.231,0,0,1-.046-.314ZM85.554,48.2a10.922,10.922,0,0,1-3.731,8.222l-.269.236a2.235,2.235,0,0,0-.389-.8,2.359,2.359,0,0,0-.621-.555,4.317,4.317,0,0,0-5.032.327,6.108,6.108,0,0,0-1.154,1.264,13.215,13.215,0,0,0-2.438,5.672,1.342,1.342,0,0,1-.813.99,1.37,1.37,0,0,1-1.279-.11L54.171,53.454a3.585,3.585,0,0,0-2.722-.481,3.623,3.623,0,0,0-.86.312A10.862,10.862,0,0,1,49.335,48.2V34.6a3.966,3.966,0,0,0,2.378-2.543l1.663-6.488a2.492,2.492,0,0,1,3.417-1.4c.174.115,2.077.818,2.318.916a23.162,23.162,0,0,0,16.6,0c.318-.127,2.136-.8,2.392-.949a2.465,2.465,0,0,1,2.122,0,6.581,6.581,0,0,0,1.865,4.092A9.107,9.107,0,0,0,85.553,36.6V48.2Zm2.685-2.992v-7.18q.423.14.867.24a9.082,9.082,0,0,0,1.819.218,10.03,10.03,0,0,0,1.4,2.6A8.592,8.592,0,0,1,88.238,45.211Zm31.824-21.262A6.963,6.963,0,0,1,117,33.814a1.357,1.357,0,0,0-.882,1.2,5.878,5.878,0,0,1-8.751,4.862,1.342,1.342,0,0,0-1.635.248,7.368,7.368,0,0,1-12.521-3.335,1.344,1.344,0,0,0-1.449-1.021,6.392,6.392,0,0,1-6.918-7.745,1.342,1.342,0,0,0-.472-1.338,3.97,3.97,0,0,1,.543-6.561,1.342,1.342,0,0,0,.5-1.857,6.956,6.956,0,0,1,6.288-10.5,1.343,1.343,0,0,0,1.365-1.009,5.4,5.4,0,0,1,7.982-3.32,1.342,1.342,0,0,0,1.276.05,7.8,7.8,0,0,1,3.465-.8,7.877,7.877,0,0,1,6.007,2.78,7.413,7.413,0,0,1,.564.749,1.342,1.342,0,0,0,1.118.6,6.131,6.131,0,0,1,5.693,8.306,1.343,1.343,0,0,0,.378,1.495,4.256,4.256,0,0,1,1.48,3.227,4.208,4.208,0,0,1-.882,2.6,1.343,1.343,0,0,0-.09,1.508Z" transform="translate(-32.083 0)"/>
          <path id="Path_1045174" data-name="Path 1045174" d="M341.125,55.11a1.343,1.343,0,0,0-.757,1.741,11.275,11.275,0,1,1-3.319-4.563,1.342,1.342,0,0,0,1.709-2.071,13.92,13.92,0,1,0,4.108,5.649,1.342,1.342,0,0,0-1.741-.757Z" transform="translate(-259.391 -38.614)"/>
          <path id="Path_1045175" data-name="Path 1045175" d="M373.71,90.143a4.707,4.707,0,0,0,2.057-1.263A4.652,4.652,0,0,0,377.05,85.4a4.7,4.7,0,0,0-4.586-4.44h-.1a4.686,4.686,0,0,0-4.689,4.689,1.342,1.342,0,1,0,2.685,0,2.042,2.042,0,0,1,.019-.281,2,2,0,1,1,3.437,1.661,1.986,1.986,0,0,1-1.453.625A1.342,1.342,0,0,0,371.025,89v2.784a1.342,1.342,0,0,0,2.685,0Z" transform="translate(-301.873 -66.473)"/>
          <path id="Path_1045176" data-name="Path 1045176" d="M181.888,264.788a5.576,5.576,0,0,0,5.047,0,1.342,1.342,0,0,0-1.219-2.392,2.884,2.884,0,0,1-2.61,0,1.342,1.342,0,0,0-1.219,2.392Z" transform="translate(-148.732 -215.313)"/>
          <path id="Path_1045177" data-name="Path 1045177" d="M180.087,302.919h-7.307a1.342,1.342,0,0,0,0,2.685h7.307a1.342,1.342,0,1,0,0-2.685Z" transform="translate(-140.754 -248.703)"/>
          <path id="Path_1045178" data-name="Path 1045178" d="M136.89,168.579a1.342,1.342,0,0,0-.435-1.848,8.628,8.628,0,0,0-8.416,0,1.342,1.342,0,0,0,1.413,2.283,5.993,5.993,0,0,1,5.589,0,1.341,1.341,0,0,0,1.848-.435Z" transform="translate(-104.601 -135.991)"/>
          <path id="Path_1045179" data-name="Path 1045179" d="M224.811,179.423a6,6,0,0,1-5.589,0,1.342,1.342,0,1,0-1.413,2.283,8.627,8.627,0,0,0,8.416,0,1.342,1.342,0,0,0-1.413-2.283Z" transform="translate(-178.304 -147.145)"/>
          <path id="Path_1045180" data-name="Path 1045180" d="M238.078,211.157a1.342,1.342,0,0,0-1.342,1.342v3.107a1.342,1.342,0,1,0,2.685,0V212.5A1.342,1.342,0,0,0,238.078,211.157Z" transform="translate(-194.366 -173.365)"/>
          <path id="Path_1045181" data-name="Path 1045181" d="M148.308,211.157a1.342,1.342,0,0,0-1.342,1.342v3.107a1.342,1.342,0,0,0,2.685,0V212.5A1.342,1.342,0,0,0,148.308,211.157Z" transform="translate(-120.663 -173.365)"/>
          <circle id="Ellipse_12681" data-name="Ellipse 12681" cx="1.342" cy="1.342" r="1.342" transform="translate(69.151 27.926)"/>
        </g>
      </g>
    </g>
  </g>
</svg>
