<svg xmlns="http://www.w3.org/2000/svg" xmlns:xlink="http://www.w3.org/1999/xlink" width="106.16" height="106.16" viewBox="0 0 106.16 106.16">
  <defs>
    <filter id="Path_982547" x="0" y="0" width="106.16" height="106.16" filterUnits="userSpaceOnUse">
      <feOffset dy="3" input="SourceAlpha"/>
      <feGaussianBlur stdDeviation="3" result="blur"/>
      <feFlood flood-opacity="0.161"/>
      <feComposite operator="in" in2="blur"/>
      <feComposite in="SourceGraphic"/>
    </filter>
  </defs>
  <g id="Group_1226386" data-name="Group 1226386" transform="translate(-194.75 -4675.927)">
    <g id="Group_1225588" data-name="Group 1225588">
      <g id="Group_1224534" data-name="Group 1224534" transform="translate(0 3446.122)">
        <g id="Group_1203806" data-name="Group 1203806" transform="translate(-0.25 -641.196)">
          <g id="Group_1203391" data-name="Group 1203391">
            <g id="Group_1202420" data-name="Group 1202420" transform="translate(-77 465.997)">
              <g id="Group_1177900" data-name="Group 1177900" transform="translate(281 1411.003)">
                <g id="Group_1172010" data-name="Group 1172010" transform="translate(0)">
                  <g id="Group_1171046" data-name="Group 1171046">
                    <g id="Group_1148525" data-name="Group 1148525">
                      <g transform="matrix(1, 0, 0, 1, -9, -6)" filter="url(#Path_982547)">
                        <g id="Path_982547-2" data-name="Path 982547" transform="translate(9 6)" fill="#fdfbec">
                          <path d="M 44.0802001953125 86.660400390625 C 38.33124923706055 86.660400390625 32.75506210327148 85.53479766845703 27.50652503967285 83.31484985351562 C 22.43628692626953 81.17032623291016 17.88242530822754 78.09992218017578 13.97144985198975 74.18894958496094 C 10.06047534942627 70.27797698974609 6.99007511138916 65.72411346435547 4.845550060272217 60.65387344360352 C 2.625600099563599 55.40533828735352 1.500000238418579 49.82915115356445 1.500000238418579 44.0802001953125 C 1.500000238418579 38.33124923706055 2.625600099563599 32.75506210327148 4.845550060272217 27.50652503967285 C 6.99007511138916 22.43628692626953 10.06047534942627 17.88242530822754 13.97144985198975 13.97144985198975 C 17.88242530822754 10.06047534942627 22.43628692626953 6.99007511138916 27.50652503967285 4.845550060272217 C 32.75506210327148 2.625600099563599 38.33124923706055 1.500000238418579 44.0802001953125 1.500000238418579 C 49.82915115356445 1.500000238418579 55.40533828735352 2.625600099563599 60.65387344360352 4.845550060272217 C 65.72411346435547 6.99007511138916 70.27797698974609 10.06047534942627 74.18894958496094 13.97144985198975 C 78.09992218017578 17.88242530822754 81.17032623291016 22.43628692626953 83.31484985351562 27.50652503967285 C 85.53479766845703 32.75506210327148 86.660400390625 38.33124923706055 86.660400390625 44.0802001953125 C 86.660400390625 49.82915115356445 85.53479766845703 55.40533828735352 83.31484985351562 60.65387344360352 C 81.17032623291016 65.72411346435547 78.09992218017578 70.27797698974609 74.18894958496094 74.18894958496094 C 70.27797698974609 78.09992218017578 65.72411346435547 81.17032623291016 60.65387344360352 83.31484985351562 C 55.40533828735352 85.53479766845703 49.82915115356445 86.660400390625 44.0802001953125 86.660400390625 Z" stroke="none"/>
                          <path d="M 44.0802001953125 3 C 38.53308486938477 3 33.15349960327148 4.085746765136719 28.09085845947266 6.227058410644531 C 23.19941711425781 8.29595947265625 18.80581665039062 11.25841522216797 15.03211212158203 15.03211212158203 C 11.25841522216797 18.80581665039062 8.29595947265625 23.19941711425781 6.227058410644531 28.09085845947266 C 4.085746765136719 33.15349960327148 3 38.53308486938477 3 44.0802001953125 C 3 49.62731552124023 4.085746765136719 55.00691604614258 6.227058410644531 60.06954193115234 C 8.29595947265625 64.96098327636719 11.25841522216797 69.35458374023438 15.03211212158203 73.12828826904297 C 18.80581665039062 76.90198516845703 23.19941711425781 79.86444091796875 28.09085845947266 81.93334197998047 C 33.15349960327148 84.07466125488281 38.53308486938477 85.160400390625 44.0802001953125 85.160400390625 C 49.62731552124023 85.160400390625 55.00691604614258 84.07466125488281 60.06954193115234 81.93334197998047 C 64.96099853515625 79.86444091796875 69.35458374023438 76.90198516845703 73.12828826904297 73.12828826904297 C 76.90198516845703 69.35458374023438 79.86444091796875 64.96099853515625 81.93334197998047 60.06954193115234 C 84.07466125488281 55.00691604614258 85.160400390625 49.62731552124023 85.160400390625 44.0802001953125 C 85.160400390625 38.53308486938477 84.07466125488281 33.15349960327148 81.93334197998047 28.09085845947266 C 79.86444091796875 23.19941711425781 76.90198516845703 18.80581665039062 73.12828826904297 15.03211212158203 C 69.35458374023438 11.25841522216797 64.96098327636719 8.29595947265625 60.06954193115234 6.227058410644531 C 55.00691604614258 4.085746765136719 49.62731552124023 3 44.0802001953125 3 M 44.0802001953125 0 C 68.42502593994141 0 88.160400390625 19.73538970947266 88.160400390625 44.0802001953125 C 88.160400390625 68.42502593994141 68.42502593994141 88.160400390625 44.0802001953125 88.160400390625 C 19.73538970947266 88.160400390625 0 68.42502593994141 0 44.0802001953125 C 0 19.73538970947266 19.73538970947266 0 44.0802001953125 0 Z" stroke="none" fill="#83793c"/>
                        </g>
                      </g>
                    </g>
                  </g>
                </g>
              </g>
            </g>
          </g>
        </g>
      </g>
      <g id="colegio_5_" data-name="colegio (5)" transform="translate(218.898 4685.713)">
        <g id="Group_1225553" data-name="Group 1225553" transform="translate(34.847 31.235)">
          <path id="Path_1212899" data-name="Path 1212899" d="M313.018,238.489H328.3a.514.514,0,0,0,.513-.512V205.742h-15.8l-4.685,16.869Z" transform="translate(-308.333 -205.742)" fill="#b3e59f" fill-rule="evenodd"/>
        </g>
        <g id="Group_1225554" data-name="Group 1225554" transform="translate(2.533 31.235)">
          <path id="Path_1212900" data-name="Path 1212900" d="M38.21,238.489H22.926a.515.515,0,0,1-.516-.512V205.742h15.8l4.357,16.869Z" transform="translate(-22.41 -205.742)" fill="#b3e59f" fill-rule="evenodd"/>
        </g>
        <g id="Group_1225555" data-name="Group 1225555" transform="translate(2.533 33.746)">
          <path id="Path_1212901" data-name="Path 1212901" d="M22.41,230.144H36.044V258.2h1.651a.517.517,0,0,0,.516-.512V227.959H22.41Z" transform="translate(-22.41 -227.959)" fill="#95d6a4" fill-rule="evenodd"/>
        </g>
        <g id="Group_1225556" data-name="Group 1225556" transform="translate(0.848 30.188)">
          <path id="Path_1212902" data-name="Path 1212902" d="M24.985,200.033H7.788a.29.29,0,0,1-.288-.291v-2.975a.29.29,0,0,1,.288-.291h17.2Z" transform="translate(-7.5 -196.475)" fill="#6f6571" fill-rule="evenodd"/>
        </g>
        <g id="Group_1225557" data-name="Group 1225557" transform="translate(16.279 30.188)">
          <path id="Path_1212903" data-name="Path 1212903" d="M144.045,200.034H146.1v-3.558h-2.053v3.558Z" transform="translate(-144.045 -196.476)" fill="#5d5360" fill-rule="evenodd"/>
        </g>
        <g id="Group_1225558" data-name="Group 1225558" transform="translate(18.333 23.446)">
          <path id="Path_1212904" data-name="Path 1212904" d="M162.215,177.359h21.2V136.823h-21.2v40.536Z" transform="translate(-162.215 -136.823)" fill="#eceaec" fill-rule="evenodd"/>
        </g>
        <g id="Group_1225559" data-name="Group 1225559" transform="translate(16.055 21.646)">
          <path id="Path_1212905" data-name="Path 1212905" d="M144.339,125.209h23.085a.388.388,0,0,0,.388-.391v-3.529a.39.39,0,0,0-.388-.391H142.452a.392.392,0,0,0-.391.391v3.529a.39.39,0,0,0,.391.391Z" transform="translate(-142.061 -120.898)" fill="#6f6571" fill-rule="evenodd"/>
        </g>
        <g id="Group_1225560" data-name="Group 1225560" transform="translate(28.931 11.202)">
          <path id="Path_1212906" data-name="Path 1212906" d="M255.986,34.742h7.567a.686.686,0,0,0,.682-.685V29.172a.686.686,0,0,0-.682-.685h-7.567Z" transform="translate(-255.986 -28.487)" fill="#ff8086" fill-rule="evenodd"/>
        </g>
        <g id="Group_1225561" data-name="Group 1225561" transform="translate(18.333 25.957)">
          <path id="Path_1212907" data-name="Path 1212907" d="M162.215,161.145h19.222v35.921h1.977V159.041h-21.2Z" transform="translate(-162.215 -159.041)" fill="#dad8db" fill-rule="evenodd"/>
        </g>
        <g id="Group_1225562" data-name="Group 1225562" transform="translate(37.177 21.646)">
          <path id="Path_1212908" data-name="Path 1212908" d="M331.3,125.209h1.887a.388.388,0,0,0,.388-.391v-3.529a.39.39,0,0,0-.388-.391H328.95a.392.392,0,0,1,.391.391v3.529a.389.389,0,0,1-.384.391Z" transform="translate(-328.95 -120.898)" fill="#5d5360" fill-rule="evenodd"/>
        </g>
        <g id="Group_1225563" data-name="Group 1225563" transform="translate(39.531 33.746)">
          <path id="Path_1212909" data-name="Path 1212909" d="M349.785,230.144h13.634V258.2h1.651a.514.514,0,0,0,.513-.512V227.959h-15.8Z" transform="translate(-349.785 -227.959)" fill="#95d6a4" fill-rule="evenodd"/>
        </g>
        <g id="Group_1225564" data-name="Group 1225564" transform="translate(10.497 39.299)">
          <path id="Path_1212910" data-name="Path 1212910" d="M96.8,281.806H92.88V277.1H96.8a.406.406,0,0,1,.4.4v3.9A.406.406,0,0,1,96.8,281.806Z" transform="translate(-92.88 -277.098)" fill="#9fd4fe" fill-rule="evenodd"/>
        </g>
        <g id="Group_1225565" data-name="Group 1225565" transform="translate(6.175 39.299)">
          <path id="Path_1212911" data-name="Path 1212911" d="M58.962,281.805H55.047a.407.407,0,0,1-.407-.4v-3.9a.407.407,0,0,1,.407-.4h3.915Z" transform="translate(-54.64 -277.097)" fill="#9fd4fe" fill-rule="evenodd"/>
        </g>
        <g id="Group_1225566" data-name="Group 1225566" transform="translate(6.175 47.774)">
          <path id="Path_1212912" data-name="Path 1212912" d="M58.962,356.792H55.047a.407.407,0,0,1-.407-.407v-3.9a.407.407,0,0,1,.407-.407h3.915Z" transform="translate(-54.64 -352.081)" fill="#9fd4fe" fill-rule="evenodd"/>
        </g>
        <g id="Group_1225567" data-name="Group 1225567" transform="translate(10.497 47.774)">
          <path id="Path_1212913" data-name="Path 1212913" d="M96.8,356.792H92.88v-4.711H96.8a.407.407,0,0,1,.4.407v3.9A.407.407,0,0,1,96.8,356.792Z" transform="translate(-92.88 -352.081)" fill="#9fd4fe" fill-rule="evenodd"/>
        </g>
        <g id="Group_1225568" data-name="Group 1225568" transform="translate(43.043 39.299)">
          <path id="Path_1212914" data-name="Path 1212914" d="M381.259,281.806h3.915V277.1h-3.915a.407.407,0,0,0-.407.4v3.9A.407.407,0,0,0,381.259,281.806Z" transform="translate(-380.852 -277.098)" fill="#9fd4fe" fill-rule="evenodd"/>
        </g>
        <g id="Group_1225569" data-name="Group 1225569" transform="translate(47.364 39.299)">
          <path id="Path_1212915" data-name="Path 1212915" d="M419.092,281.805h3.918a.406.406,0,0,0,.4-.4v-3.9a.406.406,0,0,0-.4-.4h-3.918Z" transform="translate(-419.092 -277.097)" fill="#9fd4fe" fill-rule="evenodd"/>
        </g>
        <g id="Group_1225570" data-name="Group 1225570" transform="translate(47.364 47.774)">
          <path id="Path_1212916" data-name="Path 1212916" d="M419.092,356.792h3.918a.407.407,0,0,0,.4-.407v-3.9a.407.407,0,0,0-.4-.407h-3.918Z" transform="translate(-419.092 -352.081)" fill="#9fd4fe" fill-rule="evenodd"/>
        </g>
        <g id="Group_1225571" data-name="Group 1225571" transform="translate(43.043 47.774)">
          <path id="Path_1212917" data-name="Path 1212917" d="M381.259,356.792h3.915v-4.711h-3.915a.407.407,0,0,0-.407.407v3.9A.407.407,0,0,0,381.259,356.792Z" transform="translate(-380.852 -352.081)" fill="#9fd4fe" fill-rule="evenodd"/>
        </g>
        <g id="Group_1225572" data-name="Group 1225572" transform="translate(23.821 48.67)">
          <path id="Path_1212918" data-name="Path 1212918" d="M210.773,371.57l5.11.791V360.015h-4.508a.6.6,0,0,0-.6.6Z" transform="translate(-210.773 -360.015)" fill="#9fd4fe" fill-rule="evenodd"/>
        </g>
        <g id="Group_1225573" data-name="Group 1225573" transform="translate(28.931 48.67)">
          <path id="Path_1212919" data-name="Path 1212919" d="M255.986,372.135l5.11-.565V360.614a.6.6,0,0,0-.6-.6h-4.511Z" transform="translate(-255.986 -360.015)" fill="#9fd4fe" fill-rule="evenodd"/>
        </g>
        <g id="Group_1225574" data-name="Group 1225574" transform="translate(22.69 29.781)">
          <path id="Path_1212920" data-name="Path 1212920" d="M207.008,205.419a6.271,6.271,0,1,0-6.241-6.271A6.256,6.256,0,0,0,207.008,205.419Z" transform="translate(-200.767 -192.877)" fill="#9fd4fe" fill-rule="evenodd"/>
        </g>
        <g id="Group_1225575" data-name="Group 1225575" transform="translate(39.531 30.188)">
          <path id="Path_1212921" data-name="Path 1212921" d="M349.785,200.033h17.194a.293.293,0,0,0,.292-.291v-2.975a.293.293,0,0,0-.292-.291H349.785Z" transform="translate(-349.785 -196.475)" fill="#6f6571" fill-rule="evenodd"/>
        </g>
        <g id="Group_1225576" data-name="Group 1225576" transform="translate(53.384 30.188)">
          <path id="Path_1212922" data-name="Path 1212922" d="M474.3,200.033h1.4a.293.293,0,0,0,.292-.291v-2.975a.293.293,0,0,0-.292-.291h-3.341a.292.292,0,0,1,.288.291v2.975a.292.292,0,0,1-.288.291Z" transform="translate(-472.355 -196.475)" fill="#5d5360" fill-rule="evenodd"/>
        </g>
        <g id="Group_1225577" data-name="Group 1225577" transform="translate(22.222 60.226)">
          <path id="Path_1212923" data-name="Path 1212923" d="M196.627,466.016h13.417V463a.771.771,0,0,0-.794-.737H197.425a.772.772,0,0,0-.8.737v3.02Z" transform="translate(-196.627 -462.259)" fill="#b3e59f" fill-rule="evenodd"/>
        </g>
        <g id="Group_1225578" data-name="Group 1225578" transform="translate(6.175 47.774)">
          <path id="Path_1212924" data-name="Path 1212924" d="M54.64,354.434h4.322V352.08H55.047a.407.407,0,0,0-.407.4Z" transform="translate(-54.64 -352.08)" fill="#72bffc" fill-rule="evenodd"/>
        </g>
        <g id="Group_1225579" data-name="Group 1225579" transform="translate(10.497 47.774)">
          <path id="Path_1212925" data-name="Path 1212925" d="M92.88,354.434H97.2v-1.95a.406.406,0,0,0-.4-.4H92.88Z" transform="translate(-92.88 -352.08)" fill="#72bffc" fill-rule="evenodd"/>
        </g>
        <g id="Group_1225580" data-name="Group 1225580" transform="translate(43.043 39.299)">
          <path id="Path_1212926" data-name="Path 1212926" d="M380.852,279.451h4.322V277.1h-3.915a.407.407,0,0,0-.407.4v1.95Z" transform="translate(-380.852 -277.097)" fill="#72bffc" fill-rule="evenodd"/>
        </g>
        <g id="Group_1225581" data-name="Group 1225581" transform="translate(47.364 39.299)">
          <path id="Path_1212927" data-name="Path 1212927" d="M419.091,279.451h4.322V277.5a.406.406,0,0,0-.4-.4h-3.918v2.354Z" transform="translate(-419.091 -277.097)" fill="#72bffc" fill-rule="evenodd"/>
        </g>
        <g id="Group_1225582" data-name="Group 1225582" transform="translate(43.043 47.774)">
          <path id="Path_1212928" data-name="Path 1212928" d="M380.852,354.434h4.322V352.08h-3.915a.407.407,0,0,0-.407.4v1.95Z" transform="translate(-380.852 -352.08)" fill="#72bffc" fill-rule="evenodd"/>
        </g>
        <g id="Group_1225583" data-name="Group 1225583" transform="translate(47.364 47.774)">
          <path id="Path_1212929" data-name="Path 1212929" d="M419.091,354.434h4.322v-1.95a.406.406,0,0,0-.4-.4h-3.918v2.354Z" transform="translate(-419.091 -352.08)" fill="#72bffc" fill-rule="evenodd"/>
        </g>
        <g id="Group_1225584" data-name="Group 1225584" transform="translate(24.247 29.781)">
          <path id="Path_1212930" data-name="Path 1212930" d="M217.362,194.331a6.275,6.275,0,0,1,4.684,10.412,6.263,6.263,0,1,0-7.5-9.739,6.212,6.212,0,0,1,2.819-.673Z" transform="translate(-214.543 -192.877)" fill="#72bffc" fill-rule="evenodd"/>
        </g>
        <g id="Group_1225585" data-name="Group 1225585" transform="translate(32.342 60.226)">
          <path id="Path_1212931" data-name="Path 1212931" d="M286.97,466.016h2.5V463a.771.771,0,0,0-.794-.737h-2.5a.771.771,0,0,1,.794.737Z" transform="translate(-286.175 -462.259)" fill="#95d6a4" fill-rule="evenodd"/>
        </g>
        <g id="Group_1225586" data-name="Group 1225586" transform="translate(33.832 11.202)">
          <path id="Path_1212932" data-name="Path 1212932" d="M299.356,34.742h2.665a.686.686,0,0,0,.682-.685V29.172a.686.686,0,0,0-.682-.685h-2.665a.686.686,0,0,1,.686.685v4.884A.686.686,0,0,1,299.356,34.742Z" transform="translate(-299.356 -28.487)" fill="#f76672" fill-rule="evenodd"/>
        </g>
        <g id="Group_1225587" data-name="Group 1225587" transform="translate(0 9)">
          <path id="Path_1212933" data-name="Path 1212933" d="M251.223,223.6H250.18v-2.288a.848.848,0,1,0-1.7,0v3.135a.848.848,0,0,0,.848.848h1.89a.848.848,0,1,0,0-1.7Z" transform="translate(-220.402 -196.562)"/>
          <path id="Path_1212934" data-name="Path 1212934" d="M200.354,185.377a7.119,7.119,0,1,0,7.088,7.118A7.111,7.111,0,0,0,200.354,185.377Zm0,12.542a5.423,5.423,0,1,1,5.393-5.423A5.414,5.414,0,0,1,200.354,197.919Z" transform="translate(-171.424 -165.444)"/>
          <path id="Path_1212935" data-name="Path 1212935" d="M48.394,276h7.833a1.253,1.253,0,0,0,1.251-1.251v-3.9a1.253,1.253,0,0,0-1.251-1.251H48.394a1.254,1.254,0,0,0-1.254,1.251v3.9A1.254,1.254,0,0,0,48.394,276Zm4.763-4.708h2.626v3.013H53.157Zm-4.322,0h2.626v3.013H48.835Z" transform="translate(-41.812 -240.145)"/>
          <path id="Path_1212936" data-name="Path 1212936" d="M47.14,349.733a1.256,1.256,0,0,0,1.254,1.254h7.833a1.254,1.254,0,0,0,1.251-1.254v-3.9a1.254,1.254,0,0,0-1.251-1.254H48.394a1.256,1.256,0,0,0-1.254,1.254v3.9Zm6.017-3.457h2.626v3.016H53.157Zm-4.322,0h2.626v3.016H48.835Z" transform="translate(-41.812 -306.655)"/>
          <path id="Path_1212937" data-name="Path 1212937" d="M374.607,276h7.833a1.253,1.253,0,0,0,1.251-1.251v-3.9a1.253,1.253,0,0,0-1.251-1.251h-7.833a1.254,1.254,0,0,0-1.254,1.251v3.9A1.254,1.254,0,0,0,374.607,276Zm4.763-4.708H382v3.013h-2.626Zm-4.322,0h2.626v3.013h-2.626Z" transform="translate(-331.157 -240.145)"/>
          <path id="Path_1212938" data-name="Path 1212938" d="M374.607,350.987h7.833a1.254,1.254,0,0,0,1.251-1.254v-3.9a1.254,1.254,0,0,0-1.251-1.254h-7.833a1.256,1.256,0,0,0-1.254,1.254v3.9A1.256,1.256,0,0,0,374.607,350.987Zm4.763-4.711H382v3.016h-2.626Zm-4.322,0h2.626v3.016h-2.626Z" transform="translate(-331.157 -306.655)"/>
          <path id="Path_1212939" data-name="Path 1212939" d="M56.725,29.34H40.379V26.8h1.039a1.238,1.238,0,0,0,1.235-1.238V22.037A1.238,1.238,0,0,0,41.418,20.8H29.778V18.3H36.5a1.533,1.533,0,0,0,1.53-1.533V11.888a1.533,1.533,0,0,0-1.53-1.533H29.778V9.848a.848.848,0,1,0-1.7,0V20.8H16.446a1.24,1.24,0,0,0-1.238,1.238v3.529A1.24,1.24,0,0,0,16.446,26.8h1.039V29.34H1.136A1.139,1.139,0,0,0,0,30.479v2.975a1.139,1.139,0,0,0,1.136,1.139h.549v11.3a.848.848,0,1,0,1.7,0v-11.3H17.485V63.135H3.38V49.8a.848.848,0,0,0-1.7,0V63.47a1.363,1.363,0,0,0,1.363,1.36H54.816a1.362,1.362,0,0,0,1.36-1.36V34.594h.549a1.14,1.14,0,0,0,1.139-1.139V30.479a1.14,1.14,0,0,0-1.139-1.139ZM29.778,12.05h6.554v4.56H29.778ZM17.485,32.9H1.7V31.035h15.79Zm38.684-1.863V32.9H40.379V31.035Zm-21.378,32.1H23.07V61.073H34.792v2.062ZM24.668,59.378v-9.86h3.414v9.86Zm5.11,0v-9.86h3.415v9.86Zm5.11,0V49.269a1.448,1.448,0,0,0-1.447-1.446H24.423a1.45,1.45,0,0,0-1.45,1.446V59.38a1.615,1.615,0,0,0-1.6,1.582v2.173H19.181V26.8h7.687a.848.848,0,0,0,0-1.7H16.9V22.494H40.958v2.616H30.641a.848.848,0,0,0,0,1.7h8.042v36.33h-2.2V60.962A1.613,1.613,0,0,0,34.888,59.38Zm19.593,3.755h-14.1V34.594h14.1V63.135Z" transform="translate(0 -9)"/>
        </g>
      </g>
    </g>
  </g>
</svg>
