<svg xmlns="http://www.w3.org/2000/svg" width="90" height="90" viewBox="0 0 90 90">
  <g id="Group_1202145" data-name="Group 1202145" transform="translate(-172.5 -4)">
    <g id="Icono_Circular" transform="translate(172.5 4)">
      <path id="Path_875096" data-name="Path 875096" d="M45,0A45,45,0,1,1,0,45,45,45,0,0,1,45,0Z" fill="#dbe7fc"/>
      <path id="Path_978626" data-name="Path 978626" d="M53.282,37.711a1.654,1.654,0,0,1,0,2.34l-13.23,13.23a1.655,1.655,0,1,1-2.34-2.34l13.23-13.23a1.654,1.654,0,0,1,2.34,0ZM63.606,27.387a11.577,11.577,0,0,0-16.373,0L41.019,33.6a1.655,1.655,0,1,0,2.34,2.34l6.214-6.2A8.269,8.269,0,1,1,61.268,41.43l-6.217,6.214a1.654,1.654,0,0,0,2.338,2.34l6.216-6.224a11.577,11.577,0,0,0,0-16.373ZM47.635,55.051,41.42,61.265A8.269,8.269,0,1,1,29.728,49.57l6.212-6.212a1.655,1.655,0,0,0-2.34-2.34l-6.212,6.214A11.577,11.577,0,0,0,43.761,63.605l6.214-6.216a1.654,1.654,0,0,0-2.34-2.338Z" transform="translate(0.003 0.004)" fill="#006df0"/>
    </g>
  </g>
</svg>
