<svg xmlns="http://www.w3.org/2000/svg" xmlns:xlink="http://www.w3.org/1999/xlink" width="108" height="108" viewBox="0 0 108 108">
  <defs>
    <filter id="Path_904820" x="0" y="0" width="108" height="108" filterUnits="userSpaceOnUse">
      <feOffset dy="3" input="SourceAlpha"/>
      <feGaussianBlur stdDeviation="3" result="blur"/>
      <feFlood flood-opacity="0.161"/>
      <feComposite operator="in" in2="blur"/>
      <feComposite in="SourceGraphic"/>
    </filter>
  </defs>
  <g id="Group_1226372" data-name="Group 1226372" transform="translate(-200.087 -790.058)">
    <g id="Group_1225223" data-name="Group 1225223">
      <g id="Group_1224453" data-name="Group 1224453" transform="translate(0 -63.942)">
        <g id="Group_1206312" data-name="Group 1206312" transform="translate(209.088 860)">
          <g id="Group_1203639" data-name="Group 1203639" transform="translate(0 0)">
            <g id="Group_1202437" data-name="Group 1202437" transform="translate(0 0)">
              <g id="Group_1177315" data-name="Group 1177315">
                <g id="Group_1173585" data-name="Group 1173585" transform="translate(0)">
                  <g id="Group_1173428" data-name="Group 1173428">
                    <g id="Group_1171958" data-name="Group 1171958">
                      <g id="Group_1167341" data-name="Group 1167341">
                        <g id="Group_1166792" data-name="Group 1166792">
                          <g transform="matrix(1, 0, 0, 1, -9, -6)" filter="url(#Path_904820)">
                            <g id="Path_904820-2" data-name="Path 904820" transform="translate(9 6)" fill="#ebe9f0">
                              <path d="M 44.99999618530273 88.49997711181641 C 39.12687301635742 88.49997711181641 33.43022155761719 87.35005187988281 28.06829643249512 85.0821533203125 C 22.88852119445801 82.89128875732422 18.23629570007324 79.75457763671875 14.24084663391113 75.75912475585938 C 10.24540901184082 71.76367950439453 7.108683586120605 67.1114501953125 4.917821407318115 61.93169021606445 C 2.649921178817749 56.56975173950195 1.499996185302734 50.87311172485352 1.499996185302734 44.9999885559082 C 1.499996185302734 39.12686538696289 2.649921178817749 33.43021392822266 4.917821407318115 28.06828880310059 C 7.108683586120605 22.88851356506348 10.24540901184082 18.23630142211914 14.24084663391113 14.24085140228271 C 18.23629570007324 10.24540138244629 22.88852119445801 7.108688354492188 28.06829643249512 4.917826175689697 C 33.43022155761719 2.649925947189331 39.12687301635742 1.500001072883606 44.99999618530273 1.500001072883606 C 50.87311935424805 1.500001072883606 56.56977081298828 2.649925947189331 61.93169784545898 4.917826175689697 C 67.11147308349609 7.108688354492188 71.76369476318359 10.24540138244629 75.75914764404297 14.24085140228271 C 79.75458526611328 18.23630142211914 82.89131164550781 22.88851356506348 85.08216857910156 28.06828880310059 C 87.35007476806641 33.43021392822266 88.5 39.12686538696289 88.5 44.9999885559082 C 88.5 50.87311172485352 87.35007476806641 56.56975173950195 85.08216857910156 61.93169021606445 C 82.89131164550781 67.1114501953125 79.75458526611328 71.76367950439453 75.75914764404297 75.75912475585938 C 71.76369476318359 79.75457763671875 67.11147308349609 82.89128875732422 61.93169784545898 85.0821533203125 C 56.56977081298828 87.35005187988281 50.87311935424805 88.49997711181641 44.99999618530273 88.49997711181641 Z" stroke="none"/>
                              <path d="M 44.99999618530273 3 C 39.32870864868164 3 33.82865142822266 4.110061645507812 28.65262603759766 6.299331665039062 C 23.65165710449219 8.414573669433594 19.15968322753906 11.44332885742188 15.301513671875 15.301513671875 C 11.44333648681641 19.15969085693359 8.414566040039062 23.65164947509766 6.299339294433594 28.65261840820312 C 4.110054016113281 33.82864379882812 2.999992370605469 39.32870101928711 2.999992370605469 44.9999885559082 C 2.999992370605469 50.6712760925293 4.110054016113281 56.17131805419922 6.299339294433594 61.34735870361328 C 8.414566040039062 66.34832763671875 11.44333648681641 70.84028625488281 15.301513671875 74.69845581054688 C 19.15968322753906 78.55663299560547 23.65165710449219 81.58540344238281 28.65262603759766 83.70063018798828 C 33.82865142822266 85.88991546630859 39.32870864868164 86.99997711181641 44.99999618530273 86.99997711181641 C 50.67128372192383 86.99997711181641 56.17134094238281 85.88991546630859 61.34736633300781 83.70063018798828 C 66.34834289550781 81.58540344238281 70.84030914306641 78.55663299560547 74.69847869873047 74.69845581054688 C 78.55665588378906 70.84028625488281 81.58542633056641 66.34832763671875 83.70065307617188 61.34735870361328 C 85.88993835449219 56.17131805419922 87 50.6712760925293 87 44.9999885559082 C 87 39.32870101928711 85.88993835449219 33.82864379882812 83.70065307617188 28.65261840820312 C 81.58542633056641 23.65164947509766 78.55665588378906 19.15969085693359 74.69847869873047 15.301513671875 C 70.84030914306641 11.44332885742188 66.34834289550781 8.414573669433594 61.34736633300781 6.299331665039062 C 56.17134094238281 4.110061645507812 50.67128372192383 3 44.99999618530273 3 M 44.99999618530273 0 C 69.85281372070312 0 90 20.14717102050781 90 44.9999885559082 C 90 69.85279083251953 69.85281372070312 89.99997711181641 44.99999618530273 89.99997711181641 C 20.14717864990234 89.99997711181641 -7.62939453125e-06 69.85279083251953 -7.62939453125e-06 44.9999885559082 C -7.62939453125e-06 20.14717102050781 20.14717864990234 0 44.99999618530273 0 Z" stroke="none" fill="#453179"/>
                            </g>
                          </g>
                        </g>
                      </g>
                    </g>
                  </g>
                </g>
              </g>
            </g>
          </g>
        </g>
      </g>
      <g id="multicultural" transform="translate(222 809)">
        <circle id="Ellipse_12671" data-name="Ellipse 12671" cx="24" cy="24" r="24" transform="translate(8 8)" fill="#73c3ff"/>
        <path id="Path_1211531" data-name="Path 1211531" d="M32,8A24,24,0,1,0,56,32,24.006,24.006,0,0,0,32,8Zm0,43.5A19.5,19.5,0,1,1,51.5,32,19.5,19.5,0,0,1,32,51.5Z" fill="#5ebbff"/>
        <path id="Path_1211532" data-name="Path 1211532" d="M32,8A24,24,0,1,0,56,32,24.006,24.006,0,0,0,32,8Zm0,45A21,21,0,1,1,53,32,21,21,0,0,1,32,53Z" fill="#4db4ff"/>
        <path id="Path_1211533" data-name="Path 1211533" d="M53.74,42.16A23.843,23.843,0,0,0,56,32a22.9,22.9,0,0,0-.28-3.63l-1.86,1.11a2.763,2.763,0,0,0-1.18,1.47l-.36,1.1a2.763,2.763,0,0,1-1.18,1.47l-2.28,1.36a2.712,2.712,0,0,0-1.17,3.18,2.752,2.752,0,0,1,.14.85,2.675,2.675,0,0,1-.2,1.01l-1.09,2.72c.29.15.58.32.85.49A9.945,9.945,0,0,1,52,42,9.084,9.084,0,0,1,53.74,42.16Z" fill="#3ecc98"/>
        <path id="Path_1211534" data-name="Path 1211534" d="M35.87,55.68A23.5,23.5,0,0,1,32,56,24.01,24.01,0,0,1,8.56,37.15l1.98-1.34a1.95,1.95,0,0,1,2.67.47,1.917,1.917,0,0,0,1.58.81,1.982,1.982,0,0,0,.93-.24l2.95-1.61a1.951,1.951,0,0,1,2.45.48l.92,1.15a5,5,0,0,0,3.08,1.78,4.692,4.692,0,0,1,2.49,1.22A4.766,4.766,0,0,1,29,42.28l.37,1.6a5.225,5.225,0,0,0,.29.87l1.6,3.46a1.725,1.725,0,0,1-.1,1.62,1.705,1.705,0,0,0,1.26,2.6l.71.09a2.719,2.719,0,0,1,2.25,1.79Z" fill="#3ecc98"/>
        <path id="Path_1211535" data-name="Path 1211535" d="M34.53,8.13A23.416,23.416,0,0,0,32,8,24.007,24.007,0,0,0,8.03,30.78l1.81-1.09a2.947,2.947,0,0,1,2.44-.26,2.906,2.906,0,0,0,.92.15,2.937,2.937,0,0,0,2.08-.86l.5-.5a2.949,2.949,0,0,1,2.88-.75l1.71.49a3.479,3.479,0,0,0,4.37-2.66,3.519,3.519,0,0,1,1.32-2.1l1.54-1.15a2.1,2.1,0,0,0,.62-2.61l-.39-.79a2.088,2.088,0,0,1,.71-2.68l.13-.08a2.106,2.106,0,0,0,.82-2.41,2.174,2.174,0,0,1-.11-.66,2.125,2.125,0,0,1,.9-1.72Z" fill="#3ecc98"/>
        <path id="Path_1211536" data-name="Path 1211536" d="M56,32a23.843,23.843,0,0,1-2.26,10.16A9.084,9.084,0,0,0,52,42a9.965,9.965,0,0,0-3.71.72,19.276,19.276,0,0,0,3.16-9.43,2.729,2.729,0,0,0,.87-1.24l.36-1.1a2.763,2.763,0,0,1,1.18-1.47l1.86-1.11A22.9,22.9,0,0,1,56,32Z" fill="#3abf8e"/>
        <path id="Path_1211537" data-name="Path 1211537" d="M35.87,55.68A23.5,23.5,0,0,1,32,56,24.01,24.01,0,0,1,8.56,37.15l1.98-1.34a1.967,1.967,0,0,1,2.37.14A19.476,19.476,0,0,0,31.08,51.47a1.643,1.643,0,0,0,1.34.96l.71.09a2.719,2.719,0,0,1,2.25,1.79Z" fill="#3abf8e"/>
        <path id="Path_1211538" data-name="Path 1211538" d="M34.53,8.13,30.28,11.1a2.114,2.114,0,0,0-.89,1.58A19.491,19.491,0,0,0,12.66,29.52a2.339,2.339,0,0,1-.38-.09,2.947,2.947,0,0,0-2.44.26L8.03,30.78A24.007,24.007,0,0,1,32,8,23.416,23.416,0,0,1,34.53,8.13Z" fill="#3abf8e"/>
        <g id="Group_1225222" data-name="Group 1225222">
          <path id="Path_1211539" data-name="Path 1211539" d="M56,32a23.843,23.843,0,0,1-2.26,10.16A9.084,9.084,0,0,0,52,42a8.429,8.429,0,0,0-1.6.14A20.994,20.994,0,0,0,53,32c0-.53-.02-1.06-.07-1.58a2.786,2.786,0,0,1,.93-.94l1.86-1.11A22.9,22.9,0,0,1,56,32Z" fill="#36b385"/>
          <path id="Path_1211540" data-name="Path 1211540" d="M35.87,55.68A23.5,23.5,0,0,1,32,56,24.01,24.01,0,0,1,8.56,37.15l1.98-1.34a1.785,1.785,0,0,1,.76-.3A20.988,20.988,0,0,0,32,53a20,20,0,0,0,2.2-.12,2.737,2.737,0,0,1,1.18,1.43Z" fill="#36b385"/>
          <path id="Path_1211541" data-name="Path 1211541" d="M34.53,8.13l-4.21,2.95h-.01A20.968,20.968,0,0,0,11.18,29.29a2.9,2.9,0,0,0-1.34.4L8.03,30.78A24.007,24.007,0,0,1,32,8a23.416,23.416,0,0,1,2.53.13Z" fill="#36b385"/>
          <path id="Path_1211542" data-name="Path 1211542" d="M46.67,27.95l-2.33-1.82a1.755,1.755,0,0,0-1.4-.34l-3.2.59a1.272,1.272,0,0,1-1.49-1.09,1.265,1.265,0,0,0-1.84-.97l-2.53,1.31a1.27,1.27,0,0,0-.32,2.02l.84.85a1.283,1.283,0,0,1,.35,1.15l-.09.43a1.78,1.78,0,0,0,2.21,2.07L37.4,32a1.759,1.759,0,0,1,1.73.46,2.269,2.269,0,0,0,3.4-.21l.5-.64a1.767,1.767,0,0,1,1.73-.64l.47.09a1.758,1.758,0,0,0,2.09-1.94,1.809,1.809,0,0,0-.66-1.17Z" fill="#36b385"/>
        </g>
        <path id="Path_1211543" data-name="Path 1211543" d="M16.61,20.87C18.49,22.04,20.88,23.12,22,22s.04-3.51-1.13-5.39a10.01,10.01,0,1,0-4.26,4.26Z" fill="#ffe499"/>
        <path id="Path_1211544" data-name="Path 1211544" d="M52,22a10.01,10.01,0,1,0-8.87-5.39C41.96,18.49,40.88,20.88,42,22s3.51.04,5.39-1.13A9.946,9.946,0,0,0,52,22Z" fill="#ffe499"/>
        <path id="Path_1211545" data-name="Path 1211545" d="M47.39,43.13C45.51,41.96,43.12,40.88,42,42s-.04,3.51,1.13,5.39a10.01,10.01,0,1,0,4.26-4.26Z" fill="#ffe499"/>
        <path id="Path_1211546" data-name="Path 1211546" d="M12,42a10.01,10.01,0,1,0,8.87,5.39C22.04,45.51,23.12,43.12,22,42s-3.51-.04-5.39,1.13A9.945,9.945,0,0,0,12,42Z" fill="#ffe499"/>
        <path id="Path_1211547" data-name="Path 1211547" d="M52,47l1.46,2.96,3.27.48-2.36,2.3L54.92,56,52,54.46,49.08,56l.55-3.26-2.36-2.3,3.27-.48Z" fill="#50d2fa"/>
        <path id="Path_1211548" data-name="Path 1211548" d="M48.5,8.5h7v7h-7Z" fill="#7b9acc"/>
        <path id="Path_1211549" data-name="Path 1211549" d="M16,15H8l4-8Z" fill="#36b385"/>
        <path id="Path_1211550" data-name="Path 1211550" d="M14.25,48.06H9.75L7.5,52l2.25,3.94h4.5L16.5,52Z" fill="#e66d67"/>
        <path id="Path_1211551" data-name="Path 1211551" d="M31.51,9.02,29.7,10.29a3.12,3.12,0,0,0-1.32,2.53,3.184,3.184,0,0,0,.16.98,1.086,1.086,0,0,1-.4,1.24l-.16.1a3.088,3.088,0,0,0-1.05,3.95l.39.79A1.088,1.088,0,0,1,27,21.24L25.45,22.4a4.481,4.481,0,0,0-1.69,2.7,2.436,2.436,0,0,1-1.14,1.63,2.481,2.481,0,0,1-1.97.27l-1.71-.49a3.96,3.96,0,0,0-3.86,1l-.5.5a1.95,1.95,0,0,1-1.98.47,3.953,3.953,0,0,0-3.27.35l-.09.05a21.985,21.985,0,0,1,1.25-4.99,10.888,10.888,0,0,1-1.98-.42,24.947,24.947,0,0,0,0,17.04,10.888,10.888,0,0,1,1.98-.42,22.188,22.188,0,0,1-.77-2.52l1.39-.94a.943.943,0,0,1,1.29.21,2.986,2.986,0,0,0,3.81.88l2.95-1.61a.947.947,0,0,1,1.19.23l.93,1.16a5.954,5.954,0,0,0,3.7,2.13,3.762,3.762,0,0,1,3.05,2.87l.37,1.6a6.324,6.324,0,0,0,.36,1.06l1.6,3.46a.721.721,0,0,1-.04.67,2.706,2.706,0,0,0,1.98,4.12l.72.09a1.707,1.707,0,0,1,1.42,1.13l.07.2a23.168,23.168,0,0,1-2.51.15,22.707,22.707,0,0,1-8.1-1.48,10.888,10.888,0,0,1-.42,1.98,24.947,24.947,0,0,0,17.04,0,10.888,10.888,0,0,1-.42-1.98,23.229,23.229,0,0,1-3.58,1.02l-.2-.56a3.721,3.721,0,0,0-3.07-2.45l-.73-.09a.708.708,0,0,1-.63-.71.758.758,0,0,1,.11-.38,2.708,2.708,0,0,0,.15-2.56l-1.59-3.44a4.388,4.388,0,0,1-.23-.7l-.37-1.6a5.766,5.766,0,0,0-4.7-4.39,3.959,3.959,0,0,1-2.45-1.42l-.92-1.15a2.962,2.962,0,0,0-3.71-.73l-2.94,1.6a.941.941,0,0,1-1.23-.28,2.949,2.949,0,0,0-4.04-.71l-.7.47a23.4,23.4,0,0,1-.28-3.46c0-.22.02-.43.03-.65l1.32-.8a1.937,1.937,0,0,1,1.61-.17,3.95,3.95,0,0,0,4.02-.95l.5-.5a1.944,1.944,0,0,1,1.9-.5l1.71.49a4.476,4.476,0,0,0,5.62-3.42,2.555,2.555,0,0,1,.94-1.5l1.54-1.15a3.094,3.094,0,0,0,.92-3.85l-.4-.8a1.073,1.073,0,0,1,.34-1.37l.17-.1a3.117,3.117,0,0,0,1.21-3.54,1.231,1.231,0,0,1-.06-.36,1.128,1.128,0,0,1,.47-.9l3.91-2.73a22.67,22.67,0,0,1,5.33,1.29,10.889,10.889,0,0,1,.42-1.98,24.947,24.947,0,0,0-17.04,0,10.888,10.888,0,0,1,.42,1.98,22.85,22.85,0,0,1,7.61-1.46Z"/>
        <path id="Path_1211552" data-name="Path 1211552" d="M55.5,40.52a24.947,24.947,0,0,0,0-17.04,10.888,10.888,0,0,1-1.98.42,21.962,21.962,0,0,1,1.1,3.96l-1.28.76a3.8,3.8,0,0,0-1.61,2.02l-.36,1.08a1.7,1.7,0,0,1-.74.94l-2.29,1.36a3.707,3.707,0,0,0-1.6,4.35,1.8,1.8,0,0,1,.09.54,1.628,1.628,0,0,1-.13.64l-.31.78a11.4,11.4,0,0,1,1.11.55c.32-.13.64-.24.96-.34l.1-.24a3.736,3.736,0,0,0,.27-1.39,3.811,3.811,0,0,0-.19-1.17,1.694,1.694,0,0,1,.73-2l2.29-1.36a3.8,3.8,0,0,0,1.61-2.02l.36-1.08a1.7,1.7,0,0,1,.74-.94l.54-.32Q55,30.995,55,32a22.707,22.707,0,0,1-1.48,8.1,10.889,10.889,0,0,1,1.98.42Z"/>
        <path id="Path_1211553" data-name="Path 1211553" d="M34.51,32.45a2.782,2.782,0,0,0,2.63.65l.54-.15a.79.79,0,0,1,.76.2,3.269,3.269,0,0,0,2.32.96h.2a3.275,3.275,0,0,0,2.38-1.25l.5-.64a.767.767,0,0,1,.75-.28l.47.09a2.759,2.759,0,0,0,2.42-.68,2.752,2.752,0,0,0-.18-4.19l-2.33-1.82a2.778,2.778,0,0,0-2.19-.54l-3.2.59a.328.328,0,0,1-.21-.05.268.268,0,0,1-.11-.18,2.266,2.266,0,0,0-3.29-1.74l-2.53,1.31a2.224,2.224,0,0,0-1.2,1.67,2.271,2.271,0,0,0,.63,1.95l.84.85a.26.26,0,0,1,.07.24l-.09.43a2.767,2.767,0,0,0,.83,2.58Zm-.17-5.94,2.53-1.31a.272.272,0,0,1,.25,0,.243.243,0,0,1,.14.2,2.266,2.266,0,0,0,2.66,1.95l3.2-.59a.753.753,0,0,1,.6.15l2.33,1.82a.757.757,0,0,1-.61,1.34l-.47-.09a2.742,2.742,0,0,0-2.72,1.01l-.5.64a1.3,1.3,0,0,1-.92.49,1.225,1.225,0,0,1-.98-.37,2.787,2.787,0,0,0-1.97-.82,2.622,2.622,0,0,0-.73.1l-.54.15a.784.784,0,0,1-.74-.18.751.751,0,0,1-.23-.72l.09-.43a2.255,2.255,0,0,0-.62-2.05l-.84-.85a.294.294,0,0,1-.08-.23.239.239,0,0,1,.14-.2Z"/>
        <path id="Path_1211554" data-name="Path 1211554" d="M56.88,49.45l-2.75-.4L52.9,46.56a1.04,1.04,0,0,0-1.79,0l-1.23,2.49-2.75.4a1,1,0,0,0-.56,1.7l1.99,1.94-.47,2.74a1,1,0,0,0,1.45,1.06L52,55.6l2.46,1.29a1.031,1.031,0,0,0,1.06-.08,1,1,0,0,0,.4-.98l-.47-2.74,1.99-1.94a1,1,0,0,0-.56-1.7Zm-3.21,2.58a1,1,0,0,0-.29.88l.22,1.26-1.13-.59a.984.984,0,0,0-.47-.11,1.116,1.116,0,0,0-.47.11l-1.13.59.22-1.26a.964.964,0,0,0-.29-.88l-.92-.89,1.26-.18a.977.977,0,0,0,.75-.55l.57-1.15.57,1.15a1.011,1.011,0,0,0,.75.55l1.26.18-.92.89Z"/>
        <path id="Path_1211555" data-name="Path 1211555" d="M48.5,16.5h7a1,1,0,0,0,1-1v-7a1,1,0,0,0-1-1h-7a1,1,0,0,0-1,1v7A1,1,0,0,0,48.5,16.5Zm1-7h5v5h-5Z"/>
        <path id="Path_1211556" data-name="Path 1211556" d="M8,16h8a1,1,0,0,0,.85-.47.986.986,0,0,0,.04-.97l-4-8.01a1.04,1.04,0,0,0-1.79,0l-3.99,8a.986.986,0,0,0,.04.97,1,1,0,0,0,.85.47Zm4-6.76L14.38,14H9.62Z"/>
        <path id="Path_1211557" data-name="Path 1211557" d="M8.88,56.43a1,1,0,0,0,.87.5h4.5a1,1,0,0,0,.87-.5l2.25-3.94a.975.975,0,0,0,0-.99l-2.25-3.94a1,1,0,0,0-.87-.5H9.75a1,1,0,0,0-.87.5L6.63,51.5a.975.975,0,0,0,0,.99Zm1.45-7.37h3.34L15.35,52l-1.68,2.94H10.33L8.65,52Z"/>
        <path id="Path_1211558" data-name="Path 1211558" d="M12,23a11.04,11.04,0,0,0,4.56-.99,8.721,8.721,0,0,0,4.17,1.46,2.668,2.668,0,0,0,1.97-.76c1.22-1.22.98-3.28-.7-6.15A10.994,10.994,0,1,0,12,23ZM12,3a8.991,8.991,0,0,1,7.98,13.15,1,1,0,0,0,.04.99c1.44,2.31,1.67,3.75,1.27,4.15s-1.84.17-4.15-1.27a.988.988,0,0,0-.53-.15,1.039,1.039,0,0,0-.46.11A9,9,0,1,1,12,3Z"/>
        <path id="Path_1211559" data-name="Path 1211559" d="M41.29,22.71a2.668,2.668,0,0,0,1.97.76,8.8,8.8,0,0,0,4.17-1.46,11.012,11.012,0,1,0-5.44-5.45c-1.68,2.87-1.92,4.93-.7,6.15Zm2.72-6.56a9.016,9.016,0,1,1,3.83,3.83,1,1,0,0,0-.99.04c-2.31,1.44-3.75,1.67-4.15,1.27s-.17-1.84,1.27-4.15a1,1,0,0,0,.04-.99Z"/>
        <path id="Path_1211560" data-name="Path 1211560" d="M52,41a11.04,11.04,0,0,0-4.56.99c-2.86-1.68-4.93-1.92-6.15-.7s-.98,3.28.7,6.15A11,11,0,1,0,52,41Zm0,20a8.991,8.991,0,0,1-7.98-13.15,1,1,0,0,0-.04-.99c-1.44-2.31-1.67-3.75-1.27-4.15a.818.818,0,0,1,.58-.18,7.834,7.834,0,0,1,3.57,1.45,1,1,0,0,0,.99.04A9,9,0,1,1,52,61Z"/>
        <path id="Path_1211561" data-name="Path 1211561" d="M12,63A11,11,0,0,0,22.01,47.44c1.68-2.87,1.92-4.93.7-6.15s-3.29-.98-6.15.7A11,11,0,1,0,12,63Zm0-20a8.967,8.967,0,0,1,4.15,1.02,1,1,0,0,0,.99-.04c2.31-1.44,3.75-1.67,4.15-1.27s.17,1.84-1.27,4.15a1,1,0,0,0-.04.99A9,9,0,1,1,12,43Z"/>
      </g>
    </g>
  </g>
</svg>
