<svg xmlns="http://www.w3.org/2000/svg" xmlns:xlink="http://www.w3.org/1999/xlink" width="103" height="103" viewBox="0 0 103 103">
  <defs>
    <filter id="Path_978624" x="0" y="0" width="103" height="103" filterUnits="userSpaceOnUse">
      <feOffset dy="3" input="SourceAlpha"/>
      <feGaussianBlur stdDeviation="3" result="blur"/>
      <feFlood flood-opacity="0.161"/>
      <feComposite operator="in" in2="blur"/>
      <feComposite in="SourceGraphic"/>
    </filter>
  </defs>
  <g id="Group_1226409" data-name="Group 1226409" transform="translate(-215 -4088.487)">
    <g id="Group_1226348" data-name="Group 1226348">
      <g id="Group_1225130" data-name="Group 1225130" transform="translate(224 4094.487)">
        <g id="Group_1203387" data-name="Group 1203387">
          <g id="Group_1178310" data-name="Group 1178310">
            <g id="Group_1176881" data-name="Group 1176881">
              <g id="Group_1175148" data-name="Group 1175148">
                <g id="Group_1173798" data-name="Group 1173798">
                  <g id="Group_1171925" data-name="Group 1171925">
                    <g id="Group_1164524" data-name="Group 1164524">
                      <g id="Group_1144123" data-name="Group 1144123">
                        <g transform="matrix(1, 0, 0, 1, -9, -6)" filter="url(#Path_978624)">
                          <g id="Path_978624-2" data-name="Path 978624" transform="translate(9 6)" fill="#ebe9f0">
                            <path d="M 42.5 83.5 C 36.96437835693359 83.5 31.59512901306152 82.41617584228516 26.54141235351562 80.27863311767578 C 21.65934181213379 78.21369171142578 17.27447128295898 75.25723266601562 13.50862312316895 71.49137878417969 C 9.742764472961426 67.72553253173828 6.786305904388428 63.34066009521484 4.721364498138428 58.45858764648438 C 2.583823442459106 53.40486907958984 1.5 48.03562164306641 1.5 42.5 C 1.5 36.96437835693359 2.583823442459106 31.59512901306152 4.721364498138428 26.54141235351562 C 6.786305904388428 21.65934181213379 9.742764472961426 17.27447128295898 13.50862312316895 13.50862312316895 C 17.27447128295898 9.742764472961426 21.65934181213379 6.786305904388428 26.54141235351562 4.721364498138428 C 31.59512901306152 2.583823442459106 36.96437835693359 1.5 42.5 1.5 C 48.03562164306641 1.5 53.40486907958984 2.583823442459106 58.45858764648438 4.721364498138428 C 63.34066009521484 6.786305904388428 67.72553253173828 9.742764472961426 71.49137878417969 13.50862312316895 C 75.25723266601562 17.27447128295898 78.21369171142578 21.65934181213379 80.27863311767578 26.54141235351562 C 82.41617584228516 31.59512901306152 83.5 36.96437835693359 83.5 42.5 C 83.5 48.03562164306641 82.41617584228516 53.40486907958984 80.27863311767578 58.45858764648438 C 78.21369171142578 63.34066009521484 75.25723266601562 67.72553253173828 71.49137878417969 71.49137878417969 C 67.72553253173828 75.25723266601562 63.34066009521484 78.21369171142578 58.45858764648438 80.27863311767578 C 53.40486907958984 82.41617584228516 48.03562164306641 83.5 42.5 83.5 Z" stroke="none"/>
                            <path d="M 42.5 3 C 37.16621398925781 3 31.99356079101562 4.043960571289062 27.125732421875 6.102882385253906 C 22.42246627807617 8.092185974121094 18.19785308837891 10.94070434570312 14.56928253173828 14.56928253173828 C 10.94070434570312 18.19785308837891 8.092185974121094 22.42246627807617 6.102882385253906 27.125732421875 C 4.043960571289062 31.99356079101562 3 37.16621398925781 3 42.5 C 3 47.83378601074219 4.043960571289062 53.00643920898438 6.102882385253906 57.87425231933594 C 8.092185974121094 62.57753372192383 10.94070434570312 66.80213165283203 14.56928253173828 70.43071746826172 C 18.19786834716797 74.05929565429688 22.42246627807617 76.90781402587891 27.125732421875 78.89711761474609 C 31.99356079101562 80.95603942871094 37.16621398925781 82 42.5 82 C 47.83378601074219 82 53.00642395019531 80.95603942871094 57.87425231933594 78.89711761474609 C 62.57753372192383 76.90781402587891 66.80213165283203 74.05929565429688 70.43071746826172 70.43071746826172 C 74.05929565429688 66.80213165283203 76.90781402587891 62.57753372192383 78.89711761474609 57.87425231933594 C 80.95603942871094 53.00642395019531 82 47.83378601074219 82 42.5 C 82 37.16621398925781 80.95603942871094 31.99356079101562 78.89711761474609 27.125732421875 C 76.90781402587891 22.42246627807617 74.05929565429688 18.19786834716797 70.43071746826172 14.56928253173828 C 66.80213165283203 10.94070434570312 62.57753372192383 8.092185974121094 57.87425231933594 6.102882385253906 C 53.00643920898438 4.043960571289062 47.83378601074219 3 42.5 3 M 42.5 0 C 65.97209167480469 0 85 19.02789306640625 85 42.5 C 85 65.97209167480469 65.97209167480469 85 42.5 85 C 19.02789306640625 85 0 65.97209167480469 0 42.5 C 0 19.02789306640625 19.02789306640625 0 42.5 0 Z" stroke="none" fill="#c6c0d6"/>
                          </g>
                        </g>
                      </g>
                    </g>
                  </g>
                </g>
              </g>
            </g>
          </g>
        </g>
      </g>
      <g id="sociedad_1_" data-name="sociedad (1)" transform="translate(236.409 4106.809)">
        <g id="Group_1226346" data-name="Group 1226346" transform="translate(0.827 0.982)">
          <path id="Path_1213836" data-name="Path 1213836" d="M82.55,34.391c0,3.1-3.836,5.137-10.447,5.758-27.311-11.032-5.473-32.5-5.473-32.5,6.6-.534,12.222,4.925,12.222,11.836v1.13c0,5.639,3.7,10.016,3.7,13.776Z" transform="translate(-52.331 -7.613)" fill="#77728d"/>
          <path id="Path_1213837" data-name="Path 1213837" d="M27.84,40.42c-1.408.132-2.942.2-4.593.2-9.4,0-15.04-2.2-15.04-5.957s3.7-8.137,3.7-13.776v-1.13A11.667,11.667,0,0,1,22.366,7.92C19.155,13.726,11.474,31.047,27.84,40.42Z" transform="translate(-8.068 -7.884)" fill="#5c576e"/>
          <ellipse id="Ellipse_12720" data-name="Ellipse 12720" cx="4.036" cy="3.539" rx="4.036" ry="3.539" transform="translate(22.256 11.502)" fill="#ffbf9d"/>
          <ellipse id="Ellipse_12721" data-name="Ellipse 12721" cx="3.927" cy="3.539" rx="3.927" ry="3.539" transform="translate(0.138 11.502)" fill="#ffd4bd"/>
          <path id="Path_1213838" data-name="Path 1213838" d="M77.931,101.371C67.058,93.172,74.7,84.7,74.7,84.7a10.711,10.711,0,0,0,3.7-1.429,2.371,2.371,0,0,1,2.515.013,10.474,10.474,0,0,0,6.957,1.535,2.469,2.469,0,0,1,2.688,1.718A11.464,11.464,0,0,1,77.931,101.371Z" transform="translate(-64.447 -74.065)" fill="#ffd4bd"/>
          <path id="Path_1213839" data-name="Path 1213839" d="M48.075,114.765A11.441,11.441,0,0,1,38.86,99.836a2.475,2.475,0,0,1,2.721-1.7,9.662,9.662,0,0,0,3.265-.049C43.728,103.412,43.923,109.572,48.075,114.765Z" transform="translate(-34.591 -87.459)" fill="#ffbf9d"/>
          <path id="Path_1213840" data-name="Path 1213840" d="M326.868,256.326a4.3,4.3,0,0,1-6.136,3.526,1.582,1.582,0,0,0-1.431.062c-2.285,1.261-5.1.381-8.148.342-13.727-6.368-5.668-19.113-5.668-19.113,9.4,0,17.5-.023,17.5.051.607,1.569,2.082,3.241,2.049,4.945-.032,1.663.4,6.521,1.269,7.961a3.968,3.968,0,0,1,.566,2.227Z" transform="translate(-268.342 -213.7)" fill="#eaaa83"/>
          <path id="Path_1213841" data-name="Path 1213841" d="M250.223,260.283c-2.881-.1-6.108,1.011-8.561-.342a1.579,1.579,0,0,0-1.43-.062,4.3,4.3,0,0,1-6.136-3.526,3.956,3.956,0,0,1,.565-2.227c.867-1.439,1.3-6.3,1.269-7.961s2.607-3.351,3.224-4.945c-.006-.016-.013-.034-.02-.051h5.42A23.977,23.977,0,0,0,250.223,260.283Z" transform="translate(-207.411 -213.726)" fill="#df8a57"/>
          <ellipse id="Ellipse_12722" data-name="Ellipse 12722" cx="4.036" cy="3.539" rx="4.036" ry="3.539" transform="translate(49.683 28.312)" fill="#ffcbbe"/>
          <ellipse id="Ellipse_12723" data-name="Ellipse 12723" cx="3.927" cy="3.539" rx="3.927" ry="3.539" transform="translate(27.565 28.312)" fill="#ffddcf"/>
          <path id="Path_1213842" data-name="Path 1213842" d="M330.271,177.635c0,7.891-6.756,13.788-13.9,12.137-7.565-7.554-3.293-14.5-3.293-14.5l3.094-5.422-1.916-3.634C321.775,162.726,330.271,168.71,330.271,177.635Z" transform="translate(-276.056 -146.691)" fill="#ffddcf"/>
          <path id="Path_1213843" data-name="Path 1213843" d="M281.768,193.753c-5.1-1.147-9.1-6.084-9.1-12.137a12.325,12.325,0,0,1,8.218-11.9C278.475,175.5,276.366,184.77,281.768,193.753Z" transform="translate(-241.453 -150.672)" fill="#ffcbbe"/>
          <path id="Path_1213844" data-name="Path 1213844" d="M329.8,155.945c-.363,0-.83-.019-.846-.021-1.2-.1-3.7.324-6.6-1.976a2.775,2.775,0,0,0-3.061-.244,17.506,17.506,0,0,1-7.473,2.076c-4.587-6.721,3.816-12.529,3.816-12.529C323.808,142.1,330.816,148.479,329.8,155.945Z" transform="translate(-274.796 -127.194)" fill="#eaaa83"/>
          <path id="Path_1213845" data-name="Path 1213845" d="M275.636,144.26a33.616,33.616,0,0,0-3.817,12.529c-3.15.239-3.228-.113-5.908.592a.548.548,0,0,1-.69-.425C264.373,150.7,269.146,145.161,275.636,144.26Z" transform="translate(-234.797 -128.203)" fill="#df8a57"/>
          <path id="Path_1213846" data-name="Path 1213846" d="M475.146,252.3h0Z" transform="translate(-420.141 -223.548)" fill="#eaaa83"/>
          <ellipse id="Ellipse_12724" data-name="Ellipse 12724" cx="4.036" cy="3.539" rx="4.036" ry="3.539" transform="translate(22.118 43.352)" fill="#c8866a"/>
          <ellipse id="Ellipse_12725" data-name="Ellipse 12725" cx="3.927" cy="3.539" rx="3.927" ry="3.539" transform="translate(0 43.352)" fill="#db9e82"/>
          <path id="Path_1213847" data-name="Path 1213847" d="M85.924,305.768c0,6.833-5.131,12.408-11.5,12.408h-.1s-14.333-3.768-4.547-23.758a10.753,10.753,0,0,1,4.652-1.058C80.775,293.36,85.924,298.916,85.924,305.768Z" transform="translate(-59.382 -259.784)" fill="#db9e82"/>
          <path id="Path_1213848" data-name="Path 1213848" d="M48.544,323.894c-6.321-.06-11.4-5.608-11.4-12.407a12.4,12.4,0,0,1,7.528-11.647C42.605,306.521,41.013,317.156,48.544,323.894Z" transform="translate(-33.608 -265.502)" fill="#c8866a"/>
          <path id="Path_1213849" data-name="Path 1213849" d="M100.586,284.579a.819.819,0,0,1-.917.646c-2.3-.29-4.148-2.39-5.137-3.784a1.97,1.97,0,0,0-2.2-.694,13.747,13.747,0,0,1-7.977-.052,1.987,1.987,0,0,0-1.4.1c-2.745-5.633,2.365-9.3,2.492-9.394h0C94.041,269.449,101.984,276.366,100.586,284.579Z" transform="translate(-73.316 -240.11)" fill="#ffebce"/>
          <path id="Path_1213850" data-name="Path 1213850" d="M39.073,273.9a42.379,42.379,0,0,0-2.495,9.4,1.84,1.84,0,0,0-.747.615c-.984,1.394-2.84,3.523-5.16,3.815a.821.821,0,0,1-.918-.646C28.707,280.922,32.956,275.282,39.073,273.9Z" transform="translate(-26.944 -242.61)" fill="#ffd9a0"/>
        </g>
        <g id="Group_1226347" data-name="Group 1226347" transform="translate(0 0.099)">
          <path id="Path_1213851" data-name="Path 1213851" d="M66.434,138.817a.881.881,0,0,0,.881-.881v-1.41a.881.881,0,1,0-1.763,0v1.41A.881.881,0,0,0,66.434,138.817Z" transform="translate(-57.85 -119.717)"/>
          <path id="Path_1213852" data-name="Path 1213852" d="M191.33,138.817a.881.881,0,0,0,.881-.881v-1.41a.881.881,0,1,0-1.763,0v1.41A.881.881,0,0,0,191.33,138.817Z" transform="translate(-168.071 -119.717)"/>
          <path id="Path_1213853" data-name="Path 1213853" d="M116.951,148.747a.881.881,0,0,0-1.329-1.158,1.683,1.683,0,0,1-2.54,0,.881.881,0,1,0-1.329,1.158A3.446,3.446,0,0,0,116.951,148.747Z" transform="translate(-98.431 -129.991)"/>
          <path id="Path_1213854" data-name="Path 1213854" d="M59.439,41.48c-.6-.9-1.059-4.32-1.116-6.027a4.222,4.222,0,0,0-1.72-6.565c.361-6.857-5.537-12.862-13.255-12.862a13.3,13.3,0,0,0-12.368,7.838c-.464-1.25-1.073-2.609-1.592-3.994,3.81-1.962,3.017-7.218-1.293-8.148a12.906,12.906,0,0,0-3.639-8,11.858,11.858,0,0,0-17.067,0,12.907,12.907,0,0,0-3.64,7.987,4.326,4.326,0,0,0-1.3,8.175C1.384,22.723,0,25.305,0,27.76c0,1.206.487,2.941,2.807,4.354A15.361,15.361,0,0,0,7.58,33.852,12.284,12.284,0,0,0,2.659,43.9a4.271,4.271,0,0,0-1.2,7.165,4.879,4.879,0,0,0,3.115,1.229,13.4,13.4,0,0,0,2.617,4.1,11.785,11.785,0,0,0,17.458,0,13.4,13.4,0,0,0,2.623-4.116,4.708,4.708,0,0,0,4.5-3.828c1.847-.02,2.145-.743,2.826-.4,1.842.924,3.869.747,6.015.56a23.8,23.8,0,0,1,5.469,0c2.095.182,4.158.372,6.014-.56a.838.838,0,0,1,.7-.032c4.525,1.893,9.251-2.59,6.645-6.534Zm-4.124-6.108a14.165,14.165,0,0,0,.357-4.758.874.874,0,0,0,.314-.069C58.247,31.689,57.946,34.67,55.315,35.373Zm-31.05-1.52a18.727,18.727,0,0,0,3.166-.941,4.185,4.185,0,0,0,.938,2.547,29.306,29.306,0,0,1-.308,3.06A12.847,12.847,0,0,0,24.264,33.853Zm6.292-3.238A1.388,1.388,0,0,0,31,30.93a14.161,14.161,0,0,0,.388,4.457C28.879,34.741,28.412,31.846,30.557,30.615Zm2.222.193c2.765-.621,7.669.344,12.785-2.549a1.887,1.887,0,0,1,2.08.168A10.527,10.527,0,0,0,53.9,30.57a12.344,12.344,0,0,1-.609,5.437.873.873,0,0,0-.042.118c-2.847,7.862-12.26,9.861-17.6,3.733a12.082,12.082,0,0,1-2.866-9.051Zm10.57-13.018c6.551,0,11.827,5.029,11.493,11.042a2.411,2.411,0,0,0-.245,0,9.246,9.246,0,0,1-5.859-1.782,3.665,3.665,0,0,0-4.042-.321c-3.168,1.791-6.423,2.008-9.917,2.075a11.944,11.944,0,0,0-2.894.413c-.589-6.03,4.642-11.423,11.464-11.423Zm-37.5-4.148a1.6,1.6,0,0,1,1.747-1.107,11.258,11.258,0,0,0,7.572-1.6,1.5,1.5,0,0,1,1.586.012A11.411,11.411,0,0,0,24.3,12.6a1.592,1.592,0,0,1,1.722,1.12,10.4,10.4,0,0,1,.28,5.524.874.874,0,0,0-.051.216A10.618,10.618,0,1,1,5.847,13.641Zm22.382,4.817a12.189,12.189,0,0,0-.442-5C30.642,14.125,30.874,17.469,28.229,18.458ZM8.647,4.958a10.1,10.1,0,0,1,14.553,0,11.123,11.123,0,0,1,3.082,6.38,3.272,3.272,0,0,0-2.235-.48,9.625,9.625,0,0,1-6.364-1.411,3.247,3.247,0,0,0-3.445-.014,9.469,9.469,0,0,1-6.366,1.358,3.284,3.284,0,0,0-2.3.485,11.12,11.12,0,0,1,3.075-6.32ZM4.059,13.445a12.172,12.172,0,0,0-.445,5.02C.914,17.446,1.283,14.058,4.059,13.445ZM1.763,27.76c0-2.019,1.238-4.35,2.307-7.179a12.419,12.419,0,0,0,23.7,0c1.294,3.429,3.037,6.559,1.973,8.468a4.55,4.55,0,0,0-1.689,1.6,16.764,16.764,0,0,1-6.051,1.812,14.016,14.016,0,0,0-12.171,0c-5.134-.717-8.073-2.422-8.073-4.7Zm8.564,6.423a.889.889,0,0,0,.117-.059,12.231,12.231,0,0,1,10.969.007.874.874,0,0,0,.1.05A10.572,10.572,0,0,1,27.3,45.217c-1.988-.279-3.658-2.254-4.481-3.413A2.864,2.864,0,0,0,19.63,40.78a12.951,12.951,0,0,1-7.457-.057,2.822,2.822,0,0,0-3.124,1.051c-.825,1.17-2.5,3.163-4.5,3.443a10.579,10.579,0,0,1,5.781-11.034ZM2.874,45.8a1.668,1.668,0,0,0,.669.887,14.148,14.148,0,0,0,.427,3.751A2.564,2.564,0,0,1,2.874,45.8Zm20.491,9.385a10.025,10.025,0,0,1-14.884,0A12.02,12.02,0,0,1,5.3,46.864c2.277-.544,4.06-2.479,5.186-4.074a1.076,1.076,0,0,1,1.18-.378,14.73,14.73,0,0,0,8.5.048,1.087,1.087,0,0,1,1.215.365c1.918,2.7,3.784,3.708,5.161,4.04a12.021,12.021,0,0,1-3.177,8.324Zm4.522-4.794a14.139,14.139,0,0,0,.415-3.7,1.635,1.635,0,0,0,.649-.83C30.851,47.243,30.16,49.765,27.887,50.394Zm30.5-6.444c-.1,2.03-2.707,3.363-4.916,2.438a2.6,2.6,0,0,0-2.166.082c-1.395.7-3.1.551-5.072.38a25.419,25.419,0,0,0-5.775,0c-1.973.172-3.677.32-5.073-.38a2.6,2.6,0,0,0-2.166-.081,3.931,3.931,0,0,1-1.588.3,4.557,4.557,0,0,0-2.446-2.724,11.8,11.8,0,0,0-.125-2.161,20.152,20.152,0,0,0,.98-5.037A5.15,5.15,0,0,0,32,37.249c4.316,10.559,18.343,10.657,22.7,0a5.192,5.192,0,0,0,1.951-.491C57.219,42.98,58.472,42.232,58.39,43.95Z" transform="translate(0 -0.099)"/>
          <path id="Path_1213855" data-name="Path 1213855" d="M300.727,273.465v-1.41a.881.881,0,0,0-1.763,0v1.41a.881.881,0,0,0,1.763,0Z" transform="translate(-263.835 -239.322)"/>
          <path id="Path_1213856" data-name="Path 1213856" d="M424.743,274.347a.881.881,0,0,0,.881-.881v-1.41a.881.881,0,0,0-1.763,0v1.41A.881.881,0,0,0,424.743,274.347Z" transform="translate(-374.057 -239.322)"/>
          <path id="Path_1213857" data-name="Path 1213857" d="M350.363,284.276a.881.881,0,0,0-1.329-1.158,1.681,1.681,0,0,1-2.54,0,.881.881,0,0,0-1.329,1.158A3.446,3.446,0,0,0,350.363,284.276Z" transform="translate(-304.416 -249.595)"/>
          <path id="Path_1213858" data-name="Path 1213858" d="M65.26,399.174a.881.881,0,0,0-.881.881v1.41a.881.881,0,0,0,1.763,0v-1.41A.881.881,0,0,0,65.26,399.174Z" transform="translate(-56.814 -352.281)"/>
          <path id="Path_1213859" data-name="Path 1213859" d="M190.158,399.174a.881.881,0,0,0-.881.881v1.41a.881.881,0,0,0,1.763,0v-1.41A.881.881,0,0,0,190.158,399.174Z" transform="translate(-167.036 -352.281)"/>
          <path id="Path_1213860" data-name="Path 1213860" d="M115.693,411.033a.881.881,0,0,0-1.243.085,1.681,1.681,0,0,1-2.54,0,.881.881,0,0,0-1.329,1.158,3.447,3.447,0,0,0,5.2,0A.881.881,0,0,0,115.693,411.033Z" transform="translate(-97.395 -362.556)"/>
        </g>
      </g>
    </g>
  </g>
</svg>
