<svg xmlns="http://www.w3.org/2000/svg" width="88.16" height="88.16" viewBox="0 0 88.16 88.16">
  <g id="Group_1226411" data-name="Group 1226411" transform="translate(-199.67 -4890.301)">
    <g id="Group_1226354" data-name="Group 1226354">
      <g id="Group_1224445" data-name="Group 1224445" transform="translate(0 -646.462)">
        <g id="Grupo_1206198" data-name="Grupo 1206198" transform="translate(0 1998.545)">
          <g id="Grupo_1203824" data-name="Grupo 1203824" transform="translate(199.67 3538.218)">
            <g id="Grupo_1203344" data-name="Grupo 1203344">
              <g id="Grupo_1177900" data-name="Grupo 1177900">
                <g id="Grupo_1172010" data-name="Grupo 1172010">
                  <g id="Grupo_1171046" data-name="Grupo 1171046">
                    <g id="Grupo_1148525" data-name="Grupo 1148525">
                      <g id="Trazado_982547" data-name="Trazado 982547">
                        <path id="Path_1045263" data-name="Path 1045263" d="M44.08,86.66A42.592,42.592,0,0,1,27.507,4.846,42.592,42.592,0,0,1,60.654,83.315,42.311,42.311,0,0,1,44.08,86.66Z" fill="#fdfbec"/>
                        <path id="Path_1045264" data-name="Path 1045264" d="M44.08,3A41.092,41.092,0,0,0,28.091,81.933,41.092,41.092,0,0,0,60.069,6.227,40.82,40.82,0,0,0,44.08,3m0-3A44.08,44.08,0,1,1,0,44.08,44.08,44.08,0,0,1,44.08,0Z" fill="#83793c"/>
                      </g>
                    </g>
                  </g>
                </g>
              </g>
            </g>
          </g>
        </g>
      </g>
      <g id="inteligencia-emocional_3_" data-name="inteligencia-emocional (3)" transform="translate(161.963 4905.031)">
        <g id="Group_1226352" data-name="Group 1226352" transform="translate(60.771 0.837)">
          <g id="Group_1226351" data-name="Group 1226351" transform="translate(0 4.616)">
            <path id="Path_1213861" data-name="Path 1213861" d="M115.494,192.733l.236-.186a3.145,3.145,0,0,1,4.867,1.287,3.112,3.112,0,0,1,.2,1.548l-.548,4.366a4.286,4.286,0,0,1-5.774,3.458l-.7-.264H89.093l-.7.264a4.286,4.286,0,0,1-5.774-3.458l-.548-4.366a3.112,3.112,0,0,1,.2-1.548,3.145,3.145,0,0,1,4.867-1.287l.236.186Z" transform="translate(-80.42 -175.937)" fill="#fcbab3"/>
            <path id="Path_1213862" data-name="Path 1213862" d="M95.826,353.585v4.122a.923.923,0,0,0,.67.888l7.49,2.14a7.385,7.385,0,0,1,5.311,6.285l.148,1.334a1.846,1.846,0,0,1-1.835,2.05H69.271a1.846,1.846,0,0,1-1.835-2.05l.148-1.334a7.385,7.385,0,0,1,5.311-6.285l7.49-2.14a.923.923,0,0,0,.67-.888v-4.122Z" transform="translate(-67.425 -319.631)" fill="#fdd5c8"/>
            <path id="Path_1213863" data-name="Path 1213863" d="M153.309,71.03l1.968-5.317.259-2.333a12.837,12.837,0,0,0-9.381-13.8,18.763,18.763,0,0,0-9.874,0,12.837,12.837,0,0,0-9.381,13.8l.949,8.539a14.77,14.77,0,0,0,2.864,7.231l1.118,1.491a17.035,17.035,0,0,0,4.864,4.387,7.385,7.385,0,0,0,3.8,1.052h1.448a7.385,7.385,0,0,0,3.8-1.052c.1-.061.2-.122.3-.185l.809-1.972H148.6a17.041,17.041,0,0,0,2-2.23l1.118-1.491a14.769,14.769,0,0,0,1.837-3.232Z" transform="translate(-120.202 -48.916)" fill="#fdd5c8"/>
            <g id="Group_1226350" data-name="Group 1226350" transform="translate(19.735 0.001)">
              <g id="Group_1226349" data-name="Group 1226349" transform="translate(6.104 33.953)">
                <path id="Path_1213864" data-name="Path 1213864" d="M299.947,357.862l2.557.731a.923.923,0,0,1-.665-.886v-4.122h-2.562v3.39A.923.923,0,0,0,299.947,357.862Z" transform="translate(-299.278 -353.585)" fill="#fcbab3"/>
                <path id="Path_1213865" data-name="Path 1213865" d="M380.6,419.544l-.148-1.334a7.385,7.385,0,0,0-5.311-6.285l-2.551-.729a7.385,7.385,0,0,1,5.3,6.282l.148,2.066a1.846,1.846,0,0,1-1.835,2.05h2.562A1.846,1.846,0,0,0,380.6,419.544Z" transform="translate(-364.423 -404.776)" fill="#fcbab3"/>
              </g>
              <path id="Path_1213866" data-name="Path 1213866" d="M258.568,55.733a12.837,12.837,0,0,0-7.844-6.151,18.76,18.76,0,0,0-6.218-.617,18.764,18.764,0,0,1,3.656.617,12.837,12.837,0,0,1,9.381,13.8l-.949,8.539a14.771,14.771,0,0,1-2.864,7.231l-1.118,1.491a17.036,17.036,0,0,1-4.864,4.387,7.385,7.385,0,0,1-3.242,1.031c.185.014.371.022.557.022h1.448a7.385,7.385,0,0,0,3.8-1.052,17.036,17.036,0,0,0,4.864-4.387l1.118-1.491a14.771,14.771,0,0,0,2.864-7.231l.949-8.539A12.837,12.837,0,0,0,258.568,55.733Z" transform="translate(-244.506 -48.921)" fill="#fcbab3"/>
            </g>
          </g>
          <path id="Path_1213867" data-name="Path 1213867" d="M183.517,85.087a.239.239,0,0,1-.178-.219,1.842,1.842,0,0,0-2.775-1.461c.008-.084.012-.17.012-.256a2.76,2.76,0,0,0-.793-1.94l-4.746,2.863-4.746-2.863a2.76,2.76,0,0,0-.793,1.94c0,.086,0,.172.012.256a1.842,1.842,0,0,0-2.758,1.308.532.532,0,0,1-.15.295.571.571,0,0,1-.209.13,2.307,2.307,0,0,0-1.509,2.266,2.339,2.339,0,0,0,2.353,2.208h5.953a1.846,1.846,0,0,0,1.846-1.846,1.846,1.846,0,0,0,1.846,1.846h5.949a2.341,2.341,0,0,0,2.359-2.264,2.307,2.307,0,0,0-1.675-2.261Z" transform="translate(-154.022 -72.995)" fill="#fea9d7"/>
          <path id="Path_1213868" data-name="Path 1213868" d="M377.737,13.369l-1.523-1.523a.462.462,0,0,1-.049-.595l2.4-3.364a.923.923,0,0,1,1.4-.116l1.84,1.84a.923.923,0,0,1-.116,1.4l-3.364,2.4A.461.461,0,0,1,377.737,13.369Z" transform="translate(-341.681 -7.5)" fill="#ffe751"/>
          <path id="Path_1213869" data-name="Path 1213869" d="M86.4,13.369l1.523-1.523a.462.462,0,0,0,.049-.595l-2.4-3.364a.923.923,0,0,0-1.4-.116l-1.84,1.84a.923.923,0,0,0,.116,1.4l3.364,2.4A.462.462,0,0,0,86.4,13.369Z" transform="translate(-80.42 -7.5)" fill="#ffe751"/>
          <path id="Path_1213870" data-name="Path 1213870" d="M217.914,92.8v5.263a1.846,1.846,0,0,1-1.846,1.846h2.6a1.846,1.846,0,0,0,1.846-1.846V94.375Z" transform="translate(-199.502 -83.297)" fill="#fe93cd"/>
          <path id="Path_1213871" data-name="Path 1213871" d="M305.87,100.554a.239.239,0,0,1-.178-.219,1.845,1.845,0,0,0-1.84-1.717v2.2a2.3,2.3,0,0,1,1.088,2,2.341,2.341,0,0,1-2.359,2.264h2.6a2.341,2.341,0,0,0,2.359-2.264A2.307,2.307,0,0,0,305.87,100.554Z" transform="translate(-276.375 -88.462)" fill="#fe93cd"/>
          <path id="Path_1213872" data-name="Path 1213872" d="M201.322,18.448a1.763,1.763,0,0,0,1.325,0c4.884-1.984,5.992-5.523,6.1-6.959a3.5,3.5,0,0,0-2.64-3.847,4.367,4.367,0,0,0-4.123,1.216,4.367,4.367,0,0,0-4.123-1.216,3.5,3.5,0,0,0-2.64,3.847C195.33,12.925,196.438,16.465,201.322,18.448Z" transform="translate(-180.968 -7.5)" fill="#f75574"/>
          <path id="Path_1213873" data-name="Path 1213873" d="M249.742,7.643a3.842,3.842,0,0,0-2.334.085,3.5,3.5,0,0,1,2.37,3.762c-.1,1.371-1.121,4.658-5.461,6.679.207.1.418.19.64.281a1.763,1.763,0,0,0,1.325,0c4.884-1.984,5.992-5.523,6.1-6.959A3.5,3.5,0,0,0,249.742,7.643Z" transform="translate(-224.603 -7.501)" fill="#f3395e"/>
        </g>
        <g id="Group_1226353" data-name="Group 1226353" transform="translate(59.936 0.002)">
          <path id="Path_1213874" data-name="Path 1213874" d="M103.621,54.083l-.148-1.334a8.192,8.192,0,0,0-5.912-7l-7.49-2.14a.088.088,0,0,1-.063-.084V39.766a17.886,17.886,0,0,0,1.835-2.087l1.118-1.491a15.6,15.6,0,0,0,1.612-2.669,5.121,5.121,0,0,0,6.857-4.151L101.977,25a3.977,3.977,0,0,0-5.122-4.277l.08-.716A13.664,13.664,0,0,0,89.15,6.125a6.289,6.289,0,0,0,.232-1.233A4.324,4.324,0,0,0,86.133.176a4.965,4.965,0,0,0-4.346.916A4.966,4.966,0,0,0,77.441.176a4.324,4.324,0,0,0-3.25,4.715,6.294,6.294,0,0,0,.231,1.232,13.678,13.678,0,0,0-2.428,1.461A.836.836,0,1,0,73,8.919a12,12,0,0,1,2.048-1.245,9.042,9.042,0,0,0,.545.9c.117.171.242.337.37.5a3.585,3.585,0,0,0-.457,1.089q-.091-.006-.183-.006a2.687,2.687,0,0,0-2.618,2.1,3.144,3.144,0,0,0,1.233,6.035h6a2.672,2.672,0,0,0,1.846-.739,2.672,2.672,0,0,0,1.846.739h6a3.144,3.144,0,0,0,1.233-6.035,2.687,2.687,0,0,0-2.618-2.1q-.092,0-.183.006a3.587,3.587,0,0,0-.457-1.089c.128-.163.253-.329.37-.5a9.045,9.045,0,0,0,.544-.9,11.993,11.993,0,0,1,6.751,12.149l-.949,8.539a13.944,13.944,0,0,1-2.7,6.822l-1.118,1.491a16.12,16.12,0,0,1-4.625,4.171,6.55,6.55,0,0,1-3.369.933H81.063a6.55,6.55,0,0,1-3.37-.933,16.123,16.123,0,0,1-4.625-4.171L71.95,35.186a13.943,13.943,0,0,1-2.7-6.822L68.3,19.826a12,12,0,0,1,2.156-8.292.836.836,0,1,0-1.361-.97,13.673,13.673,0,0,0-2.456,9.447l.08.716A3.969,3.969,0,0,0,61.6,25l.548,4.366A5.127,5.127,0,0,0,69,33.52a15.6,15.6,0,0,0,1.612,2.669l1.118,1.491a17.905,17.905,0,0,0,1.835,2.087v3.763a.087.087,0,0,1-.063.084l-7.49,2.14a8.192,8.192,0,0,0-5.912,7l-.148,1.334a2.682,2.682,0,0,0,2.665,2.978h4.876a.836.836,0,1,0,0-1.672H62.618a1.01,1.01,0,0,1-1-1.122l.148-1.334a6.526,6.526,0,0,1,4.71-5.574l7.49-2.14a1.767,1.767,0,0,0,1.276-1.691V41.2a17.958,17.958,0,0,0,1.6,1.079,8.222,8.222,0,0,0,4.23,1.171h1.448a8.223,8.223,0,0,0,4.229-1.171,17.959,17.959,0,0,0,1.6-1.079v2.327a1.766,1.766,0,0,0,1.276,1.691l7.49,2.14a6.526,6.526,0,0,1,4.71,5.574l.148,1.334a1.01,1.01,0,0,1-1,1.122H71.395a.836.836,0,1,0,0,1.672h29.561a2.682,2.682,0,0,0,2.666-2.978ZM77.888,1.787a3.5,3.5,0,0,1,3.283.976.836.836,0,0,0,1.231,0,3.508,3.508,0,0,1,3.283-.976,2.684,2.684,0,0,1,2.03,2.978,6.707,6.707,0,0,1-1.83,3.759,10.268,10.268,0,0,1-3.751,2.489.932.932,0,0,1-.7,0,10.267,10.267,0,0,1-3.751-2.489,6.709,6.709,0,0,1-1.83-3.759,2.684,2.684,0,0,1,2.03-2.978ZM79.94,16.619h-6a1.472,1.472,0,0,1-.294-2.915.836.836,0,0,0,.67-.84c0-.014,0-.028,0-.042a1.012,1.012,0,0,1,1.01-.993.991.991,0,0,1,.192.021,3.611,3.611,0,0,0,1.1,1.83.836.836,0,0,0,1.115-1.246,1.927,1.927,0,0,1-.54-2.064,12.516,12.516,0,0,0,3.622,2.191h0c.046.019.094.033.141.049v3A1.012,1.012,0,0,1,79.94,16.619Zm9.318-3.8c0,.014,0,.028,0,.042a.836.836,0,0,0,.67.84,1.472,1.472,0,0,1-.294,2.915h-6a1.012,1.012,0,0,1-1.01-1.01v-3c.047-.016.095-.031.141-.05a12.518,12.518,0,0,0,3.622-2.191,1.927,1.927,0,0,1-.54,2.064A.836.836,0,1,0,86.96,13.68a3.611,3.611,0,0,0,1.1-1.83.991.991,0,0,1,.192-.021,1.012,1.012,0,0,1,1.01.993Zm9.37,9.478a2.288,2.288,0,0,1,1.69,2.495l-.548,4.366A3.424,3.424,0,0,1,97.892,31.8a3.475,3.475,0,0,1-2.685.168,15.6,15.6,0,0,0,.713-2.905l1.56-2.438a.214.214,0,0,1,.332-.036.836.836,0,0,0,1.182-1.182,1.887,1.887,0,0,0-2.658-.009l.3-2.709A2.292,2.292,0,0,1,98.628,22.3ZM65.682,31.8A3.424,3.424,0,0,1,63.8,29.161l-.548-4.366a2.3,2.3,0,0,1,3.682-2.1l.3,2.709a1.887,1.887,0,0,0-2.658.009.836.836,0,0,0,1.182,1.182.214.214,0,0,1,.332.036l1.56,2.438a15.611,15.611,0,0,0,.713,2.905A3.475,3.475,0,0,1,65.682,31.8Z" transform="translate(-59.936 -0.002)"/>
          <path id="Path_1213875" data-name="Path 1213875" d="M162.651,184.558a2.857,2.857,0,0,1,2.151,1.55l.058.116a.836.836,0,0,0,1.5-.748l-.058-.116a4.529,4.529,0,0,0-3.41-2.458l-4.547-.65a.836.836,0,0,0-.236,1.655Z" transform="translate(-146.526 -161.935)"/>
          <path id="Path_1213876" data-name="Path 1213876" d="M274.184,186.686a.836.836,0,0,0,.748-.462l.058-.116a2.858,2.858,0,0,1,2.151-1.55l4.547-.65a.836.836,0,1,0-.236-1.655l-4.547.65a4.53,4.53,0,0,0-3.41,2.458l-.058.116a.836.836,0,0,0,.747,1.21Z" transform="translate(-249.565 -161.934)"/>
          <path id="Path_1213877" data-name="Path 1213877" d="M370.468,7.313h0a1.293,1.293,0,0,0,1.671.138l3.364-2.4a1.759,1.759,0,0,0,.221-2.675l-1.84-1.84a1.759,1.759,0,0,0-2.675.221l-2.4,3.364a1.293,1.293,0,0,0,.138,1.671Zm2.1-5.587a.082.082,0,0,1,.064-.036.084.084,0,0,1,.069.025l1.84,1.84a.087.087,0,0,1-.011.133l-3.106,2.219-1.075-1.074Z" transform="translate(-334.168 -0.016)"/>
          <path id="Path_1213878" data-name="Path 1213878" d="M75.293,5.048l3.364,2.4a1.293,1.293,0,0,0,1.671-.138h0L81.851,5.79a1.293,1.293,0,0,0,.138-1.671L79.586.754A1.759,1.759,0,0,0,76.911.533l-1.84,1.84a1.759,1.759,0,0,0,.221,2.675Zm.961-1.493,1.84-1.84a.082.082,0,0,1,.061-.026h.008a.082.082,0,0,1,.064.036l2.219,3.106L79.37,5.907,76.264,3.688a.087.087,0,0,1-.011-.133Z" transform="translate(-72.927 -0.016)"/>
        </g>
      </g>
    </g>
  </g>
</svg>
