<svg xmlns="http://www.w3.org/2000/svg" xmlns:xlink="http://www.w3.org/1999/xlink" width="106.16" height="106.16" viewBox="0 0 106.16 106.16">
  <defs>
    <filter id="Path_982547" x="0" y="0" width="106.16" height="106.16" filterUnits="userSpaceOnUse">
      <feOffset dy="3" input="SourceAlpha"/>
      <feGaussianBlur stdDeviation="3" result="blur"/>
      <feFlood flood-opacity="0.161"/>
      <feComposite operator="in" in2="blur"/>
      <feComposite in="SourceGraphic"/>
    </filter>
  </defs>
  <g id="Group_1226387" data-name="Group 1226387" transform="translate(-824.67 -4675.539)">
    <g id="Group_1225605" data-name="Group 1225605">
      <g id="Group_1224535" data-name="Group 1224535" transform="translate(0 3446.122)">
        <g id="Group_1203805" data-name="Group 1203805" transform="translate(-0.25 -641.196)">
          <g id="Group_1202421" data-name="Group 1202421" transform="translate(552.92 465.609)">
            <g id="Group_1177900" data-name="Group 1177900" transform="translate(281 1411.003)">
              <g id="Group_1172010" data-name="Group 1172010" transform="translate(0)">
                <g id="Group_1171046" data-name="Group 1171046">
                  <g id="Group_1148525" data-name="Group 1148525">
                    <g transform="matrix(1, 0, 0, 1, -9, -6)" filter="url(#Path_982547)">
                      <g id="Path_982547-2" data-name="Path 982547" transform="translate(9 6)" fill="#fdfbec">
                        <path d="M 44.0802001953125 86.660400390625 C 38.33124923706055 86.660400390625 32.75506210327148 85.53479766845703 27.50652503967285 83.31484985351562 C 22.43628692626953 81.17032623291016 17.88242530822754 78.09992218017578 13.97144985198975 74.18894958496094 C 10.06047534942627 70.27797698974609 6.99007511138916 65.72411346435547 4.845550060272217 60.65387344360352 C 2.625600099563599 55.40533828735352 1.500000238418579 49.82915115356445 1.500000238418579 44.0802001953125 C 1.500000238418579 38.33124923706055 2.625600099563599 32.75506210327148 4.845550060272217 27.50652503967285 C 6.99007511138916 22.43628692626953 10.06047534942627 17.88242530822754 13.97144985198975 13.97144985198975 C 17.88242530822754 10.06047534942627 22.43628692626953 6.99007511138916 27.50652503967285 4.845550060272217 C 32.75506210327148 2.625600099563599 38.33124923706055 1.500000238418579 44.0802001953125 1.500000238418579 C 49.82915115356445 1.500000238418579 55.40533828735352 2.625600099563599 60.65387344360352 4.845550060272217 C 65.72411346435547 6.99007511138916 70.27797698974609 10.06047534942627 74.18894958496094 13.97144985198975 C 78.09992218017578 17.88242530822754 81.17032623291016 22.43628692626953 83.31484985351562 27.50652503967285 C 85.53479766845703 32.75506210327148 86.660400390625 38.33124923706055 86.660400390625 44.0802001953125 C 86.660400390625 49.82915115356445 85.53479766845703 55.40533828735352 83.31484985351562 60.65387344360352 C 81.17032623291016 65.72411346435547 78.09992218017578 70.27797698974609 74.18894958496094 74.18894958496094 C 70.27797698974609 78.09992218017578 65.72411346435547 81.17032623291016 60.65387344360352 83.31484985351562 C 55.40533828735352 85.53479766845703 49.82915115356445 86.660400390625 44.0802001953125 86.660400390625 Z" stroke="none"/>
                        <path d="M 44.0802001953125 3 C 38.53308486938477 3 33.15349960327148 4.085746765136719 28.09085845947266 6.227058410644531 C 23.19941711425781 8.29595947265625 18.80581665039062 11.25841522216797 15.03211212158203 15.03211212158203 C 11.25841522216797 18.80581665039062 8.29595947265625 23.19941711425781 6.227058410644531 28.09085845947266 C 4.085746765136719 33.15349960327148 3 38.53308486938477 3 44.0802001953125 C 3 49.62731552124023 4.085746765136719 55.00691604614258 6.227058410644531 60.06954193115234 C 8.29595947265625 64.96098327636719 11.25841522216797 69.35458374023438 15.03211212158203 73.12828826904297 C 18.80581665039062 76.90198516845703 23.19941711425781 79.86444091796875 28.09085845947266 81.93334197998047 C 33.15349960327148 84.07466125488281 38.53308486938477 85.160400390625 44.0802001953125 85.160400390625 C 49.62731552124023 85.160400390625 55.00691604614258 84.07466125488281 60.06954193115234 81.93334197998047 C 64.96099853515625 79.86444091796875 69.35458374023438 76.90198516845703 73.12828826904297 73.12828826904297 C 76.90198516845703 69.35458374023438 79.86444091796875 64.96099853515625 81.93334197998047 60.06954193115234 C 84.07466125488281 55.00691604614258 85.160400390625 49.62731552124023 85.160400390625 44.0802001953125 C 85.160400390625 38.53308486938477 84.07466125488281 33.15349960327148 81.93334197998047 28.09085845947266 C 79.86444091796875 23.19941711425781 76.90198516845703 18.80581665039062 73.12828826904297 15.03211212158203 C 69.35458374023438 11.25841522216797 64.96098327636719 8.29595947265625 60.06954193115234 6.227058410644531 C 55.00691604614258 4.085746765136719 49.62731552124023 3 44.0802001953125 3 M 44.0802001953125 0 C 68.42502593994141 0 88.160400390625 19.73538970947266 88.160400390625 44.0802001953125 C 88.160400390625 68.42502593994141 68.42502593994141 88.160400390625 44.0802001953125 88.160400390625 C 19.73538970947266 88.160400390625 0 68.42502593994141 0 44.0802001953125 C 0 19.73538970947266 19.73538970947266 0 44.0802001953125 0 Z" stroke="none" fill="#83793c"/>
                      </g>
                    </g>
                  </g>
                </g>
              </g>
            </g>
          </g>
        </g>
      </g>
      <g id="refugiado" transform="translate(848.782 4696.74)">
        <g id="Group_1225603" data-name="Group 1225603" transform="translate(0.946 0.865)">
          <g id="Group_1225591" data-name="Group 1225591" transform="translate(22.075)">
            <circle id="Ellipse_12713" data-name="Ellipse 12713" cx="16.988" cy="16.988" r="16.988" transform="translate(0 0)" fill="#8ac9fe"/>
            <path id="Path_1212940" data-name="Path 1212940" d="M336.226,7.67a17.146,17.146,0,0,0-2.256.149,16.989,16.989,0,0,1,0,33.677A16.988,16.988,0,1,0,336.226,7.67Z" transform="translate(-319.237 -7.67)" fill="#60b7ff"/>
            <g id="Group_1225590" data-name="Group 1225590" transform="translate(0.044 5.178)">
              <g id="Group_1225589" data-name="Group 1225589" transform="translate(19.096 15.005)">
                <path id="Path_1212941" data-name="Path 1212941" d="M386.177,190.859h0a16.865,16.865,0,0,0,1.406-4.234h-7.105a2.543,2.543,0,1,0,0,5.085H375.59a2.543,2.543,0,1,0,0,5.085h5.793A17.055,17.055,0,0,0,386.177,190.859Z" transform="translate(-373.047 -186.625)" fill="#bbec6c"/>
              </g>
              <path id="Path_1212942" data-name="Path 1212942" d="M417.67,186.626h-4.511a16.868,16.868,0,0,1-1.406,4.234h0a17.056,17.056,0,0,1-4.794,5.937h4.511a17.057,17.057,0,0,0,4.794-5.937h0A16.863,16.863,0,0,0,417.67,186.626Z" transform="translate(-384.04 -171.621)" fill="#a2e62e"/>
              <path id="Path_1212943" data-name="Path 1212943" d="M213.711,176.71a2.543,2.543,0,0,0-2.543-2.543h5.073a2.543,2.543,0,0,0,0-5.085H203.727a16.92,16.92,0,0,0,4.338,10.171h3.1A2.543,2.543,0,0,0,213.711,176.71Z" transform="translate(-203.727 -156.056)" fill="#bbec6c"/>
              <path id="Path_1212944" data-name="Path 1212944" d="M350.984,53.581a2.543,2.543,0,1,0,0,5.085h-4.173a2.543,2.543,0,0,0,0,5.085h15.46a16.93,16.93,0,0,0-4.7-10.171h-6.588Z" transform="translate(-328.418 -53.581)" fill="#bbec6c"/>
              <path id="Path_1212945" data-name="Path 1212945" d="M426.742,53.581h-4.511a16.929,16.929,0,0,1,4.7,10.171h4.511A16.929,16.929,0,0,0,426.742,53.581Z" transform="translate(-397.588 -53.581)" fill="#a2e62e"/>
            </g>
          </g>
          <g id="Group_1225602" data-name="Group 1225602" transform="translate(0 0.193)">
            <g id="Group_1225601" data-name="Group 1225601" transform="translate(1.805)">
              <g id="Group_1225599" data-name="Group 1225599">
                <g id="Group_1225597" data-name="Group 1225597">
                  <path id="Path_1212946" data-name="Path 1212946" d="M39.289,9.379c7.679.009,11.493,6.008,13.675,12.71,3.158,9.7,2.782,22.235-3.495,22.235H29.047c-6.277,0-6.653-12.533-3.495-22.235,2.182-6.7,6-12.7,13.675-12.71Z" transform="translate(-23.609 -9.379)" fill="#f3f0f3"/>
                  <path id="Path_1212947" data-name="Path 1212947" d="M66.4,247.466v-5.794a4.895,4.895,0,0,1,4.9-4.893H83.149a4.895,4.895,0,0,1,4.9,4.893v5.794a2.381,2.381,0,0,1-2.382,2.38H68.782A2.381,2.381,0,0,1,66.4,247.466Z" transform="translate(-61.574 -211.133)" fill="#ffc344"/>
                  <g id="Group_1225596" data-name="Group 1225596" transform="translate(3.69 8.334)">
                    <g id="Group_1225595" data-name="Group 1225595">
                      <g id="Group_1225594" data-name="Group 1225594">
                        <path id="Path_1212948" data-name="Path 1212948" d="M88.342,284.647a8.694,8.694,0,0,0-8.593-8.606v-4.454H75.376v4.454a8.694,8.694,0,0,0-8.593,8.606Z" transform="translate(-65.604 -250.349)" fill="#ffdfcf"/>
                        <g id="Group_1225592" data-name="Group 1225592" transform="translate(0 7.336)">
                          <path id="Path_1212949" data-name="Path 1212949" d="M57.892,148.34c-1.107.169-1.69,1.683-1.544,3.393s1.209,2.777,2.188,2.777a1.24,1.24,0,0,0,1.151-.809v-4.255A1.7,1.7,0,0,0,57.892,148.34Z" transform="translate(-56.326 -148.321)" fill="#ffdfcf"/>
                          <path id="Path_1212950" data-name="Path 1212950" d="M240.386,148.34a1.7,1.7,0,0,0-1.8,1.105V153.7a1.24,1.24,0,0,0,1.151.809c.979,0,2.042-1.066,2.188-2.777S241.493,148.508,240.386,148.34Z" transform="translate(-218.035 -148.321)" fill="#ffdfcf"/>
                        </g>
                        <g id="Group_1225593" data-name="Group 1225593" transform="translate(3.362)">
                          <path id="Path_1212951" data-name="Path 1212951" d="M87.486,89.3a1.53,1.53,0,0,0-1.35,1.516v6.13a8.6,8.6,0,1,0,17.194,0V87.559a4.353,4.353,0,0,0-7.487-2.944C92.486,88.171,89.243,89.081,87.486,89.3Z" transform="translate(-86.136 -83.275)" fill="#ffdfcf"/>
                        </g>
                        <path id="Path_1212952" data-name="Path 1212952" d="M146.6,83.907a4.175,4.175,0,0,1,2.105,3.656v9.384a8.609,8.609,0,0,1-6.341,8.308,8.6,8.6,0,0,0,10.852-8.308V87.564a4.363,4.363,0,0,0-6.616-3.656Z" transform="translate(-132.659 -83.28)" fill="#ffcebf"/>
                      </g>
                    </g>
                  </g>
                </g>
                <g id="Group_1225598" data-name="Group 1225598" transform="translate(4.869 34.813)">
                  <path id="Path_1212953" data-name="Path 1212953" d="M66.783,331.452v-5.7a8.531,8.531,0,0,1,5.015-7.686c0,5.055,11.528,5.135,11.528,0a8.533,8.533,0,0,1,5.015,7.686v5.7Z" transform="translate(-66.783 -318.065)" fill="#918291"/>
                </g>
              </g>
              <g id="Group_1225600" data-name="Group 1225600" transform="translate(8.12 33.671)">
                <path id="Path_1212954" data-name="Path 1212954" d="M95.612,322.921V309.434a.833.833,0,0,1,.583-.794l2.1-.664a.834.834,0,0,1,1.085.794v14.151Z" transform="translate(-95.612 -307.936)" fill="#ffe177"/>
                <path id="Path_1212955" data-name="Path 1212955" d="M194.671,322.921V308.77a.834.834,0,0,1,1.085-.794l2.1.664a.833.833,0,0,1,.583.794v13.487Z" transform="translate(-183.499 -307.936)" fill="#ffe177"/>
              </g>
            </g>
            <path id="Path_1212956" data-name="Path 1212956" d="M43.4,365.015v4.538H7.6v6.675H43.4v4.538l10.862-7.875Z" transform="translate(-7.6 -324.907)" fill="#fd4755"/>
          </g>
        </g>
        <g id="Group_1225604" data-name="Group 1225604" transform="translate(0.1)">
          <path id="Path_1212957" data-name="Path 1212957" d="M57.146,22.795c4.713-16.988-15.752-30.073-29-18.254A13.227,13.227,0,0,0,10.369,2.92a.846.846,0,1,0,1.053,1.324c4.693-3.822,12.324-2.812,16,2.057,3.015,3.755,4.074,8.407,5.189,12.968.76,4.252,1.4,10.039-.942,13.956a4.054,4.054,0,0,1-1.6,1.595V31.6a5.769,5.769,0,0,0-2.916-5,9.392,9.392,0,0,0,.663-2.866c1.744.232,3.168-1.374,3.364-3.524.2-2.3-.732-4.069-2.259-4.3a2.351,2.351,0,0,0-1.078.085V13.676A5.04,5.04,0,0,0,24.58,8.927a5.151,5.151,0,0,0-5.685,1.224c-3.215,3.405-6.295,4.232-7.845,4.422a2.385,2.385,0,0,0-1.924,1.482A2.339,2.339,0,0,0,7.88,15.91c-3.355.43-3,8.249,1.1,7.826A9.4,9.4,0,0,0,9.647,26.6a5.769,5.769,0,0,0-2.916,5v3.225C2.356,32.19,3.132,21.385,5.5,14.03A24.7,24.7,0,0,1,9.177,6.557a.846.846,0,0,0-1.342-1.03c-5.183,6.043-9.773,27.992-1.1,31.113v.75a3.237,3.237,0,0,0,.953,2.286,9.288,9.288,0,0,0-.909,4.012v1.169H.946A.846.846,0,0,0,.1,45.7v6.675a.846.846,0,0,0,.846.846H35.9v3.692a.852.852,0,0,0,1.342.685l4.1-2.972a.846.846,0,0,0-.993-1.37l-2.757,2v-2.88a.846.846,0,0,0-.846-.846H1.792V46.549H36.751A.846.846,0,0,0,37.6,45.7v-2.88l8.575,6.217-3.126,2.267a.846.846,0,0,0,.993,1.37l4.071-2.951a.846.846,0,0,0,0-1.37L37.247,40.481a.856.856,0,0,0-1.342.685v3.692h-5.88V43.689a9.287,9.287,0,0,0-.909-4.013,3.237,3.237,0,0,0,.952-2.286v-.75a5.287,5.287,0,0,0,2.947-2.378C42.506,38.548,54.418,32.817,57.146,22.795ZM28.665,17.582c.5.076.947,1.092.828,2.485-.112,1.307-.853,2-1.346,2a.319.319,0,0,1-.306-.181V18.061a.82.82,0,0,1,.823-.479Zm-18.016-.653a.687.687,0,0,1,.607-.676c1.776-.218,5.29-1.149,8.869-4.94a3.436,3.436,0,0,1,3.83-.813,3.389,3.389,0,0,1,2.2,3.176v9.384c-.389,10.282-15.113,10.284-15.5,0v-6.13Zm14.32,27.929h-2.08V39.084c0-.007,0-.014,0-.022V35.58l2.08.656ZM13.8,35.58v3.39c0,.006,0,.012,0,.017v5.871h-2.08V36.236Zm1.692,4.655a10.193,10.193,0,0,0,5.709.051v4.572H15.489Zm5.089-4.306c.207,0,.413.013.62.032V38.5a8.22,8.22,0,0,1-5.709-.065V35.971c.243-.025.488-.04.733-.042a.846.846,0,0,0,.838-.846V32.417a9.378,9.378,0,0,0,2.68,0v2.666a.846.846,0,0,0,.838.846ZM8.652,22.07c-.492,0-1.234-.7-1.346-2-.119-1.393.332-2.409.828-2.485a.819.819,0,0,1,.823.479v3.828A.319.319,0,0,1,8.652,22.07ZM8.423,37.39V31.6a4.068,4.068,0,0,1,2-3.488,9.489,9.489,0,0,0,4.945,3.9v2.271c-.138.014-.276.032-.413.052a1.8,1.8,0,0,0-1.65-.373l-2.1.664a1.845,1.845,0,0,0-1.174,1.98,9.652,9.652,0,0,0-1.41,1.525A1.531,1.531,0,0,1,8.423,37.39Zm.043,6.3a7.707,7.707,0,0,1,1.56-4.615v5.784H8.466Zm18.195,1.169V38.926a8.31,8.31,0,0,1,1.672,5.932Zm0-8.349a1.807,1.807,0,0,0-1.174-1.883l-2.1-.664a1.8,1.8,0,0,0-1.634.36c-.105-.014-.211-.028-.317-.038V32.011a9.489,9.489,0,0,0,4.945-3.9,4.068,4.068,0,0,1,2,3.488V37.39a1.532,1.532,0,0,1-.192.74A9.66,9.66,0,0,0,26.661,36.508ZM45.63,10.282a1.7,1.7,0,0,1,0-3.394h6.214a16.1,16.1,0,0,1,4.115,8.479h-14.5a1.7,1.7,0,0,1,0-3.394H45.63A.846.846,0,0,0,45.63,10.282ZM34.423,19.915h1.156a1.7,1.7,0,0,1,0,3.394h-.772C34.729,22.184,34.6,21.045,34.423,19.915Zm-.645,12.834A20.393,20.393,0,0,0,34.884,25h.695a3.389,3.389,0,0,0,0-6.777H34.126C33.318,13.952,31.5,8.9,29.209,5.856A16.243,16.243,0,0,1,50.017,5.2H45.63A3.4,3.4,0,0,0,42.7,10.282H41.458a3.389,3.389,0,0,0,0,6.777H56.131A16.252,16.252,0,0,1,55.98,20.2H49.59a3.387,3.387,0,0,0-2.932,5.085H44.7a3.389,3.389,0,0,0,0,6.777h2.956a16.233,16.233,0,0,1-13.88.684Zm16.408-2.376H44.7a1.7,1.7,0,0,1,0-3.394H49.59a.846.846,0,0,0,0-1.692,1.7,1.7,0,0,1,0-3.394h6.049A16.175,16.175,0,0,1,50.187,30.372Z" transform="translate(-0.1 0)"/>
          <path id="Path_1212958" data-name="Path 1212958" d="M138.857,203.995a.846.846,0,0,0,.846-.846,1.055,1.055,0,1,1,2.11,0,.846.846,0,0,0,1.692,0,2.746,2.746,0,0,0-5.493,0A.846.846,0,0,0,138.857,203.995Z" transform="translate(-122.458 -177.815)"/>
        </g>
      </g>
    </g>
  </g>
</svg>
