<svg xmlns="http://www.w3.org/2000/svg" xmlns:xlink="http://www.w3.org/1999/xlink" width="103" height="103" viewBox="0 0 103 103">
  <defs>
    <filter id="Path_978624" x="0" y="0" width="103" height="103" filterUnits="userSpaceOnUse">
      <feOffset dy="3" input="SourceAlpha"/>
      <feGaussianBlur stdDeviation="3" result="blur"/>
      <feFlood flood-opacity="0.161"/>
      <feComposite operator="in" in2="blur"/>
      <feComposite in="SourceGraphic"/>
    </filter>
  </defs>
  <g id="Group_1226370" data-name="Group 1226370" transform="translate(-171 -805)">
    <g id="Group_1225221" data-name="Group 1225221">
      <g id="Group_1206303" data-name="Group 1206303" transform="translate(0 56)">
        <g id="Group_1203387" data-name="Group 1203387" transform="translate(0 -83)">
          <g id="Group_1178310" data-name="Group 1178310" transform="translate(0 -2034)">
            <g id="Group_1176881" data-name="Group 1176881">
              <g id="Group_1175148" data-name="Group 1175148" transform="translate(0 1580)">
                <g id="Group_1173798" data-name="Group 1173798" transform="translate(-3 -3520)">
                  <g id="Group_1171925" data-name="Group 1171925" transform="translate(-22 -2246)">
                    <g id="Group_1164524" data-name="Group 1164524" transform="translate(205 7058)">
                      <g id="Group_1144123" data-name="Group 1144123">
                        <g transform="matrix(1, 0, 0, 1, -9, -6)" filter="url(#Path_978624)">
                          <g id="Path_978624-2" data-name="Path 978624" transform="translate(9 6)" fill="#ebe9f0">
                            <path d="M 42.5 83.5 C 36.96437835693359 83.5 31.59512901306152 82.41617584228516 26.54141235351562 80.27863311767578 C 21.65934181213379 78.21369171142578 17.27447128295898 75.25723266601562 13.50862312316895 71.49137878417969 C 9.742764472961426 67.72553253173828 6.786305904388428 63.34066009521484 4.721364498138428 58.45858764648438 C 2.583823442459106 53.40486907958984 1.5 48.03562164306641 1.5 42.5 C 1.5 36.96437835693359 2.583823442459106 31.59512901306152 4.721364498138428 26.54141235351562 C 6.786305904388428 21.65934181213379 9.742764472961426 17.27447128295898 13.50862312316895 13.50862312316895 C 17.27447128295898 9.742764472961426 21.65934181213379 6.786305904388428 26.54141235351562 4.721364498138428 C 31.59512901306152 2.583823442459106 36.96437835693359 1.5 42.5 1.5 C 48.03562164306641 1.5 53.40486907958984 2.583823442459106 58.45858764648438 4.721364498138428 C 63.34066009521484 6.786305904388428 67.72553253173828 9.742764472961426 71.49137878417969 13.50862312316895 C 75.25723266601562 17.27447128295898 78.21369171142578 21.65934181213379 80.27863311767578 26.54141235351562 C 82.41617584228516 31.59512901306152 83.5 36.96437835693359 83.5 42.5 C 83.5 48.03562164306641 82.41617584228516 53.40486907958984 80.27863311767578 58.45858764648438 C 78.21369171142578 63.34066009521484 75.25723266601562 67.72553253173828 71.49137878417969 71.49137878417969 C 67.72553253173828 75.25723266601562 63.34066009521484 78.21369171142578 58.45858764648438 80.27863311767578 C 53.40486907958984 82.41617584228516 48.03562164306641 83.5 42.5 83.5 Z" stroke="none"/>
                            <path d="M 42.5 3 C 37.16621398925781 3 31.99356079101562 4.043960571289062 27.125732421875 6.102882385253906 C 22.42246627807617 8.092185974121094 18.19785308837891 10.94070434570312 14.56928253173828 14.56928253173828 C 10.94070434570312 18.19785308837891 8.092185974121094 22.42246627807617 6.102882385253906 27.125732421875 C 4.043960571289062 31.99356079101562 3 37.16621398925781 3 42.5 C 3 47.83378601074219 4.043960571289062 53.00643920898438 6.102882385253906 57.87425231933594 C 8.092185974121094 62.57753372192383 10.94070434570312 66.80213165283203 14.56928253173828 70.43071746826172 C 18.19786834716797 74.05929565429688 22.42246627807617 76.90781402587891 27.125732421875 78.89711761474609 C 31.99356079101562 80.95603942871094 37.16621398925781 82 42.5 82 C 47.83378601074219 82 53.00642395019531 80.95603942871094 57.87425231933594 78.89711761474609 C 62.57753372192383 76.90781402587891 66.80213165283203 74.05929565429688 70.43071746826172 70.43071746826172 C 74.05929565429688 66.80213165283203 76.90781402587891 62.57753372192383 78.89711761474609 57.87425231933594 C 80.95603942871094 53.00642395019531 82 47.83378601074219 82 42.5 C 82 37.16621398925781 80.95603942871094 31.99356079101562 78.89711761474609 27.125732421875 C 76.90781402587891 22.42246627807617 74.05929565429688 18.19786834716797 70.43071746826172 14.56928253173828 C 66.80213165283203 10.94070434570312 62.57753372192383 8.092185974121094 57.87425231933594 6.102882385253906 C 53.00643920898438 4.043960571289062 47.83378601074219 3 42.5 3 M 42.5 0 C 65.97209167480469 0 85 19.02789306640625 85 42.5 C 85 65.97209167480469 65.97209167480469 85 42.5 85 C 19.02789306640625 85 0 65.97209167480469 0 42.5 C 0 19.02789306640625 19.02789306640625 0 42.5 0 Z" stroke="none" fill="#c6c0d6"/>
                          </g>
                        </g>
                      </g>
                    </g>
                  </g>
                </g>
              </g>
            </g>
          </g>
        </g>
      </g>
      <g id="estudiante_3_" data-name="estudiante (3)" transform="translate(194.015 819.768)">
        <g id="Group_1225219" data-name="Group 1225219" transform="translate(0.773 2.863)">
          <g id="Group_1225204" data-name="Group 1225204" transform="translate(12.615 21.662)">
            <g id="Group_1225197" data-name="Group 1225197">
              <path id="Path_1211477" data-name="Path 1211477" d="M124.608,259.356a2.845,2.845,0,0,1-2.873,0,2.869,2.869,0,0,0-.387.273,11.939,11.939,0,0,1-.942,1.5,7.473,7.473,0,0,0-.084,1.9,2.849,2.849,0,0,0,5.7,0v-1.22A2.847,2.847,0,0,0,124.608,259.356Z" transform="translate(-120.321 -253.219)" fill="#57697d"/>
              <path id="Path_1211478" data-name="Path 1211478" d="M124.608,204.2a2.845,2.845,0,0,1-2.873,0,2.866,2.866,0,0,0-.387.273,11.941,11.941,0,0,1-.942,1.5,7.473,7.473,0,0,0-.084,1.9,2.849,2.849,0,0,0,5.7,0v-1.221a2.847,2.847,0,0,0-1.412-2.46Z" transform="translate(-120.321 -204.201)" fill="#57697d"/>
              <path id="Path_1211479" data-name="Path 1211479" d="M126.025,318.216V317a2.847,2.847,0,0,0-1.412-2.46,2.851,2.851,0,0,1-2.873,0,2.858,2.858,0,0,0-1.412,2.492c0,.142,0,1.177,0,1.207a2.849,2.849,0,0,0,5.7-.019Z" transform="translate(-120.325 -302.259)" fill="#57697d"/>
              <path id="Path_1211480" data-name="Path 1211480" d="M124.608,259.356a2.845,2.845,0,0,1-2.873,0,2.869,2.869,0,0,0-.387.273,11.939,11.939,0,0,1-.942,1.5,7.473,7.473,0,0,0-.084,1.9,2.849,2.849,0,0,0,5.7,0v-1.22A2.847,2.847,0,0,0,124.608,259.356Z" transform="translate(-120.321 -253.219)" fill="#57697d"/>
              <path id="Path_1211481" data-name="Path 1211481" d="M124.608,204.2a2.845,2.845,0,0,1-2.873,0,2.866,2.866,0,0,0-.387.273,11.941,11.941,0,0,1-.942,1.5,7.473,7.473,0,0,0-.084,1.9,2.849,2.849,0,0,0,5.7,0v-1.221a2.847,2.847,0,0,0-1.412-2.46Z" transform="translate(-120.321 -204.201)" fill="#57697d"/>
              <path id="Path_1211482" data-name="Path 1211482" d="M126.025,318.216V317a2.847,2.847,0,0,0-1.412-2.46,2.851,2.851,0,0,1-2.873,0,2.858,2.858,0,0,0-1.412,2.492c0,.142,0,1.177,0,1.207a2.849,2.849,0,0,0,5.7-.019Z" transform="translate(-120.325 -302.259)" fill="#57697d"/>
              <path id="Path_1211483" data-name="Path 1211483" d="M124.241,263.036v-1.22a2.861,2.861,0,0,0-.9-2.076,2.843,2.843,0,0,1-1.606-.384,2.855,2.855,0,0,0-.387.273,11.937,11.937,0,0,1-.942,1.5,7.473,7.473,0,0,0-.084,1.9,2.849,2.849,0,0,0,1.922,2.694A2.784,2.784,0,0,0,124.241,263.036Z" transform="translate(-120.322 -253.219)" fill="#57697d"/>
              <path id="Path_1211484" data-name="Path 1211484" d="M123.344,204.588l0,0a2.842,2.842,0,0,1-1.605-.384,2.857,2.857,0,0,0-.387.273,11.934,11.934,0,0,1-.942,1.5,7.474,7.474,0,0,0-.084,1.9,2.849,2.849,0,0,0,1.952,2.7,2.837,2.837,0,0,0,1.965-2.7v-1.22A2.837,2.837,0,0,0,123.344,204.588Z" transform="translate(-120.322 -204.2)" fill="#57697d"/>
              <path id="Path_1211485" data-name="Path 1211485" d="M122.4,320.882a2.852,2.852,0,0,0,1.847-2.667c0-1.216.156-2.3-.9-3.293l0,0a2.845,2.845,0,0,1-1.6-.383,2.858,2.858,0,0,0-1.412,2.492c0,.142,0,1.177,0,1.207a2.849,2.849,0,0,0,1.972,2.691Z" transform="translate(-120.325 -302.258)" fill="#57697d"/>
            </g>
            <g id="Group_1225199" data-name="Group 1225199" transform="translate(1.849 0)">
              <g id="Group_1225198" data-name="Group 1225198">
                <path id="Path_1211486" data-name="Path 1211486" d="M139.379,204.2a2.841,2.841,0,0,1-1.487.388c1.053.992.9,2.081.9,3.292a2.849,2.849,0,0,1-1.847,2.667,2.851,2.851,0,0,0,3.85-2.667v-1.221A2.847,2.847,0,0,0,139.379,204.2Z" transform="translate(-136.941 -204.201)" fill="#3d5168"/>
              </g>
            </g>
            <g id="Group_1225201" data-name="Group 1225201" transform="translate(1.849 6.137)">
              <g id="Group_1225200" data-name="Group 1225200">
                <path id="Path_1211487" data-name="Path 1211487" d="M139.379,259.356a2.841,2.841,0,0,1-1.487.388c1.053.991.9,2.081.9,3.292a2.849,2.849,0,0,1-1.847,2.667,2.851,2.851,0,0,0,3.85-2.667v-1.22A2.846,2.846,0,0,0,139.379,259.356Z" transform="translate(-136.941 -259.356)" fill="#3d5168"/>
              </g>
            </g>
            <g id="Group_1225203" data-name="Group 1225203" transform="translate(1.85 12.277)">
              <g id="Group_1225202" data-name="Group 1225202">
                <path id="Path_1211488" data-name="Path 1211488" d="M139.382,314.535a2.843,2.843,0,0,1-1.488.387c1.04.979.9,2.04.9,3.293a2.852,2.852,0,0,1-1.847,2.667,2.851,2.851,0,0,0,3.85-2.667v-1.221a2.847,2.847,0,0,0-1.412-2.46Z" transform="translate(-136.944 -314.535)" fill="#3d5168"/>
              </g>
            </g>
          </g>
          <g id="Group_1225212" data-name="Group 1225212" transform="translate(37.175 21.662)">
            <g id="Group_1225205" data-name="Group 1225205">
              <path id="Path_1211489" data-name="Path 1211489" d="M345.342,259.356a2.845,2.845,0,0,1-2.873,0,2.869,2.869,0,0,0-.387.273,11.936,11.936,0,0,1-.942,1.5,7.473,7.473,0,0,0-.084,1.9,2.849,2.849,0,0,0,5.7,0v-1.22A2.847,2.847,0,0,0,345.342,259.356Z" transform="translate(-341.055 -253.219)" fill="#57697d"/>
              <path id="Path_1211490" data-name="Path 1211490" d="M345.342,204.2a2.845,2.845,0,0,1-2.873,0,2.866,2.866,0,0,0-.387.273,11.938,11.938,0,0,1-.942,1.5,7.472,7.472,0,0,0-.084,1.9,2.849,2.849,0,0,0,5.7,0v-1.221a2.847,2.847,0,0,0-1.412-2.46Z" transform="translate(-341.055 -204.201)" fill="#57697d"/>
              <path id="Path_1211491" data-name="Path 1211491" d="M346.759,318.216V317a2.847,2.847,0,0,0-1.412-2.46,2.851,2.851,0,0,1-2.873,0,2.858,2.858,0,0,0-1.412,2.492c0,.142,0,1.177,0,1.207a2.849,2.849,0,0,0,5.7-.019Z" transform="translate(-341.059 -302.259)" fill="#57697d"/>
              <path id="Path_1211492" data-name="Path 1211492" d="M345.342,259.356a2.845,2.845,0,0,1-2.873,0,2.869,2.869,0,0,0-.387.273,11.936,11.936,0,0,1-.942,1.5,7.473,7.473,0,0,0-.084,1.9,2.849,2.849,0,0,0,5.7,0v-1.22A2.847,2.847,0,0,0,345.342,259.356Z" transform="translate(-341.055 -253.219)" fill="#57697d"/>
              <path id="Path_1211493" data-name="Path 1211493" d="M345.342,204.2a2.845,2.845,0,0,1-2.873,0,2.866,2.866,0,0,0-.387.273,11.938,11.938,0,0,1-.942,1.5,7.472,7.472,0,0,0-.084,1.9,2.849,2.849,0,0,0,5.7,0v-1.221a2.847,2.847,0,0,0-1.412-2.46Z" transform="translate(-341.055 -204.201)" fill="#57697d"/>
              <path id="Path_1211494" data-name="Path 1211494" d="M346.759,318.216V317a2.847,2.847,0,0,0-1.412-2.46,2.851,2.851,0,0,1-2.873,0,2.858,2.858,0,0,0-1.412,2.492c0,.142,0,1.177,0,1.207a2.849,2.849,0,0,0,5.7-.019Z" transform="translate(-341.059 -302.259)" fill="#57697d"/>
              <path id="Path_1211495" data-name="Path 1211495" d="M344.975,263.036v-1.22a2.861,2.861,0,0,0-.9-2.076,2.843,2.843,0,0,1-1.606-.384,2.852,2.852,0,0,0-.387.273,11.943,11.943,0,0,1-.942,1.5,7.472,7.472,0,0,0-.084,1.9,2.849,2.849,0,0,0,1.922,2.694A2.784,2.784,0,0,0,344.975,263.036Z" transform="translate(-341.056 -253.219)" fill="#57697d"/>
              <path id="Path_1211496" data-name="Path 1211496" d="M344.079,204.588l0,0a2.842,2.842,0,0,1-1.605-.384,2.858,2.858,0,0,0-.387.273,11.933,11.933,0,0,1-.942,1.5,7.473,7.473,0,0,0-.084,1.9,2.061,2.061,0,1,0,3.917,0v-1.22A2.838,2.838,0,0,0,344.079,204.588Z" transform="translate(-341.057 -204.2)" fill="#57697d"/>
              <path id="Path_1211497" data-name="Path 1211497" d="M343.131,320.882a2.852,2.852,0,0,0,1.847-2.667c0-1.608.121-2.169-.9-3.3a2.845,2.845,0,0,1-1.6-.383,2.858,2.858,0,0,0-1.412,2.492c0,.142,0,1.177,0,1.207a2.85,2.85,0,0,0,1.972,2.691Z" transform="translate(-341.059 -302.258)" fill="#57697d"/>
            </g>
            <g id="Group_1225207" data-name="Group 1225207" transform="translate(1.849 0)">
              <g id="Group_1225206" data-name="Group 1225206">
                <path id="Path_1211498" data-name="Path 1211498" d="M360.113,204.2a2.841,2.841,0,0,1-1.487.388,2.837,2.837,0,0,1,.9,2.072v1.221a2.849,2.849,0,0,1-1.847,2.667,2.851,2.851,0,0,0,3.85-2.667v-1.221A2.846,2.846,0,0,0,360.113,204.2Z" transform="translate(-357.675 -204.201)" fill="#3d5168"/>
              </g>
            </g>
            <g id="Group_1225209" data-name="Group 1225209" transform="translate(1.849 6.137)">
              <g id="Group_1225208" data-name="Group 1225208">
                <path id="Path_1211499" data-name="Path 1211499" d="M360.113,259.356a2.841,2.841,0,0,1-1.487.388c1.053.991.9,2.081.9,3.292a2.849,2.849,0,0,1-1.847,2.667,2.851,2.851,0,0,0,3.85-2.667v-1.22A2.846,2.846,0,0,0,360.113,259.356Z" transform="translate(-357.675 -259.356)" fill="#3d5168"/>
              </g>
            </g>
            <g id="Group_1225211" data-name="Group 1225211" transform="translate(1.85 12.277)">
              <g id="Group_1225210" data-name="Group 1225210">
                <path id="Path_1211500" data-name="Path 1211500" d="M360.116,314.535a2.843,2.843,0,0,1-1.488.387c1.04.979.9,2.04.9,3.293a2.852,2.852,0,0,1-1.847,2.667,2.851,2.851,0,0,0,3.85-2.667v-1.221a2.847,2.847,0,0,0-1.412-2.46Z" transform="translate(-357.678 -314.535)" fill="#3d5168"/>
              </g>
            </g>
          </g>
          <path id="Path_1211501" data-name="Path 1211501" d="M136.309,348.02h-2.177l-4.292,5.272v3.69h-8.584v-3.69l-4.292-5.272h-2.177a5.5,5.5,0,0,0-5.5,5.579v8.755h32.525v-8.832A5.5,5.5,0,0,0,136.309,348.02Z" transform="translate(-97.899 -310.356)" fill="#eaf6ff"/>
          <path id="Path_1211502" data-name="Path 1211502" d="M136.309,348.02h-2.177l-4.292,5.272v3.69h-8.584v-3.69l-4.292-5.272h-2.177a5.5,5.5,0,0,0-5.5,5.579v8.755h32.525v-8.832A5.5,5.5,0,0,0,136.309,348.02Z" transform="translate(-97.899 -310.356)" fill="#eaf6ff"/>
          <g id="Group_1225213" data-name="Group 1225213" transform="translate(36.228 37.664)">
            <path id="Path_1211503" data-name="Path 1211503" d="M334.722,348.02h-2.177l-.005.007a5.5,5.5,0,0,1,5.237,5.5v8.832h2.448v-8.832A5.5,5.5,0,0,0,334.722,348.02Z" transform="translate(-332.54 -348.02)" fill="#d8ecfe"/>
          </g>
          <path id="Path_1211504" data-name="Path 1211504" d="M210.562,287.447v3.989l4.535,6.625a.556.556,0,0,0,.918,0l4.535-6.625v-3.989Z" transform="translate(-187.906 -256.523)" fill="#ffa78f"/>
          <path id="Path_1211505" data-name="Path 1211505" d="M115.12,162.606h-2.329A4.047,4.047,0,0,0,111,165.968v.025a4.052,4.052,0,0,0,4.21,4.051h2.525v-7.438Z" transform="translate(-99.423 -145.572)" fill="#ffb09e"/>
          <path id="Path_1211506" data-name="Path 1211506" d="M338.714,162.606h-5.57v7.438h3.117a4.058,4.058,0,0,0,4.244-4.051v-.025A4.047,4.047,0,0,0,338.714,162.606Z" transform="translate(-296.849 -145.572)" fill="#f89580"/>
          <path id="Path_1211507" data-name="Path 1211507" d="M169.552,86.067H147.458v8.516h0c-.086.816-.066.874-.066,5.487,0,6.8,5.694,11.88,11.332,11.88a11.932,11.932,0,0,0,10.83-11.88C169.552,99.45,169.552,86.668,169.552,86.067Z" transform="translate(-131.761 -77.55)" fill="#ffcebf"/>
          <path id="Path_1211508" data-name="Path 1211508" d="M186.428,329.919l-4.535-6.625-3.589,2.751,4.292,5.272v9.062h8.584v-9.062l4.292-5.272-3.589-2.751-4.535,6.625A.556.556,0,0,1,186.428,329.919Z" transform="translate(-159.237 -288.381)" fill="#d8ecfe"/>
          <path id="Path_1211509" data-name="Path 1211509" d="M280.332,403.718v-8.01a1.113,1.113,0,0,0-1.085-1.112c-4.45-.116-21.194-.118-23.8,6.265v2.857Z" transform="translate(-227.797 -351.726)" fill="#fff3be"/>
          <path id="Path_1211510" data-name="Path 1211510" d="M280.239,456.824H255.446v-5.715h24.793a2.857,2.857,0,0,1,2.857,2.857h0A2.857,2.857,0,0,1,280.239,456.824Z" transform="translate(-227.796 -401.974)" fill="#fd8087"/>
          <path id="Path_1211511" data-name="Path 1211511" d="M256.076,109.713v11.372a11.932,11.932,0,0,1-10.831,11.88,11.933,11.933,0,0,0,13.057-11.88V109.713Z" transform="translate(-218.73 -98.565)" fill="#ffb09e"/>
          <path id="Path_1211512" data-name="Path 1211512" d="M140.541,10c-6.416,0-13.446,5.85-13.446,14.163v2.818h7.013a7.268,7.268,0,0,0,7.268-7.268,7.268,7.268,0,0,0,7.268,7.268h4.944V24.16A14.207,14.207,0,0,0,140.541,10Z" transform="translate(-113.726 -9.944)" fill="#57697d"/>
          <g id="Group_1225215" data-name="Group 1225215" transform="translate(26.37 0)">
            <g id="Group_1225214" data-name="Group 1225214">
              <path id="Path_1211513" data-name="Path 1211513" d="M243.942,9.573a14.207,14.207,0,0,1,13.047,14.163v2.818h2.448V23.735A14.223,14.223,0,0,0,243.942,9.573Z" transform="translate(-243.942 -9.519)" fill="#3d5168"/>
            </g>
          </g>
          <g id="Group_1225217" data-name="Group 1225217" transform="translate(29.494 34.913)">
            <g id="Group_1225216" data-name="Group 1225216">
              <path id="Path_1211514" data-name="Path 1211514" d="M275.168,323.293l-.842,1.231,1.984,1.521-4.292,5.272v9.062h2.448v-9.062l4.292-5.272Z" transform="translate(-272.018 -323.293)" fill="#c4e2ff"/>
            </g>
          </g>
          <path id="Path_1211515" data-name="Path 1211515" d="M100.448,259.318c-3.274-12.221-3-11.479-3.336-11.758l-.927.248a.961.961,0,0,0-.679,1.177l2.914,10.876Z" transform="translate(-85.623 -221.074)" fill="#5de1c4"/>
          <path id="Path_1211516" data-name="Path 1211516" d="M110.427,258.067l1.9-.509-3.019-11.265a.961.961,0,0,0-1.177-.679l-1.045.28c.229.25-.016-.48,3.238,11.665Z" transform="translate(-95.942 -219.315)" fill="#0ed2b3"/>
          <path id="Path_1211517" data-name="Path 1211517" d="M97.662,322.068v-4.962a2.225,2.225,0,0,0-2.225-2.225H92.254a2.225,2.225,0,0,0-2.225,2.225v4.962a2.225,2.225,0,0,0,2.225,2.225h3.182A2.225,2.225,0,0,0,97.662,322.068Z" transform="translate(-80.785 -280.904)" fill="#ffcebf"/>
          <path id="Path_1211518" data-name="Path 1211518" d="M136.85,314.881h-2.225a2.225,2.225,0,0,1,2.225,2.225v4.962a2.225,2.225,0,0,1-2.225,2.225h2.225a2.225,2.225,0,0,0,2.225-2.225v-4.962A2.225,2.225,0,0,0,136.85,314.881Z" transform="translate(-120.418 -280.904)" fill="#ffb09e"/>
          <path id="Path_1211519" data-name="Path 1211519" d="M277.022,394.6c-1.013-.026-1.351-.024.29-.026-6.109-.009-19.553.626-21.866,6.291v2.858h22.66v-8.01A1.113,1.113,0,0,0,277.022,394.6Z" transform="translate(-227.797 -351.727)" fill="#ffe177"/>
          <path id="Path_1211520" data-name="Path 1211520" d="M443.03,394.521c-.7-.018-5.115-.069-2.448,0a1.113,1.113,0,0,1,1.085,1.112v8.01h2.448v-8.01A1.113,1.113,0,0,0,443.03,394.521Z" transform="translate(-391.579 -351.651)" fill="#ffd15b"/>
          <path id="Path_1211521" data-name="Path 1211521" d="M278.013,456.824a2.857,2.857,0,0,0,0-5.715H255.446v5.715h22.567Z" transform="translate(-227.796 -401.974)" fill="#fe646f"/>
          <path id="Path_1211522" data-name="Path 1211522" d="M458.714,451.109h-2.448a2.857,2.857,0,0,1,0,5.715h2.448a2.857,2.857,0,0,0,2.857-2.857h0A2.857,2.857,0,0,0,458.714,451.109Z" transform="translate(-406.271 -401.974)" fill="#fd4755"/>
          <path id="Path_1211523" data-name="Path 1211523" d="M31.795,403.775v-8.01a1.113,1.113,0,0,1,1.085-1.112c4.45-.116,21.194-.118,23.8,6.265v2.857Z" transform="translate(-29.03 -351.777)" fill="#fff0ad"/>
          <path id="Path_1211524" data-name="Path 1211524" d="M34.6,456.824H9.8a2.857,2.857,0,0,1-2.857-2.857h0A2.857,2.857,0,0,1,9.8,451.109H34.6Z" transform="translate(-6.946 -401.974)" fill="#fd8087"/>
          <g id="Group_1225218" data-name="Group 1225218" transform="translate(19.067 26.792)">
            <path id="Path_1211525" data-name="Path 1211525" d="M307.32,252.023h1.016a.884.884,0,0,0,.9-.833.86.86,0,0,0-.859-.886H307.32a.86.86,0,0,0,0,1.719Z" transform="translate(-292.2 -250.304)" fill="#fe8f83"/>
            <path id="Path_1211526" data-name="Path 1211526" d="M180.215,252.023H179.2a.884.884,0,0,1-.9-.833.86.86,0,0,1,.859-.886h1.052a.86.86,0,0,1,0,1.719Z" transform="translate(-178.303 -250.304)" fill="#fe8f83"/>
          </g>
        </g>
        <g id="Group_1225220" data-name="Group 1225220" transform="translate(0 2.03)">
          <path id="Path_1211527" data-name="Path 1211527" d="M228.56,261.306a3.381,3.381,0,0,0,3.377-3.377.835.835,0,1,0-1.669,0,1.708,1.708,0,0,1-3.417,0,.835.835,0,1,0-1.669,0A3.381,3.381,0,0,0,228.56,261.306Z" transform="translate(-200.127 -228.714)"/>
          <path id="Path_1211528" data-name="Path 1211528" d="M301.395,216.843a.835.835,0,0,0,.835-.835v-1.37h.069a.835.835,0,0,0,0-1.669h-.9a.835.835,0,0,0-.835.835v2.2A.834.834,0,0,0,301.395,216.843Z" transform="translate(-267.117 -189.498)"/>
          <path id="Path_1211529" data-name="Path 1211529" d="M188.231,214.638h.069v1.37a.835.835,0,0,0,1.669,0v-2.2a.835.835,0,0,0-.835-.835h-.9a.835.835,0,1,0,0,1.669Z" transform="translate(-166.545 -189.498)"/>
          <path id="Path_1211530" data-name="Path 1211530" d="M54.2,51.281V46.845a1.937,1.937,0,0,0-1.9-1.947c-1.29-.034-3.838-.062-6.81.106a6.282,6.282,0,0,0-1.312-2.94,3.656,3.656,0,0,0,.359-1.582v-1.22A3.694,3.694,0,0,0,43.6,36.8a3.668,3.668,0,0,0,.945-2.461v-1.22a3.694,3.694,0,0,0-.945-2.458,3.666,3.666,0,0,0,.945-2.461,8.005,8.005,0,0,0-.107-2.1,4.96,4.96,0,0,0,.888-2.815v-.025a4.878,4.878,0,0,0-1.791-3.777v-2.4a15.1,15.1,0,0,0-25.387-11A.835.835,0,0,0,19.286,7.3a13.428,13.428,0,0,1,22.579,9.78v1.983H35.753a6.441,6.441,0,0,1-6.434-6.434.835.835,0,1,0-1.669,0,6.441,6.441,0,0,1-6.434,6.434H15.038V17.079a13.353,13.353,0,0,1,1.942-6.946.835.835,0,1,0-1.426-.868,15.022,15.022,0,0,0-2.185,7.813v2.4a4.879,4.879,0,0,0-1.791,3.778v.025a4.928,4.928,0,0,0,1.092,3.079,6.054,6.054,0,0,0-.056,1.143c0,.363,0,.647.01.9l-1.443.387a1.8,1.8,0,0,0-1.269,2.2L11.3,36.176a3.064,3.064,0,0,0-2.056,2.89v4.962a3.032,3.032,0,0,0,.135.893c-2.051-.063-3.743-.041-4.717-.015a1.937,1.937,0,0,0-1.9,1.947v4.43a3.692,3.692,0,0,0,.927,7.266h42.13a.835.835,0,0,0,0-1.669h-16.5V52.832H53.277a2.023,2.023,0,0,1,0,4.046H49.717a.835.835,0,0,0,0,1.669h3.561a3.692,3.692,0,0,0,.927-7.266ZM33.611,47.04V46.1l3.854-4.735c1.861,0,3.524-.208,5.1,1.389a4.516,4.516,0,0,1,1.258,2.366A41.053,41.053,0,0,0,33.611,47.04Zm-4.292,2.407c0-6.759,0,2.642,0-4.118l4.351-6.356,2.208,1.693-3.749,4.606a.835.835,0,0,0-.187.527v1.932a10.966,10.966,0,0,0-2.623,1.715Zm-4.292-1.709V45.8a.835.835,0,0,0-.187-.527l-3.749-4.606L23.3,38.974,27.65,45.33c0,.372,0,3.751,0,4.124a10.99,10.99,0,0,0-2.623-1.715ZM17.266,36.006h-.552l-1.122-4.188a3.757,3.757,0,0,0,1.728-.077,12.775,12.775,0,0,0,.993,1.477c0,.1,0,.063,0,1.125a2.008,2.008,0,0,1-.885,1.668C17.374,36.007,17.32,36.006,17.266,36.006Zm-2.217-6.224a1.885,1.885,0,0,0-.719-1.143,4.818,4.818,0,0,1-.049-.982,4.984,4.984,0,0,0,1.642.474,12.643,12.643,0,0,0,.641,2.068,2.023,2.023,0,0,1-1.516-.417Zm4.882,5.161a12.635,12.635,0,0,0,2.725,1.847v.574l-2.33,1.786a3.06,3.06,0,0,0-1.167-2.486A3.664,3.664,0,0,0,19.931,34.943Zm8.544,3.206a12.712,12.712,0,0,0,4.156-.7l.013,0v.068l-4.16,6.077-4.16-6.076v-.033a13.234,13.234,0,0,0,4.15.664Zm13.737-.381a2.023,2.023,0,0,1,.663,1.493,10.526,10.526,0,0,1-.026,1.548,6.6,6.6,0,0,0-4-1.121v-.426a2.023,2.023,0,0,1,.663-1.493A3.694,3.694,0,0,0,42.212,37.769Zm.663-3.427a2.014,2.014,0,1,1-4.029,0,12.569,12.569,0,0,1,.027-1.554,12.833,12.833,0,0,0,.718-1.128,3.7,3.7,0,0,0,2.619-.031,2.023,2.023,0,0,1,.663,1.493Zm-1.082-4.357a2,2,0,0,1-1.473.158l0-.013a12.542,12.542,0,0,0,.609-1.962l.009-.036a4.967,4.967,0,0,0,1.932-.61A2.32,2.32,0,0,1,41.793,29.985ZM37.2,34.7a3.67,3.67,0,0,0,.928,2.105,3.694,3.694,0,0,0-.945,2.459v.3l-2.864-2.2v-.63A12.832,12.832,0,0,0,37.2,34.7Zm-16.869,9.33V42.372L23.358,46.1v.945A27.077,27.077,0,0,0,19.607,46,3.056,3.056,0,0,0,20.326,44.028Zm22.1-23.3a3.214,3.214,0,0,1,1.227,2.528v.025a3.2,3.2,0,0,1-2.454,3.1c.026-.331.039-.723.039-1,0-4.526,0-4.364-.008-4.653h1.2ZM28.485,16.209a8.112,8.112,0,0,0,7.268,4.523h3.809c.014.336.01.034.01,4.653a11.137,11.137,0,0,1-22.274,0c0-3.056-.008-4.074.01-4.653h3.909a8.113,8.113,0,0,0,7.268-4.523Zm-15.238,7.05a3.214,3.214,0,0,1,1.227-2.528h1.163c-.011.447-.011,1.14-.009,2.533,0,1.921-.015,2.408.04,3.121a3.189,3.189,0,0,1-2.421-3.1ZM11.613,30.4l1.625-.435a.127.127,0,0,1,.121.032.288.288,0,0,1,.044.1l1.583,5.91h-2l-1.46-5.447a.126.126,0,0,1,.089-.154Zm-.3,14.6a1.373,1.373,0,0,1-.4-.973V39.066a1.392,1.392,0,0,1,1.429-1.391c5.258,0,4.957-.009,5.141.02h.011a1.392,1.392,0,0,1,1.162,1.37v4.962a1.392,1.392,0,0,1-1.391,1.391c-2.3,0-2.1-.212-5.953-.418ZM4.434,46.852a.277.277,0,0,1,.272-.278c5.728-.149,18.543.245,22.284,4.59H4.434Zm-2.765,8a2.025,2.025,0,0,1,2.023-2.023H27.65v4.046H3.692a2.025,2.025,0,0,1-2.023-2.023Zm28.3-3.692c3.737-4.355,16.545-4.746,22.29-4.6a.277.277,0,0,1,.272.278v4.318Z" transform="translate(0 -2.03)"/>
        </g>
      </g>
    </g>
  </g>
</svg>
