<svg xmlns="http://www.w3.org/2000/svg" xmlns:xlink="http://www.w3.org/1999/xlink" width="108" height="108" viewBox="0 0 108 108">
  <defs>
    <filter id="Path_904820" x="0" y="0" width="108" height="108" filterUnits="userSpaceOnUse">
      <feOffset dy="3" input="SourceAlpha"/>
      <feGaussianBlur stdDeviation="3" result="blur"/>
      <feFlood flood-opacity="0.161"/>
      <feComposite operator="in" in2="blur"/>
      <feComposite in="SourceGraphic"/>
    </filter>
  </defs>
  <g id="Group_1226376" data-name="Group 1226376" transform="translate(-201 -2135.123)">
    <g id="Group_1225377" data-name="Group 1225377">
      <g id="Group_1224499" data-name="Group 1224499" transform="translate(210 2141.123)">
        <g id="Group_1203796" data-name="Group 1203796" transform="translate(0 0)">
          <g id="Group_1203172" data-name="Group 1203172">
            <g id="Group_1202793" data-name="Group 1202793">
              <g id="Group_1178315" data-name="Group 1178315" transform="translate(0 0)">
                <g id="Group_1173585" data-name="Group 1173585">
                  <g id="Group_1173428" data-name="Group 1173428">
                    <g id="Group_1171958" data-name="Group 1171958">
                      <g id="Group_1167341" data-name="Group 1167341">
                        <g id="Group_1166792" data-name="Group 1166792">
                          <g transform="matrix(1, 0, 0, 1, -9, -6)" filter="url(#Path_904820)">
                            <g id="Path_904820-2" data-name="Path 904820" transform="translate(9 6)" fill="#ebe9f0">
                              <path d="M 44.99999618530273 88.49999237060547 C 39.12687301635742 88.49999237060547 33.43022155761719 87.35006713867188 28.06829643249512 85.08216857910156 C 22.88852119445801 82.89130401611328 18.23629570007324 79.75457763671875 14.24084663391113 75.75914001464844 C 10.24540901184082 71.76369476318359 7.108683586120605 67.11146545410156 4.917821407318115 61.93169403076172 C 2.649921178817749 56.56976699829102 1.499996185302734 50.87311553955078 1.499996185302734 44.99999237060547 C 1.499996185302734 39.12686920166016 2.649921178817749 33.43021774291992 4.917821407318115 28.06829261779785 C 7.108683586120605 22.88851737976074 10.24540901184082 18.23630523681641 14.24084663391113 14.24085521697998 C 18.23629570007324 10.24540519714355 22.88852119445801 7.108692169189453 28.06829643249512 4.917829990386963 C 33.43022155761719 2.649929761886597 39.12687301635742 1.500004887580872 44.99999618530273 1.500004887580872 C 50.87311935424805 1.500004887580872 56.56977081298828 2.649929761886597 61.93169784545898 4.917829990386963 C 67.11147308349609 7.108692169189453 71.76369476318359 10.24540519714355 75.75914764404297 14.24085521697998 C 79.75458526611328 18.23630523681641 82.89131164550781 22.88851737976074 85.08216857910156 28.06829261779785 C 87.35007476806641 33.43021774291992 88.5 39.12686920166016 88.5 44.99999237060547 C 88.5 50.87311553955078 87.35007476806641 56.56976699829102 85.08216857910156 61.93169403076172 C 82.89131164550781 67.11146545410156 79.75458526611328 71.76369476318359 75.75914764404297 75.75914001464844 C 71.76369476318359 79.75457763671875 67.11147308349609 82.89130401611328 61.93169784545898 85.08216857910156 C 56.56977081298828 87.35006713867188 50.87311935424805 88.49999237060547 44.99999618530273 88.49999237060547 Z" stroke="none"/>
                              <path d="M 44.99999618530273 2.999992370605469 C 39.32870864868164 2.999992370605469 33.82865142822266 4.11004638671875 28.65262603759766 6.299331665039062 C 23.65165710449219 8.414566040039062 19.15968322753906 11.44333648681641 15.301513671875 15.30150604248047 C 11.44333648681641 19.15967559814453 8.414566040039062 23.65164947509766 6.299339294433594 28.65262222290039 C 4.110054016113281 33.82864761352539 2.999992370605469 39.32870483398438 2.999992370605469 44.99999237060547 C 2.999992370605469 50.67127990722656 4.110054016113281 56.17132186889648 6.299339294433594 61.34736633300781 C 8.414566040039062 66.34833526611328 11.44333648681641 70.84029388427734 15.301513671875 74.69846343994141 C 19.15968322753906 78.55663299560547 23.65165710449219 81.58540344238281 28.65262603759766 83.70063781738281 C 33.82865142822266 85.88992309570312 39.32870864868164 86.99997711181641 44.99999618530273 86.99997711181641 C 50.67128372192383 86.99997711181641 56.17134094238281 85.88992309570312 61.34736633300781 83.70063781738281 C 66.34834289550781 81.58540344238281 70.84030914306641 78.55663299560547 74.69847869873047 74.69846343994141 C 78.55665588378906 70.84029388427734 81.58542633056641 66.34833526611328 83.70065307617188 61.34736633300781 C 85.88993835449219 56.17132186889648 87 50.67127990722656 87 44.99999237060547 C 87 39.32870483398438 85.88993835449219 33.82864761352539 83.70065307617188 28.65262222290039 C 81.58542633056641 23.65164947509766 78.55665588378906 19.15967559814453 74.69847869873047 15.30150604248047 C 70.84030914306641 11.44333648681641 66.34834289550781 8.414566040039062 61.34736633300781 6.299331665039062 C 56.17134094238281 4.11004638671875 50.67128372192383 2.999992370605469 44.99999618530273 2.999992370605469 M 44.99999618530273 -7.62939453125e-06 C 69.85281372070312 -7.62939453125e-06 90 20.14717864990234 90 44.99999237060547 C 90 69.85279083251953 69.85281372070312 89.99997711181641 44.99999618530273 89.99997711181641 C 20.14717864990234 89.99997711181641 -7.62939453125e-06 69.85279083251953 -7.62939453125e-06 44.99999237060547 C -7.62939453125e-06 20.14717864990234 20.14717864990234 -7.62939453125e-06 44.99999618530273 -7.62939453125e-06 Z" stroke="none" fill="#c6c0d6"/>
                            </g>
                          </g>
                        </g>
                      </g>
                    </g>
                  </g>
                </g>
              </g>
            </g>
          </g>
        </g>
      </g>
      <g id="educacion_6_" data-name="educacion (6)" transform="translate(228.035 2154.7)">
        <g id="Group_1225376" data-name="Group 1225376" transform="translate(0.924 5.645)">
          <path id="Path_1212587" data-name="Path 1212587" d="M95.638,233.48a10.612,10.612,0,0,0-.063,7.859l.866,1.7H59.076s-6.956-3.909,0-10.865l37.042-.763Z" transform="translate(-51.011 -208.219)" fill="#f1f2f2"/>
          <path id="Path_1212588" data-name="Path 1212588" d="M96.443,243.034H59.079s-6.956-3.909,0-10.865L96.12,231.4l-.48,2.074a10.175,10.175,0,0,0-.528,1.685h-33.9a2.381,2.381,0,1,0,0,4.762H95.125a9.144,9.144,0,0,0,.452,1.411Z" transform="translate(-51.013 -208.218)" fill="#dee1e1"/>
          <path id="Path_1212589" data-name="Path 1212589" d="M79.647,233.846l-34.154-.054c-4.092,0-7.606-2.61-7.606-6.7a9.322,9.322,0,0,1,.139-2.89,7.412,7.412,0,0,1,6.951-4.838H80.015a1.671,1.671,0,0,1,0,3.342H53.5l-2.59.608-2.252-.608H44.977a4.066,4.066,0,1,0,0,8.133H80.015a1.672,1.672,0,0,1,1.66,1.868c-.1.83-1.172,1.141-2.028,1.141Z" transform="translate(-34.783 -197.443)" fill="#b7e546"/>
          <path id="Path_1212590" data-name="Path 1212590" d="M79.315,270.167a1.67,1.67,0,0,1-1.659,1.475l-17.31,1.037-17.728-1.037a7.412,7.412,0,0,1-6.777-10.407v1.523a7.409,7.409,0,0,0,7.409,7.409Z" transform="translate(-32.423 -234.906)" fill="#abd641"/>
          <path id="Path_1212591" data-name="Path 1212591" d="M146.47,255.964v-4.872H143l-1.233.124.074,4.537a.211.211,0,0,0,.287.2l.871-.213.975-.382a.21.21,0,0,1,.154,0l2.057.805A.211.211,0,0,0,146.47,255.964Z" transform="translate(-127.756 -225.831)" fill="#ef5227"/>
          <path id="Path_1212592" data-name="Path 1212592" d="M141.839,251.1v4.644l-1.082.423a.211.211,0,0,1-.288-.2V251.1Z" transform="translate(-126.597 -225.834)" fill="#d83724"/>
          <path id="Path_1212593" data-name="Path 1212593" d="M133.2,173.126V175.5l-.105,1.053a.737.737,0,0,1-.737.737l-28.073-.105a.737.737,0,0,1-.737-.737l-.211-3.323,14.411-.689Z" transform="translate(-93.375 -155.461)" fill="#fdcd08"/>
          <path id="Path_1212594" data-name="Path 1212594" d="M437.776,197.8c-.659,1.625-1.323,3.229-1.982,4.855a1.475,1.475,0,0,0,1.354,2.036l1.219.105h2.966a1.476,1.476,0,0,0,1.354-2.036l-1.375-3.39-.865-1.57h-2.672Z" transform="translate(-390.714 -178.151)" fill="#fdcd08"/>
          <path id="Path_1212595" data-name="Path 1212595" d="M437.947,197.608a4,4,0,0,0,2.475-.6l-.739-1.848-1.222.365h0l-1.593-.213c-.2.5-.494,1.2-.695,1.7h0L434.8,200.4a1.475,1.475,0,0,0,1.354,2.036h1.685a1.475,1.475,0,0,1-1.354-2.036l1.027-2.53A.426.426,0,0,1,437.947,197.608Z" transform="translate(-389.823 -175.792)" fill="#faab18"/>
          <path id="Path_1212596" data-name="Path 1212596" d="M452.163,160.285a2.454,2.454,0,0,0-1.642-2.322c-.248-.086-.608.067-.884.067a2.069,2.069,0,0,0-2.169,2.255,2.143,2.143,0,0,0,2.348,2.169c.277,0,.458.239.706.153A2.454,2.454,0,0,0,452.163,160.285Z" transform="translate(-401.258 -142.488)" fill="#fdcd08"/>
          <path id="Path_1212597" data-name="Path 1212597" d="M449.1,161.7a2.4,2.4,0,0,1-.79.133,2.455,2.455,0,0,1,0-4.91,2.4,2.4,0,0,1,.79.133,2.463,2.463,0,0,0,0,4.644Z" transform="translate(-399.834 -141.583)" fill="#faab18"/>
          <path id="Path_1212598" data-name="Path 1212598" d="M61.872,20.968l-6.948,2.405-1.9-.194L39.542,28.7a4.42,4.42,0,0,1-2.892,0l-13.486-5.3-1.9-.021L14.32,20.968a.884.884,0,0,1,0-1.671l22.593-7.821a3.614,3.614,0,0,1,2.365,0L61.872,19.3A.884.884,0,0,1,61.872,20.968Z" transform="translate(-13.203 -11.276)" fill="#868491"/>
          <path id="Path_1212599" data-name="Path 1212599" d="M118.991,82.637v.713l-15.382,5.325a4.42,4.42,0,0,1-2.892,0L85.336,83.35v-.713a3.1,3.1,0,0,1,2.553-3.053,80.9,80.9,0,0,1,28.549,0,3.1,3.1,0,0,1,2.553,3.053Z" transform="translate(-77.271 -71.254)" fill="#77777f"/>
          <path id="Path_1212600" data-name="Path 1212600" d="M134.989,98.741v6.281H105.441l-.105-6.07a1.205,1.205,0,0,1,.992-1.186c.3-.054.392-.317.693-.367A78.98,78.98,0,0,1,134,97.555a1.206,1.206,0,0,1,.992,1.186Z" transform="translate(-95.164 -87.358)" fill="#868491"/>
          <path id="Path_1212601" data-name="Path 1212601" d="M133.2,175.5v1.159a.737.737,0,0,1-.737.737H104.073a.737.737,0,0,1-.737-.737v-3.534l.948-.689.948.689v1.849a.527.527,0,0,0,.527.527Z" transform="translate(-93.375 -155.461)" fill="#faab18"/>
          <path id="Path_1212602" data-name="Path 1212602" d="M105.232,106.6v7.623h-1.9v-6.281a1.205,1.205,0,0,1,.992-1.186C104.63,106.707,104.931,106.655,105.232,106.6Z" transform="translate(-93.375 -96.564)" fill="#77777f"/>
          <path id="Path_1212603" data-name="Path 1212603" d="M78.211,389.62a9.911,9.911,0,0,1,0-7.586l.321-1.424H35.459s-4.849,5.271.315,10.435l43.038.323Z" transform="translate(-30.8 -341.707)" fill="#f1f2f2"/>
          <path id="Path_1212604" data-name="Path 1212604" d="M78.811,391.372l-43.037-.322c-5.165-5.163-.315-10.434-.315-10.434l43.279.08-.527,1.343a9.869,9.869,0,0,0-.471,1.437H38.209a2.381,2.381,0,1,0,0,4.762H77.753a9.994,9.994,0,0,0,.458,1.387Z" transform="translate(-30.8 -341.711)" fill="#dee1e1"/>
          <path id="Path_1212605" data-name="Path 1212605" d="M60.863,374.482l-38.942-.072c-4.092,0-7.692-2.309-7.692-6.4,0-1.3-.318-3.087.269-4.148a7.407,7.407,0,0,1,6.488-3.828H61.6a1.671,1.671,0,1,1,0,3.342H51.533l-2.629.582-2.213-.582H20.986a4.066,4.066,0,0,0,0,8.133H61.6a1.673,1.673,0,0,1,1.644,1.973c-.142.779-1.556,1-2.376,1Z" transform="translate(-13.577 -323.297)" fill="#ef5227"/>
          <path id="Path_1212606" data-name="Path 1212606" d="M58.43,402.6a1.673,1.673,0,0,1-1.644,1.369H16.177a7.41,7.41,0,0,1-6.251-11.389v2.61a7.409,7.409,0,0,0,7.409,7.409Z" transform="translate(-8.768 -352.42)" fill="#d83724"/>
          <path id="Path_1212607" data-name="Path 1212607" d="M329.113,396.66v-4.911h-3.262l-1.447.088.078,4.612a.211.211,0,0,0,.287.2l1.082-.3.764-.3a.21.21,0,0,1,.154,0l2.057.805A.211.211,0,0,0,329.113,396.66Z" transform="translate(-291.157 -351.672)" fill="#fdcd08"/>
          <path id="Path_1212608" data-name="Path 1212608" d="M324.72,391.745v4.6l-1.292.506a.211.211,0,0,1-.288-.2v-4.912Z" transform="translate(-290.026 -351.669)" fill="#faab18"/>
        </g>
        <path id="Path_1212609" data-name="Path 1212609" d="M53.764,29.612l-1.753-4.322a3.209,3.209,0,0,0-1.629-5.179c0-.208,0-5.414,0-5.634a1.639,1.639,0,0,0-1.116-1.568L27.055,5.22a4.361,4.361,0,0,0-2.842,0l-5.53,1.914A.79.79,0,1,0,19.2,8.627l5.53-1.914a2.774,2.774,0,0,1,1.808,0L48.749,14.4a.079.079,0,0,1,0,.15L41.1,17.2v-.237a1.973,1.973,0,0,0-1.626-1.943,78.16,78.16,0,0,0-27.685,0,1.973,1.973,0,0,0-1.626,1.943V17.2L2.52,14.551a.079.079,0,0,1,0-.15L15.652,9.855a.79.79,0,1,0-.517-1.493L2,12.908a1.659,1.659,0,0,0,0,3.136l8.163,2.826v7.819A8.2,8.2,0,0,0,6.429,41.659a8.2,8.2,0,0,0,1.77,16.2H48.807a2.461,2.461,0,0,0,.05-4.921,9.051,9.051,0,0,1-.019-6.555,2.461,2.461,0,0,0-.031-4.922H48.32a2.46,2.46,0,0,0-2.3-3.342H46a9.045,9.045,0,0,1-.149-6.137,2.219,2.219,0,0,0,1.631.716H51.7a2.222,2.222,0,0,0,1.845-.984,2.248,2.248,0,0,0,.218-2.1Zm-2.572-6.4a1.6,1.6,0,1,1-1.6-1.623A1.614,1.614,0,0,1,51.192,23.214ZM48.8,16.2v3.906a3.209,3.209,0,0,0-1.629,5.179l-.551,1.358H41.1V18.87Zm-36.732.369a76.6,76.6,0,0,1,27.127,0,.394.394,0,0,1,.325.388v5.384H34.655a.79.79,0,1,0,0,1.58h4.868v2.722H11.746V23.926H30.968a.79.79,0,0,0,0-1.58H11.746V16.961a.394.394,0,0,1,.325-.388ZM49.689,43.926a.882.882,0,0,1-.881.881H8.2a4.856,4.856,0,1,0,0,9.713H39.4a.79.79,0,0,0,0-1.58H8.2a3.276,3.276,0,1,1,0-6.553H33.114v4.428a.79.79,0,0,0,1.078.736l2.133-.835,2.133.835a.79.79,0,0,0,1.078-.736V46.387h7.626a10.6,10.6,0,0,0,.016,6.553h-4.1a.79.79,0,1,0,0,1.58h5.726a.881.881,0,1,1,0,1.762H8.2a6.619,6.619,0,1,1,0-13.237H48.808a.882.882,0,0,1,.881.881ZM34.694,46.387h3.262v3.271l-1.343-.526a.79.79,0,0,0-.576,0l-1.343.526ZM21.172,39.7h24.85a.881.881,0,0,1,0,1.762H10.984a6.619,6.619,0,0,1,0-13.237h35c-.2.524-.556,1.267-.677,1.762H10.984a4.856,4.856,0,1,0,0,9.713h6.5a.79.79,0,1,0,0-1.58h-6.5a3.276,3.276,0,1,1,0-6.553h2.888V35.96a.79.79,0,0,0,1.078.736l2.133-.835,2.133.835a.79.79,0,0,0,1.078-.736V31.57H44.323a10.6,10.6,0,0,0,0,6.553H21.172a.79.79,0,0,0,0,1.58Zm-5.72-8.133h3.262V34.8l-1.343-.526a.79.79,0,0,0-.576,0l-1.343.526Zm36.783-.736a.64.64,0,0,1-.534.287H47.483a.641.641,0,0,1-.534-.287.662.662,0,0,1-.065-.628L48.5,26.222a3.163,3.163,0,0,0,2.184,0L52.3,30.206A.662.662,0,0,1,52.236,30.834Z" transform="translate(0 0)"/>
      </g>
    </g>
  </g>
</svg>
